<?xml version="1.0" encoding="utf-8"?>
<!-- Generator: Adobe Illustrator 17.1.0, SVG Export Plug-In . SVG Version: 6.00 Build 0)  -->
<!DOCTYPE svg PUBLIC "-//W3C//DTD SVG 1.1//EN" "http://www.w3.org/Graphics/SVG/1.1/DTD/svg11.dtd">
<svg version="1.1" id="Layer_1" xmlns="http://www.w3.org/2000/svg" xmlns:xlink="http://www.w3.org/1999/xlink" x="0px" y="0px"
	 viewBox="0 0 80 80" enable-background="new 0 0 80 80" xml:space="preserve">
<g>
	<path fill="#D1D0C9" d="M35.5,24.9c0-0.1,0-0.1,0-0.2c0,0,0.1-0.1,0.1-0.1c0.2-0.2,0.3-0.3,0.4-0.6c0-0.1,0-0.3,0-0.4
		c0-0.2,0-0.3,0.1-0.3c0,0,0,0,0.1,0.1c0.1,0.1,0.2,0.3,0.7,0.3H37c0.1,0,0.3,0,0.3-0.1c0.1-0.1,0-0.2,0-0.3c0,0,0-0.1,0-0.1
		c0,0,0,0,0.1-0.1c0.3-0.1,0.4-0.1,0.5-0.1c0.1,0,0.1,0,0.2,0.1c0.2,0.2,0,0.5-0.1,0.6c-0.1,0.1-0.1,0.2-0.1,0.2
		c0,0.1-0.1,0.1-0.4,0.2c-0.2,0-0.3,0.1-0.3,0.2c0,0.1,0,0.2,0,0.3c0,0.1,0.1,0.2,0,0.3c-0.2,0.2-0.3,0.4-0.3,0.5c0,0,0,0.1,0,0.1
		s-0.1,0-0.1,0c0,0,0,0-0.1,0c0,0-0.2,0-0.2,0.1s-0.1,0.2,0,0.5c0.2,0.6,0.9,0.8,0.9,0.8c0,0,0.1,0,0.1,0c0,0,0-0.1,0-0.1
		c0-0.1-0.1-0.4,0-0.6c0-0.1,0.1-0.1,0.2-0.1c0,0,0.1,0,0.1,0c0,0,0.1,0,0.1,0c0,0,0.1-0.1,0-0.1c0-0.1,0-0.3,0.1-0.4
		c0,0,0.1,0,0.1,0c0.2,0,0.3,0,0.4-0.1c0.1-0.1,0.1-0.3,0.1-0.4c0.2,0,0.5-0.1,0.7-0.2l0,0c0.1,0,0.2-0.1,0.2-0.2
		c0.1-0.1,0.2-0.2,0.4-0.2c0.4,0,0.4-0.4,0.4-0.6c0-0.1,0-0.3,0-0.4c0.1-0.1,0.1-0.2,0.1-0.3c0-0.2,0.1-0.3,0.3-0.5
		c0.2-0.3,0.3-0.3,1-0.4c0.1,0,0.3,0,0.5-0.1c0.2,0,0.3,0,0.4,0c0.3,0,0.5,0.1,0.6,0.2c0.1,0.1,0.2,0.2,0.4,0.2
		c0.2,0,0.4,0.2,0.5,0.3c0.1,0.1,0.2,0.1,0.2,0.1c0,0,0.1,0,0.1,0c0-0.1,0-0.1,0-0.2c0-0.2,0-0.4,0.1-0.4c0.1,0.1,0.2,0.2,0.4,0.2
		c0.1,0,0.3,0,0.3-0.3c0-0.1,0.1-0.1,0.1-0.1c0.1,0,0.2,0,0.3,0.1c0.1,0,0.2,0.1,0.3,0.1c0,0,0.1,0,0.1,0c0.1,0,0.2,0,0.4,0
		c0.3,0,0.6-0.2,0.7-0.5c0.1-0.4,0.5-0.7,0.7-1c0.2-0.2,0.4-0.4,0.5-0.5c0,0,0.1,0.1,0.1,0.1c0.1,0.1,0.2,0.3,0.3,0.3
		c0.2,0,0.2-0.2,0.3-0.3c0-0.1,0.1-0.1,0.1-0.2c0,0,0,0,0.1,0.1c0.1,0.1,0.2,0.2,0.5,0.2c0.1,0,0.1,0,0.2,0c0.3-0.1,0.7,0,0.9,0.2
		c0.1,0,0.2,0.1,0.3,0.1c0.1,0,0.1,0,0.2,0.1c0.2,0.1,0.5,0.2,0.9,0.2c0.3,0,0.6,0.2,0.8,0.4c0.1,0.1,0.2,0.2,0.3,0.2
		c0.2,0.1,0.4,0.4,0.6,0.6c0.1,0.1,0.2,0.2,0.3,0.3c0.1,0.1,0.1,0.2,0.2,0.3c0.1,0.2,0.3,0.5,0.9,0.8c0.4,0.2,0.5,0.2,0.6,0.2
		c0.1,0,0.1,0,0.1-0.1c0.1-0.1,0-0.2,0-0.3c0,0,0-0.1,0-0.2c0.2-0.4,0.2-0.5,0.1-0.7c0-0.1-0.1-0.1-0.1-0.2c0-0.3,0.2-0.5,0.3-0.5
		c0.1,0,0.1-0.2,0.2-0.4c0-0.1,0-0.3,0.1-0.5c0-0.1,0-0.1,0-0.1c0,0,0.1,0,0.1,0.1c0.1,0.1,0.2,0.2,0.4,0.2c0.2,0,0.3,0.1,0.4,0.2
		c0,0.1,0.1,0.1,0.2,0.2c0.1,0.1,0.1,0.1,0.1,0.2c0.1,0.1,0.1,0.2,0.4,0.3c0.1,0,0.2,0,0.2,0c0,0.1,0.1,0.1,0.4,0.2
		c0.1,0,0.3,0.1,0.4,0.1c0.3,0,0.6-0.1,0.7-0.2c0.1,0,0.2,0,0.3,0c0.2,0,0.4,0,0.6-0.1c0.2,0,0.3-0.1,0.5-0.1c0.2,0,0.3,0,0.5-0.1
		c0.2,0,0.4-0.1,0.5,0c0.1,0.1,0.2,0.1,0.3,0.1c0.1,0,0.2,0,0.3-0.1c0,0,0,0,0,0c0,0,0.1,0.1,0.2,0.1c0.1,0,0.1,0,0.2,0
		c0.1,0,0.2,0,0.2,0c0.1,0.1,0.3,0.1,0.5,0.1c0.2,0,0.3-0.1,0.4,0c0.1,0.1,0.4,0.2,0.8,0.2c0.2,0,0.4,0,0.6,0c0.1,0,0.2,0,0.3,0
		c0.2,0,0.4,0.1,0.6,0.1c0.3,0.1,0.5,0.2,0.8,0.2c0.4,0,0.4-0.3,0.5-0.4c0-0.1,0-0.2,0.1-0.3c0.1-0.1,0.1-0.3,0.1-0.4
		c-0.1-0.2-0.3-0.2-0.5-0.2c-0.1,0-0.1,0-0.1,0c0,0,0-0.2,0-0.3c0-0.1,0-0.1,0-0.2c0-0.2,0-0.3-0.1-0.3c-0.1-0.1-0.2-0.1-0.3-0.1
		c0-0.2-0.2-0.4-0.9-0.4c-0.6,0-0.8,0.1-0.9,0.2c0,0-0.1,0-0.1,0.1c0,0,0-0.1,0-0.1c0-0.1-0.1-0.3-0.2-0.3c-0.1,0-0.2,0-0.3,0.2
		c-0.3,0.4,0,0.7,0.2,0.9c0.1,0.1,0.2,0.2,0.2,0.3c0,0,0,0.1,0,0.1c0,0-0.1,0.1-0.2,0.1c0,0-0.1,0-0.1,0c0,0-0.1-0.1-0.1-0.2
		c-0.1-0.2-0.1-0.3-0.2-0.3c-0.2,0-0.2,0.2-0.2,0.4c0,0.3-0.1,0.3-0.1,0.3c-0.1,0-0.4-0.3-0.5-0.4c-0.3-0.3-0.6-0.3-0.8-0.4
		c-0.1,0-0.2,0-0.2-0.1c0-0.1-0.1-0.1-0.1-0.2c-0.1-0.1-0.2-0.3-0.2-0.4c0,0,0,0,0.1,0c0.3-0.1,0.3-0.3,0.3-0.4
		c0-0.1-0.1-0.3-0.3-0.4c-0.1,0-0.2,0-0.3-0.1c-0.2,0-0.2,0-0.2-0.1c0-0.1-0.1-0.4-0.6-0.4c-0.1,0-0.1,0-0.2,0
		c-0.1,0-0.2,0.1-0.3,0.2c0,0-0.1,0.1-0.1,0.1c0,0,0,0,0,0c-0.2-0.1-0.2-0.4-0.1-0.5c0-0.1,0.3-0.2,0.5-0.2c0,0,0,0,0.1,0
		c0.2,0.1,0.4,0.2,0.6,0.2c0.1,0,0.3,0,0.3-0.3c0.1-0.2,0-0.5-0.1-0.6c-0.1-0.1-0.1-0.2-0.1-0.2c0.2-0.2,0.1-0.4,0-0.6
		c-0.1-0.1-0.1-0.3-0.2-0.5c-0.1-0.3,0-0.5,0.1-0.8c0.1-0.2,0.2-0.5,0.2-0.9c0-0.3,0-0.5-0.1-0.6c-0.1-0.1-0.2-0.1-0.3-0.1
		c-0.1,0-0.2,0-0.2,0c0-0.1-0.1-0.2-0.3-0.2c-0.1,0-0.2,0.1-0.3,0.3c-0.2,0.3-0.3,0.3-0.6,0.3c0,0-0.1,0-0.1,0c-0.1,0-0.2,0-0.3,0
		c-0.1,0-0.2,0-0.5,0c-0.3,0-0.5,0.1-0.7,0.3c-0.1,0.1-0.2,0.3-0.2,0.5c0,0.1,0,0.1-0.2,0.1c-0.1,0-0.2,0-0.3,0.1
		c0,0-0.2,0.1-0.3,0.1c-0.2,0-0.2-0.1-0.2-0.2c0-0.4-0.4-0.5-0.6-0.6c-0.1,0-0.1,0-0.2-0.1c0,0-0.1,0-0.2,0c-0.3,0-0.7,0.3-0.8,0.4
		c-0.1,0.1-0.4,0.2-0.7,0.2c-0.1,0-0.2,0-0.2,0c0-0.2-0.3-0.3-0.4-0.3c-0.2,0-0.3,0-0.3-0.1c-0.1-0.1-0.2-0.2-0.4-0.2
		c-0.1,0-0.2,0-0.3,0c-0.1,0-0.3,0.1-0.3,0c-0.2-0.1-0.4-0.3-0.4-0.4c0,0,0-0.1,0.1-0.1c0.1-0.1,0.2-0.2,0.2-0.4c0-0.1,0-0.3,0-0.4
		c0-0.2-0.1-0.4,0-0.5c0.1-0.1,0.1-0.4,0-0.6c0-0.1,0-0.2,0-0.2c0.1,0,0.1-0.1,0.2-0.3c0.1-0.1,0.2-0.3,0.3-0.5
		c0.2-0.2,0.2-0.4,0.1-0.4c-0.1-0.2-0.4-0.2-0.5-0.1c-0.1,0.1-0.4,0.1-1.7,0.1h-0.5c-0.4,0-0.7,0.2-1.1,0.4
		c-0.4,0.2-0.7,0.4-1.1,0.5c-0.8,0.2-0.9,0.2-1.4,0.1l-0.2,0c-0.1,0-0.3,0-0.6,0s-0.5,0-0.7,0c-0.2,0-0.4,0-0.6,0
		c-0.1,0-0.4,0-0.5,0c-0.3-0.1-1,0-1.6,0.1c-0.3,0.1-0.5,0.1-0.6,0.2c-0.1,0-0.1,0.1-0.2,0.1c0,0,0,0-0.1,0c0,0,0,0,0-0.1
		c0,0,0-0.2-0.2-0.2c-0.1,0-0.2,0-0.6,0.3c-0.4,0.2-0.7,0.5-1,0.8c-0.4,0.3-0.7,0.7-1,0.7l0,0c-0.6,0-0.8,0.1-1,0.3l-0.1,0.1
		c-0.2,0.1-0.3,0.3-0.4,0.4c-0.1,0.1-0.2,0.2-0.2,0.3c-0.2,0.1-0.3,0.2-0.5,0.1c-0.1,0-0.1,0-0.1-0.2c0-0.1,0-0.2,0-0.3
		c0-0.4,0-0.6-0.5-0.6c0,0-0.1,0-0.1,0c-0.1,0-0.2,0-0.3,0.1c-0.1,0.1,0,0.3,0,0.5c0,0.2,0.1,0.3,0.1,0.5c0,0.2,0,0.3,0,0.4
		c-0.1-0.2-0.3-0.3-0.5-0.3c-0.1,0-0.3,0-0.4,0.1c-0.1,0-0.2,0.1-0.3,0.2c-0.1,0.1-0.3,0.3-0.4,0.3c0,0,0,0,0,0
		c0-0.3-0.3-0.5-0.5-0.6c-0.1,0-0.2-0.1-0.2-0.1v-0.1c0-0.2-0.1-0.7-0.4-0.7h0c-0.1,0-0.3,0.1-0.6,0.2c-0.3,0.2-0.6,0.4-0.9,0.4
		c-0.2,0-0.5,0-0.7,0.1c-0.4,0.1-0.8,0.1-1,0c-0.1,0-0.2-0.1-0.3-0.1c-0.3-0.1-0.3-0.1-0.3-0.7c0-0.8-0.1-0.9-0.5-0.9c0,0,0,0-0.1,0
		c-0.3,0-0.6-0.1-0.7-0.6c-0.1-0.3-0.2-0.5-0.4-0.7c-0.1-0.1-0.2-0.3-0.3-0.5c-0.1-0.2-0.1-0.5-0.2-0.7c-0.1-0.3-0.1-0.6-0.4-0.6
		c-0.1,0-0.3,0-0.4,0c-0.1,0-0.1,0-0.2,0c-0.2,0-0.2,0-0.5-0.4c-0.3-0.4-0.7-0.5-1.1-0.6c-0.2-0.1-0.3-0.1-0.4-0.2
		c-0.1-0.1-0.3-0.1-0.5-0.1c-0.2,0-0.5,0-0.8-0.1C23.5,8.1,23.4,8,23.2,8c-0.2,0-0.3,0.1-0.4,0.1c0,0-0.1,0-0.1,0
		c-0.1,0-0.2,0-0.3,0.1c0,0-0.1,0-0.2,0.1c0,0,0-0.1,0.1-0.1c0.2-0.3,0.3-0.5,0.2-0.6c0,0-0.1-0.1-0.2-0.1c-0.1,0-0.3,0-0.5,0.1
		c-0.2,0.1-0.5,0.4-0.7,0.6c-0.2,0.3-0.5,0.6-0.7,0.6c-0.3,0-0.4,0.3-0.6,0.5c-0.1,0.2-0.2,0.3-0.3,0.5C19.5,10,19.5,10,19.5,10
		c0,0-0.1-0.2-0.1-0.3c0-0.1-0.1-0.2-0.1-0.3c-0.1-0.2,0-0.5,0.1-0.8c0-0.1,0.1-0.1,0.1-0.2c0-0.1,0-0.3,0-0.4c0-0.3,0-0.4,0.1-0.4
		c0.5-0.1,0.7-0.5,0.8-0.7c0-0.1,0.1-0.3,0.1-0.5c0-0.1,0-0.4,0.1-0.4c0,0,0.1,0,0.1,0C20.8,6,21,5.9,21,5.6c0-0.3,0.4-0.4,0.6-0.4
		c0.1,0,0.2-0.1,0.2-0.1c0.1-0.1,0-0.2-0.1-0.3c0-0.1-0.1-0.2-0.1-0.3c0.1-0.1,0.1-0.3,0.1-0.4c0.6,0,0.7,0,0.7-0.3
		c0-0.1,0-0.2,0.3-0.5C23.2,3,23.3,3,23.4,2.9c0.1,0,0.3-0.1,0.7-0.4c0.2-0.2,0.3-0.3,0.3-0.4c0-0.1-0.1-0.2-0.1-0.3
		c0,0-0.1,0-0.1-0.1c0,0,0,0,0.1-0.1c0.2-0.1,0.4-0.2,0.7-0.2c0.1,0,0.2,0,0.3,0c0.2,0,0.5,0,0.6,0c0.1,0,0.2,0,0.3,0
		c0.2,0,0.3,0,0.4-0.1c0.1-0.1,0.1-0.2,0.1-0.4c-0.1-0.3-0.3-0.5-0.7-0.7C25.8,0.1,24.9,0,24.2,0c-0.3,0-0.7,0-0.8,0
		c-0.1,0-0.2,0-0.3,0c-0.3,0-0.5,0-1.8,0.6c-1.5,0.6-2,1.4-2.3,1.8c0,0.1-0.1,0.2-0.2,0.2c-0.3,0.4-1.5,1-1.7,1.1
		c-0.1,0-0.3,0.2-0.6,0.5c-0.3,0.3-0.6,0.6-0.9,0.8c-0.5,0.2-0.5,0.4-0.7,0.6c0,0.1-0.1,0.2-0.1,0.3c-0.2,0.3-0.3,0.7-0.3,0.9
		c-0.7,0-1.7,0.2-1.7,0.3c0,0,0,0-0.1,0c-1.1,1.3-1.4,1.3-1.5,1.3c-0.1,0-0.2,0-0.5,0.2c-0.5,0.5-0.9,0.4-1.3,0.4
		c-0.1,0-0.1,0-0.2,0c-0.2,0-0.4,0-0.6,0.1C8.3,9.3,8,9.4,7.7,9.4c-0.1,0-0.2,0-0.3,0c-0.1,0-0.2,0-0.3,0c-0.6,0-1,0.3-1.3,0.4
		c-0.2,0.1-0.4,0.4-0.7,0.7c-0.2,0.3-0.5,0.6-0.8,0.8c-0.5,0.4-1.4,0.7-1.9,0.8c-0.3,0-0.7,0.2-1.1,0.4c-0.2,0.1-0.4,0.1-0.5,0.2
		c-0.6,0.2-0.9,0.6-0.8,1c0,0.1,0.1,0.2,0.3,0.2c0.2,0,0.5-0.2,0.5-0.2c0,0,0,0.1,0,0.1c0,0.1,0.1,0.4,0.4,0.4c0.1,0,0.2,0,0.2-0.1
		c0,0,0,0,0,0c0,0,0,0,0.2,0.1c0.1,0.1,0.1,0.1,0.2,0.2c0.2,0.2,0.5,0.4,0.5,0.8c0,0.5,0.1,0.7,0.3,1c0,0.1,0,0.1,0.1,0.2
		c0,0.3,0.1,0.5,0.7,0.5c0.4,0,0.9,0.2,1.5,0.4c0.5,0.2,1,0.3,1.6,0.5c0.6,0.1,1.3,0.4,1.9,0.6c0.9,0.3,1.8,0.6,2.4,0.7
		c1,0.1,4.1,1.7,4.5,2.1c0.2,0.2,0.6,0.2,0.9,0.3c0.2,0,0.5,0.1,0.6,0.2c0,0,0,0.1,0.1,0.1c0.1,0.2,0.3,0.4,0.5,0.4
		c0.1,0,0.3-0.1,0.4-0.3l0-0.1c0-0.1,0.1-0.2,0.1-0.2c0,0,0.1,0,0.1,0c0.1,0,0.3,0,0.5,0.1c0.3,0,0.4,0.1,0.4,0.1
		c0.1,0.2,0.2,0.2,0.6,0.2c0.4,0,0.4,0.1,0.5,0.2c0,0.1,0.1,0.2,0.5,0.1c0.3-0.1,0.7,0,1,0.1c0.1,0,0.3,0.1,0.5,0.1
		c0.3,0.1,0.3,0.2,0.4,0.4c0,0.1,0.1,0.3,0.3,0.4c0,0,0.1,0,0.1,0c0,0-0.1,0.1-0.1,0.2c0,0-0.1,0.1-0.1,0.1c0,0-0.1,0.1-0.1,0.1
		c-0.2,0.1-0.2,0.3,0,0.6c0.1,0.1,0.2,0.3,0.3,0.3c0.1,0,0.1,0,0.2-0.1c0.1,0,0.2-0.1,0.5-0.1c0,0,0.1,0,0.1,0c0,0,0,0,0,0
		c0,0.1-0.1,0.2,0,0.3c0.1,0.1,0.2,0.2,0.5,0.2c0.6,0,0.6,0.1,0.7,0.2c0,0.1,0.1,0.2,0.3,0.3c0.1,0,0.2,0.1,0.3,0.1
		c0.2,0.1,0.4,0.2,0.4,0.2c0,0,0,0.1,0,0.1c-0.3,0.4-0.2,0.7,0,1c0.1,0.1,0.1,0.1,0.2,0.2c0,0,0,0,0,0c0,0-0.1,0.1-0.2,0.2
		c-0.4,0.3-0.5,0.4-0.3,0.7c0,0.1,0.1,0.1,0.1,0.2c0.2,0.4-0.2,0.8-0.5,1C25,29.2,25,29.4,25,29.6c0,0.1,0,0.2,0,0.4
		c-0.1,0.2-0.1,0.3,0,0.4c0.1,0.1,0.2,0.1,0.4,0.2h0c0.3,0,0.4,0,0.6,0c0.1,0,0.2,0,0.3,0c0.2,0,0.5-0.2,0.6-0.4
		c0,0,0.1-0.1,0.1-0.1c0,0.1,0,0.2,0.1,0.3c0,0.2,0.1,0.3-0.1,0.6c0,0.1-0.1,0.2-0.1,0.3c-0.3,0.5-0.6,1.2-0.5,1.6
		c0,0.1,0.1,0.2,0.2,0.2c0.2,0.1,0.3,0.3,0.3,0.4c0,0.2,0.1,0.4,0.4,0.5c0.1,0,0.2,0,0.3,0c0.1,0,0.1,0,0.2,0c0.1,0,0.1,0,0.1-0.1
		c0.1-0.1,0-0.1,0-0.2c0,0,0-0.1,0-0.2c-0.1-0.2-0.2-0.6,0.7-1.4c0.7-0.6,0.9-1.1,1-1.5c0.1-0.2,0.1-0.4,0.3-0.6
		c0.5-0.5,1.1-1.8,1.6-2.9l0.2-0.3c0.4-0.8,0.7-0.9,1-1.1c0.1,0,0.2-0.1,0.3-0.2c0.3-0.3,0.3-0.8,0.3-1.2v-0.1c0-0.4,0-0.6,0.2-0.7
		c0,0,0.1,0.1,0.2,0.9c0,0.2,0.1,0.3,0.2,0.3c0,0,0,0,0,0s0,0-0.2,0.2c-0.1,0.1-0.2,0.2-0.2,0.3c0,0.1,0.1,0.1,0.2,0.2
		c0,0,0.1,0,0.1,0c0,0,0,0,0,0.1c-0.1,0.2-0.1,0.3,0,0.3c0,0,0.1,0.1,0.1,0.1c0.1,0,0.3-0.2,0.4-0.4c0.1-0.1,0.2-0.2,0.4-0.2
		c0.1,0,0.3-0.1,0.5-0.1C35.5,25.2,35.5,25.1,35.5,24.9z M27.7,34L27.7,34L27.7,34L27.7,34z"/>
	<path fill="#D1D0C9" d="M59.5,24.4c0,0-0.1-0.1-0.1-0.1c0,0,0,0-0.1-0.1c-0.1-0.1-0.1-0.1-0.2-0.1c-0.1,0-0.1,0-0.3,0.1l0,0
		c0,0,0,0,0,0c0,0-0.1-0.1-0.1-0.1c-0.1-0.1-0.3-0.3-0.6-0.3H58c-0.4,0-0.5-0.4-0.6-0.6c-0.1-0.2-0.3-0.6-0.6-0.6
		c-0.1,0-0.2,0-0.2,0.1c-0.2,0.3,0.1,0.6,0.3,0.9c0,0,0,0.1,0.1,0.1c0,0.1,0.1,0.3,0.4,0.4c0.3,0.2,0.5,0.4,0.6,0.5
		c0,0.4,0.5,0.5,0.8,0.5c0.1,0,0.2,0,0.3,0.1c0,0,0.1,0,0.1,0c0.1,0,0.2-0.1,0.4-0.3c0.1-0.2,0.2-0.3,0.1-0.4
		C59.7,24.5,59.6,24.5,59.5,24.4z"/>
	<path fill="#D1D0C9" d="M47.1,26.8C47,27,46.9,27.1,47,27.2c0.1,0.1,0.2,0.2,0.5,0.2c0,0,0.1,0,0.1,0c0.4,0,0.5-0.1,0.6-0.2
		c0,0,0.1-0.1,0.1-0.1c0.1,0,0.2,0,0.2-0.1c0.1-0.1,0.1-0.3,0.1-0.5v-0.1c0-0.3-0.1-0.4-0.1-0.5c0,0,0-0.1,0-0.1
		c0.1-0.2,0.1-0.5,0.1-0.7c0-0.2-0.3-0.3-0.8-0.3c-0.1,0-0.1,0-0.2,0.1c-0.1,0.1-0.1,0.5-0.1,0.7c-0.2,0.1-0.2,0.3-0.2,0.5v0
		c0,0.2,0,0.4-0.2,0.7C47.1,26.7,47.1,26.8,47.1,26.8z"/>
	<path fill="#D1D0C9" d="M78.8,62.1c-0.1-0.2-0.2-0.3-0.4-0.5C78.2,61.4,78,61.1,78,61c0-0.2,0-0.4-0.1-0.7c0-0.3-0.1-0.5-0.1-0.7
		c0-0.1,0-0.2,0-0.3c0-0.2,0-0.5-0.1-1c-0.1-0.3-0.1-0.5,0-0.8c0-0.3,0-0.7-0.2-1.1C77.3,55.8,77,54.5,77,54c0-0.4-0.2-2.2-0.5-3
		c-0.2-0.4-0.3-0.6-0.4-0.8c-0.1-0.2-0.2-0.2-0.2-0.3c0-0.3-0.2-0.7-0.5-0.9c-0.1,0-0.1-0.1-0.2-0.2c-0.1-0.1-0.2-0.3-0.4-0.3
		c-0.2,0-0.5-0.1-0.6-0.2c0,0,0,0-0.1-0.1C74.1,48.1,74,48,73.7,48c-0.1,0-0.1,0-0.2,0c-0.2,0.1-0.3,0.1-0.4,0.2
		c-0.1,0.1-0.2,0.2-0.5,0.2c-0.1,0-0.2,0.1-0.3,0.1c-0.1,0.1,0,0.2,0,0.2c0,0,0,0,0,0c0,0,0,0-0.2,0c-0.4,0-0.4,0.1-0.5,0.2
		c0,0,0,0-0.2,0.1c-0.3,0-0.5,0.1-0.6,0.2c-0.1,0.1-0.2,0.1-0.3,0.1c-0.1,0-0.1,0-0.2,0.1c0,0,0,0.1,0,0.1c0,0,0,0.1-0.1,0.1
		l-0.1,0.1c-0.3,0.1-0.6,0.3-0.6,0.5c0,0.1,0,0.2,0.2,0.3c0.1,0,0.1,0.1,0.1,0.1c0,0.1-0.1,0.2-0.3,0.3l-0.1,0
		c-0.3,0.1-0.5,0.1-0.4,0.5c0,0.2,0,0.2-0.1,0.4l-0.1,0.1c-0.1,0.2-0.2,0.2-0.2,0.3c0,0,0,0.1-0.1,0.3c-0.1,0.2-0.3,0.4-0.4,0.4
		c0,0,0,0,0,0c0-0.1-0.1-0.1-0.1-0.1c-0.1,0-0.2,0.1-0.3,0.4c-0.1,0.3-0.3,0.6-0.6,0.8c-0.2,0.1-0.3,0.3-0.4,0.4
		c0,0-0.1,0.1-0.1,0.1c0,0-0.1,0-0.2-0.2c-0.3-0.3-0.7-0.4-1.1-0.5c-0.2-0.1-0.4-0.1-0.6-0.2c-0.1-0.1-0.2-0.1-0.3-0.2
		C64,53.4,64,53.4,64,53.1c0-0.2-0.1-0.4-0.2-0.5c0,0-0.1-0.1-0.1-0.2c0,0,0,0,0,0c0.4-0.2,0.4-0.8,0.4-1.4v-0.1
		c0-0.4,0-0.6,0.2-0.7c0.1,0,0.1,0,0.2-0.1c0.1-0.1,0-0.2,0-0.3c0-0.1,0-0.2,0-0.2c0,0,0.1-0.1,0.2-0.1c0.2,0,0.4-0.1,0.6-0.1
		c0.4-0.1,0.7-0.2,0.9-0.1c0.1,0,0.2,0,0.3,0c0.1-0.1,0-0.1,0-0.2c0-0.1,0-0.2,0-0.2c0.1-0.1,0.2-0.1,0.4-0.1c0.2,0,0.5,0,0.5-0.3
		c0-0.3,0.1-0.8,0.1-1.4c0.1-0.1,0.2-0.4,0.2-0.8c0-0.5,0.2-0.6,0.3-0.7c0.1-0.1,0.1-0.1,0.2-0.2c0,0,0-0.1,0-0.1
		c0,0,0.1,0.1,0.1,0.1c0,0,0.1,0.1,0.1,0.1c0,0,0.1,0.1,0.2,0.1c0.2,0,0.3-0.1,0.4-0.3c0,0,0.1-0.1,0.1-0.1c0-0.1,0.1-0.1,0.2-0.2
		c0.2-0.1,0.5-0.3,0.3-0.7c-0.1-0.3,0-0.5,0.1-0.7c0-0.1,0.1-0.2,0.1-0.3c0.1-0.4,0.2-2,0.1-2.6c0.1-0.1,0.2-0.4,0.3-0.6l0-0.1
		c0.1-0.2,0.2-0.6,0-1c-0.1-0.2-0.1-0.5-0.1-0.8c0-0.2,0-0.4,0-0.6c0-0.1,0-0.4-0.3-0.4c0,0,0,0-0.1,0c0,0,0,0,0,0c0,0,0,0,0-0.1
		c-0.1-0.3-0.1-0.4-0.3-0.4c0,0-0.1,0-0.1-0.1c-0.1,0-0.1-0.1-0.2-0.1c-0.1-0.1-0.2-0.2-0.4-0.3c0,0,0,0,0,0c0-0.1,0.2-0.2,0-0.4
		c0-0.1,0-0.1,0-0.1c0.1-0.1,0.1-0.2,0-0.4l0,0c-0.1-0.4-0.2-0.5,0-0.6c0.1,0,0.3-0.1,0.4-0.1c0.1,0,0.2,0,0.2,0.1
		c0.1,0.2,0.3,0.2,0.4,0.2c0.1,0,0.2,0,0.3,0.1c0.2,0.1,0.3,0,0.4-0.1c0.1-0.2,0-0.5-0.1-0.6c0,0-0.1-0.1-0.1-0.1
		c-0.1-0.1-0.3-0.3-0.3-0.7c0-0.1,0-0.4-0.2-0.4c0,0-0.1,0-0.1,0c0,0,0,0,0,0l0,0c-0.1-0.1-0.1-0.2-0.2-0.3c0-0.1-0.1-0.3-0.2-0.4
		c0-0.1-0.1-0.1-0.1-0.1c0,0,0.1-0.1,0.2-0.1c0.2-0.1,0.2-0.3,0.2-0.5c-0.1-0.2-0.2-0.3-0.4-0.3c0,0,0-0.1-0.1-0.1
		c-0.1-0.1-0.2-0.3-0.5-0.4c-0.1,0-0.1,0-0.1-0.1c-0.1-0.2-0.2-0.3-0.6-0.3c-0.2,0-0.3,0-0.4,0c-0.3,0-0.4,0-0.6-0.1
		c0,0-0.1-0.1-0.2-0.2c-0.3-0.3-0.6-0.7-1.2-0.6c-0.1,0-0.1,0-0.2,0c-0.2,0-0.3-0.1-0.5-0.2c0,0-0.1-0.1-0.2-0.1s-0.1-0.1-0.2-0.3
		c-0.2-0.2-0.4-0.5-0.7-0.5c-0.1,0-0.1,0-0.2,0.1c0,0-0.1,0-0.1,0c0,0-0.1,0-0.2-0.1c-0.1,0-0.2-0.1-0.3-0.1c-0.1,0-0.1,0-0.2,0
		c-0.1,0.1-0.3,0.1-0.4,0.1c-0.1,0-0.2,0-0.2-0.2c-0.1-0.1-0.1-0.3-0.1-0.5c0-0.3,0-0.6-0.3-0.6c-0.2,0-0.2-0.1-0.3-0.2
		c-0.1-0.1-0.1-0.1-0.2-0.1c0,0,0,0,0-0.1c0-0.1,0-0.3-0.4-0.4c-0.3,0-0.5-0.1-0.6-0.2c-0.1,0-0.1-0.1-0.2-0.1
		c-0.1,0-0.6-0.1-0.8-0.1c-0.1,0-0.2,0-0.3,0c-0.1,0-0.1,0.1-0.2,0.1c-0.1,0.1-0.1,0.1-0.2,0c-0.1-0.1-0.1-0.1-0.2-0.2
		c-0.1-0.1-0.1-0.2-0.3-0.2c0,0,0,0,0,0c0-0.1,0-0.3-0.2-0.3c0,0-0.2-0.1-0.2-0.1c-0.2-0.1-0.3-0.2-0.5-0.2c0,0-0.1-0.1-0.1-0.2
		c-0.1-0.1-0.1-0.2-0.3-0.2c0,0-0.1,0-0.1,0c0,0,0,0-0.1-0.1c-0.1-0.1-0.2-0.1-0.3-0.1c0,0-0.1,0-0.1,0c0,0,0,0,0,0
		c0-0.1-0.1-0.4-0.4-0.4c-0.1,0-0.2,0-0.2,0c-0.1,0-0.1,0-0.2,0.1c-0.1,0.1-0.1,0.2-0.1,0.3c0,0,0,0.1,0,0.1c0,0,0,0.1,0,0.1l0,0
		c0,0,0,0-0.2,0c-0.1,0-0.1,0-0.2,0c-0.1,0-0.3,0-0.4,0c-0.1,0-0.2,0-0.2,0c-0.2-0.1-1-0.1-1.2-0.1c-0.1,0-0.1,0-0.1,0.1
		c0,0,0,0.1,0.1,0.1c0.1,0,0.5,0.3,0.6,0.5c0.1,0.2-0.1,0.4-0.4,0.6c-0.1,0.1-0.2,0.1-0.3,0.1c-0.2,0.1-0.5,0.2-0.6,0.4
		c-0.2,0.3-0.5,0.9-0.3,1.2c0,0.1,0,0.2,0.1,0.3c0.1,0.4,0.2,0.9,0.5,1.1c0.4,0.3,0.6,0.5,0.9,0.4c0.1,0,0.2,0,0.3,0
		c0.1,0,0.1,0,0.2,0v0c0,0.1,0,0.2-0.1,0.3c-0.1,0.1-0.2,0.1-0.3,0.1c-0.2,0-0.5,0-0.7,0.1c-0.3,0.1-0.7,0.1-1.1,0.1
		c-0.5,0-0.7,0.2-0.9,0.4c-0.2,0.2-0.4,0.4-0.8,0.5c-0.7,0.2-0.7,1.1-0.7,1.5c0,0.4,0.1,0.8,0.2,1l0,0.1c0,0.2,0,0.5,0,0.7
		c0,0.1,0,0.2,0,0.3c0,0.1,0,0.3,0,0.5c0,0.4,0,1.1-0.1,1.2c-0.2,0.2-0.3,0.6-0.3,0.9c0,0.2-0.3,0.5-0.6,0.7
		c-0.2,0.1-0.2,0.3-0.2,0.5c0,0.1,0,0.2,0,0.2c0,0,0,0-0.1,0h0c0,0-0.1,0-0.1,0c0-0.1,0.1-0.1,0.1-0.2c0,0,0-0.1,0-0.2
		c0-0.3,0-0.5,0.2-0.7c0.5-0.2,0.4-0.9,0.4-1.3v0c0-0.1,0-0.2,0.1-0.3c0.1-0.1,0.1-0.3,0.1-0.5c0-0.1-0.1-0.2-0.3-0.2
		c-0.2,0-0.4,0.2-0.4,0.5c0,0.1-0.1,0.3-0.2,0.5c-0.1,0.1-0.2,0.3-0.2,0.4c0,0.1,0.1,0.2,0.1,0.2s0.1,0.1-0.1,0.2
		c-0.2,0.3-0.2,0.6-0.3,0.9c0,0.1,0,0.3-0.1,0.3c0,0,0,0-0.1,0c-0.1,0-0.2-0.1-0.2-0.2c0-0.1,0-0.1-0.1-0.3
		c-0.1-0.2-0.2-0.5-0.1-0.6c0.2-0.3,0.3-0.6,0.2-0.9c0-0.1,0-0.1,0.1-0.2c0.1-0.1,0.2-0.3,0.2-0.5c0-0.2-0.1-0.3-0.1-0.4
		c-0.1-0.2-0.1-0.2,0-0.4c0.5-0.4,0.3-0.8,0.1-1c0,0-0.1-0.1-0.1-0.1c-0.1-0.1-0.2-0.2,0.1-0.5c0.4-0.3,0.7-0.6,0.6-0.8
		c0-0.2-0.3-0.2-0.3-0.2c-0.1,0-0.2,0-0.2,0c-0.2,0-0.2,0.1-0.3,0.2l0,0c-0.2,0.1-0.7,0.4-0.7,0.8c0,0.3-0.3,1-0.4,1
		c-0.3,0.1-0.7,0.5-0.7,1C45.4,36,45.3,36,45.1,36c-0.1,0-0.2-0.1-0.4-0.2c-0.1-0.1-0.2-0.2-0.4-0.2c0,0-0.1,0-0.1,0
		c-0.2,0-0.3,0.1-0.3,0.2c0,0.1-0.1,0.2-0.2,0.2c-0.2,0.1-0.2,0.2-0.2,0.3c0,0,0,0.1,0,0.1c0,0-0.1,0-0.3,0c-0.1,0-0.2-0.1-0.3-0.1
		c-0.2,0-0.3,0.1-0.3,0.1c-0.1,0.2,0,0.5,0.1,0.7c0.1,0.3,0,0.6-0.2,0.8c-0.1,0.1-0.1,0.4,0,0.6c0,0.1,0.1,0.2,0,0.3
		c0,0-0.1,0-0.1,0c-0.6,0-1.6,0.4-1.6,1.1c0,0.3,0.1,0.5,0.2,0.7c0.1,0.1,0.2,0.3,0.1,0.5c0,0.1,0,0.2,0,0.3c0,0.3,0,0.5-0.2,0.9
		c-0.1,0.3-0.1,0.6-0.1,0.8c0,0.3,0,0.6-0.1,0.8c-0.1,0.2-0.3,0.5-0.4,0.9c-0.2,0.4-0.5,0.9-0.7,1.4c-0.3,0.8-0.8,1.4-1,1.4
		c-0.2,0.1-0.4,0.4-0.4,0.9c0,0.2,0.1,0.3,0.2,0.4c0.1,0.1,0.3,0.3,0.4,0.8c0,0.3,0.1,0.6,0.1,0.9c0.1,0.5,0.2,0.9,0,1.2
		c-0.1,0.1-0.1,0.2-0.2,0.3c-0.3,0.5-0.6,1-0.7,1.3c-0.1,0.3,0,1.3,0.4,1.8c0.1,0.2,0.3,0.7,0.4,1.3c0.2,0.9,0.5,1.8,0.8,2.3
		c0.6,0.8,1.2,2.3,1.1,2.9c0,0.3,0,0.5,0.1,0.7c0.1,0.2,0.2,0.5,0.3,1.1c0.1,1.2-0.1,4-0.2,4.8c0,0.4-0.2,0.9-0.3,1.4
		c-0.1,0.6-0.3,1.1-0.3,1.5c0,0.4-0.2,0.6-0.4,0.9c-0.2,0.2-0.3,0.5-0.5,0.8c-0.2,0.4-0.4,0.6-0.6,0.7c-0.3,0.3-0.5,0.5-0.4,0.9
		c0,0.2,0,0.3-0.1,0.3c-0.2,0.1-0.4,0.3-0.5,1c-0.2,1.2-0.8,1.6-1.5,2c-0.6,0.3-1,0.6-1.1,0.9c0,0.1,0,0.2,0,0.2c0,0,0.1,0,0.1,0H55
		v0.7c0,0.1,0,0.1,0.1,0.1h0.6c0.1,0,0.1,0,0.1-0.1v0h3.7c0.1,0,0.1,0,0.1-0.1v-0.1h7c0.1,0,0.1,0,0.1-0.1l0-0.1h2c0,0,0.1,0,0.1,0
		c0,0,0-0.1,0-0.1c0-0.1-0.1-0.5-0.2-0.6c0,0,0.1-0.2,0.1-0.2c0.1-0.1,0.2-0.2,0.2-0.4c0.1-0.2,0.1-0.2,0.3-0.3
		c0.1-0.1,0.2-0.2,0.4-0.4c0.1-0.1,0.1-0.2,0.2-0.3c0.1-0.2,0.2-0.3,0.4-0.4c0.2-0.1,0.4-0.3,0.5-0.5c0.1-0.2,0.3-0.3,0.4-0.4
		c0.1,0,0.2-0.1,0.2-0.1c0-0.1-0.1-0.2-0.2-0.3c0,0-0.1-0.2-0.1-0.2c0,0,0,0,0.1,0c0.3-0.1,0.5-0.2,0.6-0.5c0.1-0.3,0.1-0.6,0.1-0.8
		c-0.1-0.3-0.1-0.8,0-1c0-0.1,0.1-0.2,0.1-0.4c0.1-0.2,0.2-0.7,0.3-0.7l0.1,0c0.3,0,1.1-0.1,1.3-0.5c0-0.1,0.1-0.2,0.2-0.4
		c0.2-0.3,0.4-0.5,0.4-0.9c-0.1-0.5-0.1-1.1,0.2-1.4c0,0,0.1,0,0.1,0c0,0,0.1,0,0.2,0c0.1,0,0.3,0.1,0.4,0c0.1-0.1,0.1-0.2,0.1-0.5
		c0-0.3-0.1-0.4-0.1-0.5c0.1,0,0.2-0.1,0.4-0.2l0.2-0.1c0.3-0.2,0.4-0.3,0.5-0.3c0,0,0,0,0.1,0.1c0.2,0.1,0.3,0.2,0.3,0.3
		c0,0,0,0-0.1,0.1c-0.3,0.1-0.5,0.4-0.5,0.6c0,0,0,0.1,0,0.1c0,0,0,0.1,0,0.1c0,0.1,0.1,0.1,0.1,0.2c0.1,0.1,0.2,0.2,0.2,0.2
		c-0.2,0.3-0.1,0.4-0.1,0.4c0,0,0.1,0.1,0.1,0.1c0.1,0,0.2,0,0.5-0.3c0.2-0.1,0.2-0.2,0.3-0.2c0,0,0,0,0.1,0c0,0,0.1,0.1,0.2,0.1
		c0.1,0,0.2-0.1,0.2-0.1c0.3-0.4,0.4-0.5,0.6-1.4c0.1-0.4,0.2-0.7,0.2-0.8c0.1-0.2,0.1-0.4,0.1-0.6c0-0.1,0-0.2,0-0.2
		c0-0.2-0.1-0.3,0-0.6c0.1-0.2,0-0.4,0-0.5c0-0.3,0-0.5,0.2-0.7C79,63.3,79.1,62.8,78.8,62.1z"/>
	<path fill="#D1D0C9" d="M42.1,34.7c-0.1,0.1-0.1,0.2-0.2,0.2c0,0,0,0.1-0.1,0.1c-0.1,0.1-0.1,0.2-0.1,0.2c0,0.2,0.4,0.2,0.4,0.2
		c0,0,0.1,0,0.1,0c0.3,0,0.4-0.3,0.4-0.4c0,0,0.1,0,0.1-0.1c0-0.1,0-0.2-0.1-0.3c0,0-0.1-0.1-0.1-0.1C42.6,34.6,42.3,34.6,42.1,34.7
		z"/>
	<path fill="#D1D0C9" d="M43.6,34.6L43.6,34.6C43.7,34.6,43.7,34.6,43.6,34.6c0.1,0,0.1-0.1,0.1-0.1c0.1-1.1,0-1.2,0-1.2
		c-0.1-0.1-0.2-0.2-0.6-0.3c0,0-0.1,0-0.1,0c-0.1,0-0.3,0-0.3,0.3c0,0.1,0,0.3,0,0.4C42.7,33.8,43.2,34.5,43.6,34.6z"/>
</g>
<path fill="#6F6F63" d="M69.7,37.1h-3.1v3.7H70c0,0,0.1-0.5,0.4-1.1s-0.4-1-0.2-1.5C70.5,37.5,69.7,37.1,69.7,37.1z"/>
</svg>
