<?xml version="1.0" encoding="utf-8"?>
<!-- Generator: Adobe Illustrator 17.1.0, SVG Export Plug-In . SVG Version: 6.00 Build 0)  -->
<!DOCTYPE svg PUBLIC "-//W3C//DTD SVG 1.1//EN" "http://www.w3.org/Graphics/SVG/1.1/DTD/svg11.dtd">
<svg version="1.1" id="Layer_1" xmlns="http://www.w3.org/2000/svg" xmlns:xlink="http://www.w3.org/1999/xlink" x="0px" y="0px"
	 viewBox="0 0 500 500" enable-background="new 0 0 500 500" xml:space="preserve">
<path fill="#6F6F63" d="M424.9,100c-3.8-4.4-7.8-8.7-12-12.9C369.4,43.6,311.5,19.6,250,19.6c-61.5,0-119.4,24-162.9,67.5
	c-4.2,4.2-8.2,8.5-12,12.9H424.9z"/>
<path fill="#6F6F63" d="M75.1,400c3.8,4.4,7.8,8.7,12,12.9c43.5,43.5,101.4,67.5,162.9,67.5c61.5,0,119.4-24,162.9-67.5
	c4.2-4.2,8.2-8.5,12-12.9H75.1z"/>
<g>
	<path fill="#393933" d="M250,500c-66.8,0-129.6-26-176.8-73.2C26,379.6,0,316.8,0,250c0-66.8,26-129.6,73.2-176.8
		C120.4,26,183.2,0,250,0c66.8,0,129.6,26,176.8,73.2C474,120.4,500,183.2,500,250c0,66.8-26,129.6-73.2,176.8S316.8,500,250,500z
		 M250,9.8c-64.2,0-124.5,25-169.8,70.4S9.8,185.8,9.8,250c0,64.2,25,124.5,70.4,169.8s105.7,70.4,169.8,70.4
		c64.2,0,124.5-25,169.8-70.4s70.4-105.7,70.4-169.8c0-64.2-25-124.5-70.4-169.8S314.2,9.8,250,9.8z"/>
</g>
<g>
	<g>
		<path fill="#393933" stroke="#393933" stroke-width="2" stroke-miterlimit="10" d="M213.8,40.8c0,0-0.8,7.2,4,12L234.6,36l-4-4
			l-4.8,4.8C225.8,36.8,218.6,44,213.8,40.8z"/>
		<path fill="#393933" stroke="#393933" stroke-width="2" stroke-miterlimit="10" d="M229.8,56.8c0,0-7.2,0.8-12-4L234.6,36l4,4
			l-4.8,4.8C233.8,44.8,226.6,52,229.8,56.8z"/>
		<path fill="#393933" stroke="#393933" stroke-width="2" stroke-miterlimit="10" d="M275.2,79.7c0.2,0.2,0.2,0.5,0,0.6l-2.6,2.6
			c-0.2,0.2-0.5,0.2-0.6,0l-46.6-46.6c-0.2-0.2-0.2-0.5,0-0.6l2.6-2.6c0.2-0.2,0.5-0.2,0.6,0L275.2,79.7z"/>
	</g>
	<g>
		<path fill="#393933" stroke="#393933" stroke-width="2" stroke-miterlimit="10" d="M286.5,40.8c0,0,0.8,7.2-4,12L265.6,36l4-4
			l4.8,4.8C274.4,36.8,281.6,44,286.5,40.8z"/>
		<path fill="#393933" stroke="#393933" stroke-width="2" stroke-miterlimit="10" d="M270.4,56.8c0,0,7.2,0.8,12-4L265.6,36l-4,4
			l4.8,4.8C266.4,44.8,273.6,52,270.4,56.8z"/>
		<path fill="#393933" stroke="#393933" stroke-width="2" stroke-miterlimit="10" d="M225.1,79.7c-0.2,0.2-0.2,0.5,0,0.6l2.6,2.6
			c0.2,0.2,0.5,0.2,0.6,0l46.6-46.6c0.2-0.2,0.2-0.5,0-0.6l-2.6-2.6c-0.2-0.2-0.5-0.2-0.6,0L225.1,79.7z"/>
	</g>
</g>
<g>
	<g>
		<path fill="#393933" d="M116.3,168.1c1.1,0,2,1,2.1,2.1l22.4,116.9c0.3,1.8-0.5,3.6-2.3,3.6h-26.5c-1,0-2-0.7-2.1-1.6l-3.3-24.5
			c-0.2-0.8-0.8-1.3-1.6-1.3h-8.8c-0.7,0-1.3,0.7-1.5,1.6l-3.1,24c-0.2,1.1-1.3,1.8-2.1,1.8h-27c-1.5,0-2.3-1.1-2-2.8l21.9-117.8
			c0.2-0.8,1-2,2-2H116.3z M101.9,229.7c-0.3-2.3-0.7-3.8-1.1-3.8c-0.5,0-0.8,1.1-1.1,3.8l-2.1,15.5c-0.2,0.8,0.2,1.6,1,1.6
			c5.2,0,5.7,0,5.6-1.5L101.9,229.7z"/>
		<path fill="#393933" d="M204.6,256.9c1.1,0,1.8,0.8,1.8,1.6v30.4c0,1-0.8,1.8-1.8,1.8h-58.5c-1,0-1.8-1-1.8-2.1V170.4
			c0-1,1-2.3,2.1-2.3H174c1,0,1.6,0.8,1.6,1.8v85.8c0,0.7,0.5,1.1,1,1.1H204.6z"/>
		<path fill="#393933" d="M249.2,231.7c0-1.8,1.8-2.3,2.8-2.3h33.2c1.1,0,2.1,1,2.1,2v18.8c0,0.7-0.2,1.3-0.7,1.3h-2.8
			c-1,0-1.1,0.8-1.1,2c0,15.9-9.5,37.8-34.7,37.8c-24,0-36.8-17-36.8-53.3v-19.1c0-30.4,10-51,37.4-51c6.4,0,34,0,34,45.8
			c0,1.1-0.5,2.1-1.6,2.1l-29.6,1.3c-1.1,0-2.3-1.1-2.3-2.8v-9.3c0-1.5-1.3-1.8-2.6-1.8c-1.5,0-2.6,1.1-2.6,3.8v44.9
			c0,5.1,1.6,7.2,3.8,7.2c1.8,0,3.6-1,3.6-4.9v-2.5c0-0.5-0.2-1-0.7-1h-0.8c-0.3,0-0.7-0.3-0.7-1V231.7z"/>
		<path fill="#393933" d="M291.4,170.2c0-1,1-2.1,2.1-2.1h58c1,0,1.6,0.8,1.6,1.8v29.4c0,1-0.8,1.6-1.8,1.6h-27.3
			c-0.7,0-1.1,0.5-1.1,1.1v9.2c0,0.7,0.7,1.1,1.1,1.1H337c0.7,0,1.1,0.5,1.1,1.1v29.7c0,0.8-0.7,1.5-1.3,1.5h-13.2
			c-0.7,0-1.1,0.5-1.1,1.3v9.6c0,0.7,0.5,1.1,1,1.1h28.3c1.1,0,1.8,0.8,1.8,1.6v30.4c0,1-0.8,1.8-1.8,1.8h-58.5c-1,0-1.8-1-1.8-2.1
			V170.2z"/>
		<path fill="#393933" d="M398.3,168.1c14.4,0,31.5,11.1,31.5,31.1c0,8.8-1.6,25-17.2,27.3v0.3c19.9,5.7,19.9,16.3,19.9,33
			c0,2,0.8,3.9,4.4,5.4c0.8,0.5,1.5,1.6,1.5,2.3c0,22.2-16.3,23.5-21.7,23.5c-11.8,0-19.6-8.2-19.6-23.5v-25.2
			c0-5.2-2.3-7.8-4.1-7.8c-1,0-1.1,0.8-1.1,2v52.3c0,1-0.8,2-2,2h-28c-1.1,0-2-0.8-2-2.1V170.1c0-1.1,0.8-2,1.8-2H398.3z
			 M391.9,218.9c0,1.1,0.3,1.5,1.1,1.5c3.9,0,3.9-4.6,3.9-12.1c0-3.8-2.3-5.9-3.8-5.9c-0.8,0-1.3,0.5-1.3,1.5V218.9z"/>
	</g>
	<g>
		<path fill="#6F6F63" d="M113.3,331.9v-6.3h-7.1v6.3H103v-15h3.2v5.9h7.1V317h3.2v15H113.3z"/>
		<path fill="#6F6F63" d="M118.7,324.5c0-4.5,3.3-7.8,7.8-7.8c4.5,0,7.8,3.2,7.8,7.8s-3.3,7.8-7.8,7.8
			C122,332.2,118.7,329,118.7,324.5z M131.1,324.5c0-2.8-1.8-4.9-4.6-4.9s-4.5,2.1-4.5,4.9c0,2.8,1.8,4.9,4.5,4.9
			S131.1,327.2,131.1,324.5z"/>
		<path fill="#6F6F63" d="M149.7,331.9v-10.5l-4.2,10.5H144l-4.2-10.5v10.5h-3.2v-15h4.5l3.6,9.1l3.6-9.1h4.5v15H149.7z"/>
		<path fill="#6F6F63" d="M155.8,331.9v-15h10.6v2.8H159v3.2h7.3v2.8H159v3.4h7.4v2.8H155.8z"/>
		<path fill="#6F6F63" d="M174,324.5c0-4.5,3.3-7.8,7.8-7.8c4.5,0,7.8,3.2,7.8,7.8s-3.3,7.8-7.8,7.8C177.3,332.2,174,329,174,324.5z
			 M186.4,324.5c0-2.8-1.8-4.9-4.6-4.9s-4.5,2.1-4.5,4.9c0,2.8,1.8,4.9,4.5,4.9S186.4,327.2,186.4,324.5z"/>
		<path fill="#6F6F63" d="M191.9,331.9v-15h10.6v2.8h-7.4v3.2h7.3v2.8h-7.3v6.2H191.9z"/>
		<path fill="#6F6F63" d="M210.5,331.9v-15h7c3.3,0,5,2.2,5,4.8c0,2.6-1.8,4.8-5,4.8h-3.8v5.3H210.5z M219.3,321.8
			c0-1.3-0.9-2-2.2-2h-3.4v4h3.4C218.3,323.8,219.3,323,219.3,321.8z"/>
		<path fill="#6F6F63" d="M224.5,331.9v-15h3.2v15H224.5z"/>
		<path fill="#6F6F63" d="M229.9,324.5c0-4.6,3.5-7.8,8-7.8c3.3,0,5.2,1.8,6.3,3.7l-2.7,1.3c-0.6-1.2-2-2.2-3.5-2.2
			c-2.7,0-4.7,2.1-4.7,4.9s2,4.9,4.7,4.9c1.6,0,2.9-0.9,3.5-2.2l2.7,1.3c-1.1,1.9-3,3.7-6.3,3.7
			C233.4,332.2,229.9,329.1,229.9,324.5z"/>
		<path fill="#6F6F63" d="M249.6,331.9v-12.2h-4.4V317h12v2.8h-4.4v12.2H249.6z"/>
		<path fill="#6F6F63" d="M259.2,326v-9h3.2v8.9c0,2.1,1.2,3.5,3.5,3.5c2.3,0,3.5-1.4,3.5-3.5V317h3.3v9c0,3.7-2.2,6.3-6.8,6.3
			S259.2,329.7,259.2,326z"/>
		<path fill="#6F6F63" d="M284.1,331.9l-2.9-5.3h-2.3v5.3h-3.2v-15h7c3.1,0,5,2,5,4.8c0,2.7-1.7,4.1-3.3,4.5l3.4,5.7H284.1z
			 M284.4,321.8c0-1.3-1-2-2.2-2h-3.3v4h3.3C283.5,323.8,284.4,323,284.4,321.8z"/>
		<path fill="#6F6F63" d="M290.1,331.9v-15h10.6v2.8h-7.4v3.2h7.3v2.8h-7.3v3.4h7.4v2.8H290.1z"/>
		<path fill="#6F6F63" d="M303.2,331.9v-15h5.9c4.7,0,8,3,8,7.5s-3.3,7.5-8,7.5H303.2z M313.8,324.5c0-2.7-1.6-4.7-4.7-4.7h-2.7v9.4
			h2.7C312.1,329.1,313.8,327,313.8,324.5z"/>
		<path fill="#6F6F63" d="M333.6,331.9l-2.9-5.3h-2.3v5.3h-3.2v-15h7c3.1,0,5,2,5,4.8c0,2.7-1.7,4.1-3.3,4.5l3.4,5.7H333.6z
			 M333.9,321.8c0-1.3-1-2-2.2-2h-3.3v4h3.3C332.9,323.8,333.9,323,333.9,321.8z"/>
		<path fill="#6F6F63" d="M338.8,324.5c0-4.5,3.3-7.8,7.8-7.8c4.5,0,7.8,3.2,7.8,7.8s-3.3,7.8-7.8,7.8
			C342.1,332.2,338.8,329,338.8,324.5z M351.2,324.5c0-2.8-1.8-4.9-4.6-4.9s-4.5,2.1-4.5,4.9c0,2.8,1.8,4.9,4.5,4.9
			S351.2,327.2,351.2,324.5z"/>
		<path fill="#6F6F63" d="M356,324.5c0-4.6,3.5-7.8,8-7.8c3.3,0,5.2,1.8,6.3,3.7l-2.7,1.3c-0.6-1.2-2-2.2-3.5-2.2
			c-2.7,0-4.7,2.1-4.7,4.9s2,4.9,4.7,4.9c1.6,0,2.9-0.9,3.5-2.2l2.7,1.3c-1.1,1.9-3,3.7-6.3,3.7C359.5,332.2,356,329.1,356,324.5z"
			/>
		<path fill="#6F6F63" d="M381.1,331.9l-4.5-6l-1.2,1.4v4.6h-3.2v-15h3.2v6.7l5.3-6.7h3.9l-6,7l6.4,8H381.1z"/>
		<path fill="#6F6F63" d="M385.5,329.8l1.7-2.4c1.1,1.1,2.7,2,4.8,2c1.8,0,2.6-0.8,2.6-1.7c0-2.7-8.6-0.8-8.6-6.5
			c0-2.5,2.2-4.6,5.7-4.6c2.4,0,4.4,0.7,5.8,2.1l-1.8,2.3c-1.2-1.1-2.8-1.6-4.4-1.6c-1.4,0-2.1,0.6-2.1,1.5c0,2.4,8.6,0.8,8.6,6.4
			c0,2.7-2,4.8-6,4.8C388.9,332.2,386.8,331.2,385.5,329.8z"/>
	</g>
</g>
<g>
	<text transform="matrix(1 0 0 1 178.5973 71.0001)" fill="#D1D0C9" font-family="'ProximaNova-Bold'" font-size="20.4443">18</text>
	<text transform="matrix(1 0 0 1 296.5836 71.0001)" fill="#D1D0C9" font-family="'ProximaNova-Bold'" font-size="20.4443">85</text>
</g>
<g>
	<text transform="matrix(1 0 0 1 200.5059 445.9516)" fill="#D1D0C9" font-family="'ProximaNova-Bold'" font-size="20.4443">MICHIGAN</text>
</g>
</svg>
