<?xml version="1.0" encoding="utf-8"?>
<!-- Generator: Adobe Illustrator 17.1.0, SVG Export Plug-In . SVG Version: 6.00 Build 0)  -->
<!DOCTYPE svg PUBLIC "-//W3C//DTD SVG 1.1//EN" "http://www.w3.org/Graphics/SVG/1.1/DTD/svg11.dtd">
<svg version="1.1" id="Layer_1" xmlns="http://www.w3.org/2000/svg" xmlns:xlink="http://www.w3.org/1999/xlink" x="0px" y="0px"
	 viewBox="0 0 80 80" enable-background="new 0 0 80 80" xml:space="preserve">
<g>
	<path fill="#D1D0C9" d="M36,24.9c0-0.1,0-0.1,0-0.2c0,0,0.1-0.1,0.1-0.1c0.2-0.2,0.3-0.3,0.4-0.6c0-0.1,0-0.3,0-0.4
		c0-0.2,0-0.3,0.1-0.3c0,0,0,0,0.1,0.1c0.1,0.1,0.2,0.3,0.7,0.3h0.1c0.1,0,0.3,0,0.3-0.1c0.1-0.1,0-0.2,0-0.3c0,0,0-0.1,0-0.1
		c0,0,0,0,0.1-0.1c0.3-0.1,0.4-0.1,0.5-0.1c0.1,0,0.1,0,0.2,0.1c0.2,0.2,0,0.5-0.1,0.6c-0.1,0.1-0.1,0.2-0.1,0.2
		c0,0.1-0.1,0.1-0.4,0.2c-0.2,0-0.3,0.1-0.3,0.2c0,0.1,0,0.2,0,0.3c0,0.1,0.1,0.2,0,0.3c-0.2,0.2-0.3,0.4-0.3,0.5c0,0,0,0.1,0,0.1
		s-0.1,0-0.1,0c0,0,0,0-0.1,0c0,0-0.2,0-0.2,0.1s-0.1,0.2,0,0.5c0.2,0.6,0.9,0.8,0.9,0.8c0,0,0.1,0,0.1,0c0,0,0-0.1,0-0.1
		c0-0.1-0.1-0.4,0-0.6c0-0.1,0.1-0.1,0.2-0.1c0,0,0.1,0,0.1,0c0,0,0.1,0,0.1,0c0,0,0.1-0.1,0-0.1c0-0.1,0-0.3,0.1-0.4
		c0,0,0.1,0,0.1,0c0.2,0,0.3,0,0.4-0.1c0.1-0.1,0.1-0.3,0.1-0.4c0.2,0,0.5-0.1,0.7-0.2l0,0c0.1,0,0.2-0.1,0.2-0.2
		c0.1-0.1,0.2-0.2,0.4-0.2c0.4,0,0.4-0.4,0.4-0.6c0-0.1,0-0.3,0-0.4c0.1-0.1,0.1-0.2,0.1-0.3c0-0.2,0.1-0.3,0.3-0.5
		c0.2-0.3,0.3-0.3,1-0.4c0.1,0,0.3,0,0.5-0.1c0.2,0,0.3,0,0.4,0c0.3,0,0.5,0.1,0.6,0.2c0.1,0.1,0.2,0.2,0.4,0.2
		c0.2,0,0.4,0.2,0.5,0.3c0.1,0.1,0.2,0.1,0.2,0.1c0,0,0.1,0,0.1,0c0-0.1,0-0.1,0-0.2c0-0.2,0-0.4,0.1-0.4c0.1,0.1,0.2,0.2,0.4,0.2
		c0.1,0,0.3,0,0.3-0.3c0-0.1,0.1-0.1,0.1-0.1c0.1,0,0.2,0,0.3,0.1c0.1,0,0.2,0.1,0.3,0.1c0,0,0.1,0,0.1,0c0.1,0,0.2,0,0.4,0
		c0.3,0,0.6-0.2,0.7-0.5c0.1-0.4,0.5-0.7,0.7-1c0.2-0.2,0.4-0.4,0.5-0.5c0,0,0.1,0.1,0.1,0.1c0.1,0.1,0.2,0.3,0.3,0.3
		c0.2,0,0.2-0.2,0.3-0.3c0-0.1,0.1-0.1,0.1-0.2c0,0,0,0,0.1,0.1c0.1,0.1,0.2,0.2,0.5,0.2c0.1,0,0.1,0,0.2,0c0.3-0.1,0.7,0,0.9,0.2
		c0.1,0,0.2,0.1,0.3,0.1c0.1,0,0.1,0,0.2,0.1c0.2,0.1,0.5,0.2,0.9,0.2c0.3,0,0.6,0.2,0.8,0.4c0.1,0.1,0.2,0.2,0.3,0.2
		c0.2,0.1,0.4,0.4,0.6,0.6c0.1,0.1,0.2,0.2,0.3,0.3c0.1,0.1,0.1,0.2,0.2,0.3c0.1,0.2,0.3,0.5,0.9,0.8c0.4,0.2,0.5,0.2,0.6,0.2
		c0.1,0,0.1,0,0.1-0.1c0.1-0.1,0-0.2,0-0.3c0,0,0-0.1,0-0.2c0.2-0.4,0.2-0.5,0.1-0.7c0-0.1-0.1-0.1-0.1-0.2c0-0.3,0.2-0.5,0.3-0.5
		c0.1,0,0.1-0.2,0.2-0.4c0-0.1,0-0.3,0.1-0.5c0-0.1,0-0.1,0-0.1c0,0,0.1,0,0.1,0.1c0.1,0.1,0.2,0.2,0.4,0.2c0.2,0,0.3,0.1,0.4,0.2
		c0,0.1,0.1,0.1,0.2,0.2c0.1,0.1,0.1,0.1,0.1,0.2c0.1,0.1,0.1,0.2,0.4,0.3c0.1,0,0.2,0,0.2,0c0,0.1,0.1,0.1,0.4,0.2
		c0.1,0,0.3,0.1,0.4,0.1c0.3,0,0.6-0.1,0.7-0.2c0.1,0,0.2,0,0.3,0c0.2,0,0.4,0,0.6-0.1c0.2,0,0.3-0.1,0.5-0.1c0.2,0,0.3,0,0.5-0.1
		c0.2,0,0.4-0.1,0.5,0c0.1,0.1,0.2,0.1,0.3,0.1c0.1,0,0.2,0,0.3-0.1c0,0,0,0,0,0c0,0,0.1,0.1,0.2,0.1c0.1,0,0.1,0,0.2,0
		c0.1,0,0.2,0,0.2,0c0.1,0.1,0.3,0.1,0.5,0.1c0.2,0,0.3-0.1,0.4,0c0.1,0.1,0.4,0.2,0.8,0.2c0.2,0,0.4,0,0.6,0c0.1,0,0.2,0,0.3,0
		c0.2,0,0.4,0.1,0.6,0.1c0.3,0.1,0.5,0.2,0.8,0.2c0.4,0,0.4-0.3,0.5-0.4c0-0.1,0-0.2,0.1-0.3c0.1-0.1,0.1-0.3,0.1-0.4
		c-0.1-0.2-0.3-0.2-0.5-0.2c-0.1,0-0.1,0-0.1,0c0,0,0-0.2,0-0.3c0-0.1,0-0.1,0-0.2c0-0.2,0-0.3-0.1-0.3c-0.1-0.1-0.2-0.1-0.3-0.1
		c0-0.2-0.2-0.4-0.9-0.4c-0.6,0-0.8,0.1-0.9,0.2c0,0-0.1,0-0.1,0.1c0,0,0-0.1,0-0.1c0-0.1-0.1-0.3-0.2-0.3c-0.1,0-0.2,0-0.3,0.2
		c-0.3,0.4,0,0.7,0.2,0.9c0.1,0.1,0.2,0.2,0.2,0.3c0,0,0,0.1,0,0.1c0,0-0.1,0.1-0.2,0.1c0,0-0.1,0-0.1,0c0,0-0.1-0.1-0.1-0.2
		c-0.1-0.2-0.1-0.3-0.2-0.3c-0.2,0-0.2,0.2-0.2,0.4c0,0.3-0.1,0.3-0.1,0.3c-0.1,0-0.4-0.3-0.5-0.4c-0.3-0.3-0.6-0.3-0.8-0.4
		c-0.1,0-0.2,0-0.2-0.1c0-0.1-0.1-0.1-0.1-0.2c-0.1-0.1-0.2-0.3-0.2-0.4c0,0,0,0,0.1,0c0.3-0.1,0.3-0.3,0.3-0.4
		c0-0.1-0.1-0.3-0.3-0.4c-0.1,0-0.2,0-0.3-0.1c-0.2,0-0.2,0-0.2-0.1c0-0.1-0.1-0.4-0.6-0.4c-0.1,0-0.1,0-0.2,0
		c-0.1,0-0.2,0.1-0.3,0.2c0,0-0.1,0.1-0.1,0.1c0,0,0,0,0,0c-0.2-0.1-0.2-0.4-0.1-0.5c0-0.1,0.3-0.2,0.5-0.2c0,0,0,0,0.1,0
		c0.2,0.1,0.4,0.2,0.6,0.2c0.1,0,0.3,0,0.3-0.3c0.1-0.2,0-0.5-0.1-0.6c-0.1-0.1-0.1-0.2-0.1-0.2c0.2-0.2,0.1-0.4,0-0.6
		c-0.1-0.1-0.1-0.3-0.2-0.5c-0.1-0.3,0-0.5,0.1-0.8c0.1-0.2,0.2-0.5,0.2-0.9c0-0.3,0-0.5-0.1-0.6c-0.1-0.1-0.2-0.1-0.3-0.1
		c-0.1,0-0.2,0-0.2,0c0-0.1-0.1-0.2-0.3-0.2c-0.1,0-0.2,0.1-0.3,0.3c-0.2,0.3-0.3,0.3-0.6,0.3c0,0-0.1,0-0.1,0c-0.1,0-0.2,0-0.3,0
		c-0.1,0-0.2,0-0.5,0c-0.3,0-0.5,0.1-0.7,0.3c-0.1,0.1-0.2,0.3-0.2,0.5c0,0.1,0,0.1-0.2,0.1c-0.1,0-0.2,0-0.3,0.1
		c0,0-0.2,0.1-0.3,0.1c-0.2,0-0.2-0.1-0.2-0.2c0-0.4-0.4-0.5-0.6-0.6c-0.1,0-0.1,0-0.2-0.1c0,0-0.1,0-0.2,0c-0.3,0-0.7,0.3-0.8,0.4
		c-0.1,0.1-0.4,0.2-0.7,0.2c-0.1,0-0.2,0-0.2,0c0-0.2-0.3-0.3-0.4-0.3c-0.2,0-0.3,0-0.3-0.1c-0.1-0.1-0.2-0.2-0.4-0.2
		c-0.1,0-0.2,0-0.3,0c-0.1,0-0.3,0.1-0.3,0c-0.2-0.1-0.4-0.3-0.4-0.4c0,0,0-0.1,0.1-0.1c0.1-0.1,0.2-0.2,0.2-0.4c0-0.1,0-0.3,0-0.4
		c0-0.2-0.1-0.4,0-0.5c0.1-0.1,0.1-0.4,0-0.6c0-0.1,0-0.2,0-0.2c0.1,0,0.1-0.1,0.2-0.3c0.1-0.1,0.2-0.3,0.3-0.5
		c0.2-0.2,0.2-0.4,0.1-0.4c-0.1-0.2-0.4-0.2-0.5-0.1c-0.1,0.1-0.4,0.1-1.7,0.1h-0.5c-0.4,0-0.7,0.2-1.1,0.4
		c-0.4,0.2-0.7,0.4-1.1,0.5c-0.8,0.2-0.9,0.2-1.4,0.1l-0.2,0c-0.1,0-0.3,0-0.6,0s-0.5,0-0.7,0c-0.2,0-0.4,0-0.6,0
		c-0.1,0-0.4,0-0.5,0c-0.3-0.1-1,0-1.6,0.1c-0.3,0.1-0.5,0.1-0.6,0.2c-0.1,0-0.1,0.1-0.2,0.1c0,0,0,0-0.1,0c0,0,0,0,0-0.1
		c0,0,0-0.2-0.2-0.2c-0.1,0-0.2,0-0.6,0.3c-0.4,0.2-0.7,0.5-1,0.8c-0.4,0.3-0.7,0.7-1,0.7l0,0c-0.6,0-0.8,0.1-1,0.3l-0.1,0.1
		c-0.2,0.1-0.3,0.3-0.4,0.4c-0.1,0.1-0.2,0.2-0.2,0.3c-0.2,0.1-0.3,0.2-0.5,0.1c-0.1,0-0.1,0-0.1-0.2c0-0.1,0-0.2,0-0.3
		c0-0.4,0-0.6-0.5-0.6c0,0-0.1,0-0.1,0c-0.1,0-0.2,0-0.3,0.1c-0.1,0.1,0,0.3,0,0.5c0,0.2,0.1,0.3,0.1,0.5c0,0.2,0,0.3,0,0.4
		c-0.1-0.2-0.3-0.3-0.5-0.3c-0.1,0-0.3,0-0.4,0.1c-0.1,0-0.2,0.1-0.3,0.2c-0.1,0.1-0.3,0.3-0.4,0.3c0,0,0,0,0,0
		c0-0.3-0.3-0.5-0.5-0.6c-0.1,0-0.2-0.1-0.2-0.1v-0.1c0-0.2-0.1-0.7-0.4-0.7h0c-0.1,0-0.3,0.1-0.6,0.2c-0.3,0.2-0.6,0.4-0.9,0.4
		c-0.2,0-0.5,0-0.7,0.1c-0.4,0.1-0.8,0.1-1,0c-0.1,0-0.2-0.1-0.3-0.1c-0.3-0.1-0.3-0.1-0.3-0.7c0-0.8-0.1-0.9-0.5-0.9c0,0,0,0-0.1,0
		c-0.3,0-0.6-0.1-0.7-0.6c-0.1-0.3-0.2-0.5-0.4-0.7c-0.1-0.1-0.2-0.3-0.3-0.5c-0.1-0.2-0.1-0.5-0.2-0.7c-0.1-0.3-0.1-0.6-0.4-0.6
		c-0.1,0-0.3,0-0.4,0c-0.1,0-0.1,0-0.2,0c-0.2,0-0.2,0-0.5-0.4c-0.3-0.4-0.7-0.5-1.1-0.6c-0.2-0.1-0.3-0.1-0.4-0.2
		c-0.1-0.1-0.3-0.1-0.5-0.1c-0.2,0-0.5,0-0.8-0.1C24,8.1,23.9,8,23.7,8c-0.2,0-0.3,0.1-0.4,0.1c0,0-0.1,0-0.1,0
		c-0.1,0-0.2,0-0.3,0.1c0,0-0.1,0-0.2,0.1c0,0,0-0.1,0.1-0.1c0.2-0.3,0.3-0.5,0.2-0.6c0,0-0.1-0.1-0.2-0.1c-0.1,0-0.3,0-0.5,0.1
		c-0.2,0.1-0.5,0.4-0.7,0.6c-0.2,0.3-0.5,0.6-0.7,0.6c-0.3,0-0.4,0.3-0.6,0.5c-0.1,0.2-0.2,0.3-0.3,0.5C20,10,20,10,20,10
		c0,0-0.1-0.2-0.1-0.3c0-0.1-0.1-0.2-0.1-0.3c-0.1-0.2,0-0.5,0.1-0.8C20,8.6,20,8.5,20,8.5c0-0.1,0-0.3,0-0.4c0-0.3,0-0.4,0.1-0.4
		c0.5-0.1,0.7-0.5,0.8-0.7c0-0.1,0.1-0.3,0.1-0.5c0-0.1,0-0.4,0.1-0.4c0,0,0.1,0,0.1,0c0.1,0,0.3-0.1,0.3-0.4c0-0.3,0.4-0.4,0.6-0.4
		c0.1,0,0.2-0.1,0.2-0.1c0.1-0.1,0-0.2-0.1-0.3c0-0.1-0.1-0.2-0.1-0.3c0.1-0.1,0.1-0.3,0.1-0.4c0.6,0,0.7,0,0.7-0.3
		c0-0.1,0-0.2,0.3-0.5C23.7,3,23.8,3,24,2.9c0.1,0,0.3-0.1,0.7-0.4C24.9,2.4,25,2.3,25,2.1c0-0.1-0.1-0.2-0.1-0.3c0,0-0.1,0-0.1-0.1
		c0,0,0,0,0.1-0.1c0.2-0.1,0.4-0.2,0.7-0.2c0.1,0,0.2,0,0.3,0c0.2,0,0.5,0,0.6,0c0.1,0,0.2,0,0.3,0c0.2,0,0.3,0,0.4-0.1
		c0.1-0.1,0.1-0.2,0.1-0.4c-0.1-0.3-0.3-0.5-0.7-0.7C26.3,0.1,25.4,0,24.8,0c-0.3,0-0.7,0-0.8,0c-0.1,0-0.2,0-0.3,0
		c-0.3,0-0.5,0-1.8,0.6c-1.5,0.6-2,1.4-2.3,1.8c0,0.1-0.1,0.2-0.2,0.2c-0.3,0.4-1.5,1-1.7,1.1c-0.1,0-0.3,0.2-0.6,0.5
		c-0.3,0.3-0.6,0.6-0.9,0.8c-0.5,0.2-0.5,0.4-0.7,0.6c0,0.1-0.1,0.2-0.1,0.3C15.1,6.3,15,6.7,15,6.9c-0.7,0-1.7,0.2-1.7,0.3
		c0,0,0,0-0.1,0c-1.1,1.3-1.4,1.3-1.5,1.3c-0.1,0-0.2,0-0.5,0.2c-0.5,0.5-0.9,0.4-1.3,0.4c-0.1,0-0.1,0-0.2,0c-0.2,0-0.4,0-0.6,0.1
		C8.8,9.3,8.5,9.4,8.3,9.4c-0.1,0-0.2,0-0.3,0c-0.1,0-0.2,0-0.3,0c-0.6,0-1,0.3-1.3,0.4c-0.2,0.1-0.4,0.4-0.7,0.7
		c-0.2,0.3-0.5,0.6-0.8,0.8C4.3,11.7,3.4,12,3,12.1c-0.3,0-0.7,0.2-1.1,0.4c-0.2,0.1-0.4,0.1-0.5,0.2c-0.6,0.2-0.9,0.6-0.8,1
		c0,0.1,0.1,0.2,0.3,0.2c0.2,0,0.5-0.2,0.5-0.2c0,0,0,0.1,0,0.1c0,0.1,0.1,0.4,0.4,0.4c0.1,0,0.2,0,0.2-0.1c0,0,0,0,0,0
		c0,0,0,0,0.2,0.1c0.1,0.1,0.1,0.1,0.2,0.2c0.2,0.2,0.5,0.4,0.5,0.8c0,0.5,0.1,0.7,0.3,1c0,0.1,0,0.1,0.1,0.2c0,0.3,0.1,0.5,0.7,0.5
		c0.4,0,0.9,0.2,1.5,0.4c0.5,0.2,1,0.3,1.6,0.5c0.6,0.1,1.3,0.4,1.9,0.6c0.9,0.3,1.8,0.6,2.4,0.7c1,0.1,4.1,1.7,4.5,2.1
		c0.2,0.2,0.6,0.2,0.9,0.3c0.2,0,0.5,0.1,0.6,0.2c0,0,0,0.1,0.1,0.1c0.1,0.2,0.3,0.4,0.5,0.4c0.1,0,0.3-0.1,0.4-0.3l0-0.1
		c0-0.1,0.1-0.2,0.1-0.2c0,0,0.1,0,0.1,0c0.1,0,0.3,0,0.5,0.1c0.3,0,0.4,0.1,0.4,0.1c0.1,0.2,0.2,0.2,0.6,0.2c0.4,0,0.4,0.1,0.5,0.2
		c0,0.1,0.1,0.2,0.5,0.1c0.3-0.1,0.7,0,1,0.1c0.1,0,0.3,0.1,0.5,0.1c0.3,0.1,0.3,0.2,0.4,0.4c0,0.1,0.1,0.3,0.3,0.4c0,0,0.1,0,0.1,0
		c0,0-0.1,0.1-0.1,0.2c0,0-0.1,0.1-0.1,0.1c0,0-0.1,0.1-0.1,0.1c-0.2,0.1-0.2,0.3,0,0.6c0.1,0.1,0.2,0.3,0.3,0.3
		c0.1,0,0.1,0,0.2-0.1c0.1,0,0.2-0.1,0.5-0.1c0,0,0.1,0,0.1,0c0,0,0,0,0,0c0,0.1-0.1,0.2,0,0.3c0.1,0.1,0.2,0.2,0.5,0.2
		c0.6,0,0.6,0.1,0.7,0.2c0,0.1,0.1,0.2,0.3,0.3c0.1,0,0.2,0.1,0.3,0.1c0.2,0.1,0.4,0.2,0.4,0.2c0,0,0,0.1,0,0.1
		c-0.3,0.4-0.2,0.7,0,1c0.1,0.1,0.1,0.1,0.2,0.2c0,0,0,0,0,0c0,0-0.1,0.1-0.2,0.2c-0.4,0.3-0.5,0.4-0.3,0.7c0,0.1,0.1,0.1,0.1,0.2
		c0.2,0.4-0.2,0.8-0.5,1c-0.2,0.2-0.2,0.3-0.2,0.5c0,0.1,0,0.2,0,0.4c-0.1,0.2-0.1,0.3,0,0.4c0.1,0.1,0.2,0.1,0.4,0.2h0
		c0.3,0,0.4,0,0.6,0c0.1,0,0.2,0,0.3,0c0.2,0,0.5-0.2,0.6-0.4c0,0,0.1-0.1,0.1-0.1c0,0.1,0,0.2,0.1,0.3c0,0.2,0.1,0.3-0.1,0.6
		c0,0.1-0.1,0.2-0.1,0.3c-0.3,0.5-0.6,1.2-0.5,1.6c0,0.1,0.1,0.2,0.2,0.2c0.2,0.1,0.3,0.3,0.3,0.4c0,0.2,0.1,0.4,0.4,0.5
		c0.1,0,0.2,0,0.3,0c0.1,0,0.1,0,0.2,0c0.1,0,0.1,0,0.1-0.1c0.1-0.1,0-0.1,0-0.2c0,0,0-0.1,0-0.2c-0.1-0.2-0.2-0.6,0.7-1.4
		c0.7-0.6,0.9-1.1,1-1.5c0.1-0.2,0.1-0.4,0.3-0.6c0.5-0.5,1.1-1.8,1.6-2.9l0.2-0.3c0.4-0.8,0.7-0.9,1-1.1c0.1,0,0.2-0.1,0.3-0.2
		c0.3-0.3,0.3-0.8,0.3-1.2v-0.1c0-0.4,0-0.6,0.2-0.7c0,0,0.1,0.1,0.2,0.9c0,0.2,0.1,0.3,0.2,0.3c0,0,0,0,0,0s0,0-0.2,0.2
		c-0.1,0.1-0.2,0.2-0.2,0.3c0,0.1,0.1,0.1,0.2,0.2c0,0,0.1,0,0.1,0c0,0,0,0,0,0.1c-0.1,0.2-0.1,0.3,0,0.3c0,0,0.1,0.1,0.1,0.1
		c0.1,0,0.3-0.2,0.4-0.4c0.1-0.1,0.2-0.2,0.4-0.2c0.1,0,0.3-0.1,0.5-0.1C36,25.2,36,25.1,36,24.9z M28.2,34L28.2,34L28.2,34L28.2,34
		z"/>
	<path fill="#D1D0C9" d="M60,24.4c0,0-0.1-0.1-0.1-0.1c0,0,0,0-0.1-0.1c-0.1-0.1-0.1-0.1-0.2-0.1s-0.1,0-0.3,0.1l0,0c0,0,0,0,0,0
		c0,0-0.1-0.1-0.1-0.1c-0.1-0.1-0.3-0.3-0.6-0.3h-0.1c-0.4,0-0.5-0.4-0.6-0.6c-0.1-0.2-0.3-0.6-0.6-0.6c-0.1,0-0.2,0-0.2,0.1
		c-0.2,0.3,0.1,0.6,0.3,0.9c0,0,0,0.1,0.1,0.1c0,0.1,0.1,0.3,0.4,0.4c0.3,0.2,0.5,0.4,0.6,0.5c0,0.4,0.5,0.5,0.8,0.5
		c0.1,0,0.2,0,0.3,0.1c0,0,0.1,0,0.1,0c0.1,0,0.2-0.1,0.4-0.3c0.1-0.2,0.2-0.3,0.1-0.4C60.2,24.5,60.1,24.5,60,24.4z"/>
	<path fill="#D1D0C9" d="M47.6,26.8c-0.1,0.1-0.2,0.3-0.1,0.4c0.1,0.1,0.2,0.2,0.5,0.2c0,0,0.1,0,0.1,0c0.4,0,0.5-0.1,0.6-0.2
		c0,0,0.1-0.1,0.1-0.1c0.1,0,0.2,0,0.2-0.1c0.1-0.1,0.1-0.3,0.1-0.5v-0.1c0-0.3-0.1-0.4-0.1-0.5c0,0,0-0.1,0-0.1
		c0.1-0.2,0.1-0.5,0.1-0.7c0-0.2-0.3-0.3-0.8-0.3c-0.1,0-0.1,0-0.2,0.1C48,24.9,48,25.3,48,25.4c-0.2,0.1-0.2,0.3-0.2,0.5v0
		c0,0.2,0,0.4-0.2,0.7C47.7,26.7,47.6,26.8,47.6,26.8z"/>
	<path fill="#D1D0C9" d="M79.3,62.1c-0.1-0.2-0.2-0.3-0.4-0.5c-0.2-0.2-0.4-0.5-0.4-0.7c0-0.2,0-0.4-0.1-0.7c0-0.3-0.1-0.5-0.1-0.7
		c0-0.1,0-0.2,0-0.3c0-0.2,0-0.5-0.1-1c-0.1-0.3-0.1-0.5,0-0.8c0-0.3,0-0.7-0.2-1.1c-0.3-0.6-0.5-1.8-0.5-2.4c0-0.4-0.2-2.2-0.5-3
		c-0.2-0.4-0.3-0.6-0.4-0.8c-0.1-0.2-0.2-0.2-0.2-0.3c0-0.3-0.2-0.7-0.5-0.9c-0.1,0-0.1-0.1-0.2-0.2c-0.1-0.1-0.2-0.3-0.4-0.3
		c-0.2,0-0.5-0.1-0.6-0.2c0,0,0,0-0.1-0.1c-0.1-0.1-0.2-0.2-0.4-0.2c-0.1,0-0.1,0-0.2,0c-0.2,0.1-0.3,0.1-0.4,0.2
		c-0.1,0.1-0.2,0.2-0.5,0.2c-0.1,0-0.2,0.1-0.3,0.1c-0.1,0.1,0,0.2,0,0.2c0,0,0,0,0,0c0,0,0,0-0.2,0c-0.4,0-0.4,0.1-0.5,0.2
		c0,0,0,0-0.2,0.1c-0.3,0-0.5,0.1-0.6,0.2c-0.1,0.1-0.2,0.1-0.3,0.1c-0.1,0-0.1,0-0.2,0.1c0,0,0,0.1,0,0.1c0,0,0,0.1-0.1,0.1
		l-0.1,0.1C70.3,50,70,50.2,70,50.4c0,0.1,0,0.2,0.2,0.3c0.1,0,0.1,0.1,0.1,0.1c0,0.1-0.1,0.2-0.3,0.3l-0.1,0
		c-0.3,0.1-0.5,0.1-0.4,0.5c0,0.2,0,0.2-0.1,0.4l-0.1,0.1c-0.1,0.2-0.2,0.2-0.2,0.3c0,0,0,0.1-0.1,0.3c-0.1,0.2-0.3,0.4-0.4,0.4
		c0,0,0,0,0,0c0-0.1-0.1-0.1-0.1-0.1c-0.1,0-0.2,0.1-0.3,0.4c-0.1,0.3-0.3,0.6-0.6,0.8c-0.2,0.1-0.3,0.3-0.4,0.4
		c0,0-0.1,0.1-0.1,0.1c0,0-0.1,0-0.2-0.2c-0.3-0.3-0.7-0.4-1.1-0.5c-0.2-0.1-0.4-0.1-0.6-0.2c-0.1-0.1-0.2-0.1-0.3-0.2
		c-0.2-0.1-0.2-0.1-0.2-0.3c0-0.2-0.1-0.4-0.2-0.5c0,0-0.1-0.1-0.1-0.2c0,0,0,0,0,0c0.4-0.2,0.4-0.8,0.4-1.4v-0.1
		c0-0.4,0-0.6,0.2-0.7c0.1,0,0.1,0,0.2-0.1c0.1-0.1,0-0.2,0-0.3c0-0.1,0-0.2,0-0.2c0,0,0.1-0.1,0.2-0.1c0.2,0,0.4-0.1,0.6-0.1
		c0.4-0.1,0.7-0.2,0.9-0.1c0.1,0,0.2,0,0.3,0c0.1-0.1,0-0.1,0-0.2c0-0.1,0-0.2,0-0.2c0.1-0.1,0.2-0.1,0.4-0.1c0.2,0,0.5,0,0.5-0.3
		c0-0.3,0.1-0.8,0.1-1.4c0.1-0.1,0.2-0.4,0.2-0.8c0-0.5,0.2-0.6,0.3-0.7c0.1-0.1,0.1-0.1,0.2-0.2c0,0,0-0.1,0-0.1
		c0,0,0.1,0.1,0.1,0.1c0,0,0.1,0.1,0.1,0.1c0,0,0.1,0.1,0.2,0.1c0.2,0,0.3-0.1,0.4-0.3c0,0,0.1-0.1,0.1-0.1c0-0.1,0.1-0.1,0.2-0.2
		c0.2-0.1,0.5-0.3,0.3-0.7c-0.1-0.3,0-0.5,0.1-0.7c0-0.1,0.1-0.2,0.1-0.3c0.1-0.4,0.2-2,0.1-2.6c0.1-0.1,0.2-0.4,0.3-0.6l0-0.1
		c0.1-0.2,0.2-0.6,0-1c-0.1-0.2-0.1-0.5-0.1-0.8c0-0.2,0-0.4,0-0.6c0-0.1,0-0.4-0.3-0.4c0,0,0,0-0.1,0c0,0,0,0,0,0c0,0,0,0,0-0.1
		c-0.1-0.3-0.1-0.4-0.3-0.4c0,0-0.1,0-0.1-0.1c-0.1,0-0.1-0.1-0.2-0.1c-0.1-0.1-0.2-0.2-0.4-0.3c0,0,0,0,0,0c0-0.1,0.2-0.2,0-0.4
		c0-0.1,0-0.1,0-0.1c0.1-0.1,0.1-0.2,0-0.4l0,0c-0.1-0.4-0.2-0.5,0-0.6s0.3-0.1,0.4-0.1c0.1,0,0.2,0,0.2,0.1
		c0.1,0.2,0.3,0.2,0.4,0.2c0.1,0,0.2,0,0.3,0.1c0.2,0.1,0.3,0,0.4-0.1c0.1-0.2,0-0.5-0.1-0.6c0,0-0.1-0.1-0.1-0.1
		c-0.1-0.1-0.3-0.3-0.3-0.7c0-0.1,0-0.4-0.2-0.4c0,0-0.1,0-0.1,0c0,0,0,0,0,0l0,0C70,33,70,32.9,69.9,32.7c0-0.1-0.1-0.3-0.2-0.4
		c0-0.1-0.1-0.1-0.1-0.1c0,0,0.1-0.1,0.2-0.1c0.2-0.1,0.2-0.3,0.2-0.5c-0.1-0.2-0.2-0.3-0.4-0.3c0,0,0-0.1-0.1-0.1
		c-0.1-0.1-0.2-0.3-0.5-0.4c-0.1,0-0.1,0-0.1-0.1c-0.1-0.2-0.2-0.3-0.6-0.3c-0.2,0-0.3,0-0.4,0c-0.3,0-0.4,0-0.6-0.1
		c0,0-0.1-0.1-0.2-0.2c-0.3-0.3-0.6-0.7-1.2-0.6c-0.1,0-0.1,0-0.2,0c-0.2,0-0.3-0.1-0.5-0.2c0,0-0.1-0.1-0.2-0.1s-0.1-0.1-0.2-0.3
		c-0.2-0.2-0.4-0.5-0.7-0.5c-0.1,0-0.1,0-0.2,0.1c0,0-0.1,0-0.1,0c0,0-0.1,0-0.2-0.1c-0.1,0-0.2-0.1-0.3-0.1c-0.1,0-0.1,0-0.2,0
		c-0.1,0.1-0.3,0.1-0.4,0.1c-0.1,0-0.2,0-0.2-0.2c-0.1-0.1-0.1-0.3-0.1-0.5c0-0.3,0-0.6-0.3-0.6c-0.2,0-0.2-0.1-0.3-0.2
		c-0.1-0.1-0.1-0.1-0.2-0.1c0,0,0,0,0-0.1c0-0.1,0-0.3-0.4-0.4c-0.3,0-0.5-0.1-0.6-0.2c-0.1,0-0.1-0.1-0.2-0.1
		c-0.1,0-0.6-0.1-0.8-0.1c-0.1,0-0.2,0-0.3,0c-0.1,0-0.1,0.1-0.2,0.1c-0.1,0.1-0.1,0.1-0.2,0C59,26,58.9,26,58.9,25.9
		c-0.1-0.1-0.1-0.2-0.3-0.2c0,0,0,0,0,0c0-0.1,0-0.3-0.2-0.3c0,0-0.2-0.1-0.2-0.1c-0.2-0.1-0.3-0.2-0.5-0.2c0,0-0.1-0.1-0.1-0.2
		c-0.1-0.1-0.1-0.2-0.3-0.2c0,0-0.1,0-0.1,0c0,0,0,0-0.1-0.1c-0.1-0.1-0.2-0.1-0.3-0.1c0,0-0.1,0-0.1,0c0,0,0,0,0,0
		c0-0.1-0.1-0.4-0.4-0.4c-0.1,0-0.2,0-0.2,0c-0.1,0-0.1,0-0.2,0.1c-0.1,0.1-0.1,0.2-0.1,0.3c0,0,0,0.1,0,0.1c0,0,0,0.1,0,0.1l0,0
		c0,0,0,0-0.2,0c-0.1,0-0.1,0-0.2,0c-0.1,0-0.3,0-0.4,0c-0.1,0-0.2,0-0.2,0c-0.2-0.1-1-0.1-1.2-0.1c-0.1,0-0.1,0-0.1,0.1
		c0,0,0,0.1,0.1,0.1c0.1,0,0.5,0.3,0.6,0.5c0.1,0.2-0.1,0.4-0.4,0.6c-0.1,0.1-0.2,0.1-0.3,0.1c-0.2,0.1-0.5,0.2-0.6,0.4
		c-0.2,0.3-0.5,0.9-0.3,1.2c0,0.1,0,0.2,0.1,0.3c0.1,0.4,0.2,0.9,0.5,1.1c0.4,0.3,0.6,0.5,0.9,0.4c0.1,0,0.2,0,0.3,0
		c0.1,0,0.1,0,0.2,0v0c0,0.1,0,0.2-0.1,0.3c-0.1,0.1-0.2,0.1-0.3,0.1c-0.2,0-0.5,0-0.7,0.1c-0.3,0.1-0.7,0.1-1.1,0.1
		c-0.5,0-0.7,0.2-0.9,0.4c-0.2,0.2-0.4,0.4-0.8,0.5c-0.7,0.2-0.7,1.1-0.7,1.5c0,0.4,0.1,0.8,0.2,1l0,0.1c0,0.2,0,0.5,0,0.7
		c0,0.1,0,0.2,0,0.3c0,0.1,0,0.3,0,0.5c0,0.4,0,1.1-0.1,1.2c-0.2,0.2-0.3,0.6-0.3,0.9c0,0.2-0.3,0.5-0.6,0.7
		c-0.2,0.1-0.2,0.3-0.2,0.5c0,0.1,0,0.2,0,0.2c0,0,0,0-0.1,0h0c0,0-0.1,0-0.1,0c0-0.1,0.1-0.1,0.1-0.2c0,0,0-0.1,0-0.2
		c0-0.3,0-0.5,0.2-0.7c0.5-0.2,0.4-0.9,0.4-1.3v0c0-0.1,0-0.2,0.1-0.3c0.1-0.1,0.1-0.3,0.1-0.5c0-0.1-0.1-0.2-0.3-0.2
		c-0.2,0-0.4,0.2-0.4,0.5c0,0.1-0.1,0.3-0.2,0.5c-0.1,0.1-0.2,0.3-0.2,0.4c0,0.1,0.1,0.2,0.1,0.2s0.1,0.1-0.1,0.2
		c-0.2,0.3-0.2,0.6-0.3,0.9c0,0.1,0,0.3-0.1,0.3c0,0,0,0-0.1,0c-0.1,0-0.2-0.1-0.2-0.2c0-0.1,0-0.1-0.1-0.3
		c-0.1-0.2-0.2-0.5-0.1-0.6c0.2-0.3,0.3-0.6,0.2-0.9c0-0.1,0-0.1,0.1-0.2c0.1-0.1,0.2-0.3,0.2-0.5c0-0.2-0.1-0.3-0.1-0.4
		c-0.1-0.2-0.1-0.2,0-0.4c0.5-0.4,0.3-0.8,0.1-1c0,0-0.1-0.1-0.1-0.1c-0.1-0.1-0.2-0.2,0.1-0.5c0.4-0.3,0.7-0.6,0.6-0.8
		c0-0.2-0.3-0.2-0.3-0.2c-0.1,0-0.2,0-0.2,0c-0.2,0-0.2,0.1-0.3,0.2l0,0c-0.2,0.1-0.7,0.4-0.7,0.8c0,0.3-0.3,1-0.4,1
		c-0.3,0.1-0.7,0.5-0.7,1C45.9,36,45.8,36,45.6,36c-0.1,0-0.2-0.1-0.4-0.2s-0.2-0.2-0.4-0.2c0,0-0.1,0-0.1,0c-0.2,0-0.3,0.1-0.3,0.2
		c0,0.1-0.1,0.2-0.2,0.2C44,36.2,44,36.3,44,36.4c0,0,0,0.1,0,0.1c0,0-0.1,0-0.3,0c-0.1,0-0.2-0.1-0.3-0.1c-0.2,0-0.3,0.1-0.3,0.1
		c-0.1,0.2,0,0.5,0.1,0.7c0.1,0.3,0,0.6-0.2,0.8c-0.1,0.1-0.1,0.4,0,0.6c0,0.1,0.1,0.2,0,0.3c0,0-0.1,0-0.1,0
		c-0.6,0-1.6,0.4-1.6,1.1c0,0.3,0.1,0.5,0.2,0.7c0.1,0.1,0.2,0.3,0.1,0.5c0,0.1,0,0.2,0,0.3c0,0.3,0,0.5-0.2,0.9
		c-0.1,0.3-0.1,0.6-0.1,0.8c0,0.3,0,0.6-0.1,0.8c-0.1,0.2-0.3,0.5-0.4,0.9c-0.2,0.4-0.5,0.9-0.7,1.4c-0.3,0.8-0.8,1.4-1,1.4
		c-0.2,0.1-0.4,0.4-0.4,0.9c0,0.2,0.1,0.3,0.2,0.4c0.1,0.1,0.3,0.3,0.4,0.8c0,0.3,0.1,0.6,0.1,0.9c0.1,0.5,0.2,0.9,0,1.2
		c-0.1,0.1-0.1,0.2-0.2,0.3c-0.3,0.5-0.6,1-0.7,1.3c-0.1,0.3,0,1.3,0.4,1.8c0.1,0.2,0.3,0.7,0.4,1.3c0.2,0.9,0.5,1.8,0.8,2.3
		c0.6,0.8,1.2,2.3,1.1,2.9c0,0.3,0,0.5,0.1,0.7c0.1,0.2,0.2,0.5,0.3,1.1c0.1,1.2-0.1,4-0.2,4.8c0,0.4-0.2,0.9-0.3,1.4
		c-0.1,0.6-0.3,1.1-0.3,1.5c0,0.4-0.2,0.6-0.4,0.9c-0.2,0.2-0.3,0.5-0.5,0.8c-0.2,0.4-0.4,0.6-0.6,0.7c-0.3,0.3-0.5,0.5-0.4,0.9
		c0,0.2,0,0.3-0.1,0.3c-0.2,0.1-0.4,0.3-0.5,1c-0.2,1.2-0.8,1.6-1.5,2c-0.6,0.3-1,0.6-1.1,0.9c0,0.1,0,0.2,0,0.2c0,0,0.1,0,0.1,0
		h19.6v0.7c0,0.1,0,0.1,0.1,0.1h0.6c0.1,0,0.1,0,0.1-0.1v0h3.7c0.1,0,0.1,0,0.1-0.1v-0.1h7c0.1,0,0.1,0,0.1-0.1l0-0.1h2
		c0,0,0.1,0,0.1,0c0,0,0-0.1,0-0.1c0-0.1-0.1-0.5-0.2-0.6c0,0,0.1-0.2,0.1-0.2c0.1-0.1,0.2-0.2,0.2-0.4c0.1-0.2,0.1-0.2,0.3-0.3
		c0.1-0.1,0.2-0.2,0.4-0.4c0.1-0.1,0.1-0.2,0.2-0.3c0.1-0.2,0.2-0.3,0.4-0.4c0.2-0.1,0.4-0.3,0.5-0.5c0.1-0.2,0.3-0.3,0.4-0.4
		c0.1,0,0.2-0.1,0.2-0.1c0-0.1-0.1-0.2-0.2-0.3c0,0-0.1-0.2-0.1-0.2c0,0,0,0,0.1,0c0.3-0.1,0.5-0.2,0.6-0.5c0.1-0.3,0.1-0.6,0.1-0.8
		c-0.1-0.3-0.1-0.8,0-1c0-0.1,0.1-0.2,0.1-0.4c0.1-0.2,0.2-0.7,0.3-0.7l0.1,0c0.3,0,1.1-0.1,1.3-0.5c0-0.1,0.1-0.2,0.2-0.4
		c0.2-0.3,0.4-0.5,0.4-0.9c-0.1-0.5-0.1-1.1,0.2-1.4c0,0,0.1,0,0.1,0c0,0,0.1,0,0.2,0c0.1,0,0.3,0.1,0.4,0c0.1-0.1,0.1-0.2,0.1-0.5
		c0-0.3-0.1-0.4-0.1-0.5c0.1,0,0.2-0.1,0.4-0.2l0.2-0.1c0.3-0.2,0.4-0.3,0.5-0.3c0,0,0,0,0.1,0.1c0.2,0.1,0.3,0.2,0.3,0.3
		c0,0,0,0-0.1,0.1c-0.3,0.1-0.5,0.4-0.5,0.6c0,0,0,0.1,0,0.1c0,0,0,0.1,0,0.1c0,0.1,0.1,0.1,0.1,0.2c0.1,0.1,0.2,0.2,0.2,0.2
		c-0.2,0.3-0.1,0.4-0.1,0.4c0,0,0.1,0.1,0.1,0.1c0.1,0,0.2,0,0.5-0.3c0.2-0.1,0.2-0.2,0.3-0.2s0,0,0.1,0c0,0,0.1,0.1,0.2,0.1
		c0.1,0,0.2-0.1,0.2-0.1c0.3-0.4,0.4-0.5,0.6-1.4c0.1-0.4,0.2-0.7,0.2-0.8c0.1-0.2,0.1-0.4,0.1-0.6c0-0.1,0-0.2,0-0.2
		c0-0.2-0.1-0.3,0-0.6c0.1-0.2,0-0.4,0-0.5c0-0.3,0-0.5,0.2-0.7C79.5,63.3,79.6,62.8,79.3,62.1z"/>
	<path fill="#D1D0C9" d="M42.6,34.7c-0.1,0.1-0.1,0.2-0.2,0.2c0,0,0,0.1-0.1,0.1c-0.1,0.1-0.1,0.2-0.1,0.2c0,0.2,0.4,0.2,0.4,0.2
		c0,0,0.1,0,0.1,0c0.3,0,0.4-0.3,0.4-0.4c0,0,0.1,0,0.1-0.1c0-0.1,0-0.2-0.1-0.3c0,0-0.1-0.1-0.1-0.1C43.1,34.6,42.8,34.6,42.6,34.7
		z"/>
	<path fill="#D1D0C9" d="M44.2,34.6L44.2,34.6C44.2,34.6,44.2,34.6,44.2,34.6c0.1,0,0.1-0.1,0.1-0.1c0.1-1.1,0-1.2,0-1.2
		c-0.1-0.1-0.2-0.2-0.6-0.3c0,0-0.1,0-0.1,0c-0.1,0-0.3,0-0.3,0.3c0,0.1,0,0.3,0,0.4C43.2,33.8,43.7,34.5,44.2,34.6z"/>
</g>
<path fill="#6F6F63" d="M38.3,19.1v-2.4h2.1v-2h3.4v-2.9c-0.1,0-0.2,0.1-0.3,0.1c-0.1,0-0.1,0.1-0.2,0.1c0,0,0,0-0.1,0
	c0,0,0,0,0-0.1c0,0,0-0.2-0.2-0.2c-0.1,0-0.2,0-0.6,0.3c-0.4,0.2-0.7,0.5-1,0.8c-0.4,0.3-0.7,0.7-1,0.7c-0.6,0-0.8,0.1-1,0.3
	l-0.1,0.1c-0.2,0.1-0.3,0.3-0.4,0.4c-0.1,0.1-0.2,0.2-0.2,0.3c-0.2,0.1-0.3,0.2-0.5,0.1c-0.1,0-0.1,0-0.1-0.2c0-0.1,0-0.2,0-0.3
	c0-0.4,0-0.6-0.5-0.6c0,0-0.1,0-0.1,0c-0.1,0-0.2,0-0.3,0.1c-0.1,0.1,0,0.3,0,0.5c0,0.2,0.1,0.3,0.1,0.5c0,0.2,0,0.3,0,0.4
	c-0.1-0.2-0.3-0.3-0.5-0.3c-0.1,0-0.3,0-0.4,0.1c-0.1,0-0.2,0.1-0.3,0.2c-0.1,0.1-0.3,0.3-0.4,0.3c0,0,0,0,0,0
	c0-0.3-0.3-0.5-0.5-0.6c-0.1,0-0.2-0.1-0.2-0.1v-0.1c0-0.2-0.1-0.7-0.4-0.7h0c-0.1,0-0.3,0.1-0.6,0.2c-0.3,0.2-0.6,0.4-0.9,0.4
	c-0.2,0-0.5,0-0.7,0.1v4.9H38.3z"/>
</svg>
