<?xml version="1.0" encoding="utf-8"?>
<!-- Generator: Adobe Illustrator 17.1.0, SVG Export Plug-In . SVG Version: 6.00 Build 0)  -->
<!DOCTYPE svg PUBLIC "-//W3C//DTD SVG 1.1//EN" "http://www.w3.org/Graphics/SVG/1.1/DTD/svg11.dtd">
<svg version="1.1" id="Layer_1" xmlns="http://www.w3.org/2000/svg" xmlns:xlink="http://www.w3.org/1999/xlink" x="0px" y="0px"
	 viewBox="0 0 80 90" enable-background="new 0 0 80 90" xml:space="preserve">
<path fill="#D1D0C9" d="M40,8.7c-9.7,0-18.8,3.8-25.7,10.6S3.7,35.3,3.7,45s3.8,18.8,10.6,25.7s16,10.6,25.7,10.6
	s18.8-3.8,25.7-10.6s10.6-16,10.6-25.7s-3.8-18.8-10.6-25.7S49.7,8.7,40,8.7z"/>
<path fill="#FFFFFF" d="M40,21.5c-6.3,0-12.2,2.4-16.6,6.9S16.5,38.7,16.5,45s2.4,12.2,6.9,16.6s10.3,6.9,16.6,6.9
	s12.2-2.4,16.6-6.9s6.9-10.3,6.9-16.6s-2.4-12.2-6.9-16.6S46.3,21.5,40,21.5z"/>
<g>
	<g>
		<path fill="#6F6F63" d="M40,85c-10.7,0-20.7-4.2-28.3-11.7C4.2,65.7,0,55.7,0,45s4.2-20.7,11.7-28.3S29.3,5,40,5
			s20.7,4.2,28.3,11.7C75.8,24.3,80,34.3,80,45s-4.2,20.7-11.7,28.3C60.7,80.8,50.7,85,40,85z M40,6.6c-10.3,0-19.9,4-27.2,11.3
			S1.6,34.7,1.6,45s4,19.9,11.3,27.2c7.3,7.2,16.9,11.3,27.2,11.3s19.9-4,27.2-11.3c7.2-7.3,11.3-16.9,11.3-27.2s-4-19.9-11.3-27.2
			S50.3,6.6,40,6.6z"/>
	</g>
</g>
<path fill="#393933" d="M7.1,29.7C4.7,34.6,3.5,40,3.5,45.5c0,9.8,3.8,18.9,10.7,25.8S30.3,82.1,40,82.1c9.8,0,18.9-3.8,25.8-10.7
	s10.7-16.1,10.7-25.8c0-5.6-1.2-11-3.6-15.8L7.1,29.7z"/>
<g>
	<path fill="#D1D0C9" stroke="#D1D0C9" stroke-width="0.5" stroke-miterlimit="10" d="M24.4,47.7c0.5,1.7,1,2.5,2,2.5v0.1h-6.1v-0.1
		c1.3,0,1.4-1.1,1-2.4L21,46.7h-2.3c-1.6,3-3.3,4.9-5.6,4.9c-1.8,0-3.4-1-3.4-2.9c0-1.7,1.5-2.8,3-2.8c1.4,0,2.9,0.8,2.9,2.3
		c0,1-0.7,1.8-1.9,1.8c-0.8,0-1.6-0.7-1.3-1.6c0.7,0,1.3-0.6,1.3-1.4c0-0.8-0.7-1.1-1.2-1.1c-1,0-2.2,1.1-2.2,2.6
		c0,1.7,1.1,2.8,2.8,2.8c3.8,0,6.1-6.2,8.6-11.9L24.4,47.7z M18.9,46.6H21l-0.8-2.8C19.8,44.8,19.3,45.7,18.9,46.6z"/>
	<path fill="#D1D0C9" stroke="#D1D0C9" stroke-width="0.5" stroke-miterlimit="10" d="M28.4,39.7c0-0.3-0.2-0.5-0.6-0.4l0,0
		c0.5-0.2,1.5-0.6,2.2-0.6c0.8,0,1.1,0.3,1,1.3l-1.1,7.1c-0.2,1-0.5,2.9,0,3.2l0,0c-1.1,0.2-3.1,0.1-2.7-2.3L28.4,39.7z"/>
	<path fill="#D1D0C9" stroke="#D1D0C9" stroke-width="0.5" stroke-miterlimit="10" d="M32.7,39.7c0-0.3-0.2-0.5-0.6-0.4l0,0
		c0.5-0.2,1.5-0.6,2.2-0.6c0.8,0,1.1,0.3,1,1.3l-1.1,7.1c-0.2,1-0.5,2.9,0,3.2l0,0c-1.1,0.2-3.1,0.1-2.7-2.3L32.7,39.7z"/>
	<path fill="#D1D0C9" stroke="#D1D0C9" stroke-width="0.5" stroke-miterlimit="10" d="M41,43.6c0-0.6-0.4-1-0.9-1
		c-1.1,0-1.9,1.8-2,3.3c-0.1,1.6,0.5,2.9,2.1,2.9c0.7,0,1.6-0.2,2.3-1h0.1c-0.9,1.5-2.5,2.6-4.2,2.6c-1.8,0-3-1.2-3-3.1
		c0-2.5,2.1-4.8,4.9-4.8c1.1,0,2.8,0.3,2.8,1.6c0,1.1-1.3,2.5-4.9,1.6v-0.1C40.2,45.7,41,44.6,41,43.6z"/>
	<path fill="#D1D0C9" stroke="#D1D0C9" stroke-width="0.5" stroke-miterlimit="10" d="M50.8,51.1c-0.3,2-1.8,3.4-4.6,3.4
		c-1.2,0-2.9-0.3-2.9-1.6c0-0.8,0.7-1.4,1.5-1.4c0.6,0,1.3,0.4,1.2,1.2c-0.5,0.1-0.8,0.4-0.8,0.8c0,0.4,0.3,0.8,1.1,0.8
		c1.1,0,1.5-0.8,1.8-2.2l1.3-6.4h-0.1c-0.9,3.6-2.1,4.6-3.4,4.6c-1.5,0-2.1-1.4-2.1-2.7c0-2.3,2.1-5.2,4.8-5.2
		c1.5,0,2.6,1.3,3.7,0.1L50.8,51.1z M46.5,48.4c0,0.6,0.1,1.2,0.5,1.2c0.9,0,1.9-2.3,2.2-4.4l0.2-0.9c0.2-1.2,0.1-1.7-0.6-1.7
		C47.5,42.6,46.5,46,46.5,48.4z"/>
	<path fill="#D1D0C9" stroke="#D1D0C9" stroke-width="0.5" stroke-miterlimit="10" d="M60.3,47.1c-0.2,1.3-0.4,2.9,0.3,3.1l0,0
		c-0.3,0.1-0.7,0.1-1,0.1c-1.2,0-2.3-0.5-1.9-2.4l0.5-2.3h-0.1c-0.9,3.6-2.1,4.6-3.4,4.6c-1.5,0-2.1-1.4-2.1-2.7
		c0-2.3,2.1-5.2,4.8-5.2c1.5,0,2.6,1.3,3.7,0.1L60.3,47.1z M55.3,48.4c0,0.6,0.1,1.2,0.5,1.2c0.9,0,1.9-2.3,2.2-4.4l0.2-0.9
		c0.2-1.2,0.1-1.7-0.6-1.7C56.4,42.6,55.3,46,55.3,48.4z"/>
	<path fill="#D1D0C9" stroke="#D1D0C9" stroke-width="0.5" stroke-miterlimit="10" d="M62.9,43.5c0-0.3-0.2-0.5-0.6-0.4l0,0
		c0.5-0.2,1.5-0.6,2.2-0.6c0.8,0,1.2,0.3,1,1.3l-0.8,3.3h0.1c1-3.8,2.4-4.6,3.8-4.6c1.8,0,1.7,1.5,1.5,2.5l-0.4,2.1
		c-0.2,1.3-0.4,2.9,0.3,3.1l0,0c-0.4,0.1-0.7,0.1-1.1,0.1c-1.2,0-2.2-0.5-1.9-2.4l0.6-3.6c0.1-0.7,0.1-1.1-0.2-1.1
		c-0.8,0-1.8,1.7-2.4,3.9c-0.2,1-0.7,2.8-0.2,3.1l0,0c-0.5,0.1-0.9,0.1-1.2,0.1c-1.2,0-1.7-0.5-1.4-2.3L62.9,43.5z"/>
</g>
<path fill="#D1D0C9" d="M50.8,65c-12,11.2-21.7,8.3-21.7,8.3c8.2,0.2,13.2-3.7,13.2-3.7s-7.4,0-16.9-2.2c-4.7-1.1-8.6-0.6-11.3,0.3
	c0.7,0.8,1.4,1.7,2.2,2.5C22.6,76.5,31,80,40,80s17.4-3.5,23.7-9.8c3.5-3.5,6.2-7.8,7.9-12.3C68.9,57,60.6,55.8,50.8,65z"/>
<g>
	<g>
		<path fill="#393933" d="M36.9,22.6c0,0,0-1,0-1.7c0-0.6,0.6-0.6,0.6-0.6c-2.1-0.6-2.1,0.6-2.1,0.6s0-1.2-2.1-0.6
			c0,0,0.6,0,0.6,0.6s0,1.7,0,1.7s0,0.9,1.2,1v3.5c-0.4-0.7-1.3-0.7-1.3-0.7s-0.2,1.6,1.3,1.8v2.1h0.4v-0.7c1.6-0.2,1.3-1.8,1.3-1.8
			s-0.9,0.1-1.3,0.7v-4.9C36.9,23.5,36.9,22.6,36.9,22.6z"/>
		<path fill="#393933" d="M35.4,20.5L35.4,20.5c0.1-0.2,0.4-0.4,0.8-0.5c-0.3-0.6-0.8-0.8-0.8-0.8S35,19.4,34.6,20
			C35.1,20.1,35.3,20.3,35.4,20.5z"/>
	</g>
	<g>
		<path fill="#393933" d="M46,22.6c0,0,0-1,0-1.7c0-0.6,0.6-0.6,0.6-0.6c-2.1-0.6-2.1,0.6-2.1,0.6s0-1.2-2.1-0.6c0,0,0.6,0,0.6,0.6
			s0,1.7,0,1.7s0,0.9,1.2,1v3.5C44,26.4,43,26.4,43,26.4s-0.2,1.6,1.3,1.8v2.1h0.4v-0.7c1.6-0.2,1.3-1.8,1.3-1.8s-0.9,0.1-1.3,0.7
			v-4.9C46,23.5,46,22.6,46,22.6z"/>
		<path fill="#393933" d="M44.6,20.5L44.6,20.5c0.1-0.2,0.4-0.4,0.8-0.5c-0.3-0.6-0.8-0.8-0.8-0.8s-0.4,0.2-0.8,0.8
			C44.2,20.1,44.5,20.3,44.6,20.5z"/>
	</g>
	<g>
		<path fill="#393933" d="M38.4,18c0,0,0-1.2,0-1.9c0-0.7-0.7-0.7-0.7-0.7c2.4-0.7,2.4,0.7,2.4,0.7s0-1.5,2.4-0.7c0,0-0.7,0-0.7,0.7
			c0,0.7,0,1.9,0,1.9s0,1.1-1.5,1.2v4c0.5-0.8,1.5-0.8,1.5-0.8s0.3,1.9-1.5,2.1v6.8h-0.5v-5.1c-1.8-0.2-1.5-2.1-1.5-2.1
			s1.1,0.1,1.5,0.8v-5.7C38.4,19.1,38.4,18,38.4,18z"/>
		<path fill="#393933" d="M40.1,15.6C40.1,15.5,40,15.5,40.1,15.6c-0.2-0.3-0.4-0.5-0.9-0.6c0.4-0.7,0.9-0.9,0.9-0.9
			s0.5,0.2,0.9,0.9C40.5,15.1,40.2,15.3,40.1,15.6z"/>
	</g>
</g>
<g>
	<g>
		<path fill="#D1D0C9" stroke="#D1D0C9" stroke-width="0.15" stroke-miterlimit="10" d="M20.1,58.4L20.1,58.4c0.6,0,0.6-0.3,0.7-1
			l0.3-1.8c-0.2,0.2-0.4,0.4-0.6,0.5l0,0c0.6-0.3,1.1-1,1.3-1.5h0.6l-0.5,2.9c-0.1,0.6-0.2,1,0.4,1l0,0h-2.2V58.4z"/>
		<path fill="#D1D0C9" stroke="#D1D0C9" stroke-width="0.15" stroke-miterlimit="10" d="M25.4,55.9c0.5,0.2,0.9,0.5,0.9,1.1
			c0,0.9-0.9,1.4-2,1.4c-0.7,0-1.4-0.2-1.4-0.8c0-0.5,0.6-0.8,1-0.9c-0.3-0.2-0.5-0.5-0.5-0.9c0-0.9,1.1-1.3,1.8-1.3
			c0.4,0,1,0.2,1,0.7C26.2,55.5,25.9,55.8,25.4,55.9z M23.9,56.7c-0.3,0.1-0.5,0.5-0.5,0.8c0,0.4,0.2,0.9,0.9,0.9c0.5,0,1-0.3,1-0.6
			C25.3,57.3,24.5,57.1,23.9,56.7z M25.3,55.9c0.3-0.1,0.5-0.4,0.5-0.7c0-0.4-0.4-0.7-0.8-0.7s-0.6,0.3-0.6,0.6
			C24.4,55.5,24.8,55.7,25.3,55.9z"/>
		<path fill="#D1D0C9" stroke="#D1D0C9" stroke-width="0.15" stroke-miterlimit="10" d="M29.2,55.9c0.5,0.2,0.9,0.5,0.9,1.1
			c0,0.9-0.9,1.4-2,1.4c-0.7,0-1.4-0.2-1.4-0.8c0-0.5,0.6-0.8,1-0.9c-0.3-0.2-0.5-0.5-0.5-0.9c0-0.9,1.1-1.3,1.8-1.3
			c0.4,0,1,0.2,1,0.7C30,55.5,29.7,55.8,29.2,55.9z M27.7,56.7c-0.3,0.1-0.5,0.5-0.5,0.8c0,0.4,0.2,0.9,0.9,0.9c0.5,0,1-0.3,1-0.6
			C29.1,57.3,28.3,57.1,27.7,56.7z M29.1,55.9c0.3-0.1,0.5-0.4,0.5-0.7c0-0.4-0.4-0.7-0.8-0.7s-0.6,0.3-0.6,0.6
			C28.2,55.5,28.6,55.7,29.1,55.9z"/>
		<path fill="#D1D0C9" d="M30.6,57.5c0-0.4,0.3-0.7,0.8-0.7c0.3,0,0.6,0.3,0.5,0.6c-0.3,0-0.5,0.2-0.5,0.5s0.3,0.4,0.5,0.4
			c0.5,0,0.9-0.6,0.9-1.1c0-0.6-0.5-0.8-1-0.8c-0.3,0-0.7,0.1-0.9,0.3l0.4-1.3c0.3-0.8,0.5-1,0.8-1c0.4,0,0.9,0.3,1.4,0.3
			c0.3,0,0.5,0,0.6-0.3l0,0c-0.2,0.6-0.5,1.2-1.2,1.2c-0.5,0-1-0.3-1.4-0.3c-0.1,0-0.2,0-0.3,0L31,56.7c0.5-0.5,1.2-0.9,1.8-0.9
			c0.7,0,1.2,0.4,1.2,1c0,1-1,1.6-2.1,1.6C31.2,58.4,30.6,58.1,30.6,57.5z"/>
	</g>
	<circle fill="#D1D0C9" cx="17.1" cy="56.7" r="0.8"/>
	<circle fill="#D1D0C9" cx="36.9" cy="56.7" r="0.8"/>
</g>
</svg>
