<?xml version="1.0" encoding="utf-8"?>
<!-- Generator: Adobe Illustrator 17.1.0, SVG Export Plug-In . SVG Version: 6.00 Build 0)  -->
<!DOCTYPE svg PUBLIC "-//W3C//DTD SVG 1.1//EN" "http://www.w3.org/Graphics/SVG/1.1/DTD/svg11.dtd">
<svg version="1.1" id="Layer_1" xmlns="http://www.w3.org/2000/svg" xmlns:xlink="http://www.w3.org/1999/xlink" x="0px" y="0px"
	 viewBox="0 0 80 90" enable-background="new 0 0 80 90" xml:space="preserve">
<g>
	<path fill="#6F6F63" d="M1.6,43.1C2.1,33.5,6,24.7,12.8,17.9C20.1,10.6,29.7,6.6,40,6.6s20,3.9,27.3,11.2
		c6.8,6.8,10.8,15.7,11.3,25.3H80c-0.5-10-4.6-19.2-11.7-26.4C60.7,9.2,50.7,5,40,5S19.2,9.1,11.7,16.7C4.6,23.8,0.5,33.1,0,43.1
		H1.6z"/>
	<path fill="#6F6F63" d="M78.6,46.9c-0.5,9.6-4.5,18.4-11.3,25.3C60,79.5,50.4,83.5,40.1,83.5c-10.3,0-19.9-4.1-27.2-11.3
		C6.1,65.4,2.1,56.5,1.6,46.9H0c0.5,10,4.6,19.2,11.7,26.4C19.3,80.8,29.3,85,40,85s20.7-4.2,28.3-11.7c7.1-7.1,11.2-16.4,11.7-26.4
		H78.6z"/>
</g>
<polygon fill="#6F6F63" points="9,45.5 0,45.5 0,44.5 9.2,44.5 "/>
<g>
	<path fill="#393933" d="M12.5,55.4H9.7l2.8-20.8h3.8L19,55.4h-2.8l-0.5-4.7H13L12.5,55.4z M14.3,38.4l-1,9.7h2L14.3,38.4z"/>
	<path fill="#393933" d="M21.1,34.6H24v18.1h4.1v2.7h-7V34.6z"/>
	<path fill="#393933" d="M32.7,34.6c2.5,0,3.5,0.3,4.3,1.4c0.9,1.1,1.1,2.2,1.1,4.8c0,2.8-0.2,3.8-1.1,4.8c-0.8,0.9-2,1.3-3.8,1.3
		h-0.4v8.5h-2.9V34.6H32.7z M33.2,44.3c1.7,0,2.1-0.6,2.1-3.5c0-2.9-0.3-3.5-2.1-3.5h-0.4v7H33.2z"/>
	<path fill="#393933" d="M47.3,34.6v2.7h-4.1v5.8h2.9v2.7h-2.9v6.8h4.4v2.7h-7.3V34.6H47.3z"/>
	<path fill="#393933" d="M58.8,55.4h-2.9l-3.4-10.9v10.9h-2.9V34.6H52l3.8,12.3V34.6h2.9V55.4z"/>
	<path fill="#393933" d="M63.8,55.4H61l2.8-20.8h3.8l2.7,20.8h-2.8l-0.5-4.7h-2.6L63.8,55.4z M65.6,38.4l-1,9.7h2L65.6,38.4z"/>
</g>
<g>
	<g>
		<path fill="#6F6F63" d="M4.8,42.1H3.9v-0.5L4.8,39h0.6v2.6h0.2v0.5H5.4V43H4.8V42.1z M4.8,40.1l-0.4,1.5h0.4V40.1z"/>
		<path fill="#6F6F63" d="M6.6,41.9V42c0,0.4,0.1,0.5,0.2,0.5c0.1,0,0.2-0.1,0.2-0.3V41c0-0.2-0.1-0.3-0.2-0.3
			c-0.1,0-0.2,0.1-0.3,0.3H6.2L6.2,39h1.3l0,0.5H6.7l0,1c0.2-0.2,0.3-0.3,0.4-0.3c0.4,0,0.6,0.3,0.6,0.9v0.9c0,0.4,0,0.6-0.2,0.7
			c-0.1,0.2-0.4,0.3-0.6,0.3c-0.5,0-0.8-0.3-0.8-1c0-0.1,0-0.2,0-0.3H6.6z"/>
	</g>
	<g>
		<path fill="#6F6F63" d="M9,40.2c0,0.3-0.1,0.4-0.4,0.4c-0.2,0-0.4-0.2-0.4-0.4v-0.7c0-0.3,0.1-0.4,0.4-0.4C8.8,39,9,39.1,9,39.4
			V40.2z M8.5,40.2c0,0.1,0,0.1,0.1,0.1c0.1,0,0.1-0.1,0.1-0.1v-0.8c0-0.1,0-0.1-0.1-0.1c-0.1,0-0.1,0.1-0.1,0.1V40.2z"/>
	</g>
</g>
<polygon fill="#6F6F63" points="71,45.5 80,45.5 80,44.5 70.8,44.5 "/>
<g>
	<path fill="#393933" d="M70.2,24.8c-1.3-1.9-2.8-3.8-4.5-5.5C58.9,12.4,49.7,8.7,40,8.7s-18.8,3.8-25.7,10.6
		c-1.7,1.7-3.2,3.5-4.5,5.5H70.2z"/>
	<path fill="#393933" d="M9.8,65.2c1.3,1.9,2.8,3.8,4.5,5.5c6.8,6.9,16,10.6,25.7,10.6s18.8-3.8,25.7-10.6c1.7-1.7,3.2-3.5,4.5-5.5
		H9.8z"/>
</g>
<path fill="#D1D0C9" d="M6.7,30.4h66.5c-0.5-1.2-1.1-2.4-1.8-3.6H8.5C7.9,27.9,7.3,29.1,6.7,30.4z"/>
<path fill="#D1D0C9" d="M8.6,63.2h62.9c0.7-1.2,1.3-2.4,1.8-3.6H6.8C7.3,60.9,7.9,62.1,8.6,63.2z"/>
<g>
	<path fill="#D1D0C9" d="M34.4,16l-0.9,0.8l-0.6-0.6l1.5-1.3h0.9v4.6h-0.9V16z"/>
	<path fill="#D1D0C9" d="M36.1,16.1c0-0.2,0-0.4,0.1-0.6c0.1-0.2,0.2-0.3,0.3-0.4c0.1-0.1,0.3-0.2,0.5-0.2c0.2-0.1,0.4-0.1,0.6-0.1
		s0.4,0,0.6,0.1c0.2,0.1,0.4,0.1,0.5,0.2s0.3,0.2,0.3,0.4c0.1,0.2,0.1,0.3,0.1,0.6c0,0.3-0.1,0.5-0.2,0.6c-0.1,0.2-0.3,0.3-0.6,0.4
		v0c0.3,0.1,0.5,0.2,0.6,0.4c0.1,0.2,0.2,0.4,0.2,0.7c0,0.2,0,0.4-0.1,0.6c-0.1,0.2-0.2,0.3-0.4,0.4s-0.3,0.2-0.5,0.3
		s-0.4,0.1-0.6,0.1s-0.4,0-0.6-0.1c-0.2-0.1-0.4-0.1-0.5-0.3c-0.2-0.1-0.3-0.3-0.4-0.4c-0.1-0.2-0.1-0.4-0.1-0.6
		c0-0.3,0.1-0.5,0.2-0.7c0.1-0.2,0.4-0.3,0.6-0.4v0c-0.2-0.1-0.4-0.2-0.6-0.4C36.2,16.5,36.1,16.3,36.1,16.1z M37,18.1
		c0,0.2,0.1,0.3,0.2,0.4c0.1,0.1,0.3,0.2,0.5,0.2c0.2,0,0.4-0.1,0.5-0.2c0.1-0.1,0.2-0.3,0.2-0.4c0-0.2-0.1-0.3-0.2-0.4
		c-0.1-0.1-0.3-0.2-0.5-0.2c-0.2,0-0.4,0.1-0.5,0.2C37.1,17.8,37,17.9,37,18.1z M37.1,16.2c0,0.1,0.1,0.3,0.2,0.4
		c0.1,0.1,0.2,0.2,0.4,0.2c0.2,0,0.3-0.1,0.4-0.2c0.1-0.1,0.2-0.2,0.2-0.4c0-0.1-0.1-0.3-0.2-0.4c-0.1-0.1-0.2-0.2-0.4-0.2
		c-0.2,0-0.3,0-0.4,0.2C37.1,15.9,37.1,16,37.1,16.2z"/>
	<path fill="#D1D0C9" d="M43,15.7h-1.8l0,0.7c0.1,0,0.2-0.1,0.4-0.1c0.2,0,0.5,0,0.6,0.1s0.4,0.2,0.5,0.3c0.1,0.1,0.3,0.3,0.3,0.5
		c0.1,0.2,0.1,0.4,0.1,0.6c0,0.3,0,0.5-0.1,0.7c-0.1,0.2-0.2,0.4-0.4,0.5c-0.2,0.1-0.3,0.2-0.6,0.3c-0.2,0.1-0.5,0.1-0.7,0.1
		c-0.4,0-0.7-0.1-1-0.3c-0.3-0.2-0.5-0.5-0.6-0.9l1-0.2c0,0.2,0.1,0.3,0.2,0.4s0.3,0.2,0.4,0.2c0.2,0,0.4-0.1,0.5-0.2
		c0.1-0.1,0.2-0.3,0.2-0.5c0-0.2,0-0.3-0.1-0.4s-0.1-0.2-0.2-0.2c-0.1-0.1-0.2-0.1-0.3-0.1c-0.1,0-0.3,0-0.4,0c-0.2,0-0.3,0-0.5,0
		c-0.2,0-0.3,0.1-0.5,0.1l0.1-2.6H43V15.7z"/>
	<path fill="#D1D0C9" d="M46,15.8h-2.3v-0.9h3.4v0.9l-1.9,3.8h-1.1L46,15.8z"/>
</g>
<g>
	<path fill="#D1D0C9" d="M29.6,71.1c-0.1-0.1-0.2-0.2-0.3-0.3c-0.1-0.1-0.3-0.1-0.5-0.1c-0.2,0-0.3,0-0.5,0.1
		c-0.2,0.1-0.3,0.2-0.4,0.3c-0.1,0.1-0.2,0.3-0.3,0.4c-0.1,0.2-0.1,0.4-0.1,0.6c0,0.2,0,0.4,0.1,0.6c0.1,0.2,0.2,0.3,0.3,0.4
		s0.2,0.2,0.4,0.3c0.2,0.1,0.3,0.1,0.5,0.1c0.2,0,0.4,0,0.5-0.1c0.2-0.1,0.3-0.2,0.4-0.3l0.8,0.6c-0.2,0.3-0.4,0.5-0.7,0.6
		c-0.3,0.1-0.6,0.2-0.9,0.2c-0.3,0-0.7-0.1-0.9-0.2c-0.3-0.1-0.5-0.3-0.7-0.5c-0.2-0.2-0.4-0.4-0.5-0.7c-0.1-0.3-0.2-0.6-0.2-0.9
		c0-0.3,0.1-0.7,0.2-0.9c0.1-0.3,0.3-0.5,0.5-0.7c0.2-0.2,0.5-0.4,0.7-0.5c0.3-0.1,0.6-0.2,0.9-0.2c0.1,0,0.3,0,0.4,0
		c0.1,0,0.3,0.1,0.4,0.1c0.1,0,0.3,0.1,0.4,0.2c0.1,0.1,0.2,0.2,0.3,0.3L29.6,71.1z"/>
	<path fill="#D1D0C9" d="M30.8,72.1c0-0.3,0.1-0.7,0.2-0.9c0.1-0.3,0.3-0.5,0.5-0.7c0.2-0.2,0.5-0.4,0.7-0.5
		c0.3-0.1,0.6-0.2,0.9-0.2c0.3,0,0.7,0.1,0.9,0.2c0.3,0.1,0.5,0.3,0.7,0.5c0.2,0.2,0.4,0.4,0.5,0.7c0.1,0.3,0.2,0.6,0.2,0.9
		c0,0.3-0.1,0.7-0.2,0.9c-0.1,0.3-0.3,0.5-0.5,0.7c-0.2,0.2-0.5,0.4-0.7,0.5c-0.3,0.1-0.6,0.2-0.9,0.2c-0.3,0-0.7-0.1-0.9-0.2
		c-0.3-0.1-0.5-0.3-0.7-0.5c-0.2-0.2-0.4-0.4-0.5-0.7C30.8,72.8,30.8,72.5,30.8,72.1z M31.8,72.1c0,0.2,0,0.4,0.1,0.6
		c0.1,0.2,0.2,0.3,0.3,0.4c0.1,0.1,0.3,0.2,0.4,0.3c0.2,0.1,0.4,0.1,0.6,0.1c0.2,0,0.4,0,0.6-0.1c0.2-0.1,0.3-0.2,0.4-0.3
		c0.1-0.1,0.2-0.3,0.3-0.4c0.1-0.2,0.1-0.4,0.1-0.6c0-0.2,0-0.4-0.1-0.6c-0.1-0.2-0.2-0.3-0.3-0.4c-0.1-0.1-0.3-0.2-0.4-0.3
		c-0.2-0.1-0.4-0.1-0.6-0.1c-0.2,0-0.4,0-0.6,0.1c-0.2,0.1-0.3,0.2-0.4,0.3c-0.1,0.1-0.2,0.3-0.3,0.4C31.8,71.7,31.8,71.9,31.8,72.1
		z"/>
	<path fill="#D1D0C9" d="M39.8,72.6c0,0.3,0,0.5-0.1,0.7c-0.1,0.2-0.2,0.4-0.3,0.6c-0.2,0.2-0.3,0.3-0.6,0.4
		c-0.2,0.1-0.5,0.1-0.8,0.1c-0.3,0-0.6,0-0.8-0.1c-0.2-0.1-0.4-0.2-0.6-0.4c-0.2-0.2-0.3-0.3-0.3-0.6c-0.1-0.2-0.1-0.5-0.1-0.7v-2.7
		h1v2.6c0,0.1,0,0.3,0.1,0.4c0,0.1,0.1,0.2,0.2,0.3c0.1,0.1,0.2,0.2,0.3,0.2c0.1,0,0.2,0.1,0.4,0.1c0.1,0,0.2,0,0.4-0.1
		c0.1,0,0.2-0.1,0.3-0.2c0.1-0.1,0.1-0.2,0.2-0.3c0-0.1,0.1-0.2,0.1-0.4v-2.6h1V72.6z"/>
	<path fill="#D1D0C9" d="M40.7,69.9H42l1.9,3h0v-3h1v4.4h-1.3l-1.9-3.1h0v3.1h-1V69.9z"/>
	<path fill="#D1D0C9" d="M46.6,70.8h-1.2v-0.9h3.5v0.9h-1.2v3.5h-1V70.8z"/>
	<path fill="#D1D0C9" d="M50.8,72.4l-1.6-2.5h1.2l0.9,1.6l1-1.6h1.1l-1.6,2.5v1.9h-1V72.4z"/>
</g>
</svg>
