<?xml version="1.0" encoding="utf-8"?>
<!-- Generator: Adobe Illustrator 17.1.0, SVG Export Plug-In . SVG Version: 6.00 Build 0)  -->
<!DOCTYPE svg PUBLIC "-//W3C//DTD SVG 1.1//EN" "http://www.w3.org/Graphics/SVG/1.1/DTD/svg11.dtd">
<svg version="1.1" id="Layer_1" xmlns="http://www.w3.org/2000/svg" xmlns:xlink="http://www.w3.org/1999/xlink" x="0px" y="0px"
	 viewBox="0 0 400 400" enable-background="new 0 0 400 400" xml:space="preserve">
<g>
	<g>
		<path fill="#6F6F63" d="M8,190.5c2.5-48,22-92,56-126C100.5,28,148.5,8,200,8s100,19.5,136.5,56c34,34,54,78.5,56.5,126.5h7
			c-2.5-50-23-96-58.5-132C303.5,21,253.5,0,200,0S96,20.5,58.5,58.5C23,94,2.5,140.5,0,190.5H8z"/>
		<path fill="#6F6F63" d="M393,209.5c-2.5,48-22.5,92-56.5,126.5c-36.5,36.5-84.5,56.5-136,56.5S101,372,64.5,336
			c-34-34-54-78.5-56.5-126.5H0c2.5,50,23,96,58.5,132c38,37.5,88,58.5,141.5,58.5s103.5-21,141.5-58.5c35.5-35.5,56-82,58.5-132
			H393z"/>
	</g>
	<polygon fill="#6F6F63" points="45,202.5 0,202.5 0,197.5 46,197.5 	"/>
	<g>
		<path fill="#393933" d="M62.5,252h-14l14-104h19L95,252H81l-2.5-23.5H65L62.5,252z M71.5,167l-5,48.5h10L71.5,167z"/>
		<path fill="#393933" d="M105.5,148H120v90.5h20.5V252h-35V148z"/>
		<path fill="#393933" d="M163.5,148c12.5,0,17.5,1.5,21.5,7c4.5,5.5,5.5,11,5.5,24c0,14-1,19-5.5,24c-4,4.5-10,6.5-19,6.5h-2V252
			h-14.5V148H163.5z M166,196.5c8.5,0,10.5-3,10.5-17.5c0-14.5-1.5-17.5-10.5-17.5h-2v35H166z"/>
		<path fill="#393933" d="M236.5,148v13.5H216v29h14.5V204H216v34h22v13.5h-36.5V148H236.5z"/>
		<path fill="#393933" d="M294,252h-14.5l-17-54.5V252H248V148h12l19,61.5V148h14.5v104H294z"/>
		<path fill="#393933" d="M319,252h-14l14-104h19l13.5,104h-14l-2.5-23.5h-13L319,252z M328,167l-5,48.5h10L328,167z"/>
	</g>
	<polygon fill="#6F6F63" points="355,202.5 400,202.5 400,197.5 354,197.5 	"/>
	<g>
		<path fill="#393933" d="M351,99c-6.5-9.5-14-19-22.5-27.5c-34-34.5-80-53-128.5-53s-94,19-128.5,53C63,80,55.5,89,49,99H351z"/>
		<path fill="#393933" d="M49,301c6.5,9.5,14,19,22.5,27.5c34,34.5,80,53,128.5,53s94-19,128.5-53c8.5-8.5,16-17.5,22.5-27.5H49z"/>
	</g>
	<path fill="#D1D0C9" d="M33.5,127H366c-2.5-6-5.5-12-9-18H42.5C39.5,114.5,36.5,120.5,33.5,127z"/>
	<path fill="#D1D0C9" d="M43,291h314.5c3.5-6,6.5-12,9-18H34C36.5,279.5,39.5,285.5,43,291z"/>
	<g>
		<path fill="#D1D0C9" d="M169.4,56.3l-3.8,0.9l-1.2-4.8l6.5-1.9h4.5V73h-6.1V56.3z"/>
		<path fill="#D1D0C9" d="M178.5,66.8L178.5,66.8c0-2.8,1.4-4.4,3.8-5.4c-1.7-1-3.1-2.4-3.1-4.9v-0.1c0-3.6,3.4-6.2,8.4-6.2
			s8.4,2.7,8.4,6.2v0.1c0,2.4-1.3,3.9-3.1,4.9c2.3,1.1,3.8,2.6,3.8,5.3v0.1c0,4-3.8,6.6-9.2,6.6S178.5,70.7,178.5,66.8z M190.9,66.2
			L190.9,66.2c0-1.5-1.3-2.5-3.2-2.5s-3.2,1-3.2,2.4v0.1c0,1.3,1.1,2.5,3.2,2.5S190.9,67.6,190.9,66.2z M190.4,57.3L190.4,57.3
			c0-1.3-1.1-2.4-2.7-2.4s-2.7,1.1-2.7,2.3v0.1c0,1.4,1.1,2.5,2.7,2.5S190.4,58.7,190.4,57.3z"/>
		<path fill="#D1D0C9" d="M198.4,69.9l3.5-4.2c1.8,1.5,3.5,2.4,5.4,2.4c2,0,3.3-1,3.3-2.6v-0.1c0-1.6-1.3-2.6-3.3-2.6
			c-1.4,0-2.5,0.5-3.6,1.1l-3.7-2l0.6-11.3h14.9v5.1h-10.1l-0.2,3.4c1-0.5,2.1-0.8,3.6-0.8c4,0,7.7,2.2,7.7,7.1v0.1c0,5-3.8,8-9.2,8
			C203.5,73.4,200.7,72.1,198.4,69.9z"/>
		<path fill="#D1D0C9" d="M228.7,55.8h-10.3v-5.2h17.2v4.7L225.7,73h-6.8L228.7,55.8z"/>
	</g>
	<g>
		<path fill="#D1D0C9" d="M129.2,336.3L129.2,336.3c0-6.6,5-11.7,11.8-11.7c4.6,0,7.5,1.9,9.5,4.7l-4.7,3.6
			c-1.3-1.6-2.7-2.6-4.9-2.6c-3.1,0-5.3,2.7-5.3,5.9v0.1c0,3.4,2.2,6,5.3,6c2.3,0,3.7-1.1,5-2.7l4.7,3.3c-2.1,2.9-5,5-9.9,5
			C134.4,347.8,129.2,343,129.2,336.3z"/>
		<path fill="#D1D0C9" d="M151.9,336.3L151.9,336.3c0-6.5,5.2-11.7,12.1-11.7s12,5.1,12,11.6v0.1c0,6.4-5.2,11.6-12.1,11.6
			S151.9,342.7,151.9,336.3z M169.7,336.3L169.7,336.3c0-3.3-2.3-6.1-5.7-6.1c-3.4,0-5.7,2.7-5.7,6v0.1c0,3.2,2.3,6,5.7,6
			C167.4,342.3,169.7,339.5,169.7,336.3z"/>
		<path fill="#D1D0C9" d="M178.9,337.6V325h6.3v12.4c0,3.2,1.6,4.8,4.1,4.8s4.1-1.5,4.1-4.6V325h6.3v12.4c0,7.2-4.1,10.4-10.5,10.4
			S178.9,344.6,178.9,337.6z"/>
		<path fill="#D1D0C9" d="M203.4,325h5.8l9.2,11.8V325h6.1v22.4h-5.4l-9.5-12.3v12.3h-6.1V325z"/>
		<path fill="#D1D0C9" d="M234,330.5h-6.7V325h19.6v5.4h-6.7v16.9H234V330.5z"/>
		<path fill="#D1D0C9" d="M256,339l-8.5-14h7.1l4.6,8.1l4.6-8.1h6.9l-8.5,13.9v8.5H256V339z"/>
	</g>
	<g>
		<path fill="#6F6F63" d="M23.3,186.2h-4.7v-2.7l4.7-13.3h2.9v13.3h1.1v2.7h-1.1v4.6h-2.9V186.2z M23.3,176.1l-2.3,7.5h2.3V176.1z"
			/>
		<path fill="#6F6F63" d="M32.5,185v0.8c0,1.8,0.4,2.6,1.2,2.6c0.7,0,1.1-0.6,1.1-1.6v-6.2c0-1-0.3-1.5-0.9-1.5s-1.1,0.6-1.3,1.7
			h-2.4l0.3-10.6h6.7l-0.1,2.7h-4.3l-0.2,5c0.8-1.1,1.5-1.5,2.3-1.5c1.8,0,2.8,1.7,2.8,4.7v4.8c0,2.1-0.2,2.9-0.9,3.8
			c-0.7,0.9-1.9,1.4-3.1,1.4c-2.4,0-3.8-1.7-3.8-4.9c0-0.5,0-0.8,0.1-1.3H32.5z"/>
		<path fill="#6F6F63" d="M40,172.3c0-1,0-1.3,0.3-1.6c0.3-0.4,0.8-0.7,1.4-0.7c0.6,0,1.2,0.3,1.4,0.7c0.2,0.4,0.3,0.6,0.3,1.6v4.3
			c0,1,0,1.3-0.3,1.6c-0.3,0.4-0.8,0.7-1.4,0.7c-0.6,0-1.2-0.3-1.4-0.7c-0.2-0.4-0.3-0.6-0.3-1.6V172.3z M42.2,171.8
			c0-0.5-0.1-0.7-0.5-0.7c-0.4,0-0.5,0.2-0.5,0.7v5.3c0,0.5,0.1,0.7,0.5,0.7c0.4,0,0.5-0.2,0.5-0.7V171.8z"/>
	</g>
</g>
</svg>
