<?xml version="1.0" encoding="utf-8"?>
<!-- Generator: Adobe Illustrator 17.1.0, SVG Export Plug-In . SVG Version: 6.00 Build 0)  -->
<!DOCTYPE svg PUBLIC "-//W3C//DTD SVG 1.1//EN" "http://www.w3.org/Graphics/SVG/1.1/DTD/svg11.dtd">
<svg version="1.1" id="Layer_1" xmlns="http://www.w3.org/2000/svg" xmlns:xlink="http://www.w3.org/1999/xlink" x="0px" y="0px"
	 viewBox="0 0 80 90" enable-background="new 0 0 80 90" xml:space="preserve">
<path fill="#D1D0C9" d="M40,19.9c-6.7,0-13,2.6-17.7,7.4s-7.4,11-7.4,17.7s2.6,13,7.4,17.7s11,7.4,17.7,7.4c6.7,0,13-2.6,17.7-7.4
	s7.4-11,7.4-17.7c0-6.7-2.6-13-7.4-17.7S46.7,19.9,40,19.9z"/>
<path d="M467.3-161.3c1.5,0.2,8.3,0.1,14.1-4.7c0,0-5.6-1.8-5.2-3.2c0.4-1.4,8.7,0.5,10.4-0.6c0,0-4.5-3-3.9-7.3
	c0.6-4.3,1.8-4.3,2.7-1.9c0.9,2.3,6.1,7.5,7,5.4s-4.7-6.4-0.9-14.7c1.9-4,3.4,11.7,5.7,10.2c1.2-0.1,0.4-11.5,1.8-14.9
	s2.1,1,1.9,3.4c-0.1,2.3,1.2,8.9,1.9,9.6c0,0-0.1-10.4,1.3-10.8c1.4-0.4,1.9,9.6,3.1,10.9s-0.8,3.6-3.6,4.9
	c-2.9,1.3-6.4,7.5-6.1,9.3c0.3,1.8-5.2,2.6-5.8,5.6c-0.6,3,6.4,2.6,11.2,6.2c4.8,3.6,6.5,10.2,6.1,12.8c0,0,2.9,6.4,1.4,9.1
	c0,0-3.6-5.6-7.1-6.1s-1.9-1.7-3.4-2.3c-1.4-0.6-7.1-1-8.3-0.6c-1.2,0.4-10.2,10.8-6.1,15.6c4.1,4.8,10.9,14.3,13,14.3
	s-1.3,1.3,1.6,1.6c2.9,0.3,7.9,0.3,10.8-1.7c2.8-1.9,4.7,1.6,4.1,2.7c0,0,3.6,1.4,3.9,3.8s-2.3,3.5-3.5,2.6c0,0,2.2-2.2-0.6-3.8
	c0,0-1.4,1.4-2.3,1.2c0,0,0.4-1.3-0.3-1.8c-0.6-0.5-4.1-0.3-5.3,1.3s-1,2.3,1.3,2.6c2.3,0.3,4.5,0,3.5,0.8s-2.9,2.2-5.3,1
	c0,0-4.5-0.3-4-3.6h-1.7c0,0,0.3,1.9,1.2,2.7s-1.2,0.9-4-1.8c0,0,3.8,5.2-4-0.4c0,0,0.1,2.1-0.6,3.6c0,0,8.9-1.2,12.6,3
	c0,0,3.9,1.7,1.3,5.3c0,0,0.5-2.5-1.4-2.9c0,0-2.9,0.4-6.1-1.9c0,0,0.9,1.4,1.2,2.3c0,0,3,1.9,1,4.7c0,0-0.4-2.1-1.3-2.3
	c0,0-1,1.8-2.6,1.4c0,0,0.9-0.6,0.6-1.7c0,0-0.9-1.3-3.8-1.3c0,0-0.6,2.9,1.6,2.1c0,0-1,2.7-3.9,1.2c-2.9-1.6-1.2-5.2-1.2-5.2
	l-2.5-1.7c0,0-0.9,0.9,0.1,2.2s-1.4-0.1-0.6,1.4c0.8,1.6-2.1-0.6-1,2.9s-1.9,0.1-3.1-0.6c0,0-0.5,1.3-3.2-1.6c0,0,0,1.5-0.6,0.6
	c-0.6-0.8,0.2,1-0.6,0.2c-0.7-0.7-0.3,0.7-1-0.2c-0.8-0.9-1.7-2.6-2.5-2.6c-0.8,0-0.6-0.9-1.2-1.4c0,0-0.1,1.6-1-0.2
	c0,0-0.4,1.1-1.1-0.7c0,0-1.3,1.3-2.3-1.6c-1.1-2.9-2.2-2.5-2.2-2.5s-4.7,8.6-3.5,3.3c0,0-3.7,2.6-1.9-0.1c0,0,0-1-1.6-0.1
	c-1.6,0.8-0.2-1.5,0.2-1.9c0,0-1.3,0.2-0.7-0.4c0,0-0.5-0.6,0-1.1c0,0-0.8-0.3,0-0.8c0,0-2.1-0.1-0.7-1c0,0-0.6-0.5,0.1-1.2l-0.2-1
	c0,0-5.7,1.7-5.2,0.6c0,0-1.1,0-0.5-0.7c0,0-0.7-0.6-1.9,0.8s-1.7,0.6-1-0.9c0,0-2.4,1.3-3.2,1.3c-0.8,0-0.3-1.1-1.3-1.1
	c-1,0-0.5,1.6-2.8,1.6s-2.4-0.2-2.1-0.6c0,0-3.1,0.8-4-0.2c-0.9-1-0.6-1.8-1.5-1.3s-1.1,1.4-5.2,1.2c0,0-0.4,1.3-3.3,1.2
	s-10.4,2.5-12.3,1s0.5-2.8,0.5-2.8s-2.2-0.9-0.5-1.7c1.6-0.8,6.7-3.3,6.7-3.3s-3.9-0.3-2.9-1.2c1-1,4.1-1.3,7.4-1.8
	s14.5-2.6,16.3-3.8c0,0,0.1-0.7,0.7-1c0,0-1.3-1-0.9-1.6c0,0-0.2-0.6,0.8-0.4s0.4-0.4,0.4-0.4s-2.3-0.4-0.5-0.9c0,0-0.7-0.9,1.2-1
	c0,0-1.9-1.3,0.3-1.3c0,0-0.9-0.6,0.4-1.3c1.3-0.7-0.5-0.6-0.8-0.2s-1.7,0.4-2,0c0,0-2.7,2.8-5.1,1.5c-2.4-1.3-1.9-1.6-1.9-1.6
	s-1.7,1.3-1.8,0c0,0-1,1-1.8-0.2s-1.3-0.8-1.5-0.1s-2.6,4.8-6.5,1.3c0,0-3.2,0.5-4.2-1.1c0,0-1.9-0.8-2.3-1.9c0,0-2,0.7-4.1-3.9
	c0,0-3.7,0.6-4.9-3.9c0,0-3.5,0.1-4.6-3.4c0,0-4.6-1.1-3.6-5c0,0-5.1-0.3-3.5-5.4c0,0-2.3-0.7-2.4-2.9c-0.1-2.2-0.1-2.7-0.6-2.7
	s-4.2,0.6-4.6-5.6c0,0-3.4-0.6-2.7-4.9c0,0-5.7-4.7-0.7-7c5.1-2.4,4.5-2.6,4.5-2.6s-13.1,0.1-13.1-1.5s9.2-4,9.3-4.9
	c0-0.9-14-1.5-13.5-4c0.5-2.5,14.7,0.4,16.7-0.7c0,0-0.7-0.6,0.1-1c0,0-15.6-5.4-14-8c0,0-0.7-2.2,1.7-0.5c0,0,8.9,0.8,13.6,3.2
	c2,0.5,5.9,0.3,5.9,0.3s-11.6-6.6-13.7-8.8c-2.1-2.2-4.2-4.6-2.9-6.6s12.7,9.6,19.8,9.8c0,0-13.2-9.8-12.8-15.1c0,0-1-3.2-0.2-4
	c0.9-0.7,6.9,6.4,12.1,10.1c0,0-6.6-13.3-2.9-15.5s0.5,9.5,20,22.8c1,0.5,0.8-0.3,0.3-1s-8.8-12.2-5-17.5c1-1.3,8.7,17.5,20.7,27.5
	c0,0,0-4.2,2.2-3.2c0,0,3.2-4.7,4.8-0.6c1.6,4,4.8,13.1,4.2,16.9s8.4,6.2,12.8,9.6C461.1-164.5,466.7-161.4,467.3-161.3z"/>
<path fill="#393933" d="M37.4,34.3c-0.5,0.2-3.1,0.7-5.6-0.7c0,0,1.9-1.1,1.7-1.6c-0.3-0.5-3.2,0.9-3.9,0.5c0,0,1.5-1.5,0.9-3
	c-0.6-1.6-1-1.5-1.2-0.5c-0.2,0.9-1.7,3.3-2.2,2.6c-0.5-0.7,1.3-2.7-0.8-5.5c-1-1.4-0.4,4.6-1.4,4.3c-0.4,0-1-4.3-1.8-5.4
	c-0.8-1.2-0.7,0.5-0.5,1.4c0.2,0.9,0.2,3.4,0,3.7c0,0-0.7-3.9-1.3-3.9c-0.6,0,0,3.7-0.3,4.3s0.6,1.3,1.7,1.6c1.2,0.3,2.9,2.3,3,3
	c0,0.7,2.1,0.6,2.6,1.6s-2.2,1.5-3.7,3.2c-1.5,1.7-2.2,4.3-1.4,5.1c0,0-1.7,2.5,0.2,3.7c0,0,0.9-2.4,2.2-2.8
	c1.3-0.5,1.4-1.1,1.9-1.5c0.5-0.4,1.8-0.6,2.3-0.5c0.5,0.1,4.6,3.2,3.5,5.4c-1.2,2.1-3,6.2-3.8,6.3c-0.8,0.2,0.6,0.4-0.5,0.7
	c-1,0.3-2.9,0.7-4.2,0.2s-1.6,0.9-1.3,1.3c0,0-1.2,0.8-1.2,1.7c0.1,0.9,1.1,1.1,1.5,0.7c0,0-1-0.7,0-1.5c0,0,0.6,0.4,1,0.3
	c0,0-0.2-0.5,0-0.7s1.5-0.4,2.1,0.1c0.6,0.5,0.6,0.8-0.3,1.1c-0.9,0.3-1.7,0.3-1.2,0.6c0.5,0.2,1.2,0.6,2.1,0c0,0,1.7-0.4,1.2-1.7
	l0.6-0.1c0,0,0.1,0.7-0.2,1.1c-0.3,0.4,0.5,0.3,1.4-1c0,0-1,2.2,1.5-0.4c0,0,0.1,0.8,0.5,1.3c0,0-3.4,0.2-4.5,2.1
	c0,0-1.3,0.9-0.1,2.1c0,0-0.4-0.9,0.3-1.2c0,0,1.1-0.1,2.1-1.2c0,0-0.2,0.6-0.3,1c0,0-1,1,0,1.8c0,0,0-0.8,0.3-1
	c0,0,0.5,0.6,1.1,0.3c0,0-0.4-0.2-0.4-0.6c0,0,0.2-0.6,1.3-0.8c0,0,0.5,1-0.4,0.9c0,0,0.6,0.9,1.5,0.1c0.9-0.8,0-2,0-2l0.8-0.8
	c0,0,0.4,0.3,0.1,0.8c-0.3,0.6,0.5-0.2,0.4,0.5c-0.2,0.6,0.7-0.4,0.6,1s0.7-0.1,1.1-0.5c0,0,0.3,0.4,1.1-0.8c0,0,0.1,0.5,0.3,0.2
	c0.2-0.4,0,0.4,0.2,0c0.2-0.3,0.1,0.2,0.4-0.1s0.4-1.1,0.7-1.2c0.3-0.1,0.2-0.4,0.3-0.6c0,0,0.2,0.6,0.4-0.2c0,0,0.2,0.4,0.4-0.4
	c0,0,0.6,0.4,0.7-0.8s0.6-1.1,0.6-1.1s2.4,2.9,1.6,1c0,0,1.6,0.7,0.7-0.2c0,0-0.1-0.4,0.6-0.2s0-0.6-0.2-0.7c0,0,0.5,0,0.2-0.2
	c0,0,0.1-0.3-0.1-0.4c0,0,0.3-0.2-0.1-0.3c0,0,0.8-0.2,0.2-0.4c0,0,0.2-0.2-0.1-0.4l0-0.4c0,0,2.3,0.2,2-0.2c0,0,0.4-0.1,0.1-0.3
	c0,0,0.2-0.3,0.8,0.2c0.6,0.4,0.7,0.1,0.3-0.4c0,0,1,0.3,1.3,0.3c0.3-0.1,0-0.4,0.4-0.5s0.3,0.5,1.2,0.4c0.9-0.1,0.9-0.3,0.7-0.4
	c0,0,1.2,0.1,1.5-0.4c0.3-0.4,0.1-0.7,0.5-0.6c0.4,0.1,0.5,0.4,2,0c0,0,0.2,0.4,1.3,0.2s4.1,0.1,4.7-0.6c0.6-0.7-0.4-1-0.4-1
	s0.7-0.5,0.1-0.7c-0.7-0.2-2.8-0.7-2.8-0.7s1.5-0.4,1-0.7S57.4,49,56.1,49c-1.3,0.1-5.6,0.1-6.4-0.2c0,0-0.1-0.3-0.3-0.3
	c0,0,0.4-0.5,0.2-0.6c0,0,0-0.2-0.3-0.1c-0.4,0.1-0.2-0.1-0.2-0.1s0.8-0.3,0.1-0.4c0,0,0.2-0.4-0.5-0.3c0,0,0.6-0.6-0.2-0.5
	c0,0,0.3-0.3-0.2-0.5c-0.5-0.2,0.1-0.3,0.3-0.1c0.2,0.1,0.7,0,0.8-0.1c0,0,1.2,0.8,2,0.2c0.8-0.7,0.6-0.8,0.6-0.8s0.7,0.4,0.7-0.1
	c0,0,0.4,0.3,0.6-0.2c0.2-0.5,0.4-0.4,0.6-0.2c0.1,0.2,1.3,1.6,2.5,0c0,0,1.3-0.1,1.5-0.7c0,0,0.6-0.4,0.7-0.9c0,0,0.8,0.1,1.3-1.8
	c0,0,1.4-0.1,1.5-1.8c0,0,1.3-0.2,1.5-1.6c0,0,1.6-0.8,1-2.1c0,0,1.9-0.5,0.9-2.3c0,0,0.8-0.4,0.7-1.3c-0.1-0.9-0.2-1,0-1.1
	c0.2,0,1.6-0.1,1.3-2.4c0,0,1.2-0.5,0.6-2c0,0,1.8-2.2-0.3-2.7c-2.1-0.5-1.9-0.6-1.9-0.6s4.9-1,4.8-1.5c-0.1-0.6-3.8-0.8-3.8-1.1
	c-0.1-0.3,5.1-1.6,4.8-2.5c-0.4-0.9-5.4,1.3-6.3,1c0,0,0.2-0.3-0.1-0.4c0,0,5.4-3.2,4.6-4.1c0,0,0.1-0.9-0.7-0.1c0,0-3.3,1-4.8,2.2
	c-0.7,0.3-2.2,0.6-2.2,0.6s3.8-3.3,4.4-4.3s1.2-2,0.6-2.7c-0.7-0.6-4,4.5-6.7,5.2c0,0,4.2-4.7,3.6-6.6c0,0,0.1-1.3-0.2-1.5
	s-2.1,2.9-3.7,4.7c0,0,1.5-5.5-0.1-6s0.5,3.6-5.7,10c-0.3,0.2-0.3-0.1-0.2-0.4c0.2-0.3,2.4-5.2,0.5-6.9c-0.5-0.4-1.9,7.2-5.6,11.8
	c0,0-0.3-1.6-1-1c0,0-1.5-1.5-1.8,0.1c-0.3,1.6-0.8,5.2-0.3,6.6c0.5,1.4-2.7,2.9-4.1,4.6S37.7,34.2,37.4,34.3z"/>
<g>
	<path fill="#393933" d="M10.2,46.1l0,0.7l-2.8,1.3l0-0.8l0.5-0.2l0-1.1l-0.5-0.2l0-0.8L10.2,46.1z M8.5,46.8l0.8-0.3l-0.8-0.3
		L8.5,46.8z"/>
	<path fill="#393933" d="M10.4,49.3l0.1,0.7l-1.2,1.4l1.5-0.3l0.1,0.8l-2.8,0.5L8,51.7l1.3-1.5l-1.5,0.3l-0.1-0.8L10.4,49.3z"/>
	<path fill="#393933" d="M10.9,54.2l-0.3-0.8l0.6-0.2l0.8,2.3l-0.6,0.2l-0.3-0.8l-2,0.7l-0.2-0.7L10.9,54.2z"/>
	<path fill="#393933" d="M12.5,56.8l0.6,1.2c0.2,0.4,0.2,0.7,0.1,1c-0.1,0.2-0.2,0.4-0.5,0.5l0,0c-0.4,0.2-0.7,0.1-1-0.1l-0.6,1
		l-0.4-0.8l0.5-0.9l-0.1-0.3l-0.8,0.4L10,58L12.5,56.8z M11.9,58.5c0.1,0.2,0.3,0.3,0.5,0.2l0,0c0.2-0.1,0.2-0.3,0.1-0.5l-0.2-0.5
		l-0.6,0.3L11.9,58.5z"/>
	<path fill="#393933" d="M14.4,60.3l0.4,0.7l-2.4,1.5L12,61.8L14.4,60.3z"/>
	<path fill="#393933" d="M15.6,62.3l0.5,0.6l-0.4,1.2L17,64l0.5,0.6l-2.2,1.7l-0.5-0.6l1.3-1l-1.3,0.1l0,0l0.4-1.2l-1.3,1L13.4,64
		L15.6,62.3z"/>
	<path fill="#393933" d="M19.1,68.2L19.1,68.2c0.5-0.6,1.4-0.7,2.1-0.2c0.4,0.4,0.6,0.8,0.5,1.2l-0.7,0c0-0.3-0.1-0.5-0.3-0.6
		c-0.3-0.2-0.7-0.2-1,0.1l0,0c-0.3,0.3-0.3,0.8,0,1c0.2,0.2,0.4,0.2,0.7,0.1l0.2,0.7c-0.4,0.1-0.9,0.1-1.4-0.3
		C18.7,69.8,18.6,68.9,19.1,68.2z"/>
	<path fill="#393933" d="M22.3,70.8L22.3,70.8c0.4-0.7,1.3-0.9,2.1-0.4c0.7,0.5,0.9,1.3,0.5,2l0,0c-0.4,0.7-1.3,0.9-2.1,0.4
		C22,72.3,21.8,71.4,22.3,70.8z M24.2,71.9L24.2,71.9c0.2-0.4,0.2-0.8-0.2-1c-0.4-0.2-0.8-0.1-1,0.3l0,0c-0.2,0.3-0.2,0.8,0.2,1
		C23.5,72.4,23.9,72.3,24.2,71.9z"/>
	<path fill="#393933" d="M26.2,73.2l0.6-1.4l0.7,0.3l-0.6,1.4c-0.2,0.4-0.1,0.6,0.2,0.8s0.5,0,0.7-0.3l0.6-1.4l0.7,0.3l-0.6,1.4
		c-0.4,0.8-1,1-1.7,0.7C26.1,74.6,25.8,74,26.2,73.2z"/>
	<path fill="#393933" d="M30.6,73.3l0.7,0.2l0.7,1.7l0.4-1.4l0.7,0.2l-0.8,2.7l-0.7-0.2L31,74.8l-0.4,1.5L29.8,76L30.6,73.3z"/>
	<path fill="#393933" d="M35.2,75.1L34.3,75l0.1-0.7l2.4,0.4l-0.1,0.7l-0.8-0.1l-0.3,2.1l-0.8-0.1L35.2,75.1z"/>
	<path fill="#393933" d="M39,76.6l-1-1.8l0.9,0l0.6,1l0.6-1l0.9,0l-1.1,1.7l0,1.1l-0.8,0L39,76.6z"/>
	<path fill="#393933" d="M41.7,78c0.3,0,0.4-0.2,0.4-0.4l-0.3,0l0-0.8l0.8-0.1l0,0.6c0,0.6-0.3,0.8-0.8,0.9L41.7,78z"/>
	<path fill="#393933" d="M46,74.3l0.8-0.2l0.9,0.9l0.4-1.2l0.8-0.2l0.7,2.7l-0.7,0.2l-0.4-1.6L48,76.1l0,0l-1-0.9l0.4,1.5L46.7,77
		L46,74.3z"/>
	<path fill="#393933" d="M50.4,73l0.7-0.3l1,2.6l-0.7,0.3L50.4,73z"/>
	<path fill="#393933" d="M55.3,72.3L55.3,72.3c-0.2-0.3-0.1-0.7,0.2-0.9s0.7-0.1,0.9,0.2l0,0c0.2,0.3,0.1,0.7-0.2,0.9
		C55.9,72.7,55.5,72.6,55.3,72.3z"/>
	<path fill="#393933" d="M59.6,68.4l-0.3,0.4l-0.5-0.4l0.5-0.7l0.4-0.4l1.8,2.1L61,70L59.6,68.4z"/>
	<path fill="#393933" d="M62.3,67.8L62.3,67.8C62,67.5,62,67.3,62.1,67c-0.2,0.1-0.5,0.1-0.7-0.1l0,0c-0.3-0.3-0.3-0.8,0.2-1.3
		s1-0.5,1.3-0.2l0,0c0.2,0.2,0.2,0.5,0.2,0.7c0.3-0.1,0.6-0.1,0.8,0.1l0,0c0.4,0.3,0.3,0.9-0.2,1.4C63.2,68,62.6,68.1,62.3,67.8z
		 M62.5,65.9L62.5,65.9c-0.1-0.1-0.3-0.1-0.5,0c-0.1,0.2-0.1,0.3,0,0.5l0,0c0.1,0.1,0.3,0.1,0.5,0C62.6,66.2,62.6,66,62.5,65.9z
		 M63.3,66.6L63.3,66.6c-0.1-0.1-0.3-0.1-0.5,0.1s-0.2,0.4-0.1,0.5l0,0c0.1,0.1,0.3,0.1,0.5-0.1S63.4,66.7,63.3,66.6z"/>
	<path fill="#393933" d="M65.5,65c-0.3,0-0.6,0-1-0.4l0,0c-0.7-0.5-1-1.3-0.5-2c0.2-0.3,0.5-0.5,0.8-0.6l0.2,0.6
		c-0.2,0.1-0.4,0.1-0.5,0.3c-0.2,0.3-0.1,0.5,0.2,0.8c0-0.2,0-0.4,0.2-0.6c0.3-0.4,0.8-0.6,1.3-0.2l0,0c0.5,0.4,0.5,1,0.1,1.5
		C66,64.8,65.8,64.9,65.5,65z M65.7,63.6L65.7,63.6c-0.2-0.1-0.4-0.1-0.5,0.1c-0.1,0.2-0.1,0.4,0.1,0.5l0,0c0.2,0.1,0.4,0.1,0.5-0.1
		C65.9,64,65.9,63.7,65.7,63.6z"/>
	<path fill="#393933" d="M67.4,62l-0.2-0.7c0.3-0.1,0.5-0.2,0.6-0.4c0.1-0.2,0.1-0.4-0.1-0.5l0,0c-0.2-0.1-0.3,0-0.5,0.3L67.1,61
		l-0.4-0.1l-0.2-0.8L65.9,61l-0.5-0.3l1-1.8l0.5,0.3l0.2,0.9c0.3-0.3,0.6-0.5,1-0.2l0,0c0.5,0.3,0.6,0.9,0.3,1.4
		C68.1,61.7,67.7,61.9,67.4,62z"/>
</g>
<path fill="#6F6F63" d="M72,23.7l-1.1,1c3.9,6,6.1,12.9,6.1,20.2c0,9.9-3.9,19.1-10.8,26.1c-7,7-16.2,10.8-26.1,10.8
	c-9.9,0-19.1-3.9-26.1-10.8c-7-7-10.8-16.2-10.8-26.1s3.9-19.1,10.8-26.1c7-7,16.2-10.8,26.1-10.8c3.8,0,7.6,0.6,11.1,1.7l0.5-1.4
	C47.9,7.2,44,6.6,40,6.6c-10.3,0-19.9,4-27.2,11.2S1.6,34.7,1.6,45s4,19.9,11.2,27.2S29.7,83.4,40,83.4s19.9-4,27.2-11.2
	S78.4,55.3,78.4,45C78.4,37.3,76.1,30,72,23.7z"/>
<path fill="#393933" d="M73.2,22.6L72,23.7c4.2,6.2,6.5,13.6,6.5,21.3c0,10.3-4,19.9-11.3,27.2C59.9,79.4,50.3,83.4,40,83.4
	c-10.3,0-19.9-4-27.2-11.3C5.6,64.9,1.6,55.3,1.6,45s4-19.9,11.3-27.2C20.1,10.6,29.7,6.6,40,6.6c4,0,7.9,0.6,11.6,1.8l0.5-1.5
	C48.2,5.6,44.2,5,40,5C29.3,5,19.3,9.2,11.7,16.7S0,34.3,0,45s4.2,20.7,11.7,28.3S29.3,85,40,85s20.7-4.2,28.3-11.7
	C75.8,65.7,80,55.7,80,45C80,36.9,77.6,29.2,73.2,22.6z"/>
<g>
	<path fill="none" stroke="#393933" stroke-miterlimit="10" d="M69.6,55.4c1.2-3.3,1.8-6.8,1.8-10.4c0-4.3-0.8-8.4-2.5-12.2"/>
	<path fill="none" stroke="#393933" stroke-miterlimit="10" d="M46.7,14.4c-2.2-0.5-4.4-0.7-6.7-0.7c-8.4,0-16.2,3.3-22.1,9.2
		C13.1,27.7,10,33.7,9,40.3"/>
</g>
</svg>
