<?xml version="1.0" encoding="utf-8"?>
<!-- Generator: Adobe Illustrator 17.1.0, SVG Export Plug-In . SVG Version: 6.00 Build 0)  -->
<!DOCTYPE svg PUBLIC "-//W3C//DTD SVG 1.1//EN" "http://www.w3.org/Graphics/SVG/1.1/DTD/svg11.dtd">
<svg version="1.1" id="Layer_1" xmlns="http://www.w3.org/2000/svg" xmlns:xlink="http://www.w3.org/1999/xlink" x="0px" y="0px"
	 viewBox="0 0 400 400" enable-background="new 0 0 400 400" xml:space="preserve">
<g>
	<path fill="#393933" d="M-703.1-36.9l-0.5-1.5h-3.7l-0.5,1.5h-2.1l3.3-8.6h2.3l3.3,8.6H-703.1z M-705.4-43.7l-1.3,3.7h2.7
		L-705.4-43.7z"/>
	<path fill="#393933" d="M-682.4-36.9l-1.7-3.1h-1.3v3.1h-1.8v-8.6h4c1.8,0,2.9,1.2,2.9,2.8c0,1.5-1,2.3-1.9,2.6l1.9,3.3H-682.4z
		 M-682.2-42.8c0-0.7-0.6-1.2-1.3-1.2h-1.9v2.3h1.9C-682.7-41.6-682.2-42-682.2-42.8z"/>
	<path fill="#393933" d="M-666-36.9v-8.6h6.1v1.6h-4.3v1.8h4.2v1.6h-4.2v2h4.3v1.6H-666z"/>
	<path fill="#393933" d="M-639.6-36.9l-4.1-5.6v5.6h-1.8v-8.6h1.9l4,5.4v-5.4h1.8v8.6H-639.6z"/>
	<path fill="#393933" d="M-617.2-36.9l-0.5-1.5h-3.7l-0.5,1.5h-2.1l3.3-8.6h2.3l3.3,8.6H-617.2z M-619.6-43.7L-621-40h2.7
		L-619.6-43.7z"/>
	<path fill="#393933" d="M-602.3-41.2c0-2.6,2-4.5,4.6-4.5c1.9,0,3,1,3.6,2.1l-1.6,0.8c-0.4-0.7-1.1-1.3-2-1.3
		c-1.6,0-2.7,1.2-2.7,2.8c0,1.6,1.1,2.8,2.7,2.8c0.9,0,1.7-0.5,2-1.3l1.6,0.8c-0.6,1.1-1.7,2.1-3.6,2.1
		C-600.3-36.8-602.3-38.6-602.3-41.2z"/>
</g>
<g>
	<g>
		<path fill="#6F6F63" d="M200,8c25.9,0,51.1,5.1,74.7,15.1c22.9,9.7,43.4,23.5,61,41.2c17.6,17.6,31.5,38.2,41.2,61
			c10,23.7,15.1,48.8,15.1,74.7s-5.1,51.1-15.1,74.7c-9.7,22.9-23.5,43.4-41.2,61c-17.6,17.6-38.2,31.5-61,41.2
			c-23.7,10-48.8,15.1-74.7,15.1s-51.1-5.1-74.7-15.1c-22.9-9.7-43.4-23.5-61-41.2c-17.6-17.6-31.5-38.2-41.2-61
			C13.1,251.1,8,225.9,8,200s5.1-51.1,15.1-74.7c9.7-22.9,23.5-43.4,41.2-61c17.6-17.6,38.2-31.5,61-41.2C148.9,13.1,174.1,8,200,8
			 M200,0C89.5,0,0,89.5,0,200s89.5,200,200,200s200-89.5,200-200S310.5,0,200,0L200,0z"/>
	</g>
	<g>
		<circle fill="#D1D0C9" cx="200" cy="200" r="183.3"/>
	</g>
	<g>
		<path fill="#393933" d="M16.7,200c0,101.3,82.1,183.3,183.3,183.3S383.3,301.3,383.3,200H16.7z"/>
	</g>
	<g>
		<g>
			<defs>
				<circle id="SVGID_1_" cx="200" cy="200" r="79"/>
			</defs>
			<clipPath id="SVGID_2_">
				<use xlink:href="#SVGID_1_"  overflow="visible"/>
			</clipPath>
			<g clip-path="url(#SVGID_2_)">
				<path fill="none" stroke="#E7E7E7" stroke-width="0.7897" stroke-miterlimit="10" d="M117.1,205.7c0,0,3.9-3.9,7.9,0
					c3.9,3.9,7.9,0,7.9,0s3.9-3.9,7.9,0c3.9,3.9,7.9,0,7.9,0s3.9-3.9,7.9,0s7.9,0,7.9,0s3.9-3.9,7.9,0s7.9,0,7.9,0s3.9-3.9,7.9,0
					s7.9,0,7.9,0s3.9-3.9,7.9,0c3.9,3.9,7.9,0,7.9,0s3.9-3.9,7.9,0c3.9,3.9,7.9,0,7.9,0s3.9-3.9,7.9,0c3.9,3.9,7.9,0,7.9,0
					s3.9-3.9,7.9,0c3.9,3.9,7.9,0,7.9,0s3.9-3.9,7.9,0c3.9,3.9,7.9,0,7.9,0s3.9-3.9,7.9,0"/>
				<path fill="none" stroke="#E7E7E7" stroke-width="0.7897" stroke-miterlimit="10" d="M117.1,213.6c0,0,3.9-3.9,7.9,0
					c3.9,3.9,7.9,0,7.9,0s3.9-3.9,7.9,0c3.9,3.9,7.9,0,7.9,0s3.9-3.9,7.9,0c3.9,3.9,7.9,0,7.9,0s3.9-3.9,7.9,0c3.9,3.9,7.9,0,7.9,0
					s3.9-3.9,7.9,0c3.9,3.9,7.9,0,7.9,0s3.9-3.9,7.9,0c3.9,3.9,7.9,0,7.9,0s3.9-3.9,7.9,0c3.9,3.9,7.9,0,7.9,0s3.9-3.9,7.9,0
					c3.9,3.9,7.9,0,7.9,0s3.9-3.9,7.9,0c3.9,3.9,7.9,0,7.9,0s3.9-3.9,7.9,0c3.9,3.9,7.9,0,7.9,0s3.9-3.9,7.9,0"/>
				<path fill="none" stroke="#E7E7E7" stroke-width="0.7897" stroke-miterlimit="10" d="M117.1,221.5c0,0,3.9-3.9,7.9,0
					c3.9,3.9,7.9,0,7.9,0s3.9-3.9,7.9,0c3.9,3.9,7.9,0,7.9,0s3.9-3.9,7.9,0s7.9,0,7.9,0s3.9-3.9,7.9,0s7.9,0,7.9,0s3.9-3.9,7.9,0
					s7.9,0,7.9,0s3.9-3.9,7.9,0c3.9,3.9,7.9,0,7.9,0s3.9-3.9,7.9,0c3.9,3.9,7.9,0,7.9,0s3.9-3.9,7.9,0c3.9,3.9,7.9,0,7.9,0
					s3.9-3.9,7.9,0c3.9,3.9,7.9,0,7.9,0s3.9-3.9,7.9,0c3.9,3.9,7.9,0,7.9,0s3.9-3.9,7.9,0"/>
				<path fill="none" stroke="#E7E7E7" stroke-width="0.7897" stroke-miterlimit="10" d="M117.1,229.4c0,0,3.9-3.9,7.9,0
					c3.9,3.9,7.9,0,7.9,0s3.9-3.9,7.9,0c3.9,3.9,7.9,0,7.9,0s3.9-3.9,7.9,0c3.9,3.9,7.9,0,7.9,0s3.9-3.9,7.9,0c3.9,3.9,7.9,0,7.9,0
					s3.9-3.9,7.9,0c3.9,3.9,7.9,0,7.9,0s3.9-3.9,7.9,0c3.9,3.9,7.9,0,7.9,0s3.9-3.9,7.9,0c3.9,3.9,7.9,0,7.9,0s3.9-3.9,7.9,0
					c3.9,3.9,7.9,0,7.9,0s3.9-3.9,7.9,0c3.9,3.9,7.9,0,7.9,0s3.9-3.9,7.9,0c3.9,3.9,7.9,0,7.9,0s3.9-3.9,7.9,0"/>
				<path fill="none" stroke="#E7E7E7" stroke-width="0.7897" stroke-miterlimit="10" d="M117.1,237.3c0,0,3.9-3.9,7.9,0
					c3.9,3.9,7.9,0,7.9,0s3.9-3.9,7.9,0c3.9,3.9,7.9,0,7.9,0s3.9-3.9,7.9,0s7.9,0,7.9,0s3.9-3.9,7.9,0s7.9,0,7.9,0s3.9-3.9,7.9,0
					s7.9,0,7.9,0s3.9-3.9,7.9,0c3.9,3.9,7.9,0,7.9,0s3.9-3.9,7.9,0c3.9,3.9,7.9,0,7.9,0s3.9-3.9,7.9,0c3.9,3.9,7.9,0,7.9,0
					s3.9-3.9,7.9,0c3.9,3.9,7.9,0,7.9,0s3.9-3.9,7.9,0c3.9,3.9,7.9,0,7.9,0s3.9-3.9,7.9,0"/>
				<path fill="none" stroke="#E7E7E7" stroke-width="0.7897" stroke-miterlimit="10" d="M117.1,245.2c0,0,3.9-3.9,7.9,0
					c3.9,3.9,7.9,0,7.9,0s3.9-3.9,7.9,0c3.9,3.9,7.9,0,7.9,0s3.9-3.9,7.9,0c3.9,3.9,7.9,0,7.9,0s3.9-3.9,7.9,0c3.9,3.9,7.9,0,7.9,0
					s3.9-3.9,7.9,0c3.9,3.9,7.9,0,7.9,0s3.9-3.9,7.9,0c3.9,3.9,7.9,0,7.9,0s3.9-3.9,7.9,0c3.9,3.9,7.9,0,7.9,0s3.9-3.9,7.9,0
					c3.9,3.9,7.9,0,7.9,0s3.9-3.9,7.9,0c3.9,3.9,7.9,0,7.9,0s3.9-3.9,7.9,0c3.9,3.9,7.9,0,7.9,0s3.9-3.9,7.9,0"/>
				<path fill="none" stroke="#E7E7E7" stroke-width="0.7897" stroke-miterlimit="10" d="M117.1,253.1c0,0,3.9-3.9,7.9,0
					c3.9,3.9,7.9,0,7.9,0s3.9-3.9,7.9,0c3.9,3.9,7.9,0,7.9,0s3.9-3.9,7.9,0c3.9,3.9,7.9,0,7.9,0s3.9-3.9,7.9,0c3.9,3.9,7.9,0,7.9,0
					s3.9-3.9,7.9,0c3.9,3.9,7.9,0,7.9,0s3.9-3.9,7.9,0c3.9,3.9,7.9,0,7.9,0s3.9-3.9,7.9,0c3.9,3.9,7.9,0,7.9,0s3.9-3.9,7.9,0
					c3.9,3.9,7.9,0,7.9,0s3.9-3.9,7.9,0c3.9,3.9,7.9,0,7.9,0s3.9-3.9,7.9,0c3.9,3.9,7.9,0,7.9,0s3.9-3.9,7.9,0"/>
				<path fill="none" stroke="#E7E7E7" stroke-width="0.7897" stroke-miterlimit="10" d="M117.1,261c0,0,3.9-3.9,7.9,0
					c3.9,3.9,7.9,0,7.9,0s3.9-3.9,7.9,0c3.9,3.9,7.9,0,7.9,0s3.9-3.9,7.9,0s7.9,0,7.9,0s3.9-3.9,7.9,0s7.9,0,7.9,0s3.9-3.9,7.9,0
					s7.9,0,7.9,0s3.9-3.9,7.9,0c3.9,3.9,7.9,0,7.9,0s3.9-3.9,7.9,0c3.9,3.9,7.9,0,7.9,0s3.9-3.9,7.9,0c3.9,3.9,7.9,0,7.9,0
					s3.9-3.9,7.9,0c3.9,3.9,7.9,0,7.9,0s3.9-3.9,7.9,0c3.9,3.9,7.9,0,7.9,0s3.9-3.9,7.9,0"/>
				<path fill="none" stroke="#E7E7E7" stroke-width="0.7897" stroke-miterlimit="10" d="M117.1,268.9c0,0,3.9-3.9,7.9,0
					c3.9,3.9,7.9,0,7.9,0s3.9-3.9,7.9,0c3.9,3.9,7.9,0,7.9,0s3.9-3.9,7.9,0s7.9,0,7.9,0s3.9-3.9,7.9,0s7.9,0,7.9,0s3.9-3.9,7.9,0
					s7.9,0,7.9,0s3.9-3.9,7.9,0c3.9,3.9,7.9,0,7.9,0s3.9-3.9,7.9,0c3.9,3.9,7.9,0,7.9,0s3.9-3.9,7.9,0c3.9,3.9,7.9,0,7.9,0
					s3.9-3.9,7.9,0c3.9,3.9,7.9,0,7.9,0s3.9-3.9,7.9,0c3.9,3.9,7.9,0,7.9,0s3.9-3.9,7.9,0"/>
				<path fill="none" stroke="#E7E7E7" stroke-width="0.7897" stroke-miterlimit="10" d="M117.1,276.8c0,0,3.9-3.9,7.9,0
					c3.9,3.9,7.9,0,7.9,0s3.9-3.9,7.9,0c3.9,3.9,7.9,0,7.9,0s3.9-3.9,7.9,0c3.9,3.9,7.9,0,7.9,0s3.9-3.9,7.9,0c3.9,3.9,7.9,0,7.9,0
					s3.9-3.9,7.9,0c3.9,3.9,7.9,0,7.9,0s3.9-3.9,7.9,0c3.9,3.9,7.9,0,7.9,0s3.9-3.9,7.9,0c3.9,3.9,7.9,0,7.9,0s3.9-3.9,7.9,0
					c3.9,3.9,7.9,0,7.9,0s3.9-3.9,7.9,0c3.9,3.9,7.9,0,7.9,0s3.9-3.9,7.9,0c3.9,3.9,7.9,0,7.9,0s3.9-3.9,7.9,0"/>
			</g>
		</g>
		<path fill="#6F6F63" d="M121,200c0-43.6,35.4-79,79-79s79,35.4,79,79"/>
	</g>
	<g>
		<path fill="#D1D0C9" d="M139.3,331.7l-0.6-1.7h-4.4l-0.6,1.7h-2.5l4-10.3h2.7l4,10.3H139.3z M136.4,323.6l-1.6,4.4h3.2
			L136.4,323.6z"/>
		<path fill="#D1D0C9" d="M163.9,331.7l-2-3.6h-1.6v3.6h-2.2v-10.3h4.8c2.1,0,3.4,1.4,3.4,3.3c0,1.8-1.1,2.8-2.2,3l2.3,3.9H163.9z
			 M164.1,324.7c0-0.9-0.7-1.4-1.5-1.4h-2.3v2.8h2.3C163.4,326.1,164.1,325.6,164.1,324.7z"/>
		<path fill="#D1D0C9" d="M183.3,331.7v-10.3h7.3v1.9h-5.1v2.2h5v1.9h-5v2.3h5.1v1.9H183.3z"/>
		<path fill="#D1D0C9" d="M214.8,331.7l-4.9-6.7v6.7h-2.2v-10.3h2.2l4.8,6.4v-6.4h2.2v10.3H214.8z"/>
		<path fill="#D1D0C9" d="M241.3,331.7l-0.6-1.7h-4.4l-0.6,1.7h-2.5l4-10.3h2.7l4,10.3H241.3z M238.5,323.6l-1.6,4.4h3.2
			L238.5,323.6z"/>
		<path fill="#D1D0C9" d="M259.2,326.6c0-3.2,2.4-5.3,5.5-5.3c2.3,0,3.6,1.2,4.3,2.5l-1.9,0.9c-0.4-0.8-1.4-1.5-2.4-1.5
			c-1.9,0-3.2,1.4-3.2,3.4c0,1.9,1.4,3.4,3.2,3.4c1.1,0,2-0.6,2.4-1.5l1.9,0.9c-0.7,1.3-2,2.5-4.3,2.5
			C261.5,331.9,259.2,329.7,259.2,326.6z"/>
	</g>
</g>
</svg>
