<?xml version="1.0" encoding="utf-8"?>
<!-- Generator: Adobe Illustrator 17.1.0, SVG Export Plug-In . SVG Version: 6.00 Build 0)  -->
<!DOCTYPE svg PUBLIC "-//W3C//DTD SVG 1.1//EN" "http://www.w3.org/Graphics/SVG/1.1/DTD/svg11.dtd">
<svg version="1.1" id="Layer_1" xmlns="http://www.w3.org/2000/svg" xmlns:xlink="http://www.w3.org/1999/xlink" x="0px" y="0px"
	 viewBox="0 0 400 400" enable-background="new 0 0 400 400" xml:space="preserve">
<g>
	<path fill="#393933" d="M-703.1-36.9l-0.5-1.5h-3.7l-0.5,1.5h-2.1l3.3-8.6h2.3l3.3,8.6H-703.1z M-705.4-43.7l-1.3,3.7h2.7
		L-705.4-43.7z"/>
	<path fill="#393933" d="M-682.4-36.9l-1.7-3.1h-1.3v3.1h-1.8v-8.6h4c1.8,0,2.9,1.2,2.9,2.8c0,1.5-1,2.3-1.9,2.6l1.9,3.3H-682.4z
		 M-682.2-42.8c0-0.7-0.6-1.2-1.3-1.2h-1.9v2.3h1.9C-682.7-41.6-682.2-42-682.2-42.8z"/>
	<path fill="#393933" d="M-666-36.9v-8.6h6.1v1.6h-4.3v1.8h4.2v1.6h-4.2v2h4.3v1.6H-666z"/>
	<path fill="#393933" d="M-639.6-36.9l-4.1-5.6v5.6h-1.8v-8.6h1.9l4,5.4v-5.4h1.8v8.6H-639.6z"/>
	<path fill="#393933" d="M-617.2-36.9l-0.5-1.5h-3.7l-0.5,1.5h-2.1l3.3-8.6h2.3l3.3,8.6H-617.2z M-619.6-43.7L-621-40h2.7
		L-619.6-43.7z"/>
	<path fill="#393933" d="M-602.3-41.2c0-2.6,2-4.5,4.6-4.5c1.9,0,3,1,3.6,2.1l-1.6,0.8c-0.4-0.7-1.1-1.3-2-1.3
		c-1.6,0-2.7,1.2-2.7,2.8c0,1.6,1.1,2.8,2.7,2.8c0.9,0,1.7-0.5,2-1.3l1.6,0.8c-0.6,1.1-1.7,2.1-3.6,2.1
		C-600.3-36.8-602.3-38.6-602.3-41.2z"/>
</g>
<path fill="#393933" d="M200,8c25.9,0,51.1,5.1,74.7,15.1c22.9,9.7,43.4,23.5,61,41.2c17.6,17.6,31.5,38.2,41.2,61
	c10,23.7,15.1,48.8,15.1,74.7s-5.1,51.1-15.1,74.7c-9.7,22.9-23.5,43.4-41.2,61c-17.6,17.6-38.2,31.5-61,41.2
	c-23.7,10-48.8,15.1-74.7,15.1s-51.1-5.1-74.7-15.1c-22.9-9.7-43.4-23.5-61-41.2c-17.6-17.6-31.5-38.2-41.2-61
	C13.1,251.1,8,225.9,8,200s5.1-51.1,15.1-74.7c9.7-22.9,23.5-43.4,41.2-61c17.6-17.6,38.2-31.5,61-41.2C148.9,13.1,174.1,8,200,8
	 M200,0C89.5,0,0,89.5,0,200s89.5,200,200,200s200-89.5,200-200S310.5,0,200,0L200,0z"/>
<g>
	<path fill="#393933" d="M369.6,192.9c3.9,3.9,3.9,10.3,0,14.1L207.1,369.6c-3.9,3.9-10.3,3.9-14.1,0L30.4,207.1
		c-3.9-3.9-3.9-10.3,0-14.1L192.9,30.4c3.9-3.9,10.3-3.9,14.1,0L369.6,192.9z"/>
</g>
<g>
	<path fill="#D1D0C9" d="M234.6,319.6c0.8,0.8,0.8,2.1,0,2.9l-33.1,33.1c-0.8,0.8-2.1,0.8-2.9,0l-33.1-33.1c-0.8-0.8-0.8-2.1,0-2.9
		l33.1-33.1c0.8-0.8,2.1-0.8,2.9,0L234.6,319.6z"/>
</g>
<g>
	<path fill="#393933" d="M189.9,311.7c-0.8,0-1-0.4-0.4-1l9.5-9.5c0.5-0.5,1.4-0.5,2,0l9.5,9.5c0.5,0.5,0.4,1-0.4,1L189.9,311.7z"/>
</g>
<g>
	<path fill="#6F6F63" d="M95.8,100c-0.2,0-0.3,0-0.5-0.1L89,96.4l-6.3,3.5c-0.3,0.2-0.7,0.2-1.1-0.1c-0.3-0.2-0.5-0.6-0.4-1l1.2-7.5
		l-5.1-5.3c-0.3-0.3-0.4-0.7-0.2-1s0.4-0.6,0.8-0.7l7.1-1.1l3.2-6.8c0.2-0.4,0.5-0.6,0.9-0.6s0.7,0.2,0.9,0.6l3.2,6.8l7.1,1.1
		c0.4,0.1,0.7,0.3,0.8,0.7s0,0.7-0.2,1l-5.1,5.3l1.2,7.5c0.1,0.4-0.1,0.8-0.4,1C96.2,99.9,96,100,95.8,100z"/>
	<path fill="#6F6F63" d="M318.8,100c-0.2,0-0.3,0-0.5-0.1l-6.3-3.5l-6.3,3.5c-0.3,0.2-0.7,0.2-1.1-0.1c-0.3-0.2-0.5-0.6-0.4-1
		l1.2-7.5l-5.1-5.3c-0.3-0.3-0.4-0.7-0.2-1s0.4-0.6,0.8-0.7l7.1-1.1l3.2-6.8c0.2-0.4,0.5-0.6,0.9-0.6s0.7,0.2,0.9,0.6l3.2,6.8
		l7.1,1.1c0.4,0.1,0.7,0.3,0.8,0.7s0,0.7-0.2,1l-5.1,5.3l1.2,7.5c0.1,0.4-0.1,0.8-0.4,1C319.2,99.9,319,100,318.8,100z"/>
	<path fill="#6F6F63" d="M95.8,324c-0.2,0-0.3,0-0.5-0.1l-6.3-3.5l-6.3,3.5c-0.3,0.2-0.7,0.2-1.1-0.1c-0.3-0.2-0.5-0.6-0.4-1
		l1.2-7.5l-5.1-5.3c-0.3-0.3-0.4-0.7-0.2-1s0.4-0.6,0.8-0.7l7.1-1.1l3.2-6.8c0.2-0.4,0.5-0.6,0.9-0.6s0.7,0.2,0.9,0.6l3.2,6.8
		l7.1,1.1c0.4,0.1,0.7,0.3,0.8,0.7s0,0.7-0.2,1l-5.1,5.3l1.2,7.5c0.1,0.4-0.1,0.8-0.4,1C96.2,323.9,96,324,95.8,324z"/>
	<path fill="#6F6F63" d="M318.8,324c-0.2,0-0.3,0-0.5-0.1l-6.3-3.5l-6.3,3.5c-0.3,0.2-0.7,0.2-1.1-0.1c-0.3-0.2-0.5-0.6-0.4-1
		l1.2-7.5l-5.1-5.3c-0.3-0.3-0.4-0.7-0.2-1s0.4-0.6,0.8-0.7l7.1-1.1l3.2-6.8c0.2-0.4,0.5-0.6,0.9-0.6s0.7,0.2,0.9,0.6l3.2,6.8
		l7.1,1.1c0.4,0.1,0.7,0.3,0.8,0.7s0,0.7-0.2,1l-5.1,5.3l1.2,7.5c0.1,0.4-0.1,0.8-0.4,1C319.2,323.9,319,324,318.8,324z"/>
</g>
<path fill="#D1D0C9" d="M206,47c-3.3-3.3-8.8-3.3-12.1,0l-91.3,91.3c20.6-1,78.1,0.4,112.4,43.9c0,0-6.3-15-21-24
	c0,0,19.7-11.7,42.7-8c0,0,2.6,0.1,13.9,10.2c0,0-11.4-11.3-10.7-11.6c5.9-2.4,18.7-6.8,32.8-7.3c0,0,9.2-4.8,22.1-5.9L206,47z"/>
<path fill="#6F6F63" d="M205.5,51.9c-3.1-3.1-8.1-3.1-11.2,0L161.2,85l16.5-7.3l-17,21.3L189,80l3.7,22L206,80l27.3,20.7l-15.3-23
	l19.6,6.3L205.5,51.9z"/>
<g>
	<path fill="#D1D0C9" d="M90.7,205.4H103c3,0,4.9,0.7,6.2,2c0.8,0.8,1.3,1.9,1.3,3.4v0.1c0,2.6-1.6,4.2-3.9,5
		c2.8,0.8,4.6,2.3,4.6,5.3v0.1c0,3.5-2.9,6.1-8.4,6.1H90.7V205.4z M101,214c1.6,0,2.3-0.5,2.3-1.5v-0.1c0-1-0.8-1.5-2.3-1.5h-3.2
		v3.1H101z M101.5,221.7c1.6,0,2.4-0.7,2.4-1.6v-0.1c0-0.9-0.8-1.6-2.4-1.6h-3.7v3.3H101.5z"/>
	<path fill="#D1D0C9" d="M136.2,205.2h7.3l9.2,22.1h-8l-1.2-2.9h-7.7l-1.1,2.9h-7.8L136.2,205.2z M141.8,219.1l-2-5.3l-2,5.3H141.8z
		"/>
	<path fill="#D1D0C9" d="M169.3,205.4H180c3.9,0,6.4,1,7.9,2.5c1.3,1.3,2,2.9,2,5.2v0.1c0,3.2-1.7,5.4-4.3,6.7l5.1,7.5h-8.4
		l-4.1-6.3h-1.6v6.3h-7.3V205.4z M179.8,215.8c1.8,0,2.8-0.8,2.8-2.1v-0.1c0-1.4-1.1-2.1-2.8-2.1h-3.2v4.3H179.8z"/>
	<path fill="#D1D0C9" d="M214.2,205.2h7.3l9.2,22.1h-8l-1.2-2.9h-7.7l-1.1,2.9h-7.8L214.2,205.2z M219.8,219.1l-2-5.3l-2,5.3H219.8z
		"/>
	<path fill="#D1D0C9" d="M245.4,216.4L245.4,216.4c0-6.6,5.2-11.5,12.1-11.5c3.8,0,6.8,1.3,9.2,3.3l-4.1,5c-1.4-1.2-3-1.9-4.9-1.9
		c-2.9,0-4.9,2.2-4.9,5.2v0.1c0,3.1,2.2,5.2,5.2,5.2c1.3,0,1.9-0.2,2.5-0.5V219h-3.8v-4.7h10.6v10.1c-2.4,1.9-5.7,3.3-9.7,3.3
		C250.8,227.8,245.4,223.2,245.4,216.4z"/>
	<path fill="#D1D0C9" d="M292.8,205.2h7.3l9.2,22.1h-8l-1.2-2.9h-7.7l-1.1,2.9h-7.8L292.8,205.2z M298.4,219.1l-2-5.3l-2,5.3H298.4z
		"/>
</g>
<g>
	<path fill="#D1D0C9" d="M131,250.8L131,250.8c0-4,3-7.3,7.2-7.3c2.6,0,4.1,0.9,5.5,2.2l-1.6,1.8c-1.1-1-2.3-1.7-3.9-1.7
		c-2.7,0-4.6,2.2-4.6,4.9v0c0,2.7,1.9,5,4.6,5c1.7,0,2.8-0.7,4-1.8l1.6,1.6c-1.5,1.5-3.1,2.5-5.7,2.5C134,258,131,254.8,131,250.8z"
		/>
	<path fill="#D1D0C9" d="M155.3,250.8L155.3,250.8c0-4,3-7.3,7.3-7.3c4.3,0,7.3,3.3,7.3,7.2v0c0,3.9-3,7.2-7.3,7.2
		C158.3,258,155.3,254.8,155.3,250.8z M167.4,250.8L167.4,250.8c0-2.8-2-5-4.8-5c-2.8,0-4.7,2.2-4.7,4.9v0c0,2.7,2,5,4.8,5
		C165.5,255.8,167.4,253.5,167.4,250.8z"/>
	<path fill="#D1D0C9" d="M182.7,251.8v-8.1h2.5v8c0,2.6,1.3,4,3.5,4c2.2,0,3.5-1.3,3.5-3.9v-8.1h2.5v7.9c0,4.2-2.4,6.3-6,6.3
		C185.1,258,182.7,255.9,182.7,251.8z"/>
	<path fill="#D1D0C9" d="M208.1,243.8h2.3l7.5,9.7v-9.7h2.4v14h-2.1l-7.7-10v10h-2.4V243.8z"/>
	<path fill="#D1D0C9" d="M237.3,246.1h-4.4v-2.3h11.4v2.3h-4.4v11.7h-2.5V246.1z"/>
	<path fill="#D1D0C9" d="M261,252.3l-5.6-8.5h2.9l3.9,6.2l4-6.2h2.8l-5.6,8.4v5.6H261V252.3z"/>
</g>
<g>
	<path fill="#393933" d="M190.2,317.8l0.4,0.4l-0.2,0.2c-0.1,0-0.3,0-0.4,0c-0.4,0-0.7,0.1-1,0.3c-0.3,0.2-0.6,0.4-0.8,0.7
		c-0.2,0.3-0.4,0.6-0.5,1c-0.1,0.3-0.2,0.7-0.2,1.3c0.5-0.4,0.7-0.7,0.8-0.7c0.1,0,0.2-0.1,0.4-0.1c0.2,0,0.4-0.1,0.6-0.1
		c0.4,0,0.8,0.2,1.2,0.5c0.4,0.3,0.5,0.9,0.5,1.6c0,0.8-0.2,1.5-0.7,2c-0.5,0.5-1.1,0.8-1.8,0.8c-0.6,0-1-0.1-1.4-0.4
		c-0.4-0.3-0.6-0.6-0.8-1.1c-0.2-0.4-0.3-1-0.3-1.7c0-0.8,0.1-1.5,0.4-2c0.2-0.5,0.5-1,1-1.4c0.4-0.4,0.8-0.7,1.3-0.9
		C189.1,317.9,189.6,317.8,190.2,317.8z M187.5,323c0,0.6,0.1,1.1,0.3,1.5c0.2,0.4,0.5,0.5,0.8,0.5c0.3,0,0.5-0.1,0.7-0.4
		c0.2-0.2,0.3-0.6,0.3-1.2c0-0.4-0.1-0.8-0.2-1c-0.1-0.3-0.2-0.4-0.4-0.6s-0.4-0.2-0.6-0.2c-0.2,0-0.4,0-0.5,0.1
		c-0.2,0.1-0.3,0.2-0.4,0.4C187.5,322.4,187.5,322.6,187.5,323z"/>
	<path fill="#393933" d="M197.5,321.8c0-0.7,0-1.3,0.1-1.8c0.1-0.4,0.2-0.7,0.3-1s0.3-0.5,0.5-0.7c0.2-0.2,0.4-0.3,0.7-0.4
		c0.3-0.1,0.6-0.1,0.9-0.1c0.6,0,1.1,0.1,1.5,0.4c0.3,0.3,0.6,0.7,0.8,1.1s0.2,1.2,0.2,2.1c0,0.6,0,1.2-0.1,1.6
		c-0.1,0.5-0.2,0.9-0.3,1.2c-0.2,0.3-0.3,0.6-0.5,0.8c-0.2,0.2-0.4,0.3-0.7,0.4s-0.6,0.1-0.9,0.1c-0.4,0-0.8-0.1-1.1-0.2
		c-0.3-0.2-0.6-0.4-0.8-0.7s-0.3-0.7-0.4-1.2S197.5,322.4,197.5,321.8z M198.9,321c0,0.8,0,1.6,0.1,2.3c0.1,0.7,0.2,1.1,0.4,1.4
		c0.2,0.2,0.4,0.3,0.7,0.3c0.3,0,0.6-0.2,0.8-0.5c0.2-0.3,0.3-1.1,0.3-2.3c0-0.8,0-1.6-0.1-2.3c-0.1-0.4-0.1-0.7-0.2-0.9
		s-0.2-0.4-0.3-0.5c-0.1-0.1-0.3-0.1-0.5-0.1c-0.2,0-0.4,0.1-0.5,0.2c-0.2,0.1-0.3,0.3-0.4,0.6C199,319.6,198.9,320.2,198.9,321z"/>
	<path fill="#393933" d="M209.3,325.3c0-0.2-0.1-0.4-0.1-0.9s-0.1-0.7-0.2-0.9l0.4-0.1c0.1,0.3,0.3,0.6,0.5,0.8s0.4,0.4,0.6,0.5
		s0.5,0.2,0.7,0.2c0.4,0,0.8-0.1,1-0.4c0.3-0.3,0.4-0.6,0.4-1.1c0-0.5-0.1-0.9-0.4-1.1c-0.3-0.2-0.6-0.4-1.1-0.4
		c-0.2,0-0.4,0-0.7,0.1l-0.1-0.1l0-0.1l0.1-0.3l0.1-0.4l0.1,0l0.4,0c0.2,0,0.4-0.1,0.6-0.2c0.2-0.1,0.4-0.3,0.5-0.4s0.2-0.4,0.2-0.6
		c0-0.3-0.1-0.5-0.3-0.7c-0.2-0.2-0.5-0.3-0.8-0.3c-0.2,0-0.4,0-0.6,0.1c-0.2,0.1-0.3,0.2-0.4,0.3c-0.1,0.1-0.2,0.3-0.3,0.6
		c0,0.1-0.1,0.2-0.1,0.2l-0.4,0l0.2-1.1c0-0.2,0.1-0.4,0.1-0.6c0.2-0.2,0.5-0.3,0.8-0.4s0.6-0.1,1-0.1c0.7,0,1.2,0.2,1.5,0.5
		c0.4,0.3,0.5,0.7,0.5,1.2c0,0.4-0.1,0.7-0.3,0.9c-0.2,0.3-0.5,0.5-0.9,0.7c0.1,0,0.2,0,0.3,0c0.2,0,0.4,0.1,0.5,0.2
		c0.2,0.1,0.3,0.2,0.5,0.4c0.1,0.1,0.2,0.3,0.3,0.5c0.1,0.2,0.1,0.4,0.1,0.6c0,0.7-0.3,1.3-0.9,1.9c-0.7,0.6-1.5,0.9-2.5,0.9
		c-0.3,0-0.5,0-0.7-0.1C209.7,325.5,209.5,325.4,209.3,325.3z"/>
	<path fill="#393933" d="M194.7,339.2v-0.5c0.4,0,0.7-0.1,0.8-0.1c0,0,0.1,0,0.1-0.1c0,0,0.1-0.1,0.1-0.2c0-0.2,0-0.7,0.1-1.4
		c0-0.4,0-1,0-1.8c0-0.8,0-1.4,0-2c0-0.6,0-0.9-0.1-1.1c0-0.1,0-0.1-0.1-0.1c0,0-0.1,0-0.2-0.1c-0.2,0-0.5-0.1-0.7-0.1v-0.5
		c0.8,0,1.3,0,1.6,0c0.4,0,0.8,0,1.2,0l0.5,1.1l0.4,0.8l1.8,3.7c0.4-0.7,0.7-1.3,0.9-1.7l0.7-1.6c0.4-0.9,0.7-1.4,0.8-1.6
		c0.1-0.2,0.2-0.5,0.3-0.8c0.5,0,0.8,0,0.9,0l1.7,0v0.5h-0.1c-0.4,0-0.6,0-0.7,0.1c-0.1,0.1-0.2,0.3-0.2,0.5c0,0.3,0,0.5,0,0.7
		l0,1.6v2c0,0.5,0,0.8,0,0.8c0,0.5,0.1,0.8,0.1,0.9c0,0.1,0,0.1,0.1,0.1c0,0,0.1,0.1,0.1,0.1c0.1,0,0.3,0,0.7,0.1v0.5l-1.8,0l-1.8,0
		v-0.5c0.5,0,0.7,0,0.8-0.1c0.1,0,0.1-0.1,0.1-0.3s0-0.6,0-1.4v-4.1l-1.3,2.6l-0.6,1.3c-0.2,0.3-0.4,0.8-0.7,1.5
		c-0.2,0.4-0.3,0.7-0.4,1h-0.4c-0.1-0.3-0.3-0.7-0.6-1.3c-0.4-0.9-0.8-1.6-1-2.1l-1.5-3v2.8c0,0.5,0,1,0,1.7c0,0.6,0,1,0,1.1
		c0,0.1,0,0.1,0.1,0.2s0.1,0.1,0.2,0.1s0.3,0.1,0.7,0.1v0.5c-0.4,0-0.9,0-1.3,0C195.5,339.2,195,339.2,194.7,339.2z"/>
</g>
</svg>
