<?xml version="1.0" encoding="utf-8"?>
<!-- Generator: Adobe Illustrator 17.1.0, SVG Export Plug-In . SVG Version: 6.00 Build 0)  -->
<!DOCTYPE svg PUBLIC "-//W3C//DTD SVG 1.1//EN" "http://www.w3.org/Graphics/SVG/1.1/DTD/svg11.dtd">
<svg version="1.1" id="Layer_1" xmlns="http://www.w3.org/2000/svg" xmlns:xlink="http://www.w3.org/1999/xlink" x="0px" y="0px"
	 viewBox="0 0 400 400" enable-background="new 0 0 400 400" xml:space="preserve">
<path fill="#6F6F63" d="M200,8c25.9,0,51.1,5.1,74.7,15.1c22.9,9.7,43.4,23.5,61,41.2c17.6,17.6,31.5,38.2,41.2,61
	c10,23.7,15.1,48.8,15.1,74.7s-5.1,51.1-15.1,74.7c-9.7,22.9-23.5,43.4-41.2,61c-17.6,17.6-38.2,31.5-61,41.2
	c-23.7,10-48.8,15.1-74.7,15.1s-51.1-5.1-74.7-15.1c-22.9-9.7-43.4-23.5-61-41.2c-17.6-17.6-31.5-38.2-41.2-61
	C13.1,251.1,8,225.9,8,200s5.1-51.1,15.1-74.7c9.7-22.9,23.5-43.4,41.2-61c17.6-17.6,38.2-31.5,61-41.2C148.9,13.1,174.1,8,200,8
	 M200,0C89.5,0,0,89.5,0,200s89.5,200,200,200s200-89.5,200-200S310.5,0,200,0L200,0z"/>
<path fill="#6F6F63" d="M200,93c14.5,0,28.5,2.8,41.7,8.4c12.7,5.4,24.2,13.1,34,22.9c9.8,9.8,17.6,21.3,22.9,34
	c5.6,13.2,8.4,27.2,8.4,41.7s-2.8,28.5-8.4,41.7c-5.4,12.7-13.1,24.2-22.9,34c-9.8,9.8-21.3,17.6-34,22.9
	c-13.2,5.6-27.2,8.4-41.7,8.4s-28.5-2.8-41.7-8.4c-12.7-5.4-24.2-13.1-34-22.9c-9.8-9.8-17.6-21.3-22.9-34
	C95.8,228.5,93,214.5,93,200s2.8-28.5,8.4-41.7c5.4-12.7,13.1-24.2,22.9-34c9.8-9.8,21.3-17.6,34-22.9C171.5,95.8,185.5,93,200,93
	 M200,83.1c-64.6,0-116.9,52.3-116.9,116.9S135.4,316.9,200,316.9S316.9,264.6,316.9,200S264.6,83.1,200,83.1L200,83.1z"/>
<path fill="none" d="M354.5,200c0,85-69.5,154.5-154.5,154.5S45.5,285,45.5,200S115,45.5,200,45.5S354.5,114.7,354.5,200z"/>
<text transform="matrix(0.5554 -0.8316 0.8316 0.5554 76.7642 121.5098)"><tspan x="0" y="0" fill="#393933" font-family="'DINAlternate-Bold'" font-size="23.2566"> </tspan><tspan x="16.1" y="0.4" fill="#393933" font-family="'DINAlternate-Bold'" font-size="23.2566" rotate="7.9">B</tspan><tspan x="40.1" y="4.6" fill="#393933" font-family="'DINAlternate-Bold'" font-size="23.2566" rotate="17.3">A</tspan><tspan x="63.2" y="12.7" fill="#393933" font-family="'DINAlternate-Bold'" font-size="23.2566" rotate="26.8">R</tspan><tspan x="84.6" y="24.5" fill="#393933" font-family="'DINAlternate-Bold'" font-size="23.2566" rotate="36.4">R</tspan><tspan x="103.7" y="39.8" fill="#393933" font-family="'DINAlternate-Bold'" font-size="23.2566" rotate="45.6">Y</tspan><tspan x="118.6" y="56.2" fill="#393933" font-family="'DINAlternate-Bold'" font-size="23.2566" rotate="53.2"> </tspan><tspan x="127.8" y="69.4" fill="#393933" font-family="'DINAlternate-Bold'" font-size="23.2566" rotate="60.9">C</tspan><tspan x="138.4" y="90" fill="#393933" font-family="'DINAlternate-Bold'" font-size="23.2566" rotate="70.3">O</tspan><tspan x="145.8" y="113.3" fill="#393933" font-family="'DINAlternate-Bold'" font-size="23.2566" rotate="80">U</tspan><tspan x="149.3" y="137.9" fill="#393933" font-family="'DINAlternate-Bold'" font-size="23.2566" rotate="90">N</tspan><tspan x="148.3" y="164" fill="#393933" font-family="'DINAlternate-Bold'" font-size="23.2566" rotate="99.3">T</tspan><tspan x="144" y="185.6" fill="#393933" font-family="'DINAlternate-Bold'" font-size="23.2566" rotate="107.9">Y</tspan></text>
<path fill="none" d="M354.5,200c0-85.3-69.5-154.5-154.5-154.5S45.5,115,45.5,200S115,354.5,200,354.5S354.5,285,354.5,200z"/>
<text transform="matrix(0.1351 0.9908 -0.9908 0.1351 39.7729 215.9277)"><tspan x="0" y="0" fill="#D1D0C9" font-family="'DINAlternate-Bold'" font-size="18">H</tspan><tspan x="21.5" y="-0.7" fill="#D1D0C9" font-family="'DINAlternate-Bold'" font-size="18" rotate="-7.6">O</tspan><tspan x="42" y="-4.1" fill="#D1D0C9" font-family="'DINAlternate-Bold'" font-size="18" rotate="-15">S</tspan><tspan x="61.3" y="-9.9" fill="#D1D0C9" font-family="'DINAlternate-Bold'" font-size="18" rotate="-21.9">T</tspan><tspan x="78.3" y="-17.4" fill="#D1D0C9" font-family="'DINAlternate-Bold'" font-size="18" rotate="-27.7">I</tspan><tspan x="90.9" y="-24.4" fill="#D1D0C9" font-family="'DINAlternate-Bold'" font-size="18" rotate="-34.1">N</tspan><tspan x="108.8" y="-37.4" fill="#D1D0C9" font-family="'DINAlternate-Bold'" font-size="18" rotate="-41.7">G</tspan><tspan x="123.8" y="-51.6" fill="#D1D0C9" font-family="'DINAlternate-Bold'" font-size="18" rotate="-47.8"> </tspan><tspan x="132.9" y="-62.2" fill="#D1D0C9" font-family="'DINAlternate-Bold'" font-size="18" rotate="-53.6">T</tspan><tspan x="143.6" y="-77.6" fill="#D1D0C9" font-family="'DINAlternate-Bold'" font-size="18" rotate="-60.8">H</tspan><tspan x="153.5" y="-96.7" fill="#D1D0C9" font-family="'DINAlternate-Bold'" font-size="18" rotate="-68.2">E</tspan><tspan x="160.2" y="-115.2" fill="#D1D0C9" font-family="'DINAlternate-Bold'" font-size="18" rotate="-74.3"> </tspan><tspan x="163.6" y="-128.8" fill="#D1D0C9" font-family="'DINAlternate-Bold'" font-size="18" rotate="-80.5">B</tspan><tspan x="166.5" y="-149.4" fill="#D1D0C9" font-family="'DINAlternate-Bold'" font-size="18" rotate="-87.9">A</tspan><tspan x="166.6" y="-170.3" fill="#D1D0C9" font-family="'DINAlternate-Bold'" font-size="18" rotate="-95.3">R</tspan><tspan x="164" y="-190.9" fill="#D1D0C9" font-family="'DINAlternate-Bold'" font-size="18" rotate="-102.8">R</tspan><tspan x="158.8" y="-211" fill="#D1D0C9" font-family="'DINAlternate-Bold'" font-size="18" rotate="-109.9">Y</tspan><tspan x="151.8" y="-228.4" fill="#D1D0C9" font-family="'DINAlternate-Bold'" font-size="18" rotate="-116.2">-</tspan><tspan x="143.9" y="-243.5" fill="#D1D0C9" font-family="'DINAlternate-Bold'" font-size="18" rotate="-122.9">R</tspan><tspan x="132.1" y="-260.6" fill="#D1D0C9" font-family="'DINAlternate-Bold'" font-size="18" rotate="-130.2">O</tspan><tspan x="118.2" y="-276" fill="#D1D0C9" font-family="'DINAlternate-Bold'" font-size="18" rotate="-137.6">U</tspan><tspan x="102.1" y="-289.8" fill="#D1D0C9" font-family="'DINAlternate-Bold'" font-size="18" rotate="-145.1">B</tspan><tspan x="84.7" y="-301.2" fill="#D1D0C9" font-family="'DINAlternate-Bold'" font-size="18" rotate="-152.5">A</tspan><tspan x="66" y="-310.1" fill="#D1D0C9" font-family="'DINAlternate-Bold'" font-size="18" rotate="-158.8">I</tspan><tspan x="52.6" y="-315" fill="#D1D0C9" font-family="'DINAlternate-Bold'" font-size="18" rotate="-164.8">X</tspan></text>
<g>
	<g>
		<path fill="#6F6F63" d="M200,302.2c-56.2,0-102.2-46-102.2-102.2S143.8,97.8,200,97.8S302.2,143.5,302.2,200
			C302.2,256.2,256.2,302.2,200,302.2z M200,100.7c-54.8,0-99.3,44.5-99.3,99.3s44.5,99.3,99.3,99.3s99.3-44.5,99.3-99.3
			S254.8,100.7,200,100.7z"/>
	</g>
	<g>
		<path fill="#6F6F63" d="M200,218.3c-10,0-18.3-8.3-18.3-18.3s8.3-18.3,18.3-18.3s18.3,8.3,18.3,18.3S210,218.3,200,218.3z
			 M200,184.7c-8.5,0-15.3,6.8-15.3,15.3s6.8,15.3,15.3,15.3s15.3-6.8,15.3-15.3S208.5,184.7,200,184.7z"/>
	</g>
	<g>
		
			<rect x="186.1" y="99" transform="matrix(-0.9965 -8.332323e-02 8.332323e-02 -0.9965 361.8415 314.1011)" fill="#6F6F63" width="2.7" height="101"/>
	</g>
	<g>
		
			<rect x="162.2" y="148.2" transform="matrix(-8.305880e-02 -0.9965 0.9965 -8.305880e-02 81.3475 373.9952)" fill="#6F6F63" width="101" height="2.7"/>
	</g>
	<g>
		
			<rect x="211.2" y="199.7" transform="matrix(-0.9965 -8.332323e-02 8.332323e-02 -0.9965 403.4887 517.3432)" fill="#6F6F63" width="2.7" height="101"/>
	</g>
	<g>
		
			<rect x="137" y="249.1" transform="matrix(-8.304538e-02 -0.9965 0.9965 -8.304538e-02 -46.4417 458.0645)" fill="#6F6F63" width="101" height="2.7"/>
	</g>
	<g>
		
			<rect x="199.7" y="186.1" transform="matrix(-0.9965 -8.304549e-02 8.304549e-02 -0.9965 484.0643 395.0386)" fill="#6F6F63" width="101" height="2.7"/>
	</g>
	<g>
		
			<rect x="249.1" y="162" transform="matrix(-8.332313e-02 -0.9965 0.9965 -8.332313e-02 59.5254 479.7268)" fill="#6F6F63" width="2.7" height="101"/>
	</g>
	<g>
		
			<rect x="99" y="211.2" transform="matrix(-0.9965 -8.305499e-02 8.305499e-02 -0.9965 280.8299 436.7156)" fill="#6F6F63" width="101" height="2.7"/>
	</g>
	<g>
		
			<rect x="148.2" y="136.8" transform="matrix(-8.332313e-02 -0.9965 0.9965 -8.332313e-02 -24.5759 351.9316)" fill="#6F6F63" width="2.7" height="101"/>
	</g>
	<g>
		
			<rect x="225.3" y="105" transform="matrix(-0.6457 -0.7636 0.7636 -0.6457 254.1694 428.9514)" fill="#6F6F63" width="2.7" height="101"/>
	</g>
	<g>
		
			<rect x="243.1" y="122.8" transform="matrix(-0.763 -0.6464 0.6464 -0.763 318.8757 463.4727)" fill="#6F6F63" width="2.7" height="101"/>
	</g>
	<g>
		
			<rect x="172.1" y="194" transform="matrix(-0.6459 -0.7634 0.7634 -0.6459 98.7551 534.788)" fill="#6F6F63" width="2.7" height="101"/>
	</g>
	<g>
		
			<rect x="154.1" y="176.1" transform="matrix(-0.763 -0.6464 0.6464 -0.763 127.5317 499.8898)" fill="#6F6F63" width="2.7" height="101"/>
	</g>
	<g>
		
			<rect x="194" y="225.3" transform="matrix(-0.6459 -0.7634 0.7634 -0.6459 229.4155 559.6044)" fill="#6F6F63" width="101" height="2.7"/>
	</g>
	<g>
		
			<rect x="176.2" y="243.1" transform="matrix(-0.7634 -0.646 0.646 -0.7634 241.9023 577.4477)" fill="#6F6F63" width="101" height="2.7"/>
	</g>
	<g>
		
			<rect x="105" y="172.1" transform="matrix(-0.646 -0.7634 0.7634 -0.646 123.5931 404.1306)" fill="#6F6F63" width="101" height="2.7"/>
	</g>
	<g>
		
			<rect x="122.9" y="154.1" transform="matrix(-0.7634 -0.6459 0.6459 -0.7634 205.4602 386.0726)" fill="#6F6F63" width="101" height="2.7"/>
	</g>
	<g>
		<path fill="#6F6F63" d="M200,218.3c-7.3,0-13.9-4.4-16.8-11c-1.9-4.4-1.9-9.5-0.2-13.9c1.7-4.6,5.4-8,9.7-10
			c2.2-1,4.6-1.5,7.3-1.5c7.3,0,13.9,4.4,16.8,11c1.9,4.4,1.9,9.5,0.2,13.9c-1.7,4.6-5.4,8-9.7,10
			C204.9,217.8,202.4,218.3,200,218.3z M200,184.7c-2.2,0-4.1,0.5-6.1,1.2c-3.9,1.7-6.6,4.6-8.3,8.5c-1.5,3.9-1.5,8,0.2,11.7
			c2.4,5.6,8,9.2,14.1,9.2c2.2,0,4.1-0.5,6.1-1.2c3.9-1.7,6.6-4.6,8.3-8.5c1.5-3.9,1.5-8-0.2-11.7
			C211.7,188.3,206.1,184.7,200,184.7z"/>
	</g>
	<g>
		
			<rect x="239.9" y="118" transform="matrix(-0.3182 -0.948 0.948 -0.3182 158.2956 450.8208)" fill="#6F6F63" width="2.7" height="101"/>
	</g>
	<g>
		
			<rect x="249.8" y="141.2" transform="matrix(-0.471 -0.8821 0.8821 -0.471 200.5338 503.6877)" fill="#6F6F63" width="2.9" height="101"/>
	</g>
	<g>
		
			<rect x="157.4" y="181" transform="matrix(-0.3182 -0.948 0.948 -0.3182 -10.2173 455.6597)" fill="#6F6F63" width="2.7" height="101"/>
	</g>
	<g>
		
			<rect x="147.4" y="158" transform="matrix(-0.4704 -0.8825 0.8825 -0.4704 34.8319 437.903)" fill="#6F6F63" width="2.9" height="101"/>
	</g>
	<g>
		
			<rect x="181" y="239.9" transform="matrix(-0.3185 -0.9479 0.9479 -0.3185 76.5506 537.5439)" fill="#6F6F63" width="101" height="2.7"/>
	</g>
	<g>
		
			<rect x="157.9" y="249.9" transform="matrix(-0.471 -0.8821 0.8821 -0.471 84.9208 553.3801)" fill="#6F6F63" width="101" height="2.7"/>
	</g>
	<g>
		
			<rect x="118" y="157.4" transform="matrix(-0.3186 -0.9479 0.9479 -0.3186 71.7101 369.0373)" fill="#6F6F63" width="101" height="2.7"/>
	</g>
	<g>
		
			<rect x="141.1" y="147.4" transform="matrix(-0.471 -0.8821 0.8821 -0.471 150.6327 387.8559)" fill="#6F6F63" width="101" height="2.7"/>
	</g>
	<g>
		
			<rect x="200.9" y="205.6" transform="matrix(-0.8955 -0.4451 0.4451 -0.8955 384.499 504.1925)" fill="#6F6F63" width="101" height="2.7"/>
	</g>
	<g>
		
			<rect x="191.7" y="229" transform="matrix(-0.9568 -0.2906 0.2906 -0.9568 407.0592 521.0756)" fill="#6F6F63" width="101" height="2.7"/>
	</g>
	<g>
		
			<rect x="98.1" y="191.7" transform="matrix(-0.8955 -0.445 0.445 -0.8955 195.6761 432.0426)" fill="#6F6F63" width="101" height="2.7"/>
	</g>
	<g>
		
			<rect x="107.3" y="168.3" transform="matrix(-0.9568 -0.2907 0.2907 -0.9568 259.4056 377.8937)" fill="#6F6F63" width="101" height="2.7"/>
	</g>
	<g>
		
			<rect x="191.7" y="201" transform="matrix(-0.8956 -0.4449 0.4449 -0.8956 254.0775 562.5452)" fill="#6F6F63" width="2.7" height="101"/>
	</g>
	<g>
		
			<rect x="168.3" y="191.7" transform="matrix(-0.9571 -0.2899 0.2899 -0.9571 261.8453 523.244)" fill="#6F6F63" width="2.7" height="101"/>
	</g>
	<g>
		
			<rect x="205.6" y="98" transform="matrix(-0.8956 -0.4449 0.4449 -0.8956 326.1914 373.661)" fill="#6F6F63" width="2.7" height="101"/>
	</g>
	<g>
		
			<rect x="229" y="107.3" transform="matrix(-0.957 -0.2901 0.2901 -0.957 404.9704 375.5913)" fill="#6F6F63" width="2.7" height="101"/>
	</g>
	<g>
		<g>
			<path fill="#6F6F63" d="M200,191.7c4.6,0,8.3,3.7,8.3,8.3s-3.7,8.3-8.3,8.3s-8.3-3.7-8.3-8.3S195.4,191.7,200,191.7 M200,183.2
				c-9.2,0-16.8,7.5-16.8,16.8s7.5,16.8,16.8,16.8c9.2,0,16.8-7.5,16.8-16.8S209.2,183.2,200,183.2L200,183.2z"/>
		</g>
	</g>
</g>
<g>
	<path fill="#6F6F63" d="M39.6,156.3l-1.8,1.3v-2l1.8-1.3h1.8v12.8h-1.8V156.3z"/>
	<path fill="#6F6F63" d="M50.4,163.4c0-1.2,0.5-2.2,1.5-2.9c-0.4-0.3-0.7-0.7-0.9-1.2c-0.3-0.4-0.4-0.9-0.4-1.4c0-1.1,0.4-1.9,1-2.6
		c0.6-0.7,1.5-1,2.5-1.1c1,0,1.9,0.4,2.5,1.1c0.7,0.7,1,1.6,1,2.6c0,0.6-0.1,1-0.3,1.4c-0.2,0.4-0.6,0.8-0.9,1.2
		c1,0.7,1.5,1.6,1.5,2.9c0,1.2-0.4,2.1-1.1,2.8c-0.7,0.7-1.6,1.1-2.7,1.1c-1.1,0-1.9-0.4-2.7-1.1C50.8,165.5,50.4,164.6,50.4,163.4z
		 M52.2,163.4c0,0.6,0.2,1.1,0.6,1.4c0.4,0.4,0.9,0.6,1.4,0.6c0.6,0,1-0.2,1.4-0.6c0.4-0.4,0.6-0.9,0.6-1.4c0-0.6-0.2-1.1-0.6-1.5
		c-0.4-0.4-0.9-0.6-1.4-0.6c-0.5,0-1,0.2-1.4,0.6C52.4,162.3,52.2,162.8,52.2,163.4z M52.4,157.9c0,0.6,0.2,1,0.6,1.4
		c0.4,0.3,0.8,0.5,1.2,0.5c0.5,0,0.9-0.2,1.2-0.5c0.3-0.3,0.5-0.8,0.5-1.4c0-0.6-0.2-1.1-0.5-1.4c-0.4-0.3-0.8-0.5-1.2-0.5
		c-0.5,0-0.9,0.2-1.2,0.5C52.6,156.9,52.5,157.3,52.4,157.9z"/>
</g>
<g>
	<path fill="#6F6F63" d="M341,159.8h0.6c0.6,0,1.1-0.2,1.4-0.5c0.3-0.3,0.5-0.8,0.5-1.3c0-0.5-0.2-1-0.5-1.3
		c-0.3-0.3-0.8-0.5-1.3-0.5c-0.4,0-0.7,0.1-1,0.4c-0.3,0.3-0.6,0.6-0.7,1.2h-1.8c0.1-0.9,0.5-1.7,1.1-2.4c0.6-0.6,1.4-1,2.3-1
		c1.1,0,2,0.4,2.7,1.1c0.6,0.7,1,1.6,1,2.5c0,0.5-0.1,1-0.3,1.4c-0.2,0.5-0.6,0.9-1.1,1.2c0.5,0.4,0.9,0.8,1.2,1.3
		c0.2,0.5,0.3,1,0.3,1.5c0,1.2-0.4,2.1-1.1,2.8c-0.7,0.7-1.6,1.1-2.7,1.1c-0.8,0-1.6-0.3-2.2-0.8s-1.1-1.4-1.3-2.4h1.8
		c0.2,0.4,0.4,0.8,0.7,1c0.3,0.3,0.7,0.4,1.2,0.4c0.5,0,1-0.2,1.3-0.6c0.4-0.3,0.6-0.8,0.6-1.5c0-0.7-0.2-1.2-0.6-1.5
		c-0.4-0.3-0.8-0.5-1.4-0.5H341V159.8z"/>
	<path fill="#6F6F63" d="M356.2,157.9c0-1.2,0.4-2.1,1.1-2.7c0.7-0.6,1.5-0.9,2.4-0.9c1,0,1.8,0.3,2.5,0.9c0.7,0.6,1,1.5,1.1,2.7
		v5.7c0,1.2-0.4,2.1-1.1,2.7c-0.7,0.6-1.5,1-2.5,1c-0.8,0-1.6-0.3-2.2-0.8c-0.6-0.5-1.1-1.2-1.3-2.1h1.8c0.3,0.7,0.8,1.1,1.6,1.1
		c1.1,0,1.7-0.7,1.7-2v-1.2c-0.8,0.3-1.6,0.4-2.4,0.4c-0.8,0-1.5-0.3-2.1-0.9c-0.6-0.6-0.8-1.5-0.8-2.7V157.9z M358,159.1
		c0,1.3,0.6,2,1.7,2c1.1,0,1.7-0.7,1.8-2v-1c0-1.3-0.6-1.9-1.8-2c-1.1,0-1.7,0.7-1.7,2V159.1z"/>
</g>
</svg>
