<?xml version="1.0" encoding="utf-8"?>
<!-- Generator: Adobe Illustrator 17.1.0, SVG Export Plug-In . SVG Version: 6.00 Build 0)  -->
<!DOCTYPE svg PUBLIC "-//W3C//DTD SVG 1.1//EN" "http://www.w3.org/Graphics/SVG/1.1/DTD/svg11.dtd">
<svg version="1.1" id="Layer_1" xmlns="http://www.w3.org/2000/svg" xmlns:xlink="http://www.w3.org/1999/xlink" x="0px" y="0px"
	 viewBox="0 0 400 400" enable-background="new 0 0 400 400" xml:space="preserve">
<path fill="#393933" d="M200,8c25.9,0,51.1,5.1,74.7,15.1c22.9,9.7,43.4,23.5,61,41.2c17.6,17.6,31.5,38.2,41.2,61
	c10,23.7,15.1,48.8,15.1,74.7s-5.1,51.1-15.1,74.7c-9.7,22.9-23.5,43.4-41.2,61c-17.6,17.6-38.2,31.5-61,41.2
	c-23.7,10-48.8,15.1-74.7,15.1s-51.1-5.1-74.7-15.1c-22.9-9.7-43.4-23.5-61-41.2c-17.6-17.6-31.5-38.2-41.2-61
	C13.1,251.1,8,225.9,8,200s5.1-51.1,15.1-74.7c9.7-22.9,23.5-43.4,41.2-61c17.6-17.6,38.2-31.5,61-41.2C148.9,13.1,174.1,8,200,8
	 M200,0C89.5,0,0,89.5,0,200s89.5,200,200,200s200-89.5,200-200S310.5,0,200,0L200,0z"/>
<g>
	<polygon fill="#D1D0C9" points="68.7,277.9 134.4,179.5 200,277.9 	"/>
	<polygon fill="#D1D0C9" points="134.4,179.5 200,81.1 265.6,179.5 	"/>
	<polygon fill="#D1D0C9" points="200,277.9 265.6,179.5 331.3,277.9 	"/>
</g>
<text transform="matrix(1 0 0 1 177.3203 217)" fill="#6F6F63" font-family="'DINCondensed-Bold'" font-size="18" letter-spacing="3">FLINT</text>
<text transform="matrix(1 0 0 1 121.1438 245.5)"><tspan x="0" y="0" fill="#6F6F63" font-family="'DINCondensed-Bold'" font-size="12" letter-spacing="2">BAY</tspan><tspan x="-1.9" y="14.4" fill="#6F6F63" font-family="'DINCondensed-Bold'" font-size="12" letter-spacing="2">CITY</tspan></text>
<text transform="matrix(1 0 0 1 175.4783 156.5)" fill="#6F6F63" font-family="'DINCondensed-Bold'" font-size="12" letter-spacing="2">SAGINAW</text>
<text transform="matrix(1 0 0 1 241.4321 254.9452)" fill="#6F6F63" font-family="'DINCondensed-Bold'" font-size="12" letter-spacing="2">MIDLAND</text>
<text transform="matrix(1 0 0 1 115.1489 330)" fill="#D1D0C9" font-family="'DINCondensed-Bold'" font-size="24" letter-spacing="12">TRI CITIES</text>
<path fill="none" d="M200,41.5c21.4,0,42.2,4.2,61.7,12.5c18.9,8,35.8,19.4,50.4,34c14.6,14.6,26,31.5,34,50.4
	c8.3,19.5,12.5,40.3,12.5,61.7s-4.2,42.2-12.5,61.7c-8,18.9-19.4,35.8-34,50.4c-14.6,14.6-31.5,26-50.4,34
	c-19.5,8.3-40.3,12.5-61.7,12.5s-42.2-4.2-61.7-12.5c-18.9-8-35.8-19.4-50.4-34c-14.6-14.6-26-31.5-34-50.4
	c-8.3-19.5-12.5-40.3-12.5-61.7s4.2-42.2,12.5-61.7c8-18.9,19.4-35.8,34-50.4c14.6-14.6,31.5-26,50.4-34
	C157.8,45.7,178.6,41.5,200,41.5"/>
<text transform="matrix(0.1487 -0.9889 0.9889 0.1487 51.5293 182.9599)"><tspan x="0" y="0" fill="#393933" font-family="'DINCondensed-Bold'" font-size="25.7801">B</tspan><tspan x="24.9" y="1.2" fill="#393933" font-family="'DINCondensed-Bold'" font-size="25.7801" rotate="9.6">A</tspan><tspan x="48.8" y="6.4" fill="#393933" font-family="'DINCondensed-Bold'" font-size="25.7801" rotate="18.9">Y</tspan><tspan x="71.2" y="15.3" fill="#393933" font-family="'DINCondensed-Bold'" font-size="25.7801" rotate="27.2"> </tspan><tspan x="87.6" y="24.7" fill="#393933" font-family="'DINCondensed-Bold'" font-size="25.7801" rotate="35.5">C</tspan><tspan x="106.8" y="39.8" fill="#393933" font-family="'DINCondensed-Bold'" font-size="25.7801" rotate="44.9">O</tspan><tspan x="123.6" y="58.2" fill="#393933" font-family="'DINCondensed-Bold'" font-size="25.7801" rotate="54.5">U</tspan><tspan x="137.2" y="79.1" fill="#393933" font-family="'DINCondensed-Bold'" font-size="25.7801" rotate="64.1">N</tspan><tspan x="147.1" y="102.4" fill="#393933" font-family="'DINCondensed-Bold'" font-size="25.7801" rotate="73.4">T</tspan><tspan x="152.5" y="124.4" fill="#393933" font-family="'DINCondensed-Bold'" font-size="25.7801" rotate="82.3">Y</tspan><tspan x="154.6" y="148.4" fill="#393933" font-family="'DINCondensed-Bold'" font-size="25.7801" rotate="90.5"> </tspan><tspan x="153.7" y="167.2" fill="#393933" font-family="'DINCondensed-Bold'" font-size="25.7801" rotate="99.6">M</tspan><tspan x="147.5" y="194.8" fill="#393933" font-family="'DINCondensed-Bold'" font-size="25.7801" rotate="108.7">I</tspan><tspan x="140.5" y="212.9" fill="#393933" font-family="'DINCondensed-Bold'" font-size="25.7801" rotate="117.2">C</tspan><tspan x="128.3" y="234.1" fill="#393933" font-family="'DINCondensed-Bold'" font-size="25.7801" rotate="126.7">H</tspan><tspan x="112.4" y="253.4" fill="#393933" font-family="'DINCondensed-Bold'" font-size="25.7801" rotate="135.1">I</tspan><tspan x="98.1" y="266.5" fill="#393933" font-family="'DINCondensed-Bold'" font-size="25.7801" rotate="143.7">G</tspan><tspan x="77.3" y="280.3" fill="#393933" font-family="'DINCondensed-Bold'" font-size="25.7801" rotate="153.1">A</tspan><tspan x="55.1" y="290.3" fill="#393933" font-family="'DINCondensed-Bold'" font-size="25.7801" rotate="162.8">N</tspan></text>
</svg>
