<?xml version="1.0" encoding="utf-8"?>
<!-- Generator: Adobe Illustrator 17.1.0, SVG Export Plug-In . SVG Version: 6.00 Build 0)  -->
<!DOCTYPE svg PUBLIC "-//W3C//DTD SVG 1.1//EN" "http://www.w3.org/Graphics/SVG/1.1/DTD/svg11.dtd">
<svg version="1.1" id="Layer_1" xmlns="http://www.w3.org/2000/svg" xmlns:xlink="http://www.w3.org/1999/xlink" x="0px" y="0px"
	 viewBox="0 0 400 400" enable-background="new 0 0 400 400" xml:space="preserve">
<g>
	<path fill="#393933" d="M200,8c25.9,0,51.1,5.1,74.7,15.1c22.9,9.7,43.4,23.5,61,41.2c17.6,17.6,31.5,38.2,41.2,61
		c10,23.7,15.1,48.8,15.1,74.7s-5.1,51.1-15.1,74.7c-9.7,22.9-23.5,43.4-41.2,61c-17.6,17.6-38.2,31.5-61,41.2
		c-23.7,10-48.8,15.1-74.7,15.1s-51.1-5.1-74.7-15.1c-22.9-9.7-43.4-23.5-61-41.2c-17.6-17.6-31.5-38.2-41.2-61
		C13.1,251.1,8,225.9,8,200s5.1-51.1,15.1-74.7c9.7-22.9,23.5-43.4,41.2-61c17.6-17.6,38.2-31.5,61-41.2C148.9,13.1,174.1,8,200,8
		 M200,0C89.5,0,0,89.5,0,200s89.5,200,200,200s200-89.5,200-200S310.5,0,200,0L200,0z"/>
	<path fill="none" d="M200,29.5c-23,0-45.3,4.5-66.4,13.4c-20.3,8.6-38.5,20.9-54.2,36.5c-15.7,15.7-28,33.9-36.5,54.2
		C34,154.7,29.5,177,29.5,200s4.5,45.3,13.4,66.4c8.6,20.3,20.9,38.5,36.5,54.2c15.7,15.7,33.9,28,54.2,36.5
		c21,8.9,43.3,13.4,66.4,13.4s45.3-4.5,66.4-13.4c20.3-8.6,38.5-20.9,54.2-36.5c15.7-15.7,28-33.9,36.5-54.2
		c8.9-21,13.4-43.3,13.4-66.4s-4.5-45.3-13.4-66.4c-8.6-20.3-20.9-38.5-36.5-54.2c-15.7-15.7-33.9-28-54.2-36.5
		C245.3,34,223,29.5,200,29.5"/>
	<text transform="matrix(0.5249 0.8511 -0.8511 0.5249 46.2647 288.5338)"><tspan x="0" y="0" fill="#393933" font-family="'Futura-Medium'" font-size="18">S</tspan><tspan x="22.1" y="-0.8" fill="#393933" font-family="'Futura-Medium'" font-size="18" rotate="-6.9">T</tspan><tspan x="42.2" y="-3.8" fill="#393933" font-family="'Futura-Medium'" font-size="18" rotate="-14.1">A</tspan><tspan x="66.2" y="-10.7" fill="#393933" font-family="'Futura-Medium'" font-size="18" rotate="-21.4">T</tspan><tspan x="84.8" y="-18.7" fill="#393933" font-family="'Futura-Medium'" font-size="18" rotate="-28.2">E</tspan><tspan x="103.6" y="-29.7" fill="#393933" font-family="'Futura-Medium'" font-size="18" rotate="-34.5"> </tspan><tspan x="117.6" y="-39.8" fill="#393933" font-family="'Futura-Medium'" font-size="18" rotate="-41.8">O</tspan><tspan x="137.6" y="-59.1" fill="#393933" font-family="'Futura-Medium'" font-size="18" rotate="-49.8">F</tspan><tspan x="150.4" y="-75.3" fill="#393933" font-family="'Futura-Medium'" font-size="18" rotate="-55.8"> </tspan><tspan x="159.7" y="-89.8" fill="#393933" font-family="'Futura-Medium'" font-size="18" rotate="-63.1">M</tspan><tspan x="171.8" y="-116.1" fill="#393933" font-family="'Futura-Medium'" font-size="18" rotate="-70.6">I</tspan><tspan x="177" y="-132.2" fill="#393933" font-family="'Futura-Medium'" font-size="18" rotate="-77.3">C</tspan><tspan x="181.5" y="-156.1" fill="#393933" font-family="'Futura-Medium'" font-size="18" rotate="-85.3">H</tspan><tspan x="182.7" y="-180.9" fill="#393933" font-family="'Futura-Medium'" font-size="18" rotate="-92.1">I</tspan><tspan x="181.6" y="-197.8" fill="#393933" font-family="'Futura-Medium'" font-size="18" rotate="-99.1">G</tspan><tspan x="176.4" y="-224.3" fill="#393933" font-family="'Futura-Medium'" font-size="18" rotate="-107.4">A</tspan><tspan x="168.2" y="-248" fill="#393933" font-family="'Futura-Medium'" font-size="18" rotate="-115.9">N</tspan></text>
	<path fill="none" d="M200,29.5c23,0,45.3,4.5,66.4,13.4c20.3,8.6,38.5,20.9,54.2,36.5c15.7,15.7,28,33.9,36.5,54.2
		c8.9,21,13.4,43.3,13.4,66.4s-4.5,45.3-13.4,66.4c-8.6,20.3-20.9,38.5-36.5,54.2c-15.7,15.7-33.9,28-54.2,36.5
		c-21,8.9-43.3,13.4-66.4,13.4s-45.3-4.5-66.4-13.4c-20.3-8.6-38.5-20.9-54.2-36.5c-15.7-15.7-28-33.9-36.5-54.2
		C34,245.3,29.5,223,29.5,200s4.5-45.3,13.4-66.4c8.6-20.3,20.9-38.5,36.5-54.2c15.7-15.7,33.9-28,54.2-36.5
		C154.7,34,177,29.5,200,29.5"/>
	<text transform="matrix(0.5134 -0.8582 0.8582 0.5134 56.1934 121.4127)"><tspan x="0" y="0" fill="#6F6F63" font-family="'Futura-Medium'" font-size="18">C</tspan><tspan x="22.4" y="0.6" fill="#6F6F63" font-family="'Futura-Medium'" font-size="18" rotate="8.5">O</tspan><tspan x="47.9" y="5.2" fill="#6F6F63" font-family="'Futura-Medium'" font-size="18" rotate="16.9">U</tspan><tspan x="69.8" y="12.6" fill="#6F6F63" font-family="'Futura-Medium'" font-size="18" rotate="25.3">N</tspan><tspan x="92" y="24.1" fill="#6F6F63" font-family="'Futura-Medium'" font-size="18" rotate="33">T</tspan><tspan x="107.4" y="34.7" fill="#6F6F63" font-family="'Futura-Medium'" font-size="18" rotate="39.9">Y</tspan><tspan x="122.9" y="48.6" fill="#6F6F63" font-family="'Futura-Medium'" font-size="18" rotate="46.4"> </tspan><tspan x="133.4" y="60.1" fill="#6F6F63" font-family="'Futura-Medium'" font-size="18" rotate="53.7">O</tspan><tspan x="148" y="81.5" fill="#6F6F63" font-family="'Futura-Medium'" font-size="18" rotate="61.4">F</tspan><tspan x="156.7" y="98.7" fill="#6F6F63" font-family="'Futura-Medium'" font-size="18" rotate="67.5"> </tspan><tspan x="162.3" y="113.2" fill="#6F6F63" font-family="'Futura-Medium'" font-size="18" rotate="73.9">B</tspan><tspan x="167.4" y="133.2" fill="#6F6F63" font-family="'Futura-Medium'" font-size="18" rotate="81.1">E</tspan><tspan x="169.9" y="153.2" fill="#6F6F63" font-family="'Futura-Medium'" font-size="18" rotate="88.2">R</tspan><tspan x="169.9" y="173.9" fill="#6F6F63" font-family="'Futura-Medium'" font-size="18" rotate="95.5">R</tspan><tspan x="167.2" y="194.6" fill="#6F6F63" font-family="'Futura-Medium'" font-size="18" rotate="101.8">I</tspan><tspan x="163.6" y="209.6" fill="#6F6F63" font-family="'Futura-Medium'" font-size="18" rotate="108">E</tspan><tspan x="157" y="228.5" fill="#6F6F63" font-family="'Futura-Medium'" font-size="18" rotate="115.9">N</tspan></text>
	<path fill="#6F6F63" d="M93,93c-13.9,13.9-24.8,30.1-32.4,48.1c-7.9,18.7-11.9,38.5-11.9,58.9H200V48.7c-20.4,0-40.3,4-58.9,11.9
		C123.1,68.2,106.9,79.1,93,93z"/>
	<path fill="#6F6F63" d="M200,351.3c20.4,0,40.3-4,58.9-11.9c18-7.6,34.2-18.5,48.1-32.4c13.9-13.9,24.8-30.1,32.4-48.1
		c7.9-18.7,11.9-38.5,11.9-58.9v0H200V351.3z"/>
	<path fill="#D1D0C9" d="M105.4,149.8c0.3,0,0.6,0.1,0.9,0.2l9.7,5.3l-1.9-11.5c-0.1-0.6,0.1-1.2,0.5-1.7l8-8.2l-11-1.7
		c-0.6-0.1-1.2-0.5-1.5-1.1l-4.8-10.3l-4.8,10.3c-0.3,0.6-0.8,1-1.5,1.1l-11,1.7l8,8.2c0.4,0.4,0.6,1.1,0.5,1.7l-1.9,11.5l9.7-5.3
		C104.8,149.8,105.1,149.8,105.4,149.8z"/>
	<path fill="#D1D0C9" d="M160.5,149.8c0.3,0,0.6,0.1,0.9,0.2l9.7,5.3l-1.9-11.5c-0.1-0.6,0.1-1.2,0.5-1.7l8-8.2l-11-1.7
		c-0.6-0.1-1.2-0.5-1.5-1.1l-4.8-10.3l-4.8,10.3c-0.3,0.6-0.8,1-1.5,1.1l-11,1.7l8,8.2c0.4,0.4,0.6,1.1,0.5,1.7l-1.9,11.5l9.7-5.3
		C159.9,149.8,160.2,149.8,160.5,149.8z"/>
	<g>
		<polygon fill="#393933" points="242.2,124.3 234.3,108.6 238.2,108.6 246.1,124.3 		"/>
		<polygon fill="#393933" points="238.2,124.3 246.1,108.6 250,108.6 242.2,124.3 		"/>
		<polygon fill="#393933" points="238.2,151.8 246.1,151.8 246.1,163.7 265.8,163.7 246.1,124.3 238.2,124.3 218.5,163.7 
			238.2,163.7 		"/>
		<g>
			<line fill="none" stroke="#6F6F63" stroke-width="0.9838" stroke-miterlimit="10" x1="234.3" y1="138.1" x2="238.2" y2="142"/>
			<line fill="none" stroke="#6F6F63" stroke-width="0.9838" stroke-miterlimit="10" x1="238.2" y1="138.1" x2="234.3" y2="142"/>
		</g>
		<g>
			<line fill="none" stroke="#6F6F63" stroke-width="0.9838" stroke-miterlimit="10" x1="240.2" y1="138.1" x2="244.1" y2="142"/>
			<line fill="none" stroke="#6F6F63" stroke-width="0.9838" stroke-miterlimit="10" x1="244.1" y1="138.1" x2="240.2" y2="142"/>
		</g>
		<g>
			<line fill="none" stroke="#6F6F63" stroke-width="0.9838" stroke-miterlimit="10" x1="246.1" y1="138.1" x2="250" y2="142"/>
			<line fill="none" stroke="#6F6F63" stroke-width="0.9838" stroke-miterlimit="10" x1="250" y1="138.1" x2="246.1" y2="142"/>
		</g>
	</g>
	<g>
		<polygon fill="#393933" points="298.9,124.3 291,108.6 295,108.6 302.8,124.3 		"/>
		<polygon fill="#393933" points="295,124.3 302.8,108.6 306.8,108.6 298.9,124.3 		"/>
		<polygon fill="#393933" points="295,151.8 302.8,151.8 302.8,163.7 322.5,163.7 302.8,124.3 295,124.3 275.3,163.7 295,163.7 		
			"/>
		<g>
			<line fill="none" stroke="#6F6F63" stroke-width="0.9838" stroke-miterlimit="10" x1="291" y1="138.1" x2="295" y2="142"/>
			<line fill="none" stroke="#6F6F63" stroke-width="0.9838" stroke-miterlimit="10" x1="295" y1="138.1" x2="291" y2="142"/>
		</g>
		<g>
			<line fill="none" stroke="#6F6F63" stroke-width="0.9838" stroke-miterlimit="10" x1="296.9" y1="138.1" x2="300.9" y2="142"/>
			<line fill="none" stroke="#6F6F63" stroke-width="0.9838" stroke-miterlimit="10" x1="300.9" y1="138.1" x2="296.9" y2="142"/>
		</g>
		<g>
			<line fill="none" stroke="#6F6F63" stroke-width="0.9838" stroke-miterlimit="10" x1="302.8" y1="138.1" x2="306.8" y2="142"/>
			<line fill="none" stroke="#6F6F63" stroke-width="0.9838" stroke-miterlimit="10" x1="306.8" y1="138.1" x2="302.8" y2="142"/>
		</g>
	</g>
	<g>
		<path fill="#393933" d="M90.4,244.9c-6.8,0-6.5,15-2.7,18c0,0,3-9.6,14,1.2C101.7,264.1,97.2,244.9,90.4,244.9z"/>
		<path fill="#393933" d="M98.8,273c0,0-6.3,4.7,0,7.7l2.9-7.7H98.8z"/>
		<polygon fill="#393933" points="96,266.8 96,270.6 105.4,270.6 114.8,270.6 114.8,266.8 105.4,266.8 		"/>
		<path fill="#393933" d="M105.4,229.6c0,0-10.4,14.7,0,34.5C115.8,244.3,105.4,229.6,105.4,229.6z"/>
		<path fill="#393933" d="M120.5,244.9c-6.8,0-11.3,19.2-11.3,19.2c11-10.8,14-1.2,14-1.2C126.9,259.9,127.2,244.9,120.5,244.9z"/>
		<path fill="#393933" d="M112,273h-2.9l2.9,7.7C118.3,277.6,112,273,112,273z"/>
		<path fill="#393933" d="M105.4,273h-1.7l-3.8,10.2c0,0,0.3,3.9,5.4,7.5c5.1-3.6,5.4-7.5,5.4-7.5l-3.8-10.2H105.4z"/>
	</g>
	<g>
		<path fill="#393933" d="M145.5,244.9c-6.8,0-6.5,15-2.7,18c0,0,3-9.6,14,1.2C156.8,264.1,152.2,244.9,145.5,244.9z"/>
		<path fill="#393933" d="M153.9,273c0,0-6.3,4.7,0,7.7l2.9-7.7H153.9z"/>
		<polygon fill="#393933" points="151.1,266.8 151.1,270.6 160.5,270.6 169.9,270.6 169.9,266.8 160.5,266.8 		"/>
		<path fill="#393933" d="M160.5,229.6c0,0-10.4,14.7,0,34.5C170.9,244.3,160.5,229.6,160.5,229.6z"/>
		<path fill="#393933" d="M175.5,244.9c-6.8,0-11.3,19.2-11.3,19.2c11-10.8,14-1.2,14-1.2C182,259.9,182.3,244.9,175.5,244.9z"/>
		<path fill="#393933" d="M167.1,273h-2.9l2.9,7.7C173.4,277.6,167.1,273,167.1,273z"/>
		<path fill="#393933" d="M160.5,273h-1.7l-3.8,10.2c0,0,0.3,3.9,5.4,7.5c5.1-3.6,5.4-7.5,5.4-7.5l-3.8-10.2H160.5z"/>
	</g>
	<g>
		<path fill="#D1D0C9" d="M238.8,255V238c0,0,1.8-0.3,2.1-3.9h-2.1l-1.6-5.2l-3.1,3.1v-3.1l-3.4,2.9v3.7l-3.1,0.5
			c0,0-2.9,0.8-1.3,4.2l4.4-0.1c0,0,0.4,4.1-3.3,3.9c0,0-1.1,4.5,1.9,4.5l0.2,3.8c0,0-3,9.2-7,10.4s-2,5.7,0.8,5.8s7.4-6.9,7.4-6.9
			s0.6,5.5,12.8,5.5c0,0-1.5,14,3.7,14s4.2-2.5,4.2-2.5v5.1c0,0-2.4,2.2-1.7,4.6s6.2,2.7,6.2-0.7c0-3.4,0-17.4,0-17.4
			s-6.1,0.8-6.8-5.6c0,0,4-2.4,4-8.4c0-6.1-4.5-10.1-4.5-13.5s2.9-2.7,3,0.4c0.1,3,3.6,2.3,3.4,0.2s-0.4-6.9-5.6-6.9
			s-4.4,8.9-2.8,12.3c1.6,3.3,4.6,11.3-1.1,11.3S238.8,255,238.8,255z"/>
		<path fill="#D1D0C9" d="M237.6,268.7c0,0-1,1.8-4.9,1.8c-3.1,0-4.6,4.3-0.7,6.8c0,0,1,3.3-1.2,3.8c-2.2,0.5-8.6,2.9-5.7,6.5
			c2.9,3.6,1.6-3.2,12.2-3.9c4.3-0.2,0.9-3.5,0.6-5.2c-0.6-3.5,0.3-3.6,3.2-4.1c0,0-0.4-3.1,0-5.4L237.6,268.7z"/>
	</g>
	<g>
		<path fill="#D1D0C9" d="M291.5,255V238c0,0,1.8-0.3,2.1-3.9h-2.1l-1.6-5.2l-3.1,3.1v-3.1l-3.4,2.9v3.7l-3.1,0.5
			c0,0-2.9,0.8-1.3,4.2l4.4-0.1c0,0,0.4,4.1-3.3,3.9c0,0-1.1,4.5,1.9,4.5l0.2,3.8c0,0-3,9.2-7,10.4c-3.9,1.2-2,5.7,0.8,5.8
			s7.4-6.9,7.4-6.9s0.6,5.5,12.8,5.5c0,0-1.5,14,3.7,14s4.2-2.5,4.2-2.5v5.1c0,0-2.4,2.2-1.7,4.6c0.7,2.5,6.2,2.7,6.2-0.7
			c0-3.4,0-17.4,0-17.4s-6.1,0.8-6.8-5.6c0,0,4-2.4,4-8.4c0-6.1-4.5-10.1-4.5-13.5s2.9-2.7,3,0.4s3.6,2.3,3.4,0.2
			c-0.2-2.1-0.4-6.9-5.6-6.9s-4.4,8.9-2.8,12.3c1.6,3.3,4.6,11.3-1.1,11.3C292.5,260.1,291.5,255,291.5,255z"/>
		<path fill="#D1D0C9" d="M290.3,268.7c0,0-1,1.8-4.9,1.8c-3.1,0-4.6,4.3-0.7,6.8c0,0,1,3.3-1.2,3.8c-2.2,0.5-8.6,2.9-5.7,6.5
			c2.9,3.6,1.6-3.2,12.2-3.9c4.3-0.2,0.9-3.5,0.6-5.2c-0.6-3.5,0.3-3.6,3.2-4.1c0,0-0.4-3.1,0-5.4L290.3,268.7z"/>
	</g>
</g>
</svg>
