<?xml version="1.0" encoding="utf-8"?>
<!-- Generator: Adobe Illustrator 17.1.0, SVG Export Plug-In . SVG Version: 6.00 Build 0)  -->
<!DOCTYPE svg PUBLIC "-//W3C//DTD SVG 1.1//EN" "http://www.w3.org/Graphics/SVG/1.1/DTD/svg11.dtd">
<svg version="1.1" id="Layer_1" xmlns="http://www.w3.org/2000/svg" xmlns:xlink="http://www.w3.org/1999/xlink" x="0px" y="0px"
	 viewBox="0 0 400 400" enable-background="new 0 0 400 400" xml:space="preserve">
<path fill="#393933" d="M200,8c25.9,0,51.1,5.1,74.7,15.1c22.9,9.7,43.4,23.5,61,41.2c17.6,17.6,31.5,38.2,41.2,61
	c10,23.7,15.1,48.8,15.1,74.7s-5.1,51.1-15.1,74.7c-9.7,22.9-23.5,43.4-41.2,61c-17.6,17.6-38.2,31.5-61,41.2
	c-23.7,10-48.8,15.1-74.7,15.1s-51.1-5.1-74.7-15.1c-22.9-9.7-43.4-23.5-61-41.2c-17.6-17.6-31.5-38.2-41.2-61
	C13.1,251.1,8,225.9,8,200s5.1-51.1,15.1-74.7c9.7-22.9,23.5-43.4,41.2-61c17.6-17.6,38.2-31.5,61-41.2C148.9,13.1,174.1,8,200,8
	 M200,0C89.5,0,0,89.5,0,200s89.5,200,200,200s200-89.5,200-200S310.5,0,200,0L200,0z"/>
<path fill="#D1D0C9" d="M37.2,131.2c8.9-21,21.6-39.9,37.9-56.1c16.2-16.2,35.1-29,56.1-37.9C153,28,176.2,23.4,200,23.4
	s47,4.7,68.8,13.9c21,8.9,39.9,21.6,56.1,37.9c16.2,16.2,29,35.1,37.9,56.1c9.2,21.8,13.9,44.9,13.9,68.8h7.4
	c0-101.6-82.4-184-184-184S16,98.4,16,200h7.4C23.4,176.2,28,153,37.2,131.2z"/>
<path fill="none" d="M200,71.8c17.3,0,34.1,3.4,49.9,10.1c15.3,6.5,29,15.7,40.8,27.5c11.8,11.8,21,25.5,27.5,40.8
	c6.7,15.8,10.1,32.6,10.1,49.9s-3.4,34.1-10.1,49.9c-6.5,15.3-15.7,29-27.5,40.8c-11.8,11.8-25.5,21-40.8,27.5
	c-15.8,6.7-32.6,10.1-49.9,10.1s-34.1-3.4-49.9-10.1c-15.3-6.5-29-15.7-40.8-27.5c-11.8-11.8-21-25.5-27.5-40.8
	c-6.7-15.8-10.1-32.6-10.1-49.9s3.4-34.1,10.1-49.9c6.5-15.3,15.7-29,27.5-40.8c11.8-11.8,25.5-21,40.8-27.5
	C165.9,75.2,182.7,71.8,200,71.8"/>
<text transform="matrix(-0.3693 -0.9293 0.9293 -0.3693 90.4019 251.6416)"><tspan x="0" y="0" font-family="'Gotham-Bold'" font-size="21">B</tspan><tspan x="86.6" y="29.1" font-family="'Gotham-Bold'" font-size="21" rotate="44.4">R</tspan><tspan x="128.3" y="110.4" font-family="'Gotham-Bold'" font-size="21" rotate="89">A</tspan><tspan x="100.4" y="198.8" font-family="'Gotham-Bold'" font-size="21" rotate="133.9">N</tspan><tspan x="18.2" y="241.6" font-family="'Gotham-Bold'" font-size="21" rotate="178.5">C</tspan><tspan x="-69.4" y="214.6" font-family="'Gotham-Bold'" font-size="21" rotate="-136.8">H</tspan></text>
<g>
	<path fill="#6F6F63" d="M362.8,268.8c-8.9,21-21.6,39.9-37.9,56.1c-16.2,16.2-35.1,29-56.1,37.9c-21.8,9.2-44.9,13.9-68.8,13.9
		s-47-4.7-68.8-13.9c-21-8.9-39.9-21.6-56.1-37.9c-16.2-16.2-29-35.1-37.9-56.1C28,247,23.4,223.8,23.4,200H16
		c0,101.6,82.4,184,184,184s184-82.4,184-184h-7.4C376.6,223.8,372,247,362.8,268.8z"/>
	<polygon fill="#6F6F63" points="177,377.6 197.2,277.3 193.9,210.9 168.4,171.5 172.2,169.7 199.9,210.1 204.8,279.3 187.9,379 
		181.1,381.9 	"/>
	<polygon fill="#6F6F63" points="198.3,242.3 222.2,216.3 248.3,208.5 248.3,211.2 223.3,220.2 198.3,249.2 	"/>
	<path fill="#6F6F63" d="M165.3,175.2c0,0-27.1-20.9-48,6.2C117.3,181.4,144.4,202.3,165.3,175.2z"/>
	<path fill="#6F6F63" d="M291,237.7c0,0-6-33.7-39.7-27.7C251.3,210,257.3,243.7,291,237.7z"/>
	<path fill="#6F6F63" d="M269.8,176.8c0,0-24.3,6.1-18.3,30.4C251.5,207.2,275.8,201.1,269.8,176.8z"/>
	<path fill="#6F6F63" d="M227.3,194.5c0,0,6.1-17-10.9-23.1C216.4,171.4,210.3,188.4,227.3,194.5z"/>
	<path fill="#6F6F63" d="M246.2,280.8c0,0,6.1-17-10.9-23.1C235.3,257.8,229.2,274.7,246.2,280.8z"/>
	<path fill="#6F6F63" d="M176.2,168.4c0,0,25.4-4.6,20.8-30C197,138.5,171.6,143,176.2,168.4z"/>
	<path fill="#6F6F63" d="M247.4,282.8c0,0,22.5,12.5,35.1-10C282.5,272.8,259.9,260.2,247.4,282.8z"/>
	<path fill="#6F6F63" d="M229.9,193.7c0,0,12.3-1.6,10.7-14C240.6,179.7,228.2,181.3,229.9,193.7z"/>
	<path fill="#6F6F63" d="M168.9,167.5c0,0,4.3-33.9-29.6-38.3C139.2,129.2,134.9,163.2,168.9,167.5z"/>
	<polygon fill="#6F6F63" points="227.9,215.8 228.6,195.4 229.9,195 230.4,214.9 	"/>
	<polygon fill="#6F6F63" points="193.8,326.6 227.9,308.3 244.4,282.2 246.3,284.6 230.4,314.2 191,337.1 	"/>
</g>
</svg>
