<?xml version="1.0" encoding="utf-8"?>
<!-- Generator: Adobe Illustrator 17.1.0, SVG Export Plug-In . SVG Version: 6.00 Build 0)  -->
<!DOCTYPE svg PUBLIC "-//W3C//DTD SVG 1.1//EN" "http://www.w3.org/Graphics/SVG/1.1/DTD/svg11.dtd">
<svg version="1.1" id="Layer_1" xmlns="http://www.w3.org/2000/svg" xmlns:xlink="http://www.w3.org/1999/xlink" x="0px" y="0px"
	 viewBox="0 0 400 400" enable-background="new 0 0 400 400" xml:space="preserve">
<path fill="#393933" d="M337,268.4c-7.4,14.7-17,28.1-28.8,39.9c-14.1,14.1-30.4,25.1-48.7,32.8c-18.9,8-38.9,12-59.6,12
	s-40.7-4-59.6-12c-18.2-7.7-34.6-18.8-48.7-32.8c-14.1-14.1-25.1-30.4-32.8-48.7c-8-18.9-12-38.9-12-59.6c0-20.7,4-40.7,12-59.6
	c7.7-18.2,18.8-34.6,32.8-48.7c14.1-14.1,30.4-25.1,48.7-32.8c18.9-8,38.9-12,59.6-12s40.7,4,59.6,12c18.2,7.7,34.6,18.8,48.7,32.8
	c11.7,11.7,21.3,24.9,28.6,39.5l26.8-13.4c-8.8-17.5-20.2-33.4-34.2-47.3c-16.8-16.8-36.4-30-58.2-39.3
	c-22.6-9.5-46.6-14.4-71.3-14.4s-48.7,4.8-71.3,14.4c-21.8,9.2-41.4,22.4-58.2,39.3c-16.8,16.8-30,36.4-39.3,58.2
	c-9.5,22.6-14.4,46.6-14.4,71.3c0,24.7,4.8,48.7,14.4,71.3c9.2,21.8,22.4,41.4,39.3,58.2c16.8,16.8,36.4,30,58.2,39.3
	c22.6,9.5,46.6,14.4,71.3,14.4s48.7-4.8,71.3-14.4c21.8-9.2,41.4-22.4,58.2-39.3c14.1-14.1,25.6-30.1,34.4-47.7L337,268.4z"/>
<path fill="#6F6F63" d="M200,8c25.9,0,51.1,5.1,74.7,15.1c22.9,9.7,43.4,23.5,61,41.2c17.6,17.6,31.5,38.2,41.2,61
	c10,23.7,15.1,48.8,15.1,74.7s-5.1,51.1-15.1,74.7c-9.7,22.9-23.5,43.4-41.2,61c-17.6,17.6-38.2,31.5-61,41.2
	c-23.7,10-48.8,15.1-74.7,15.1s-51.1-5.1-74.7-15.1c-22.9-9.7-43.4-23.5-61-41.2c-17.6-17.6-31.5-38.2-41.2-61
	C13.1,251.1,8,225.9,8,200s5.1-51.1,15.1-74.7c9.7-22.9,23.5-43.4,41.2-61c17.6-17.6,38.2-31.5,61-41.2C148.9,13.1,174.1,8,200,8
	 M200,0C89.5,0,0,89.5,0,200s89.5,200,200,200s200-89.5,200-200S310.5,0,200,0L200,0z"/>
<path fill="#D1D0C9" d="M200,60.9c18.8,0,37,3.7,54.1,10.9c16.6,7,31.4,17,44.2,29.8c12.8,12.8,22.8,27.7,29.8,44.2
	c7.3,17.1,10.9,35.4,10.9,54.1s-3.7,37-10.9,54.1c-7,16.6-17,31.4-29.8,44.2c-12.8,12.8-27.7,22.8-44.2,29.8
	c-17.1,7.3-35.4,10.9-54.1,10.9s-37-3.7-54.1-10.9c-16.6-7-31.4-17-44.2-29.8c-12.8-12.8-22.8-27.7-29.8-44.2
	C64.6,237,60.9,218.8,60.9,200s3.7-37,10.9-54.1c7-16.6,17-31.4,29.8-44.2c12.8-12.8,27.7-22.8,44.2-29.8
	C163,64.6,181.2,60.9,200,60.9"/>
<g>
	<g>
		<path fill="#393933" d="M108.1,173.5c2,0,3.8,0.4,5.3,1.3l1.1,0.6c0.2,0.1,0.4,0.2,0.6,0.2c0.2,0,0.4-0.1,0.5-0.3l0.3-0.5
			c0.1-0.1,0.2-0.1,0.3-0.1c0.3,0,0.5,0.4,0.5,1.1l0,1.2v1.5l0.1,1.2l0.1,0.7c0.1,0.4,0.1,0.7,0.1,1c0,0.4-0.2,0.6-0.5,0.6
			c-0.2,0-0.3-0.1-0.3-0.4c-0.1-0.4-0.4-1-0.9-1.9c-0.5-0.9-1-1.5-1.5-2c-1.9-2-4-3.1-6.3-3.1c-2.1,0-3.7,0.8-5,2.5
			c-1.3,1.7-1.9,3.9-1.9,6.6c0,3.5,1.1,6.3,3.2,8.4c1.6,1.6,3.3,2.3,5.2,2.3c1.1,0,2.3-0.3,3.5-0.8c1.2-0.5,2.2-1.2,2.9-2l1.1-1.2
			c0.2-0.2,0.3-0.3,0.4-0.3c0.2,0,0.3,0.1,0.3,0.4c0,0.4-0.4,1.2-1.3,2.1c-2.3,2.5-5,3.8-8.3,3.8c-3.2,0-5.8-1-7.8-3.1
			c-2-2-3-4.7-3-8c0-1.8,0.4-3.6,1.1-5.3s1.8-3.1,3-4.2C102.9,174.4,105.3,173.5,108.1,173.5z"/>
		<path fill="#393933" d="M136.5,175.8l7.4,17.1c0.4,0.9,0.8,1.5,1.3,1.9c0.5,0.4,1.1,0.7,1.9,0.8c0.2,0,0.3,0.2,0.3,0.5
			c0,0.3-0.1,0.4-0.4,0.4c-0.1,0-0.3,0-0.6-0.1c-0.8-0.2-2.2-0.3-4.1-0.3c-1.9,0-3.2,0.1-3.8,0.3c-0.2,0-0.3,0.1-0.4,0.1
			c-0.3,0-0.5-0.2-0.5-0.5c0-0.2,0.1-0.3,0.4-0.3c0.5-0.2,1-0.4,1.3-0.8c0.3-0.4,0.5-0.8,0.5-1.2c0-0.6-0.5-1.9-1.4-4
			c-0.3-0.6-0.6-1-1-1.1c-0.4-0.1-1.6-0.1-3.8-0.1h-2.2l-1.5,0.3c-0.4,0.2-0.9,0.9-1.4,2.2l-0.5,1.3c-0.2,0.4-0.2,0.7-0.2,1.1
			c0,1.4,1,2.2,2.9,2.4c0.4,0.1,0.6,0.2,0.6,0.5c0,0.3-0.2,0.4-0.6,0.4c-0.2,0-0.5,0-0.8-0.1c-0.7-0.1-1.4-0.2-1.9-0.2
			c-0.5,0-1.3,0.1-2.5,0.2c-0.9,0.1-1.4,0.1-1.6,0.1c-0.3,0-0.5-0.1-0.5-0.4c0-0.2,0.2-0.4,0.5-0.5c0.6-0.2,1.1-0.5,1.4-1
			c0.4-0.5,0.9-1.5,1.6-3.1l4.5-10.3c0.4-0.8,0.6-1.4,0.8-1.7l1.5-3.1l0.8-1.5v0c0.3-0.8,0.6-1.2,0.7-1.2c0.2,0,0.5,0.5,0.9,1.4
			L136.5,175.8z M137.1,186l-2.1-5c-0.5-1.2-0.9-1.8-1.1-1.8c-0.1,0-0.4,0.4-0.7,1.2l-0.3,0.7l-1.9,4.3l-0.2,0.4
			c-0.1,0.2-0.1,0.3-0.1,0.4c0,0.4,0.4,0.6,1.2,0.6h4.8c0.4,0,0.6-0.1,0.6-0.3c0-0.1,0-0.1-0.1-0.3L137.1,186z"/>
		<path fill="#393933" d="M161.4,191.2c0,2,0.2,3.2,0.7,3.4c0.3,0.1,0.8,0.2,1.6,0.2c3.7,0,6.3-1.1,7.8-3.3c0.5-0.7,0.8-1,0.9-1
			c0.2,0,0.3,0.2,0.3,0.7c0,1.4-0.5,2.6-1.4,3.7c-0.8,1-1.9,1.4-3.3,1.4c-0.3,0-0.8,0-1.6-0.1c-0.2,0-0.8,0-2-0.1l-1.8-0.1
			c-0.6,0-1.3,0-2,0c-1.3,0-2.6,0.1-4.1,0.2c-0.4,0.1-0.7,0.1-0.9,0.1c-0.3,0-0.5-0.1-0.5-0.4c0-0.2,0.1-0.3,0.4-0.4
			c0.7-0.2,1.2-0.6,1.4-1.1c0.3-0.6,0.4-1.5,0.4-2.7V178c0-1.7-0.7-2.7-2.2-2.9l-1-0.2c-0.4-0.1-0.6-0.2-0.6-0.5
			c0-0.3,0.2-0.5,0.5-0.5c0.1,0,0.3,0,0.5,0c0.2,0,0.4,0,0.6,0.1l0.7,0c0.7,0.1,1.2,0.1,1.5,0.1c0.5,0,1.4-0.1,2.5-0.2
			c0.9-0.1,1.7-0.1,2.6-0.1c0.7,0,1,0.2,1,0.5c0,0.3-0.2,0.4-0.7,0.4c-1.1,0.1-1.6,0.8-1.6,2.3V191.2z"/>
		<path fill="#393933" d="M196.5,185.1h-7.7c-0.8,0-1.2,0.1-1.4,0.3s-0.3,0.7-0.3,1.6v4.1c0,1.5,0.3,2.7,0.8,3.3
			c0.5,0.7,1.3,1,2.5,1c0.4,0,0.6,0.1,0.6,0.4c0,0.3-0.3,0.5-0.8,0.5c-0.2,0-0.6,0-1.2-0.1c-1.3-0.2-2.5-0.2-3.5-0.2
			c-0.7,0-1.6,0.1-2.7,0.2c-0.7,0.1-1.1,0.1-1.3,0.1c-0.3,0-0.5-0.2-0.5-0.5c0-0.2,0.1-0.4,0.4-0.4c0.7-0.1,1.3-0.5,1.6-1
			s0.5-1.4,0.5-2.5l0-0.9v-13.6c0-0.8-0.2-1.4-0.6-1.8c-0.4-0.4-1.2-0.7-2.4-0.9c-0.3-0.1-0.5-0.2-0.5-0.5c0-0.3,0.2-0.5,0.5-0.5
			c0.2,0,0.6,0,1.1,0.1c0.9,0.1,1.9,0.2,3.1,0.2c0.4,0,1.3-0.1,2.6-0.2c0.8-0.1,1.4-0.1,1.8-0.1c0.4,0,0.6,0.1,0.6,0.4
			c0,0.2-0.2,0.4-0.5,0.4c-1.3,0.2-1.9,1-1.9,2.4v4.2c0,1.1,0.1,1.8,0.2,1.9c0.2,0.2,0.7,0.3,1.6,0.3h7.6c0.7,0,1.1-0.1,1.2-0.4
			c0.1-0.3,0.2-1,0.2-2.2v-3.5c0-1.4-0.8-2.2-2.3-2.5l-0.8-0.1c-0.3-0.1-0.5-0.2-0.5-0.5c0-0.3,0.2-0.5,0.5-0.5c0.2,0,0.6,0,1.1,0.1
			c0.9,0.1,1.9,0.2,3.1,0.2c0.4,0,1.3-0.1,2.6-0.2c0.8-0.1,1.4-0.1,1.8-0.1c0.4,0,0.6,0.1,0.6,0.4c0,0.2-0.2,0.4-0.5,0.4
			c-1.3,0.2-1.9,1-1.9,2.4v14c0,1.5,0.2,2.7,0.7,3.3c0.5,0.7,1.3,1,2.4,1c0.4,0,0.6,0.1,0.6,0.4c0,0.3-0.3,0.5-0.8,0.5
			c-0.2,0-0.6,0-1.1-0.1c-1.3-0.2-2.5-0.2-3.5-0.2c-0.7,0-1.6,0.1-2.7,0.2c-0.7,0.1-1.1,0.1-1.3,0.1c-0.3,0-0.5-0.2-0.5-0.5
			c0-0.2,0.1-0.4,0.4-0.4c0.7-0.1,1.3-0.5,1.6-1s0.5-1.4,0.5-2.5l0-0.9v-3.6c0-1.1-0.1-1.7-0.2-1.9
			C197.5,185.3,197.1,185.1,196.5,185.1z"/>
		<path fill="#393933" d="M225.7,173.5c3.4,0,6.1,1,8.2,3c2.1,2,3.1,4.6,3.1,7.8c0,3.5-1.1,6.5-3.2,8.9c-2.1,2.4-5,3.6-8.7,3.6
			c-3.5,0-6.3-1-8.5-3.1c-2.1-2.1-3.2-4.8-3.2-8.3c0-1.5,0.3-3,0.8-4.4c0.5-1.5,1.3-2.7,2.2-3.7c1.1-1.2,2.4-2.1,4-2.7
			S223.9,173.5,225.7,173.5z M224.5,174.7c-2.2,0-3.9,0.8-5.1,2.4c-1.2,1.6-1.8,3.9-1.8,6.8c0,3.4,0.8,6.2,2.3,8.3
			c1.5,2.1,3.6,3.2,6,3.2c2.2,0,4-0.9,5.4-2.7c1.3-1.8,2-4.1,2-7.1c0-1.7-0.3-3.4-0.9-5c-0.6-1.6-1.4-2.9-2.5-3.9
			C228.4,175.4,226.6,174.7,224.5,174.7z"/>
		<path fill="#393933" d="M263.3,173.8c0.1,0,0.2,0,0.4,0c0.2,0,0.6,0.1,1.3,0.1l1.7,0.1l1.6-0.1c0.5,0,1-0.1,1.4-0.1
			c0.2,0,0.4,0,0.5,0c0.3,0,0.4,0.1,0.4,0.4c0,0.2-0.1,0.4-0.4,0.4l-0.6,0.1c-0.8,0.1-1.3,1.1-1.3,2.7l0,1.4l0,2
			c0,3.1-0.2,5.7-0.5,7.6c-0.3,1.9-0.8,3.4-1.5,4.5c-1.6,2.5-4.4,3.8-8.4,3.8c-2.8,0-4.9-0.5-6.5-1.6c-2.1-1.4-3.1-4.2-3.1-8.3
			l0.2-6.3l0-3c0-0.7-0.1-1.3-0.2-1.6c-0.1-0.3-0.4-0.6-0.9-0.8c-0.5-0.2-1.1-0.4-1.8-0.5c-0.4-0.1-0.6-0.2-0.6-0.5
			c0-0.3,0.2-0.4,0.6-0.4c0.1,0,0.3,0,0.7,0c1.4,0.1,2.4,0.2,3.2,0.2c1.1,0,2.2-0.1,3.5-0.2c0.5,0,0.9-0.1,1.1-0.1
			c0.6,0,0.8,0.2,0.8,0.5c0,0.2,0,0.3-0.1,0.4c-0.1,0.1-0.3,0.1-0.6,0.2c-0.7,0.1-1.1,0.4-1.3,0.7c-0.2,0.4-0.4,1.1-0.4,2.1
			l-0.3,4.1l0,2.9c0,2.6,0.1,4.5,0.4,5.6s0.9,2.1,1.7,2.9c1.3,1.2,3,1.8,5.1,1.8c2.1,0,3.8-0.6,5.1-1.9c0.9-0.8,1.5-2.1,1.9-3.7
			c0.4-1.6,0.5-3.9,0.5-6.9v-1.3l-0.1-3.3c-0.1-1-0.4-1.8-0.9-2.4c-0.6-0.6-1.3-0.8-2.3-0.8c-0.4,0-0.6-0.2-0.6-0.5
			C263,173.9,263.1,173.8,263.3,173.8z"/>
		<path fill="#393933" d="M288.1,177.6l8.6,9.7l0.6,0.6c0.7,0.8,1.2,1.2,1.5,1.2c0.2,0,0.4-0.3,0.4-1c0.1-2.4,0.1-4.7,0.1-6.9
			c0-2.6-0.3-4.3-0.8-5.2c-0.5-0.9-1.5-1.4-3-1.5c-0.4,0-0.5-0.1-0.5-0.4c0-0.3,0.2-0.4,0.5-0.4c0.4,0,1,0.1,1.9,0.2
			c0.6,0.1,1,0.1,1.4,0.1c0.8,0,1.9-0.1,3.6-0.3c0.2,0,0.4,0,0.5,0c0.3,0,0.5,0.2,0.5,0.5c0,0.3-0.2,0.4-0.5,0.5
			c-1.4,0.3-2.1,1.5-2.1,3.7v0.8l-0.2,10.2l-0.1,1.4l0,1.8l0,1.2l0.1,2c0,0.3-0.1,0.5-0.3,0.4c-0.2,0-0.4-0.1-0.6-0.4l-14.9-16.5
			c-0.3-0.3-0.4-0.4-0.5-0.4c-0.3,0-0.4,0.2-0.4,0.7l0,0.5v6.3c0,3.4,0.2,5.6,0.5,6.8c0.4,1.2,1.4,1.9,3.2,2.1
			c0.3,0,0.5,0.2,0.5,0.4c0,0.3-0.2,0.5-0.5,0.5c-0.1,0-0.3,0-0.6-0.1c-0.9-0.2-1.9-0.2-3-0.2c-1.1,0-2.1,0.1-2.9,0.2
			c-0.4,0.1-0.7,0.1-0.8,0.1c-0.3,0-0.4-0.1-0.4-0.4c0-0.2,0.2-0.4,0.5-0.5c0.8-0.2,1.4-0.7,1.7-1.4c0.4-0.7,0.5-1.7,0.5-3.1
			l0.1-3.9v-7.1c0-3.3-1.2-5.1-3.7-5.3c-0.3,0-0.5-0.2-0.5-0.4c0-0.3,0.2-0.5,0.6-0.5l1.1,0l0.7,0c0.9,0,1.8,0,2.7-0.1
			c0.4,0,0.7,0,0.9,0c0.3,0,0.6,0.1,0.8,0.2s0.6,0.6,1.2,1.3l1.1,1.3C287.7,177.2,288,177.5,288.1,177.6z"/>
	</g>
	<g>
		<path fill="#393933" d="M153.1,212c1.3,0,2.4,0.3,3.3,0.8l0.7,0.4c0.1,0.1,0.3,0.1,0.4,0.1c0.1,0,0.2-0.1,0.3-0.2l0.2-0.3
			c0-0.1,0.1-0.1,0.2-0.1c0.2,0,0.3,0.2,0.3,0.7l0,0.7v0.9l0.1,0.8l0.1,0.5c0,0.2,0.1,0.4,0.1,0.6c0,0.3-0.1,0.4-0.3,0.4
			c-0.1,0-0.2-0.1-0.2-0.2c-0.1-0.3-0.2-0.7-0.6-1.2c-0.3-0.5-0.6-1-0.9-1.3c-1.2-1.3-2.5-1.9-4-1.9c-1.3,0-2.3,0.5-3.2,1.6
			s-1.2,2.4-1.2,4.1c0,2.2,0.7,4,2,5.3c1,1,2.1,1.5,3.2,1.5c0.7,0,1.4-0.2,2.2-0.5c0.8-0.3,1.4-0.7,1.8-1.2l0.7-0.7
			c0.1-0.1,0.2-0.2,0.3-0.2c0.1,0,0.2,0.1,0.2,0.2c0,0.3-0.3,0.7-0.8,1.3c-1.4,1.6-3.2,2.4-5.2,2.4c-2,0-3.6-0.6-4.9-1.9
			c-1.3-1.3-1.9-3-1.9-5c0-1.1,0.2-2.2,0.7-3.3s1.1-2,1.9-2.6C149.9,212.5,151.4,212,153.1,212z"/>
		<path fill="#393933" d="M171.9,212c2.1,0,3.9,0.6,5.2,1.9s2,2.9,2,4.9c0,2.2-0.7,4.1-2,5.6c-1.3,1.5-3.1,2.2-5.5,2.2
			c-2.2,0-4-0.6-5.3-1.9c-1.3-1.3-2-3-2-5.2c0-0.9,0.2-1.9,0.5-2.8s0.8-1.7,1.4-2.3c0.7-0.7,1.5-1.3,2.5-1.7
			C169.7,212.2,170.8,212,171.9,212z M171.2,212.7c-1.4,0-2.4,0.5-3.2,1.5s-1.2,2.4-1.2,4.3c0,2.1,0.5,3.9,1.5,5.2
			c1,1.3,2.2,2,3.8,2c1.4,0,2.5-0.6,3.4-1.7s1.3-2.6,1.3-4.5c0-1.1-0.2-2.1-0.6-3.1c-0.4-1-0.9-1.8-1.6-2.4
			C173.6,213.2,172.5,212.7,171.2,212.7z"/>
		<path fill="#393933" d="M195.5,212.1c0,0,0.1,0,0.2,0c0.1,0,0.4,0,0.8,0.1l1.1,0.1l1,0c0.3,0,0.6-0.1,0.9-0.1c0.1,0,0.2,0,0.3,0
			c0.2,0,0.3,0.1,0.3,0.3c0,0.1-0.1,0.2-0.3,0.3l-0.4,0.1c-0.5,0.1-0.8,0.7-0.8,1.7l0,0.9l0,1.3c0,2-0.1,3.6-0.3,4.8
			c-0.2,1.2-0.5,2.1-0.9,2.8c-1,1.6-2.8,2.4-5.2,2.4c-1.7,0-3.1-0.3-4.1-1c-1.3-0.9-2-2.6-2-5.2l0.1-4l0-1.9c0-0.5,0-0.8-0.1-1
			c-0.1-0.2-0.3-0.4-0.6-0.5c-0.3-0.2-0.7-0.3-1.1-0.3c-0.3,0-0.4-0.1-0.4-0.3c0-0.2,0.1-0.3,0.3-0.3c0.1,0,0.2,0,0.4,0
			c0.9,0.1,1.5,0.1,2,0.1c0.7,0,1.4,0,2.2-0.1c0.3,0,0.6,0,0.7,0c0.4,0,0.5,0.1,0.5,0.3c0,0.1,0,0.2-0.1,0.2c-0.1,0-0.2,0.1-0.4,0.1
			c-0.4,0.1-0.7,0.2-0.8,0.5c-0.1,0.2-0.2,0.7-0.3,1.3l-0.2,2.6l0,1.8c0,1.7,0.1,2.8,0.3,3.5c0.2,0.7,0.5,1.3,1.1,1.8
			c0.8,0.8,1.9,1.1,3.2,1.1c1.3,0,2.4-0.4,3.2-1.2c0.5-0.5,0.9-1.3,1.2-2.3c0.2-1,0.3-2.5,0.3-4.4v-0.8l-0.1-2.1
			c0-0.6-0.2-1.1-0.6-1.5s-0.8-0.5-1.4-0.5c-0.3,0-0.4-0.1-0.4-0.3C195.3,212.2,195.4,212.1,195.5,212.1z"/>
		<path fill="#393933" d="M211.1,214.6l5.4,6.1l0.3,0.4c0.5,0.5,0.8,0.8,0.9,0.8c0.1,0,0.2-0.2,0.2-0.6c0.1-1.5,0.1-2.9,0.1-4.3
			c0-1.6-0.2-2.7-0.5-3.3c-0.3-0.6-1-0.9-1.9-1c-0.2,0-0.3-0.1-0.3-0.2c0-0.2,0.1-0.3,0.3-0.3c0.2,0,0.6,0,1.2,0.1
			c0.4,0,0.7,0.1,0.9,0.1c0.5,0,1.2-0.1,2.2-0.2c0.1,0,0.2,0,0.3,0c0.2,0,0.3,0.1,0.3,0.3c0,0.2-0.1,0.3-0.3,0.3
			c-0.9,0.2-1.3,0.9-1.3,2.3v0.5l-0.1,6.4l0,0.9l0,1.1l0,0.8l0,1.3c0,0.2-0.1,0.3-0.2,0.3c-0.1,0-0.2-0.1-0.4-0.2l-9.3-10.4
			c-0.2-0.2-0.3-0.3-0.3-0.3c-0.2,0-0.2,0.2-0.2,0.5l0,0.3v4c0,2.1,0.1,3.5,0.3,4.3c0.2,0.8,0.9,1.2,2,1.3c0.2,0,0.3,0.1,0.3,0.3
			c0,0.2-0.1,0.3-0.3,0.3c-0.1,0-0.2,0-0.4,0c-0.6-0.1-1.2-0.1-1.9-0.1c-0.7,0-1.3,0-1.8,0.1c-0.2,0-0.4,0.1-0.5,0.1
			c-0.2,0-0.3-0.1-0.3-0.3c0-0.1,0.1-0.2,0.3-0.3c0.5-0.1,0.9-0.4,1.1-0.9c0.2-0.4,0.3-1.1,0.3-1.9l0.1-2.4v-4.4
			c0-2.1-0.8-3.2-2.3-3.3c-0.2,0-0.3-0.1-0.3-0.3c0-0.2,0.1-0.3,0.3-0.3l0.7,0l0.4,0c0.5,0,1.1,0,1.7-0.1c0.2,0,0.4,0,0.6,0
			c0.2,0,0.4,0,0.5,0.1c0.1,0.1,0.4,0.4,0.8,0.8l0.7,0.8C210.9,214.3,211,214.5,211.1,214.6z"/>
		<path fill="#393933" d="M233.1,214.7v7.7c0,1.2,0.2,2,0.5,2.5c0.3,0.5,0.9,0.8,1.8,0.8c0.2,0,0.4,0.1,0.4,0.4
			c0,0.2-0.1,0.2-0.3,0.2c0,0-0.1,0-0.3,0l-0.8,0l-1.3-0.1c-0.1,0-0.2,0-0.4,0c-0.4,0-0.8,0-1.1,0l-2.3,0.1c-0.2,0-0.4,0-0.5,0
			c-0.2,0-0.3-0.1-0.3-0.3c0-0.2,0-0.3,0.1-0.3s0.2-0.1,0.4-0.1c0.5,0,0.9-0.2,1.2-0.6c0.3-0.4,0.4-0.8,0.4-1.4l0-0.5v-9.1
			c0-0.5-0.3-0.8-0.9-0.8c-1.4,0-2.3,0.1-2.8,0.3c-0.4,0.2-0.6,0.3-0.7,0.5c-0.1,0.2-0.3,0.7-0.5,1.4l-0.1,0.3
			c-0.1,0.3-0.2,0.4-0.3,0.4c-0.2,0-0.3-0.1-0.3-0.3c0-0.2,0-0.5,0.1-0.8l0.1-0.9l0.1-0.9l0.1-0.6c0-0.3,0.2-0.4,0.4-0.4
			c0.1,0,0.2,0,0.3,0c0.3,0,0.6,0,1.1,0l2.1,0l2.5,0c1.6,0,3.3,0,5.1-0.1c0.4,0,0.6,0,0.7,0c0.4,0,0.6,0.2,0.6,0.5l0.1,0.7
			c0,0.1,0,0.4,0.1,0.8c0,0.4,0.1,0.7,0.1,0.9c0,0.2-0.1,0.3-0.3,0.3c-0.2,0-0.3-0.1-0.3-0.4c-0.1-0.6-0.4-1.1-0.8-1.4
			c-0.4-0.3-1-0.4-1.8-0.4c-1,0-1.7,0.1-1.9,0.2C233.3,213.7,233.1,214.1,233.1,214.7z"/>
		<path fill="#393933" d="M251.3,220.8v3l0.1,0.7c0.1,0.8,0.8,1.2,2.1,1.3c0.2,0,0.3,0.1,0.3,0.3c0,0.2-0.2,0.3-0.5,0.3
			c-0.2,0-0.3,0-0.5,0l-1.5-0.1c-0.3,0-0.7,0-1.2,0c-1.3,0-2.1,0-2.5,0.1c-0.3,0-0.5,0.1-0.6,0.1c-0.2,0-0.2-0.1-0.2-0.3
			c0-0.1,0.1-0.2,0.3-0.2c0.8-0.1,1.3-0.4,1.6-0.7c0.3-0.4,0.4-1,0.4-1.9v-2c0-0.5-0.2-0.9-0.5-1.4c-0.4-0.6-0.7-1.3-1.2-2.1
			l-1.6-2.9c-0.6-1.2-1.3-1.8-2.2-1.9c-0.3,0-0.4-0.1-0.4-0.3c0-0.2,0.1-0.3,0.3-0.3c0.2,0,0.4,0,0.8,0.1c0.7,0.1,1.4,0.1,2,0.1
			c0.6,0,1.1,0,1.7-0.1c0.4,0,0.7-0.1,0.8-0.1c0.3,0,0.4,0.1,0.4,0.3c0,0.1-0.1,0.2-0.3,0.3c-0.5,0.1-0.8,0.3-0.8,0.7
			c0,0.3,0.2,0.9,0.7,1.9l0.8,1.6c0.3,0.6,0.5,1,0.6,1.2c0.2,0.5,0.5,0.7,0.7,0.7c0.2,0,0.5-0.3,0.9-1c0.1-0.2,0.3-0.6,0.7-1.2
			c0.7-1.4,1.1-2.2,1.1-2.5c0-0.3-0.2-0.6-0.5-0.8c-0.3-0.3-0.7-0.4-1.1-0.4c-0.2,0-0.3-0.1-0.3-0.3c0-0.2,0.1-0.3,0.3-0.3
			c0.2,0,0.4,0,0.5,0l0.7,0.1c0.3,0,0.6,0.1,1,0.1c0.2,0,0.5,0,0.8,0l0.9-0.1c0.2,0,0.5,0,0.8,0c0.2,0,0.3,0.1,0.3,0.2
			c0,0.1-0.1,0.2-0.4,0.3c-0.5,0.1-0.9,0.4-1.2,0.7c-0.3,0.3-0.7,1-1.2,1.9c-0.9,1.7-1.7,3.1-2.4,4.2c-0.1,0.2-0.2,0.4-0.3,0.5
			C251.3,220.2,251.3,220.4,251.3,220.8z"/>
	</g>
</g>
<g>
	<line fill="none" stroke="#393933" stroke-width="2" stroke-miterlimit="10" x1="130" y1="220" x2="100" y2="220"/>
	<line fill="none" stroke="#393933" stroke-width="2" stroke-miterlimit="10" x1="300" y1="220" x2="270" y2="220"/>
</g>
<path fill="#6F6F63" d="M339,289.5c-6.3,9.8-13.7,19-22.1,27.4c-15.2,15.2-32.9,27.1-52.6,35.4c-20.4,8.6-42,13-64.4,13
	s-44-4.4-64.4-13c-19.7-8.3-37.4-20.2-52.6-35.4C67.9,301.7,56,284,47.7,264.4c-8.6-20.4-13-42-13-64.4c0-22.3,4.4-44,13-64.4
	C56,116,67.9,98.3,83.1,83.1C98.3,67.9,116,56,135.6,47.7c20.4-8.6,42-13,64.4-13s44,4.4,64.4,13c19.7,8.3,37.4,20.2,52.6,35.4
	c8.4,8.4,15.8,17.6,22.1,27.4l6.2-3.1C314.6,59.5,261,27.8,200,27.8c-95.1,0-172.2,77.1-172.2,172.2S104.9,372.2,200,372.2
	c61,0,114.6-31.7,145.2-79.6L339,289.5z"/>
</svg>
