<?xml version="1.0" encoding="utf-8"?>
<!-- Generator: Adobe Illustrator 17.1.0, SVG Export Plug-In . SVG Version: 6.00 Build 0)  -->
<!DOCTYPE svg PUBLIC "-//W3C//DTD SVG 1.1//EN" "http://www.w3.org/Graphics/SVG/1.1/DTD/svg11.dtd">
<svg version="1.1" xmlns="http://www.w3.org/2000/svg" xmlns:xlink="http://www.w3.org/1999/xlink" x="0px" y="0px"
	 viewBox="0 0 400 400" enable-background="new 0 0 400 400" xml:space="preserve">
<g id="Layer_1">
	<path fill="#D1D0C9" d="M81.5,287c4.4,6,9.3,11.6,14.6,16.9c13.5,13.5,29.2,24.1,46.7,31.5c18.1,7.7,37.4,11.5,57.2,11.5
		s39.1-3.9,57.2-11.5c17.5-7.4,33.2-18,46.7-31.5c5.3-5.3,10.2-11,14.6-16.9H81.5z"/>
	<path fill="#D1D0C9" d="M318.5,113c-4.4-6-9.3-11.6-14.6-16.9c-13.5-13.5-29.2-24.1-46.7-31.5C239.1,56.9,219.8,53,200,53
		s-39.1,3.9-57.2,11.5c-17.5,7.4-33.2,18-46.7,31.5c-5.3,5.3-10.2,11-14.6,16.9H318.5z"/>
	<path fill="#393933" d="M200,8c25.9,0,51.1,5.1,74.7,15.1c22.9,9.7,43.4,23.5,61,41.2c17.6,17.6,31.5,38.2,41.2,61
		c10,23.7,15.1,48.8,15.1,74.7s-5.1,51.1-15.1,74.7c-9.7,22.9-23.5,43.4-41.2,61c-17.6,17.6-38.2,31.5-61,41.2
		c-23.7,10-48.8,15.1-74.7,15.1s-51.1-5.1-74.7-15.1c-22.9-9.7-43.4-23.5-61-41.2c-17.6-17.6-31.5-38.2-41.2-61
		C13.1,251.1,8,225.9,8,200s5.1-51.1,15.1-74.7c9.7-22.9,23.5-43.4,41.2-61c17.6-17.6,38.2-31.5,61-41.2C148.9,13.1,174.1,8,200,8
		 M200,0C89.5,0,0,89.5,0,200s89.5,200,200,200s200-89.5,200-200S310.5,0,200,0L200,0z"/>
	<path fill="#6F6F63" d="M234.4,86c0,0,1-0.7,1.5-0.8s1.2-0.8,0.8-1c-0.3-0.2-0.8-0.6-1-0.6c0,0-0.3-0.5-0.8-0.6
		c-0.6-0.1-3.6-1.8-5-2.1c-1.4-0.4-6.2-3.1-9.2-4.2c-2.9-1.1-6.4-1.7-6.4-1.7s-0.8-1.4-1.6-2.3c0,0-0.1,0.4-0.5,0.4
		c0,0-0.6-1.3-1.5-2.2c0,0,0.2,1-0.3,1.1c0,0-0.6-0.9-1.2-1.4c0,0,0.4,1.4-0.8,1.1c0,0-0.4-0.4-0.7-0.6c0,0,0.3,1.5-1,1.1
		c0,0-0.4-0.3-0.7-0.5c0,0,0.7,1.5-0.8,1.1c0,0-0.3-0.2-0.6-0.3c0,0,0.6,1.3-1.2,0.8c0,0,0.2,0.7-0.7,0.7c0,0-0.3-0.2-0.6-0.3
		c0,0,0.4,0.7-0.7,0.6c0,0-0.2-0.1-0.4-0.2c0,0,0.3,0.6-0.3,0.4s-1.9-1.3-2.6-1.5c0,0,0.2,0.7-0.8-0.3c-1-1-7.2-3.5-10.5-2.4
		c0,0-0.8,0.1-1.1,0.5c0,0-0.7,0.1-0.9,0.6c-0.3,0.5-1.4,1.7-1.6,2.3c-0.2,0.6-1.3,3.7,0.2,4.1c1.5,0.4,2.4,0.6,3.2,0.2
		c0.3-0.1,0.9,0.3,0.4,0.5s-5.7,1.3-8.8,0.6c-0.6-0.3-2.4-1.9-3.4-2.2c-1-0.3-3-1.9-4.9-2.6c-2-0.7-2.4-1.5-5.3-1.2
		c-2.9,0.3-0.1,6.4,0.6,7.6c0.7,1.2,0.2,2.3-1.2,4.1c-1.4,1.7-2.4,4.7-1.1,4.9s5.5,0.7,6.9-0.3c1.4-1,4.6-1.6,5.9-1.9
		c1.3-0.4,3.5-1.2,5.1-0.9c1.6,0.4,4,0.5,4.5,1.1c0,0-3.5-0.4-3.9,0.8c-0.4,1.2,0.9,6,4.7,6.5s4.1-0.2,4.5-0.2c0,0,0.1,0.3-0.1,0.4
		c0,0,1.8-0.8,2.5-1.3c0.7-0.6,1.6-0.3,0.8,0.1c0,0,1.5-0.9,1.9-1c0,0,0.4,0.3,1.2-0.5c0,0,2.9,0.7,4.1,1.1s3.3,0,4.7-0.1
		c1.4,0,6.6,0,5.5,0.6c-1.1,0.6-3.3,0.8-3.1,2.2c0,0-0.6,0.3-0.3,1c0,0-0.5,0.4-0.1,1c0,0-0.5,0.4-0.2,0.8c0.3,0.4,1.4,0.2,1.9,0
		c0.5-0.2,1.7-0.8,2.2-1s0.4,0.3,1,0.5c0.6,0.2,0.9-0.6,1.5-1.1s2-2.7,2.3-3.1c0,0,3.4,0,5-0.5s4.4-0.7,4.7-1.2c0,0,2.5-0.6,3.2-1
		c0.7-0.4,3.6-1,5.8-3.2c1.5-1.1,2-1.2,2.2-2.9c0-0.9-0.5-0.7-0.8-0.5s-1.6,0.7-1.9,0.8C234.7,86.2,234.4,86,234.4,86z"/>
	<g>
		<path fill="#393933" d="M67.6,113c5.9-9,12.7-17.3,20.4-25c14.5-14.5,31.5-26,50.4-33.9c19.5-8.3,40.3-12.4,61.7-12.4
			s42.1,4.2,61.7,12.4c18.9,8,35.8,19.4,50.4,33.9c7.7,7.7,14.5,16.1,20.4,25h7.8c-29.1-46.8-81-78-140.2-78S88.9,66.2,59.8,113
			H67.6z"/>
		<path fill="#393933" d="M332.4,287c-5.9,9-12.7,17.3-20.4,25c-14.5,14.5-31.5,26-50.4,33.9c-19.5,8.3-40.3,12.4-61.7,12.4
			s-42.1-4.2-61.7-12.4c-18.9-8-35.8-19.4-50.4-33.9c-7.7-7.7-14.5-16.1-20.4-25h-7.8c29.1,46.8,81,78,140.2,78s111.1-31.2,140.2-78
			H332.4z"/>
	</g>
	<text transform="matrix(1 0 0 1 166.6901 326)" fill="#6F6F63" font-family="'AktivGrotesk-Bold'" font-size="28.134">1829</text>
	<g>
		<path fill="#393933" d="M101,180.5c-1.1-1.8-2.5-3.3-4.1-4.6c-1.6-1.3-3.5-2.4-5.6-3.1c-2.1-0.7-4.3-1.1-6.5-1.1
			c-4.2,0-7.7,0.8-10.6,2.4c-2.9,1.6-5.3,3.8-7.1,6.5c-1.8,2.7-3.1,5.8-3.9,9.2c-0.8,3.4-1.2,7-1.2,10.7c0,3.5,0.4,7,1.2,10.3
			c0.8,3.3,2.1,6.3,3.9,9c1.8,2.7,4.2,4.8,7.1,6.4c2.9,1.6,6.4,2.4,10.6,2.4c5.6,0,10-1.7,13.2-5.2c3.2-3.4,5.1-8,5.8-13.6h17.9
			c-0.5,5.3-1.7,10-3.6,14.2c-2,4.2-4.5,7.8-7.8,10.8c-3.2,3-7,5.3-11.3,6.8c-4.3,1.6-9.1,2.4-14.2,2.4c-6.4,0-12.2-1.1-17.3-3.4
			c-5.1-2.2-9.5-5.3-13-9.2c-3.5-3.9-6.2-8.5-8.1-13.8c-1.9-5.3-2.8-11-2.8-17.1c0-6.3,0.9-12.1,2.8-17.5c1.9-5.4,4.6-10.1,8.1-14
			c3.5-4,7.9-7.1,13-9.4c5.1-2.3,10.9-3.4,17.3-3.4c4.6,0,9,0.7,13.1,2c4.1,1.3,7.8,3.3,11,5.8c3.3,2.5,5.9,5.7,8.1,9.5
			c2.1,3.8,3.4,8.1,4,12.9h-17.9C102.8,184.2,102.1,182.2,101,180.5z"/>
		<path fill="#393933" d="M176.1,158.1l31.4,83.9h-19.2l-6.3-18.7h-31.4L144,242h-18.6l31.7-83.9H176.1z M177.2,209.6l-10.6-30.8
			h-0.2l-10.9,30.8H177.2z"/>
		<path fill="#393933" d="M228.9,221.3c1,2,2.4,3.5,4.1,4.8c1.7,1.2,3.7,2.1,5.9,2.7c2.3,0.6,4.6,0.9,7.1,0.9c1.6,0,3.4-0.1,5.3-0.4
			c1.9-0.3,3.6-0.8,5.3-1.6c1.6-0.8,3-1.9,4.1-3.2c1.1-1.4,1.6-3.1,1.6-5.2c0-2.3-0.7-4.1-2.2-5.5c-1.5-1.4-3.4-2.6-5.7-3.5
			c-2.4-0.9-5-1.8-8-2.5c-3-0.7-6-1.5-9.1-2.4c-3.1-0.8-6.2-1.7-9.2-2.9c-3-1.1-5.6-2.6-8-4.4c-2.4-1.8-4.3-4.1-5.7-6.8
			c-1.5-2.7-2.2-6-2.2-9.8c0-4.3,0.9-8.1,2.8-11.2c1.8-3.2,4.2-5.8,7.2-7.9c3-2.1,6.3-3.7,10.1-4.7c3.8-1,7.5-1.5,11.3-1.5
			c4.4,0,8.6,0.5,12.6,1.5c4,1,7.6,2.6,10.8,4.8c3.1,2.2,5.6,5,7.5,8.4c1.8,3.4,2.8,7.5,2.8,12.4h-17.9c-0.2-2.5-0.7-4.6-1.6-6.2
			c-0.9-1.6-2.1-2.9-3.6-3.9c-1.5-0.9-3.2-1.6-5.1-2c-1.9-0.4-4-0.6-6.3-0.6c-1.5,0-3,0.2-4.5,0.5c-1.5,0.3-2.8,0.9-4.1,1.6
			c-1.2,0.8-2.2,1.8-3,2.9c-0.8,1.2-1.2,2.7-1.2,4.5c0,1.6,0.3,3,0.9,4c0.6,1,1.9,2,3.7,2.8c1.8,0.9,4.4,1.7,7.6,2.6
			c3.3,0.9,7.5,2,12.8,3.3c1.6,0.3,3.7,0.9,6.5,1.7c2.8,0.8,5.5,2.1,8.3,3.9c2.7,1.8,5.1,4.2,7.1,7.2c2,3,3,6.9,3,11.6
			c0,3.8-0.7,7.4-2.2,10.7c-1.5,3.3-3.7,6.1-6.6,8.5c-2.9,2.4-6.6,4.3-10.9,5.6c-4.3,1.3-9.4,2-15.1,2c-4.6,0-9.1-0.6-13.5-1.7
			c-4.3-1.1-8.2-2.9-11.5-5.3c-3.3-2.4-6-5.5-7.9-9.3c-2-3.8-2.9-8.2-2.8-13.4h17.9C227.4,217,227.9,219.4,228.9,221.3z"/>
		<path fill="#393933" d="M305.2,221.3c1,2,2.4,3.5,4.1,4.8c1.7,1.2,3.7,2.1,5.9,2.7c2.3,0.6,4.6,0.9,7.1,0.9c1.6,0,3.4-0.1,5.3-0.4
			c1.9-0.3,3.6-0.8,5.3-1.6c1.6-0.8,3-1.9,4.1-3.2c1.1-1.4,1.6-3.1,1.6-5.2c0-2.3-0.7-4.1-2.2-5.5c-1.5-1.4-3.4-2.6-5.7-3.5
			s-5-1.8-8-2.5c-3-0.7-6-1.5-9.1-2.4c-3.1-0.8-6.2-1.7-9.2-2.9c-3-1.1-5.6-2.6-8-4.4c-2.4-1.8-4.3-4.1-5.7-6.8
			c-1.5-2.7-2.2-6-2.2-9.8c0-4.3,0.9-8.1,2.8-11.2c1.8-3.2,4.2-5.8,7.2-7.9c3-2.1,6.3-3.7,10.1-4.7c3.8-1,7.5-1.5,11.3-1.5
			c4.4,0,8.6,0.5,12.6,1.5c4,1,7.6,2.6,10.8,4.8c3.1,2.2,5.6,5,7.5,8.4c1.8,3.4,2.8,7.5,2.8,12.4h-17.9c-0.2-2.5-0.7-4.6-1.6-6.2
			c-0.9-1.6-2.1-2.9-3.6-3.9c-1.5-0.9-3.2-1.6-5.1-2c-1.9-0.4-4-0.6-6.3-0.6c-1.5,0-3,0.2-4.5,0.5c-1.5,0.3-2.8,0.9-4.1,1.6
			c-1.2,0.8-2.2,1.8-3,2.9c-0.8,1.2-1.2,2.7-1.2,4.5c0,1.6,0.3,3,0.9,4c0.6,1,1.9,2,3.7,2.8c1.8,0.9,4.4,1.7,7.6,2.6
			c3.3,0.9,7.5,2,12.8,3.3c1.6,0.3,3.7,0.9,6.5,1.7c2.8,0.8,5.5,2.1,8.3,3.9c2.7,1.8,5.1,4.2,7.1,7.2c2,3,3,6.9,3,11.6
			c0,3.8-0.7,7.4-2.2,10.7c-1.5,3.3-3.7,6.1-6.6,8.5c-2.9,2.4-6.6,4.3-10.9,5.6c-4.3,1.3-9.4,2-15.1,2c-4.6,0-9.1-0.6-13.5-1.7
			c-4.3-1.1-8.2-2.9-11.5-5.3c-3.3-2.4-6-5.5-7.9-9.3c-2-3.8-2.9-8.2-2.8-13.4h17.9C303.7,217,304.2,219.4,305.2,221.3z"/>
	</g>
	<path fill="none" stroke="#6F6F63" stroke-width="8" stroke-miterlimit="10" d="M200,21c24.2,0,47.6,4.7,69.7,14.1
		c21.3,9,40.5,21.9,56.9,38.4c16.4,16.4,29.3,35.6,38.4,56.9c9.3,22.1,14.1,45.5,14.1,69.7s-4.7,47.6-14.1,69.7
		c-9,21.3-21.9,40.5-38.4,56.9c-16.4,16.4-35.6,29.3-56.9,38.4c-22.1,9.3-45.5,14.1-69.7,14.1s-47.6-4.7-69.7-14.1
		c-21.3-9-40.5-21.9-56.9-38.4C57,310.1,44.1,291,35.1,269.7C25.7,247.6,21,224.2,21,200s4.7-47.6,14.1-69.7
		c9-21.3,21.9-40.5,38.4-56.9C89.9,57,109,44.1,130.3,35.1C152.4,25.7,175.8,21,200,21"/>
</g>
<g id="Layer_2" display="none">
	<path display="inline" fill="none" stroke="#6F6F63" stroke-miterlimit="10" d="M1798.8,533c0,0,7.8-5,11.8-6.5s9-6.2,6.5-7.5
		s-6-4.8-7.8-4.2c0,0-2.2-3.8-6.5-4.5s-27.5-13.5-38.5-16.2s-48-23.5-70.5-32s-49-13.2-49-13.2s-6.5-11-12.2-17.8c0,0-0.5,3-3.5,3
		c0,0-4.8-9.8-11.8-17c0,0,1.5,7.5-2,8.2c0,0-4.2-7-9.5-11c0,0,3.2,10.5-6,8.5c0,0-3-3.2-5.8-4.2c0,0,2,11.2-8,8.2c0,0-3-2.5-5-3.5
		c0,0,5.2,11.5-6,8.8c0,0-2-1.2-4.2-2.2c0,0,4.8,10.2-9.5,6.2c0,0,1.8,5-5.2,5c0,0-2.2-1.5-4.2-2.2c0,0,3.2,5.2-5,4.2
		c0,0-1.5-0.8-3-1.2c0,0,2.5,4.2-2.5,2.8s-14.2-10-19.8-11.5c0,0,1.5,5.5-6-2s-55-27-80.5-18.8c0,0-6.2,1-8.5,4c0,0-5.2,0.5-7.2,4.2
		s-10.8,13-12.5,17.5s-10.2,28.5,1.5,31.8s18.2,4.5,24.8,1.9c2.1-0.6,6.8,2.6,2.8,3.6s-43.5,9.8-67.2,4.2
		c-4.8-2-18.8-14.8-26.5-16.8s-22.8-14.8-37.8-20s-18.2-11.5-40.5-9.2s-1,49.2,4.8,58.5s1.5,18-9,31.2s-18.8,36-8.5,38
		s42.2,5.5,53-2s35.2-12,45-14.8s26.8-9.5,39.2-6.8s30.8,4,34.8,8.2c0,0-27-2.8-30.2,6.5s6.8,46,36,49.8s31.5-1.8,34.2-1.8
		c0,0,0.8,2.1-1,3.1c0,0,14-6.1,19.5-10.3s12.2-2.2,6.2,0.8c0,0,11.8-6.8,14.8-7.5c0,0,2.8,2.5,9.5-3.5c0,0,22.5,5,31.2,8.5
		s25-0.2,36-0.5s50.8,0,42.5,4.2s-25,6.2-23.8,17c0,0-4.5,2.5-2.2,7.8c0,0-3.8,3.2-1,8c0,0-4,3-1.5,6s10.8,1.8,14.5,0
		s13.2-6.2,16.8-7.8s3.2,2.2,7.8,3.5s7-4.5,11.8-8.5s15.8-20.8,18-24c0,0,26.5,0,38.2-3.5s33.8-5,36.5-9.2c0,0,19-4.5,24.8-7.5
		s28-7.5,44.5-24.2c11.5-8.2,15.5-9.2,17-22c-0.4-6.9-3.8-5.2-6-3.8s-12.5,5-14.2,6.2S1798.8,533,1798.8,533z"/>
</g>
</svg>
