<?xml version="1.0" encoding="utf-8"?>
<!-- Generator: Adobe Illustrator 17.1.0, SVG Export Plug-In . SVG Version: 6.00 Build 0)  -->
<!DOCTYPE svg PUBLIC "-//W3C//DTD SVG 1.1//EN" "http://www.w3.org/Graphics/SVG/1.1/DTD/svg11.dtd">
<svg version="1.1" xmlns="http://www.w3.org/2000/svg" xmlns:xlink="http://www.w3.org/1999/xlink" x="0px" y="0px"
	 viewBox="0 0 400 400" enable-background="new 0 0 400 400" xml:space="preserve">
<g id="Layer_1">
	<path fill="#6F6F63" d="M200,8c25.9,0,51.1,5.1,74.7,15.1c22.9,9.7,43.4,23.5,61,41.2c17.6,17.6,31.5,38.2,41.2,61
		c10,23.7,15.1,48.8,15.1,74.7s-5.1,51.1-15.1,74.7c-9.7,22.9-23.5,43.4-41.2,61c-17.6,17.6-38.2,31.5-61,41.2
		c-23.7,10-48.8,15.1-74.7,15.1s-51.1-5.1-74.7-15.1c-22.9-9.7-43.4-23.5-61-41.2c-17.6-17.6-31.5-38.2-41.2-61
		C13.1,251.1,8,225.9,8,200s5.1-51.1,15.1-74.7c9.7-22.9,23.5-43.4,41.2-61c17.6-17.6,38.2-31.5,61-41.2C148.9,13.1,174.1,8,200,8
		 M200,0C89.5,0,0,89.5,0,200s89.5,200,200,200s200-89.5,200-200S310.5,0,200,0L200,0z"/>
	<path fill="#393933" d="M22.1,149c-4.7,16.5-7.1,33.6-7.1,51c0,25,4.9,49.2,14.5,72c9.3,22,22.7,41.8,39.7,58.8
		c17,17,36.8,30.3,58.8,39.7c22.8,9.6,47,14.5,72,14.5s49.2-4.9,72-14.5c22-9.3,41.8-22.7,58.8-39.7c17-17,30.3-36.8,39.7-58.8
		c9.6-22.8,14.5-47,14.5-72c0-17.4-2.4-34.5-7.1-51H22.1z"/>
	<path fill="#393933" d="M200,29l-30,82c0,0,17,1,30,13V29z"/>
	<path fill="#393933" d="M203.5,69.4v45c0,0,7-6,15-6L203.5,69.4z"/>
	<path fill="#393933" d="M200,129c0,0-14,5-30,5c0,0-3,17,15,21s15,0,15,0V129z"/>
	<path fill="#393933" d="M200,129c0,0,14,5,30,5c0,0,3,17-15,21s-15,0-15,0V129z"/>
	<polygon fill="#393933" points="196.9,28 183.4,32.5 183.4,38.7 192.5,38.7 	"/>
	<polygon fill="#393933" points="186.9,40.2 176.3,40.2 186.9,44.5 	"/>
	<g>
		<defs>
			<circle id="SVGID_1_" cx="199.8" cy="200" r="185"/>
		</defs>
		<clipPath id="SVGID_2_">
			<use xlink:href="#SVGID_1_"  overflow="visible"/>
		</clipPath>
		<g clip-path="url(#SVGID_2_)">
			
				<rect x="136.3" y="41.9" transform="matrix(-0.9098 0.415 -0.415 -0.9098 287.9289 53.3903)" fill="#6F6F63" width="3.7" height="32.2"/>
			<g>
				
					<rect x="-28.9" y="99.1" transform="matrix(0.9098 -0.415 0.415 0.9098 -37.8155 35.0752)" fill="#6F6F63" width="181.3" height="10.9"/>
				
					<rect x="-33.2" y="93.3" transform="matrix(0.9098 -0.415 0.415 0.9098 -34.2506 32.41)" fill="#6F6F63" width="181.3" height="3.3"/>
				
					<rect x="-35.3" y="88.9" transform="matrix(0.9098 -0.415 0.415 0.9098 -32.5795 31.1606)" fill="#6F6F63" width="181.3" height="3.3"/>
				
					<rect x="-37.3" y="84.5" transform="matrix(0.9098 -0.415 0.415 0.9098 -30.9512 29.9432)" fill="#6F6F63" width="181.3" height="3.3"/>
				
					<rect x="-39.3" y="80" transform="matrix(0.9098 -0.415 0.415 0.9098 -29.2801 28.6938)" fill="#6F6F63" width="181.3" height="3.3"/>
				
					<rect x="83.9" y="65.8" transform="matrix(-0.9098 0.415 -0.415 -0.9098 197.8232 120.7568)" fill="#6F6F63" width="3.7" height="32.2"/>
				
					<rect x="27.9" y="91.3" transform="matrix(-0.9098 0.415 -0.415 -0.9098 101.4081 192.8405)" fill="#6F6F63" width="3.7" height="32.2"/>
				<path fill="#6F6F63" d="M-18.4,147.1l8.7,19c0,0,40.4-41.4,112.3-74.2L-18.4,147.1z"/>
			</g>
		</g>
		<g clip-path="url(#SVGID_2_)">
			
				<rect x="260.2" y="41.9" transform="matrix(0.9098 0.415 -0.415 0.9098 47.6993 -103.5211)" fill="#6F6F63" width="3.7" height="32.2"/>
			<g>
				
					<rect x="247.7" y="99.1" transform="matrix(-0.9098 -0.415 0.415 -0.9098 602.8781 340.1003)" fill="#6F6F63" width="181.3" height="10.9"/>
				
					<rect x="252.1" y="93.3" transform="matrix(-0.9098 -0.415 0.415 -0.9098 615.1422 323.6966)" fill="#6F6F63" width="181.3" height="3.3"/>
				
					<rect x="254.1" y="88.9" transform="matrix(-0.9098 -0.415 0.415 -0.9098 620.8912 316.007)" fill="#6F6F63" width="181.3" height="3.3"/>
				
					<rect x="256.1" y="84.5" transform="matrix(-0.9098 -0.415 0.415 -0.9098 626.4927 308.5146)" fill="#6F6F63" width="181.3" height="3.3"/>
				
					<rect x="258.1" y="80" transform="matrix(-0.9098 -0.415 0.415 -0.9098 632.2418 300.8251)" fill="#6F6F63" width="181.3" height="3.3"/>
				
					<rect x="312.5" y="65.8" transform="matrix(0.9098 0.415 -0.415 0.9098 62.3397 -123.1032)" fill="#6F6F63" width="3.7" height="32.2"/>
				
					<rect x="368.6" y="91.3" transform="matrix(0.9098 0.415 -0.415 0.9098 78.0052 -144.0565)" fill="#6F6F63" width="3.7" height="32.2"/>
				<path fill="#6F6F63" d="M418.6,147.1l-8.7,19c0,0-40.4-41.4-112.3-74.2L418.6,147.1z"/>
			</g>
		</g>
	</g>
	<text transform="matrix(1 0 0 1 59.9004 252.543)" fill="#D1D0C9" font-family="'Baskerville'" font-size="62.9912">Charlevoix</text>
	<text transform="matrix(1 0 0 1 152.0132 292.0117)" fill="#D1D0C9" font-family="'Baskerville-Italic'" font-size="39.5321">County</text>
</g>
<g id="Layer_2" display="none">
	<path display="inline" fill="none" stroke="#6F6F63" stroke-miterlimit="10" d="M1798.8,533c0,0,7.8-5,11.8-6.5s9-6.2,6.5-7.5
		s-6-4.8-7.8-4.2c0,0-2.2-3.8-6.5-4.5s-27.5-13.5-38.5-16.2s-48-23.5-70.5-32s-49-13.2-49-13.2s-6.5-11-12.2-17.8c0,0-0.5,3-3.5,3
		c0,0-4.8-9.8-11.8-17c0,0,1.5,7.5-2,8.2c0,0-4.2-7-9.5-11c0,0,3.2,10.5-6,8.5c0,0-3-3.2-5.8-4.2c0,0,2,11.2-8,8.2c0,0-3-2.5-5-3.5
		c0,0,5.2,11.5-6,8.8c0,0-2-1.2-4.2-2.2c0,0,4.8,10.2-9.5,6.2c0,0,1.8,5-5.2,5c0,0-2.2-1.5-4.2-2.2c0,0,3.2,5.2-5,4.2
		c0,0-1.5-0.8-3-1.2c0,0,2.5,4.2-2.5,2.8s-14.2-10-19.8-11.5c0,0,1.5,5.5-6-2s-55-27-80.5-18.8c0,0-6.2,1-8.5,4c0,0-5.2,0.5-7.2,4.2
		s-10.8,13-12.5,17.5s-10.2,28.5,1.5,31.8s18.2,4.5,24.8,1.9c2.1-0.6,6.8,2.6,2.8,3.6s-43.5,9.8-67.2,4.2
		c-4.8-2-18.8-14.8-26.5-16.8s-22.8-14.8-37.8-20s-18.2-11.5-40.5-9.2s-1,49.2,4.8,58.5s1.5,18-9,31.2s-18.8,36-8.5,38
		s42.2,5.5,53-2s35.2-12,45-14.8s26.8-9.5,39.2-6.8s30.8,4,34.8,8.2c0,0-27-2.8-30.2,6.5s6.8,46,36,49.8s31.5-1.8,34.2-1.8
		c0,0,0.8,2.1-1,3.1c0,0,14-6.1,19.5-10.3s12.2-2.2,6.2,0.8c0,0,11.8-6.8,14.8-7.5c0,0,2.8,2.5,9.5-3.5c0,0,22.5,5,31.2,8.5
		s25-0.2,36-0.5s50.8,0,42.5,4.2s-25,6.2-23.8,17c0,0-4.5,2.5-2.2,7.8c0,0-3.8,3.2-1,8c0,0-4,3-1.5,6s10.8,1.8,14.5,0
		s13.2-6.2,16.8-7.8s3.2,2.2,7.8,3.5s7-4.5,11.8-8.5s15.8-20.8,18-24c0,0,26.5,0,38.2-3.5s33.8-5,36.5-9.2c0,0,19-4.5,24.8-7.5
		s28-7.5,44.5-24.2c11.5-8.2,15.5-9.2,17-22c-0.4-6.9-3.8-5.2-6-3.8s-12.5,5-14.2,6.2S1798.8,533,1798.8,533z"/>
</g>
</svg>
