<?xml version="1.0" encoding="utf-8"?>
<!-- Generator: Adobe Illustrator 17.1.0, SVG Export Plug-In . SVG Version: 6.00 Build 0)  -->
<!DOCTYPE svg PUBLIC "-//W3C//DTD SVG 1.1//EN" "http://www.w3.org/Graphics/SVG/1.1/DTD/svg11.dtd">
<svg version="1.1" xmlns="http://www.w3.org/2000/svg" xmlns:xlink="http://www.w3.org/1999/xlink" x="0px" y="0px"
	 viewBox="0 0 400 400" enable-background="new 0 0 400 400" xml:space="preserve">
<g id="Layer_1">
	<g>
		<defs>
			<circle id="SVGID_1_" cx="200" cy="200" r="138.4"/>
		</defs>
		<clipPath id="SVGID_2_">
			<use xlink:href="#SVGID_1_"  overflow="visible"/>
		</clipPath>
		<g clip-path="url(#SVGID_2_)">
			<g>
				<g>
					<line fill="none" stroke="#D1D0C9" stroke-linecap="round" stroke-miterlimit="10" x1="33" y1="70" x2="36" y2="70"/>
					
						<line fill="none" stroke="#D1D0C9" stroke-linecap="round" stroke-miterlimit="10" stroke-dasharray="5.8909,5.8909" x1="41.9" y1="70" x2="357.1" y2="70"/>
					<line fill="none" stroke="#D1D0C9" stroke-linecap="round" stroke-miterlimit="10" x1="360" y1="70" x2="363" y2="70"/>
				</g>
			</g>
			<g>
				<g>
					<line fill="none" stroke="#D1D0C9" stroke-linecap="round" stroke-miterlimit="10" x1="33" y1="80" x2="36" y2="80"/>
					
						<line fill="none" stroke="#D1D0C9" stroke-linecap="round" stroke-miterlimit="10" stroke-dasharray="5.8909,5.8909" x1="41.9" y1="80" x2="357.1" y2="80"/>
					<line fill="none" stroke="#D1D0C9" stroke-linecap="round" stroke-miterlimit="10" x1="360" y1="80" x2="363" y2="80"/>
				</g>
			</g>
			<g>
				<g>
					<line fill="none" stroke="#D1D0C9" stroke-linecap="round" stroke-miterlimit="10" x1="33" y1="90" x2="36" y2="90"/>
					
						<line fill="none" stroke="#D1D0C9" stroke-linecap="round" stroke-miterlimit="10" stroke-dasharray="5.8909,5.8909" x1="41.9" y1="90" x2="357.1" y2="90"/>
					<line fill="none" stroke="#D1D0C9" stroke-linecap="round" stroke-miterlimit="10" x1="360" y1="90" x2="363" y2="90"/>
				</g>
			</g>
			<g>
				<g>
					<line fill="none" stroke="#D1D0C9" stroke-linecap="round" stroke-miterlimit="10" x1="33" y1="100" x2="36" y2="100"/>
					
						<line fill="none" stroke="#D1D0C9" stroke-linecap="round" stroke-miterlimit="10" stroke-dasharray="5.8909,5.8909" x1="41.9" y1="100" x2="357.1" y2="100"/>
					<line fill="none" stroke="#D1D0C9" stroke-linecap="round" stroke-miterlimit="10" x1="360" y1="100" x2="363" y2="100"/>
				</g>
			</g>
			<g>
				<g>
					<line fill="none" stroke="#D1D0C9" stroke-linecap="round" stroke-miterlimit="10" x1="33" y1="110" x2="36" y2="110"/>
					
						<line fill="none" stroke="#D1D0C9" stroke-linecap="round" stroke-miterlimit="10" stroke-dasharray="5.8909,5.8909" x1="41.9" y1="110" x2="357.1" y2="110"/>
					<line fill="none" stroke="#D1D0C9" stroke-linecap="round" stroke-miterlimit="10" x1="360" y1="110" x2="363" y2="110"/>
				</g>
			</g>
			<g>
				<g>
					<line fill="none" stroke="#D1D0C9" stroke-linecap="round" stroke-miterlimit="10" x1="33" y1="120" x2="36" y2="120"/>
					
						<line fill="none" stroke="#D1D0C9" stroke-linecap="round" stroke-miterlimit="10" stroke-dasharray="5.8909,5.8909" x1="41.9" y1="120" x2="357.1" y2="120"/>
					<line fill="none" stroke="#D1D0C9" stroke-linecap="round" stroke-miterlimit="10" x1="360" y1="120" x2="363" y2="120"/>
				</g>
			</g>
			<g>
				<g>
					<line fill="none" stroke="#D1D0C9" stroke-linecap="round" stroke-miterlimit="10" x1="33" y1="130" x2="36" y2="130"/>
					
						<line fill="none" stroke="#D1D0C9" stroke-linecap="round" stroke-miterlimit="10" stroke-dasharray="5.8909,5.8909" x1="41.9" y1="130" x2="357.1" y2="130"/>
					<line fill="none" stroke="#D1D0C9" stroke-linecap="round" stroke-miterlimit="10" x1="360" y1="130" x2="363" y2="130"/>
				</g>
			</g>
			<g>
				<g>
					<line fill="none" stroke="#D1D0C9" stroke-linecap="round" stroke-miterlimit="10" x1="33" y1="140" x2="36" y2="140"/>
					
						<line fill="none" stroke="#D1D0C9" stroke-linecap="round" stroke-miterlimit="10" stroke-dasharray="5.8909,5.8909" x1="41.9" y1="140" x2="357.1" y2="140"/>
					<line fill="none" stroke="#D1D0C9" stroke-linecap="round" stroke-miterlimit="10" x1="360" y1="140" x2="363" y2="140"/>
				</g>
			</g>
			<g>
				<g>
					<line fill="none" stroke="#D1D0C9" stroke-linecap="round" stroke-miterlimit="10" x1="33" y1="150" x2="36" y2="150"/>
					
						<line fill="none" stroke="#D1D0C9" stroke-linecap="round" stroke-miterlimit="10" stroke-dasharray="5.8909,5.8909" x1="41.9" y1="150" x2="357.1" y2="150"/>
					<line fill="none" stroke="#D1D0C9" stroke-linecap="round" stroke-miterlimit="10" x1="360" y1="150" x2="363" y2="150"/>
				</g>
			</g>
			<g>
				<g>
					<line fill="none" stroke="#D1D0C9" stroke-linecap="round" stroke-miterlimit="10" x1="33" y1="160" x2="36" y2="160"/>
					
						<line fill="none" stroke="#D1D0C9" stroke-linecap="round" stroke-miterlimit="10" stroke-dasharray="5.8909,5.8909" x1="41.9" y1="160" x2="357.1" y2="160"/>
					<line fill="none" stroke="#D1D0C9" stroke-linecap="round" stroke-miterlimit="10" x1="360" y1="160" x2="363" y2="160"/>
				</g>
			</g>
			<g>
				<g>
					<line fill="none" stroke="#D1D0C9" stroke-linecap="round" stroke-miterlimit="10" x1="33" y1="170" x2="36" y2="170"/>
					
						<line fill="none" stroke="#D1D0C9" stroke-linecap="round" stroke-miterlimit="10" stroke-dasharray="5.8909,5.8909" x1="41.9" y1="170" x2="357.1" y2="170"/>
					<line fill="none" stroke="#D1D0C9" stroke-linecap="round" stroke-miterlimit="10" x1="360" y1="170" x2="363" y2="170"/>
				</g>
			</g>
			<g>
				<g>
					<line fill="none" stroke="#D1D0C9" stroke-linecap="round" stroke-miterlimit="10" x1="33" y1="180" x2="36" y2="180"/>
					
						<line fill="none" stroke="#D1D0C9" stroke-linecap="round" stroke-miterlimit="10" stroke-dasharray="5.8909,5.8909" x1="41.9" y1="180" x2="357.1" y2="180"/>
					<line fill="none" stroke="#D1D0C9" stroke-linecap="round" stroke-miterlimit="10" x1="360" y1="180" x2="363" y2="180"/>
				</g>
			</g>
			<g>
				<g>
					<line fill="none" stroke="#D1D0C9" stroke-linecap="round" stroke-miterlimit="10" x1="33" y1="190" x2="36" y2="190"/>
					
						<line fill="none" stroke="#D1D0C9" stroke-linecap="round" stroke-miterlimit="10" stroke-dasharray="5.8909,5.8909" x1="41.9" y1="190" x2="357.1" y2="190"/>
					<line fill="none" stroke="#D1D0C9" stroke-linecap="round" stroke-miterlimit="10" x1="360" y1="190" x2="363" y2="190"/>
				</g>
			</g>
			<g>
				<g>
					<line fill="none" stroke="#D1D0C9" stroke-linecap="round" stroke-miterlimit="10" x1="33" y1="200" x2="36" y2="200"/>
					
						<line fill="none" stroke="#D1D0C9" stroke-linecap="round" stroke-miterlimit="10" stroke-dasharray="5.8909,5.8909" x1="41.9" y1="200" x2="357.1" y2="200"/>
					<line fill="none" stroke="#D1D0C9" stroke-linecap="round" stroke-miterlimit="10" x1="360" y1="200" x2="363" y2="200"/>
				</g>
			</g>
			<g>
				<g>
					<line fill="none" stroke="#D1D0C9" stroke-linecap="round" stroke-miterlimit="10" x1="33" y1="210" x2="36" y2="210"/>
					
						<line fill="none" stroke="#D1D0C9" stroke-linecap="round" stroke-miterlimit="10" stroke-dasharray="5.8909,5.8909" x1="41.9" y1="210" x2="357.1" y2="210"/>
					<line fill="none" stroke="#D1D0C9" stroke-linecap="round" stroke-miterlimit="10" x1="360" y1="210" x2="363" y2="210"/>
				</g>
			</g>
			<g>
				<g>
					<line fill="none" stroke="#D1D0C9" stroke-linecap="round" stroke-miterlimit="10" x1="33" y1="220" x2="36" y2="220"/>
					
						<line fill="none" stroke="#D1D0C9" stroke-linecap="round" stroke-miterlimit="10" stroke-dasharray="5.8909,5.8909" x1="41.9" y1="220" x2="357.1" y2="220"/>
					<line fill="none" stroke="#D1D0C9" stroke-linecap="round" stroke-miterlimit="10" x1="360" y1="220" x2="363" y2="220"/>
				</g>
			</g>
			<g>
				<g>
					<line fill="none" stroke="#D1D0C9" stroke-linecap="round" stroke-miterlimit="10" x1="33" y1="230" x2="36" y2="230"/>
					
						<line fill="none" stroke="#D1D0C9" stroke-linecap="round" stroke-miterlimit="10" stroke-dasharray="5.8909,5.8909" x1="41.9" y1="230" x2="357.1" y2="230"/>
					<line fill="none" stroke="#D1D0C9" stroke-linecap="round" stroke-miterlimit="10" x1="360" y1="230" x2="363" y2="230"/>
				</g>
			</g>
			<g>
				<g>
					<line fill="none" stroke="#D1D0C9" stroke-linecap="round" stroke-miterlimit="10" x1="33" y1="240" x2="36" y2="240"/>
					
						<line fill="none" stroke="#D1D0C9" stroke-linecap="round" stroke-miterlimit="10" stroke-dasharray="5.8909,5.8909" x1="41.9" y1="240" x2="357.1" y2="240"/>
					<line fill="none" stroke="#D1D0C9" stroke-linecap="round" stroke-miterlimit="10" x1="360" y1="240" x2="363" y2="240"/>
				</g>
			</g>
			<g>
				<g>
					<line fill="none" stroke="#D1D0C9" stroke-linecap="round" stroke-miterlimit="10" x1="33" y1="250" x2="36" y2="250"/>
					
						<line fill="none" stroke="#D1D0C9" stroke-linecap="round" stroke-miterlimit="10" stroke-dasharray="5.8909,5.8909" x1="41.9" y1="250" x2="357.1" y2="250"/>
					<line fill="none" stroke="#D1D0C9" stroke-linecap="round" stroke-miterlimit="10" x1="360" y1="250" x2="363" y2="250"/>
				</g>
			</g>
			<g>
				<g>
					<line fill="none" stroke="#D1D0C9" stroke-linecap="round" stroke-miterlimit="10" x1="33" y1="260" x2="36" y2="260"/>
					
						<line fill="none" stroke="#D1D0C9" stroke-linecap="round" stroke-miterlimit="10" stroke-dasharray="5.8909,5.8909" x1="41.9" y1="260" x2="357.1" y2="260"/>
					<line fill="none" stroke="#D1D0C9" stroke-linecap="round" stroke-miterlimit="10" x1="360" y1="260" x2="363" y2="260"/>
				</g>
			</g>
			<g>
				<g>
					<line fill="none" stroke="#D1D0C9" stroke-linecap="round" stroke-miterlimit="10" x1="33" y1="270" x2="36" y2="270"/>
					
						<line fill="none" stroke="#D1D0C9" stroke-linecap="round" stroke-miterlimit="10" stroke-dasharray="5.8909,5.8909" x1="41.9" y1="270" x2="357.1" y2="270"/>
					<line fill="none" stroke="#D1D0C9" stroke-linecap="round" stroke-miterlimit="10" x1="360" y1="270" x2="363" y2="270"/>
				</g>
			</g>
			<g>
				<g>
					<line fill="none" stroke="#D1D0C9" stroke-linecap="round" stroke-miterlimit="10" x1="33" y1="280" x2="36" y2="280"/>
					
						<line fill="none" stroke="#D1D0C9" stroke-linecap="round" stroke-miterlimit="10" stroke-dasharray="5.8909,5.8909" x1="41.9" y1="280" x2="357.1" y2="280"/>
					<line fill="none" stroke="#D1D0C9" stroke-linecap="round" stroke-miterlimit="10" x1="360" y1="280" x2="363" y2="280"/>
				</g>
			</g>
			<g>
				<g>
					<line fill="none" stroke="#D1D0C9" stroke-linecap="round" stroke-miterlimit="10" x1="33" y1="290" x2="36" y2="290"/>
					
						<line fill="none" stroke="#D1D0C9" stroke-linecap="round" stroke-miterlimit="10" stroke-dasharray="5.8909,5.8909" x1="41.9" y1="290" x2="357.1" y2="290"/>
					<line fill="none" stroke="#D1D0C9" stroke-linecap="round" stroke-miterlimit="10" x1="360" y1="290" x2="363" y2="290"/>
				</g>
			</g>
			<g>
				<g>
					<line fill="none" stroke="#D1D0C9" stroke-linecap="round" stroke-miterlimit="10" x1="33" y1="300" x2="36" y2="300"/>
					
						<line fill="none" stroke="#D1D0C9" stroke-linecap="round" stroke-miterlimit="10" stroke-dasharray="5.8909,5.8909" x1="41.9" y1="300" x2="357.1" y2="300"/>
					<line fill="none" stroke="#D1D0C9" stroke-linecap="round" stroke-miterlimit="10" x1="360" y1="300" x2="363" y2="300"/>
				</g>
			</g>
			<g>
				<g>
					<line fill="none" stroke="#D1D0C9" stroke-linecap="round" stroke-miterlimit="10" x1="33" y1="310" x2="36" y2="310"/>
					
						<line fill="none" stroke="#D1D0C9" stroke-linecap="round" stroke-miterlimit="10" stroke-dasharray="5.8909,5.8909" x1="41.9" y1="310" x2="357.1" y2="310"/>
					<line fill="none" stroke="#D1D0C9" stroke-linecap="round" stroke-miterlimit="10" x1="360" y1="310" x2="363" y2="310"/>
				</g>
			</g>
			<g>
				<g>
					<line fill="none" stroke="#D1D0C9" stroke-linecap="round" stroke-miterlimit="10" x1="33" y1="320" x2="36" y2="320"/>
					
						<line fill="none" stroke="#D1D0C9" stroke-linecap="round" stroke-miterlimit="10" stroke-dasharray="5.8909,5.8909" x1="41.9" y1="320" x2="357.1" y2="320"/>
					<line fill="none" stroke="#D1D0C9" stroke-linecap="round" stroke-miterlimit="10" x1="360" y1="320" x2="363" y2="320"/>
				</g>
			</g>
			<g>
				<g>
					<line fill="none" stroke="#D1D0C9" stroke-linecap="round" stroke-miterlimit="10" x1="33" y1="330" x2="36" y2="330"/>
					
						<line fill="none" stroke="#D1D0C9" stroke-linecap="round" stroke-miterlimit="10" stroke-dasharray="5.8909,5.8909" x1="41.9" y1="330" x2="357.1" y2="330"/>
					<line fill="none" stroke="#D1D0C9" stroke-linecap="round" stroke-miterlimit="10" x1="360" y1="330" x2="363" y2="330"/>
				</g>
			</g>
		</g>
	</g>
	<path fill="#393933" d="M200,8c25.9,0,51.1,5.1,74.7,15.1c22.9,9.7,43.4,23.5,61,41.2c17.6,17.6,31.5,38.2,41.2,61
		c10,23.7,15.1,48.8,15.1,74.7s-5.1,51.1-15.1,74.7c-9.7,22.9-23.5,43.4-41.2,61c-17.6,17.6-38.2,31.5-61,41.2
		c-23.7,10-48.8,15.1-74.7,15.1s-51.1-5.1-74.7-15.1c-22.9-9.7-43.4-23.5-61-41.2c-17.6-17.6-31.5-38.2-41.2-61
		C13.1,251.1,8,225.9,8,200s5.1-51.1,15.1-74.7c9.7-22.9,23.5-43.4,41.2-61c17.6-17.6,38.2-31.5,61-41.2C148.9,13.1,174.1,8,200,8
		 M200,0C89.5,0,0,89.5,0,200s89.5,200,200,200s200-89.5,200-200S310.5,0,200,0L200,0z"/>
	<g>
		<path fill="#6F6F63" d="M43.5,124.7c0,0,1.2-2.6,3.4-7.2c0.6-1.1,1.3-2.4,2-3.8c0.7-1.4,1.5-2.9,2.4-4.4c0.9-1.5,1.9-3.2,2.9-4.9
			c1.1-1.7,2.3-3.4,3.5-5.3c0.3-0.5,0.6-0.9,0.9-1.4c0.3-0.5,0.7-0.9,1-1.4c0.7-0.9,1.4-1.9,2.1-2.8c1.4-1.9,3-3.8,4.5-5.8
			c1.5-2,3.3-3.9,5.1-5.9c1.7-2,3.7-3.9,5.6-5.9c0.5-0.5,1-1,1.4-1.5c0.6-0.6,1-1,1.5-1.4c1-0.9,2-1.9,3-2.8c0.5-0.5,1-1,1.6-1.4
			l1.6-1.4c1.1-0.9,2.2-1.9,3.3-2.8c2.2-1.8,4.6-3.5,6.9-5.3c2.4-1.6,4.8-3.3,7.2-4.9c4.9-3.1,10-6.1,15.1-8.6
			c1.3-0.6,2.6-1.3,3.8-1.9c1.3-0.6,2.6-1.1,3.9-1.7c1.3-0.6,2.5-1.1,3.9-1.7c1.3-0.5,2.6-1,3.8-1.4c1.3-0.5,2.5-1,3.8-1.4
			c1.3-0.4,2.5-0.8,3.8-1.2c1.3-0.4,2.5-0.8,3.7-1.2c1.2-0.3,2.5-0.7,3.7-1c1.2-0.3,2.4-0.7,3.6-0.9c1.2-0.3,2.4-0.5,3.5-0.7
			c1.1-0.2,2.3-0.5,3.4-0.7c1.1-0.2,2.2-0.4,3.3-0.6c2.2-0.3,4.2-0.7,6.2-0.9c2-0.2,3.8-0.4,5.6-0.6c3.5-0.3,6.6-0.4,9.1-0.6
			c5.1-0.1,8-0.1,8-0.1v0.3c0,0-2.9,0.1-7.9,0.3c-2.5,0.3-5.6,0.4-9.1,0.9c-1.7,0.2-3.6,0.5-5.5,0.8c-2,0.3-4,0.7-6.1,1.1
			c-1.1,0.2-2.1,0.4-3.2,0.7c-1.1,0.3-2.2,0.5-3.3,0.8c-1.1,0.3-2.3,0.6-3.4,0.8c-1.2,0.3-2.3,0.7-3.5,1c-1.2,0.4-2.4,0.7-3.6,1.1
			c-1.2,0.4-2.4,0.8-3.6,1.3c-1.2,0.4-2.4,0.9-3.7,1.3c-1.2,0.4-2.5,1-3.7,1.5c-1.3,0.5-2.5,1-3.8,1.6c-1.2,0.5-2.5,1.2-3.7,1.7
			c-1.2,0.6-2.5,1.2-3.8,1.8c-1.2,0.7-2.5,1.3-3.7,2c-5,2.6-9.9,5.7-14.6,8.9c-2.4,1.6-4.6,3.4-6.9,5c-2.2,1.8-4.4,3.5-6.6,5.4
			c-1,0.9-2.1,1.9-3.1,2.8l-1.5,1.4c-0.5,0.5-1,1-1.5,1.5c-1,1-2,1.9-3,2.9c-0.5,0.5-1,1-1.4,1.4c-0.5,0.5-0.9,1-1.4,1.5
			c-1.8,2-3.6,3.9-5.2,5.9c-1.6,2-3.3,3.9-4.7,5.9c-1.5,2-3,3.8-4.2,5.7c-0.6,0.9-1.3,1.9-1.9,2.8c-0.3,0.5-0.6,0.9-0.9,1.4
			c-0.3,0.5-0.6,0.9-0.9,1.4c-1.1,1.8-2.2,3.6-3.2,5.2c-0.9,1.7-1.8,3.3-2.7,4.8c-0.9,1.5-1.5,3-2.2,4.3c-0.7,1.3-1.3,2.6-1.8,3.7
			c-2,4.6-3.2,7.3-3.2,7.3L43.5,124.7z"/>
	</g>
	
		<ellipse transform="matrix(0.9746 0.2239 -0.2239 0.9746 32.4797 -5.9839)" fill="none" stroke="#6F6F63" stroke-width="5" stroke-miterlimit="10" cx="42.6" cy="140.2" rx="6.7" ry="14"/>
	<path fill="none" stroke="#6F6F63" stroke-width="4.841" stroke-miterlimit="10" d="M219.7,31.6c4.3,0.5,8.4,3.2,12.6,4
		c3.2,0.6,5.5,4,8.6,4.8c2.5,0.6,5.9-1.4,8.3-0.6c2.1,0.6,2.8,4.7,4.9,5.4c1.8,0.6,4.8-2.1,6.5-1.5
		c62.5,24.3,106.9,85.1,106.9,156.2c0,92.5-75,167.5-167.5,167.5S32.5,292.5,32.5,200c0-16,2.3-31.6,6.5-46.3"/>
	<circle fill="none" stroke="#6F6F63" stroke-width="4.841" stroke-miterlimit="10" cx="39" cy="153.7" r="4.3"/>
	<path fill="none" stroke="#6F6F63" stroke-width="4.841" stroke-miterlimit="10" d="M40.4,157.8c0,0-2.4,34.4,5.8,60.1"/>
	<g>
		<text transform="matrix(1 0 0 1 74.9526 198.2526)" fill="#393933" font-family="'Gotham-Medium'" font-size="36.671">CHEBOYGAN</text>
		<text transform="matrix(1 0 0 1 143.6787 227.1418)" fill="#6F6F63" font-family="'Gotham-Medium'" font-size="21">MICHIGAN</text>
	</g>
</g>
<g id="Layer_2" display="none">
	<path display="inline" fill="none" stroke="#6F6F63" stroke-miterlimit="10" d="M1798.8,533c0,0,7.8-5,11.8-6.5s9-6.2,6.5-7.5
		s-6-4.8-7.8-4.2c0,0-2.2-3.8-6.5-4.5s-27.5-13.5-38.5-16.2s-48-23.5-70.5-32s-49-13.2-49-13.2s-6.5-11-12.2-17.8c0,0-0.5,3-3.5,3
		c0,0-4.8-9.8-11.8-17c0,0,1.5,7.5-2,8.2c0,0-4.2-7-9.5-11c0,0,3.2,10.5-6,8.5c0,0-3-3.2-5.8-4.2c0,0,2,11.2-8,8.2c0,0-3-2.5-5-3.5
		c0,0,5.2,11.5-6,8.8c0,0-2-1.2-4.2-2.2c0,0,4.8,10.2-9.5,6.2c0,0,1.8,5-5.2,5c0,0-2.2-1.5-4.2-2.2c0,0,3.2,5.2-5,4.2
		c0,0-1.5-0.8-3-1.2c0,0,2.5,4.2-2.5,2.8s-14.2-10-19.8-11.5c0,0,1.5,5.5-6-2s-55-27-80.5-18.8c0,0-6.2,1-8.5,4c0,0-5.2,0.5-7.2,4.2
		s-10.8,13-12.5,17.5s-10.2,28.5,1.5,31.8s18.2,4.5,24.8,1.9c2.1-0.6,6.8,2.6,2.8,3.6s-43.5,9.8-67.2,4.2
		c-4.8-2-18.8-14.8-26.5-16.8s-22.8-14.8-37.8-20s-18.2-11.5-40.5-9.2s-1,49.2,4.8,58.5s1.5,18-9,31.2s-18.8,36-8.5,38
		s42.2,5.5,53-2s35.2-12,45-14.8s26.8-9.5,39.2-6.8s30.8,4,34.8,8.2c0,0-27-2.8-30.2,6.5s6.8,46,36,49.8s31.5-1.8,34.2-1.8
		c0,0,0.8,2.1-1,3.1c0,0,14-6.1,19.5-10.3s12.2-2.2,6.2,0.8c0,0,11.8-6.8,14.8-7.5c0,0,2.8,2.5,9.5-3.5c0,0,22.5,5,31.2,8.5
		s25-0.2,36-0.5s50.8,0,42.5,4.2s-25,6.2-23.8,17c0,0-4.5,2.5-2.2,7.8c0,0-3.8,3.2-1,8c0,0-4,3-1.5,6s10.8,1.8,14.5,0
		s13.2-6.2,16.8-7.8s3.2,2.2,7.8,3.5s7-4.5,11.8-8.5s15.8-20.8,18-24c0,0,26.5,0,38.2-3.5s33.8-5,36.5-9.2c0,0,19-4.5,24.8-7.5
		s28-7.5,44.5-24.2c11.5-8.2,15.5-9.2,17-22c-0.4-6.9-3.8-5.2-6-3.8s-12.5,5-14.2,6.2S1798.8,533,1798.8,533z"/>
</g>
</svg>
