<?xml version="1.0" encoding="utf-8"?>
<!-- Generator: Adobe Illustrator 17.1.0, SVG Export Plug-In . SVG Version: 6.00 Build 0)  -->
<!DOCTYPE svg PUBLIC "-//W3C//DTD SVG 1.1//EN" "http://www.w3.org/Graphics/SVG/1.1/DTD/svg11.dtd">
<svg version="1.1" id="Layer_1" xmlns="http://www.w3.org/2000/svg" xmlns:xlink="http://www.w3.org/1999/xlink" x="0px" y="0px"
	 viewBox="0 0 80 90" enable-background="new 0 0 80 90" xml:space="preserve">
<path fill="#D1D0C9" d="M36,29.9c0-0.1,0-0.1,0-0.2l0.1-0.1c0.2-0.2,0.3-0.3,0.4-0.6c0-0.1,0-0.3,0-0.4c0-0.2,0-0.3,0.1-0.3
	c0,0,0,0,0.1,0.1s0.2,0.3,0.7,0.3h0.1c0.1,0,0.3,0,0.3-0.1c0.1-0.1,0-0.2,0-0.3v-0.1c0,0,0,0,0.1-0.1c0.3-0.1,0.4-0.1,0.5-0.1
	s0.1,0,0.2,0.1c0.2,0.2,0,0.5-0.1,0.6s-0.1,0.2-0.1,0.2c0,0.1-0.1,0.1-0.4,0.2c-0.2,0-0.3,0.1-0.3,0.2s0,0.2,0,0.3
	c0,0.1,0.1,0.2,0,0.3c-0.2,0.2-0.3,0.4-0.3,0.5v0.1h-0.1c0,0,0,0-0.1,0c0,0-0.2,0-0.2,0.1s-0.1,0.2,0,0.5c0.2,0.6,0.9,0.8,0.9,0.8
	H38v-0.1c0-0.1-0.1-0.4,0-0.6c0-0.1,0.1-0.1,0.2-0.1h0.1h0.1c0,0,0.1-0.1,0-0.1c0-0.1,0-0.3,0.1-0.4h0.1c0.2,0,0.3,0,0.4-0.1
	c0.1-0.1,0.1-0.3,0.1-0.4c0.2,0,0.5-0.1,0.7-0.2l0,0c0.1,0,0.2-0.1,0.2-0.2c0.1-0.1,0.2-0.2,0.4-0.2c0.4,0,0.4-0.4,0.4-0.6
	c0-0.1,0-0.3,0-0.4c0.1-0.1,0.1-0.2,0.1-0.3c0-0.2,0.1-0.3,0.3-0.5c0.2-0.3,0.3-0.3,1-0.4c0.1,0,0.3,0,0.5-0.1c0.2,0,0.3,0,0.4,0
	c0.3,0,0.5,0.1,0.6,0.2s0.2,0.2,0.4,0.2s0.4,0.2,0.5,0.3c0.1,0.1,0.2,0.1,0.2,0.1h0.1c0-0.1,0-0.1,0-0.2c0-0.2,0-0.4,0.1-0.4
	c0.1,0.1,0.2,0.2,0.4,0.2c0.1,0,0.3,0,0.3-0.3c0-0.1,0.1-0.1,0.1-0.1c0.1,0,0.2,0,0.3,0.1c0.1,0,0.2,0.1,0.3,0.1h0.1
	c0.1,0,0.2,0,0.4,0c0.3,0,0.6-0.2,0.7-0.5c0.1-0.4,0.5-0.7,0.7-1c0.2-0.2,0.4-0.4,0.5-0.5l0.1,0.1c0.1,0.1,0.2,0.3,0.3,0.3
	c0.2,0,0.2-0.2,0.3-0.3c0-0.1,0.1-0.1,0.1-0.2c0,0,0,0,0.1,0.1s0.2,0.2,0.5,0.2c0.1,0,0.1,0,0.2,0c0.3-0.1,0.7,0,0.9,0.2
	c0.1,0,0.2,0.1,0.3,0.1s0.1,0,0.2,0.1c0.2,0.1,0.5,0.2,0.9,0.2c0.3,0,0.6,0.2,0.8,0.4c0.1,0.1,0.2,0.2,0.3,0.2
	c0.2,0.1,0.4,0.4,0.6,0.6c0.1,0.1,0.2,0.2,0.3,0.3c0.1,0.1,0.1,0.2,0.2,0.3c0.1,0.2,0.3,0.5,0.9,0.8c0.4,0.2,0.5,0.2,0.6,0.2
	s0.1,0,0.1-0.1c0.1-0.1,0-0.2,0-0.3c0,0,0-0.1,0-0.2c0.2-0.4,0.2-0.5,0.1-0.7c0-0.1-0.1-0.1-0.1-0.2c0-0.3,0.2-0.5,0.3-0.5
	s0.1-0.2,0.2-0.4c0-0.1,0-0.3,0.1-0.5c0-0.1,0-0.1,0-0.1s0.1,0,0.1,0.1c0.1,0.1,0.2,0.2,0.4,0.2s0.3,0.1,0.4,0.2
	c0,0.1,0.1,0.1,0.2,0.2c0.1,0.1,0.1,0.1,0.1,0.2c0.1,0.1,0.1,0.2,0.4,0.3c0.1,0,0.2,0,0.2,0c0,0.1,0.1,0.1,0.4,0.2
	c0.1,0,0.3,0.1,0.4,0.1c0.3,0,0.6-0.1,0.7-0.2c0.1,0,0.2,0,0.3,0c0.2,0,0.4,0,0.6-0.1c0.2,0,0.3-0.1,0.5-0.1s0.3,0,0.5-0.1
	c0.2,0,0.4-0.1,0.5,0s0.2,0.1,0.3,0.1s0.2,0,0.3-0.1l0,0c0,0,0.1,0.1,0.2,0.1c0.1,0,0.1,0,0.2,0c0.1,0,0.2,0,0.2,0
	c0.1,0.1,0.3,0.1,0.5,0.1s0.3-0.1,0.4,0s0.4,0.2,0.8,0.2c0.2,0,0.4,0,0.6,0c0.1,0,0.2,0,0.3,0c0.2,0,0.4,0.1,0.6,0.1
	c0.3,0.1,0.5,0.2,0.8,0.2c0.4,0,0.4-0.3,0.5-0.4c0-0.1,0-0.2,0.1-0.3c0.1-0.1,0.1-0.3,0.1-0.4c-0.1-0.2-0.3-0.2-0.5-0.2
	c-0.1,0-0.1,0-0.1,0s0-0.2,0-0.3c0-0.1,0-0.1,0-0.2c0-0.2,0-0.3-0.1-0.3c-0.1-0.1-0.2-0.1-0.3-0.1c0-0.2-0.2-0.4-0.9-0.4
	c-0.6,0-0.8,0.1-0.9,0.2c0,0-0.1,0-0.1,0.1v-0.1c0-0.1-0.1-0.3-0.2-0.3s-0.2,0-0.3,0.2c-0.3,0.4,0,0.7,0.2,0.9
	c0.1,0.1,0.2,0.2,0.2,0.3v0.1c0,0-0.1,0.1-0.2,0.1h-0.1c0,0-0.1-0.1-0.1-0.2c-0.1-0.2-0.1-0.3-0.2-0.3c-0.2,0-0.2,0.2-0.2,0.4
	c0,0.3-0.1,0.3-0.1,0.3c-0.1,0-0.4-0.3-0.5-0.4c-0.3-0.3-0.6-0.3-0.8-0.4c-0.1,0-0.2,0-0.2-0.1s-0.1-0.1-0.1-0.2
	c-0.1-0.1-0.2-0.3-0.2-0.4c0,0,0,0,0.1,0c0.3-0.1,0.3-0.3,0.3-0.4s-0.1-0.3-0.3-0.4c-0.1,0-0.2,0-0.3-0.1c-0.2,0-0.2,0-0.2-0.1
	s-0.1-0.4-0.6-0.4c-0.1,0-0.1,0-0.2,0c-0.1,0-0.2,0.1-0.3,0.2l-0.1,0.1l0,0c-0.2-0.1-0.2-0.4-0.1-0.5c0-0.1,0.3-0.2,0.5-0.2
	c0,0,0,0,0.1,0c0.2,0.1,0.4,0.2,0.6,0.2c0.1,0,0.3,0,0.3-0.3c0.1-0.2,0-0.5-0.1-0.6s-0.1-0.2-0.1-0.2c0.2-0.2,0.1-0.4,0-0.6
	c-0.1-0.1-0.1-0.3-0.2-0.5c-0.1-0.3,0-0.5,0.1-0.8c0.1-0.2,0.2-0.5,0.2-0.9c0-0.3,0-0.5-0.1-0.6s-0.2-0.1-0.3-0.1s-0.2,0-0.2,0
	c0-0.1-0.1-0.2-0.3-0.2c-0.1,0-0.2,0.1-0.3,0.3c-0.2,0.3-0.3,0.3-0.6,0.3h-0.1c-0.1,0-0.2,0-0.3,0s-0.2,0-0.5,0s-0.5,0.1-0.7,0.3
	c-0.1,0.1-0.2,0.3-0.2,0.5c0,0.1,0,0.1-0.2,0.1c-0.1,0-0.2,0-0.3,0.1c0,0-0.2,0.1-0.3,0.1c-0.2,0-0.2-0.1-0.2-0.2
	c0-0.4-0.4-0.5-0.6-0.6c-0.1,0-0.1,0-0.2-0.1c0,0-0.1,0-0.2,0c-0.3,0-0.7,0.3-0.8,0.4s-0.4,0.2-0.7,0.2c-0.1,0-0.2,0-0.2,0
	c0-0.2-0.3-0.3-0.4-0.3c-0.2,0-0.3,0-0.3-0.1c-0.1-0.1-0.2-0.2-0.4-0.2c-0.1,0-0.2,0-0.3,0s-0.3,0.1-0.3,0c-0.2-0.1-0.4-0.3-0.4-0.4
	c0,0,0-0.1,0.1-0.1c0.1-0.1,0.2-0.2,0.2-0.4c0-0.1,0-0.3,0-0.4c0-0.2-0.1-0.4,0-0.5s0.1-0.4,0-0.6c0-0.1,0-0.2,0-0.2
	c0.1,0,0.1-0.1,0.2-0.3c0.1-0.1,0.2-0.3,0.3-0.5c0.2-0.2,0.2-0.4,0.1-0.4c-0.1-0.2-0.4-0.2-0.5-0.1c-0.1,0.1-0.4,0.1-1.7,0.1h-0.5
	c-0.4,0-0.7,0.2-1.1,0.4c-0.4,0.2-0.7,0.4-1.1,0.5c-0.8,0.2-0.9,0.2-1.4,0.1h-0.2c-0.1,0-0.3,0-0.6,0s-0.5,0-0.7,0s-0.4,0-0.6,0
	c-0.1,0-0.4,0-0.5,0c-0.3-0.1-1,0-1.6,0.1c-0.3,0.1-0.5,0.1-0.6,0.2c-0.1,0-0.1,0.1-0.2,0.1c0,0,0,0-0.1,0c0,0,0,0,0-0.1
	c0,0,0-0.2-0.2-0.2c-0.1,0-0.2,0-0.6,0.3c-0.4,0.2-0.7,0.5-1,0.8c-0.4,0.3-0.7,0.7-1,0.7l0,0c-0.6,0-0.8,0.1-1,0.3l-0.1,0.1
	c-0.2,0.1-0.3,0.3-0.4,0.4c-0.1,0.1-0.2,0.2-0.2,0.3C38.1,20,38,20.1,37.8,20c-0.1,0-0.1,0-0.1-0.2c0-0.1,0-0.2,0-0.3
	c0-0.4,0-0.6-0.5-0.6h-0.1c-0.1,0-0.2,0-0.3,0.1s0,0.3,0,0.5s0.1,0.3,0.1,0.5s0,0.3,0,0.4c-0.1-0.2-0.3-0.3-0.5-0.3
	c-0.1,0-0.3,0-0.4,0.1c-0.1,0-0.2,0.1-0.3,0.2s-0.3,0.3-0.4,0.3l0,0c0-0.3-0.3-0.5-0.5-0.6c-0.1,0-0.2-0.1-0.2-0.1v-0.1
	c0-0.2-0.1-0.7-0.4-0.7l0,0c-0.1,0-0.3,0.1-0.6,0.2c-0.3,0.2-0.6,0.4-0.9,0.4c-0.2,0-0.5,0-0.7,0.1c-0.4,0.1-0.8,0.1-1,0
	c-0.1,0-0.2-0.1-0.3-0.1c-0.3-0.1-0.3-0.1-0.3-0.7c0-0.8-0.1-0.9-0.5-0.9c0,0,0,0-0.1,0c-0.3,0-0.6-0.1-0.7-0.6
	c-0.1-0.3-0.2-0.5-0.4-0.7c-0.1-0.1-0.2-0.3-0.3-0.5c-0.1-0.2-0.1-0.5-0.2-0.7c-0.1-0.3-0.1-0.6-0.4-0.6c-0.1,0-0.3,0-0.4,0
	s-0.1,0-0.2,0c-0.2,0-0.2,0-0.5-0.4s-0.7-0.5-1.1-0.6c-0.2-0.1-0.3-0.1-0.4-0.2c-0.1-0.1-0.3-0.1-0.5-0.1s-0.5,0-0.8-0.1
	c0.1-0.6,0-0.7-0.2-0.7s-0.3,0.1-0.4,0.1h-0.1c-0.1,0-0.2,0-0.3,0.1c0,0-0.1,0-0.2,0.1c0,0,0-0.1,0.1-0.1c0.2-0.3,0.3-0.5,0.2-0.6
	c0,0-0.1-0.1-0.2-0.1s-0.3,0-0.5,0.1s-0.5,0.4-0.7,0.6c-0.2,0.3-0.5,0.6-0.7,0.6c-0.3,0-0.4,0.3-0.6,0.5c-0.1,0.2-0.2,0.3-0.3,0.5
	c0,0.2,0,0.2,0,0.2s-0.1-0.2-0.1-0.3s-0.1-0.2-0.1-0.3c-0.1-0.2,0-0.5,0.1-0.8c0.1,0,0.1-0.1,0.1-0.1c0-0.1,0-0.3,0-0.4
	c0-0.3,0-0.4,0.1-0.4c0.5-0.1,0.7-0.5,0.8-0.7c0-0.1,0.1-0.3,0.1-0.5c0-0.1,0-0.4,0.1-0.4h0.1c0.1,0,0.3-0.1,0.3-0.4
	c0-0.3,0.4-0.4,0.6-0.4c0.1,0,0.2-0.1,0.2-0.1c0.1-0.1,0-0.2-0.1-0.3c0-0.1-0.1-0.2-0.1-0.3c0.1-0.1,0.1-0.3,0.1-0.4
	c0.6,0,0.7,0,0.7-0.3c0-0.1,0-0.2,0.3-0.5C23.7,8,23.8,8,24,7.9c0.1,0,0.3-0.1,0.7-0.4C24.9,7.4,25,7.3,25,7.1
	c0-0.1-0.1-0.2-0.1-0.3c0,0-0.1,0-0.1-0.1c0,0,0,0,0.1-0.1c0.2-0.1,0.4-0.2,0.7-0.2c0.1,0,0.2,0,0.3,0c0.2,0,0.5,0,0.6,0
	s0.2,0,0.3,0c0.2,0,0.3,0,0.4-0.1s0.1-0.2,0.1-0.4c-0.1-0.3-0.3-0.5-0.7-0.7C26.3,5.1,25.4,5,24.8,5c-0.3,0-0.7,0-0.8,0
	c-0.1,0-0.2,0-0.3,0c-0.3,0-0.5,0-1.8,0.6c-1.5,0.6-2,1.4-2.3,1.8c0,0.1-0.1,0.2-0.2,0.2c-0.3,0.4-1.5,1-1.7,1.1
	c-0.1,0-0.3,0.2-0.6,0.5c-0.3,0.3-0.6,0.6-0.9,0.8c-0.5,0.2-0.5,0.4-0.7,0.6c0,0.1-0.1,0.2-0.1,0.3c-0.3,0.4-0.4,0.8-0.4,1
	c-0.7,0-1.7,0.2-1.7,0.3c0,0,0,0-0.1,0c-1.1,1.3-1.4,1.3-1.5,1.3s-0.2,0-0.5,0.2c-0.5,0.5-0.9,0.4-1.3,0.4c-0.1,0-0.1,0-0.2,0
	c-0.2,0-0.4,0-0.6,0.1c-0.3,0.1-0.6,0.2-0.8,0.2c-0.1,0-0.2,0-0.3,0c-0.1,0-0.2,0-0.3,0c-0.6,0-1,0.3-1.3,0.4
	c-0.2,0.1-0.4,0.4-0.7,0.7c-0.2,0.3-0.5,0.6-0.8,0.8C4.3,16.7,3.4,17,3,17.1c-0.3,0-0.7,0.2-1.1,0.4c-0.2,0.1-0.4,0.1-0.5,0.2
	c-0.6,0.2-0.9,0.6-0.8,1c0,0.1,0.1,0.2,0.3,0.2s0.5-0.2,0.5-0.2v0.1c0,0.1,0.1,0.4,0.4,0.4c0.1,0,0.2,0,0.2-0.1l0,0c0,0,0,0,0.2,0.1
	c0.1,0.1,0.1,0.1,0.2,0.2c0.2,0.2,0.5,0.4,0.5,0.8c0,0.5,0.1,0.7,0.3,1c0,0.1,0,0.1,0.1,0.2c0,0.3,0.1,0.5,0.7,0.5
	c0.4,0,0.9,0.2,1.5,0.4c0.5,0.2,1,0.3,1.6,0.5c0.6,0.1,1.3,0.4,1.9,0.6c0.9,0.3,1.8,0.6,2.4,0.7c1,0.1,4.1,1.7,4.5,2.1
	c0.2,0.2,0.6,0.2,0.9,0.3c0.2,0,0.5,0.1,0.6,0.2c0,0,0,0.1,0.1,0.1c0.1,0.2,0.3,0.4,0.5,0.4c0.1,0,0.3-0.1,0.4-0.3v-0.1
	c0-0.1,0.1-0.2,0.1-0.2h0.1c0.1,0,0.3,0,0.5,0.1c0.3,0,0.4,0.1,0.4,0.1c0.1,0.2,0.2,0.2,0.6,0.2s0.4,0.1,0.5,0.2
	c0,0.1,0.1,0.2,0.5,0.1c0.3-0.1,0.7,0,1,0.1c0.1,0,0.3,0.1,0.5,0.1c0.3,0.1,0.3,0.2,0.4,0.4c0,0.1,0.1,0.3,0.3,0.4h0.1
	c0,0-0.1,0.1-0.1,0.2l-0.1,0.1l-0.1,0.1c-0.2,0.1-0.2,0.3,0,0.6c0.1,0.1,0.2,0.3,0.3,0.3c0.1,0,0.1,0,0.2-0.1c0.1,0,0.2-0.1,0.5-0.1
	h0.1l0,0c0,0.1-0.1,0.2,0,0.3c0.1,0.1,0.2,0.2,0.5,0.2c0.6,0,0.6,0.1,0.7,0.2c0,0.1,0.1,0.2,0.3,0.3c0.1,0,0.2,0.1,0.3,0.1
	c0.2,0.1,0.4,0.2,0.4,0.2v0.1c-0.3,0.4-0.2,0.7,0,1c0.1,0.1,0.1,0.1,0.2,0.2l0,0c0,0-0.1,0.1-0.2,0.2c-0.4,0.3-0.5,0.4-0.3,0.7
	c0,0.1,0.1,0.1,0.1,0.2c0.2,0.4-0.2,0.8-0.5,1c-0.2,0.2-0.2,0.3-0.2,0.5c0,0.1,0,0.2,0,0.4c-0.1,0.2-0.1,0.3,0,0.4s0.2,0.1,0.4,0.2
	l0,0c0.3,0,0.4,0,0.6,0c0.1,0,0.2,0,0.3,0c0.2,0,0.5-0.2,0.6-0.4l0.1-0.1c0,0.1,0,0.2,0.1,0.3c0,0.2,0.1,0.3-0.1,0.6
	c0,0.1-0.1,0.2-0.1,0.3c-0.3,0.5-0.6,1.2-0.5,1.6c0,0.1,0.1,0.2,0.2,0.2c0.2,0.1,0.3,0.3,0.3,0.4c0,0.2,0.1,0.4,0.4,0.5
	c0.1,0,0.2,0,0.3,0c0.1,0,0.1,0,0.2,0s0.1,0,0.1-0.1c0.1-0.1,0-0.1,0-0.2c0,0,0-0.1,0-0.2c-0.1-0.2-0.2-0.6,0.7-1.4
	c0.7-0.6,0.9-1.1,1-1.5c0.1-0.2,0.1-0.4,0.3-0.6c0.5-0.5,1.1-1.8,1.6-2.9l0.2-0.3c0.4-0.8,0.7-0.9,1-1.1c0.1,0,0.2-0.1,0.3-0.2
	c0.3-0.3,0.3-0.8,0.3-1.2v-0.1c0-0.4,0-0.6,0.2-0.7c0,0,0.1,0.1,0.2,0.9c0,0.2,0.1,0.3,0.2,0.3l0,0c0,0,0,0-0.2,0.2
	C34.1,30,34,30.1,34,30.2s0.1,0.1,0.2,0.2h0.1c0,0,0,0,0,0.1c-0.1,0.2-0.1,0.3,0,0.3l0.1,0.1c0.1,0,0.3-0.2,0.4-0.4
	c0.1-0.1,0.2-0.2,0.4-0.2c0.1,0,0.3-0.1,0.5-0.1C36,30.2,36,30.1,36,29.9z M28.2,39L28.2,39L28.2,39L28.2,39z M60,29.4l-0.1-0.1
	c0,0,0,0-0.1-0.1s-0.1-0.1-0.2-0.1s-0.1,0-0.3,0.1l0,0l0,0l-0.1-0.1c-0.1-0.1-0.3-0.3-0.6-0.3h-0.1c-0.4,0-0.5-0.4-0.6-0.6
	s-0.3-0.6-0.6-0.6c-0.1,0-0.2,0-0.2,0.1c-0.2,0.3,0.1,0.6,0.3,0.9c0,0,0,0.1,0.1,0.1c0,0.1,0.1,0.3,0.4,0.4c0.3,0.2,0.5,0.4,0.6,0.5
	c0,0.4,0.5,0.5,0.8,0.5c0.1,0,0.2,0,0.3,0.1h0.1c0.1,0,0.2-0.1,0.4-0.3c0.1-0.2,0.2-0.3,0.1-0.4C60.2,29.5,60.1,29.5,60,29.4z
	 M47.6,31.8c-0.1,0.1-0.2,0.3-0.1,0.4c0.1,0.1,0.2,0.2,0.5,0.2h0.1c0.4,0,0.5-0.1,0.6-0.2l0.1-0.1c0.1,0,0.2,0,0.2-0.1
	c0.1-0.1,0.1-0.3,0.1-0.5v-0.1c0-0.3-0.1-0.4-0.1-0.5v-0.1c0.1-0.2,0.1-0.5,0.1-0.7s-0.3-0.3-0.8-0.3c-0.1,0-0.1,0-0.2,0.1
	c-0.1,0-0.1,0.4-0.1,0.5c-0.2,0.1-0.2,0.3-0.2,0.5l0,0c0,0.2,0,0.4-0.2,0.7C47.7,31.7,47.6,31.8,47.6,31.8z M79.3,67.1
	c-0.1-0.2-0.2-0.3-0.4-0.5c-0.2-0.2-0.4-0.5-0.4-0.7s0-0.4-0.1-0.7c0-0.3-0.1-0.5-0.1-0.7c0-0.1,0-0.2,0-0.3c0-0.2,0-0.5-0.1-1
	c-0.1-0.3-0.1-0.5,0-0.8c0-0.3,0-0.7-0.2-1.1c-0.3-0.6-0.5-1.8-0.5-2.4c0-0.4-0.2-2.2-0.5-3c-0.2-0.4-0.3-0.6-0.4-0.8
	s-0.2-0.2-0.2-0.3c0-0.3-0.2-0.7-0.5-0.9c-0.1,0-0.1-0.1-0.2-0.2c-0.1-0.1-0.2-0.3-0.4-0.3c-0.2,0-0.5-0.1-0.6-0.2c0,0,0,0-0.1-0.1
	s-0.2-0.2-0.4-0.2c-0.1,0-0.1,0-0.2,0c-0.2,0.1-0.3,0.1-0.4,0.2c-0.1,0.1-0.2,0.2-0.5,0.2c-0.1,0-0.2,0.1-0.3,0.1
	c-0.1,0.1,0,0.2,0,0.2l0,0c0,0,0,0-0.2,0c-0.4,0-0.4,0.1-0.5,0.2c0,0,0,0-0.2,0.1c-0.3,0-0.5,0.1-0.6,0.2c-0.1,0.1-0.2,0.1-0.3,0.1
	c-0.1,0-0.1,0-0.2,0.1v0.1c0,0,0,0.1-0.1,0.1l-0.1,0.1C70.3,55,70,55.2,70,55.4c0,0.1,0,0.2,0.2,0.3c0.1,0,0.1,0.1,0.1,0.1
	c0,0.1-0.1,0.2-0.3,0.3h-0.1c-0.3,0.1-0.5,0.1-0.4,0.5c0,0.2,0,0.2-0.1,0.4l-0.1,0.1c-0.1,0.2-0.2,0.2-0.2,0.3c0,0,0,0.1-0.1,0.3
	s-0.3,0.4-0.4,0.4l0,0c0-0.1-0.1-0.1-0.1-0.1c-0.1,0-0.2,0.1-0.3,0.4c-0.1,0.3-0.3,0.6-0.6,0.8c-0.2,0.1-0.3,0.3-0.4,0.4l-0.1,0.1
	c0,0-0.1,0-0.2-0.2c-0.3-0.3-0.7-0.4-1.1-0.5c-0.2-0.1-0.4-0.1-0.6-0.2c-0.1-0.1-0.2-0.1-0.3-0.2c-0.2-0.1-0.2-0.1-0.2-0.3
	s-0.1-0.4-0.2-0.5c0,0-0.1-0.1-0.1-0.2l0,0c0.4-0.2,0.4-0.8,0.4-1.4v-0.1c0-0.4,0-0.6,0.2-0.7c0.1,0,0.1,0,0.2-0.1s0-0.2,0-0.3
	s0-0.2,0-0.2s0.1-0.1,0.2-0.1c0.2,0,0.4-0.1,0.6-0.1c0.4-0.1,0.7-0.2,0.9-0.1c0.1,0,0.2,0,0.3,0c0.1-0.1,0-0.1,0-0.2
	c0-0.1,0-0.2,0-0.2c0.1-0.1,0.2-0.1,0.4-0.1c0.2,0,0.5,0,0.5-0.3s0.1-0.8,0.1-1.4c0.1-0.1,0.2-0.4,0.2-0.8c0-0.5,0.2-0.6,0.3-0.7
	c0.1-0.1,0.1-0.1,0.2-0.2v-0.1l0.1,0.1l0.1,0.1c0,0,0.1,0.1,0.2,0.1c0.2,0,0.3-0.1,0.4-0.3l0.1-0.1c0-0.1,0.1-0.1,0.2-0.2
	c0.2-0.1,0.5-0.3,0.3-0.7c-0.1-0.3,0-0.5,0.1-0.7c0-0.1,0.1-0.2,0.1-0.3c0.1-0.4,0.2-2,0.1-2.6c0.1-0.1,0.2-0.4,0.3-0.6v-0.1
	c0.1-0.2,0.2-0.6,0-1c-0.1-0.2-0.1-0.5-0.1-0.8c0-0.2,0-0.4,0-0.6c0-0.1,0-0.4-0.3-0.4c0,0,0,0-0.1,0l0,0c0,0,0,0,0-0.1
	c-0.1-0.3-0.1-0.4-0.3-0.4c0,0-0.1,0-0.1-0.1c-0.1,0-0.1-0.1-0.2-0.1c-0.1-0.1-0.2-0.2-0.4-0.3l0,0c0-0.1,0.2-0.2,0-0.4
	c0-0.1,0-0.1,0-0.1c0.1-0.1,0.1-0.2,0-0.4l0,0c-0.1-0.4-0.2-0.5,0-0.6s0.3-0.1,0.4-0.1s0.2,0,0.2,0.1c0.1,0.2,0.3,0.2,0.4,0.2
	s0.2,0,0.3,0.1c0.2,0.1,0.3,0,0.4-0.1c0.1-0.2,0-0.5-0.1-0.6l-0.1-0.1c-0.1-0.1-0.3-0.3-0.3-0.7c0-0.1,0-0.4-0.2-0.4h-0.1l0,0l0,0
	C70,38,70,37.9,69.9,37.7c0-0.1-0.1-0.3-0.2-0.4c0-0.1-0.1-0.1-0.1-0.1s0.1-0.1,0.2-0.1C70,37,70,36.8,70,36.6
	c-0.1-0.2-0.2-0.3-0.4-0.3c0,0,0-0.1-0.1-0.1c-0.1-0.1-0.2-0.3-0.5-0.4c-0.1,0-0.1,0-0.1-0.1c-0.1-0.2-0.2-0.3-0.6-0.3
	c-0.2,0-0.3,0-0.4,0c-0.3,0-0.4,0-0.6-0.1c0,0-0.1-0.1-0.2-0.2c-0.3-0.3-0.6-0.7-1.2-0.6c-0.1,0-0.1,0-0.2,0c-0.2,0-0.3-0.1-0.5-0.2
	c0,0-0.1-0.1-0.2-0.1s-0.1-0.1-0.2-0.3c-0.2-0.2-0.4-0.5-0.7-0.5c-0.1,0-0.1,0-0.2,0.1h-0.1c0,0-0.1,0-0.2-0.1
	c-0.1,0-0.2-0.1-0.3-0.1s-0.1,0-0.2,0c-0.1,0.1-0.3,0.1-0.4,0.1c-0.1,0-0.2,0-0.2-0.2c-0.1-0.1-0.1-0.3-0.1-0.5c0-0.3,0-0.6-0.3-0.6
	c-0.2,0-0.2-0.1-0.3-0.2s-0.1-0.1-0.2-0.1c0,0,0,0,0-0.1s0-0.3-0.4-0.4c-0.3,0-0.5-0.1-0.6-0.2c-0.1,0-0.1-0.1-0.2-0.1
	c-0.1,0-0.6-0.1-0.8-0.1c-0.1,0-0.2,0-0.3,0S59.2,31,59.1,31c-0.1,0.1-0.1,0.1-0.2,0c0.1,0,0,0,0-0.1c-0.1-0.1-0.1-0.2-0.3-0.2l0,0
	c0-0.1,0-0.3-0.2-0.3l-0.2-0.1c-0.2-0.1-0.3-0.2-0.5-0.2c0,0-0.1-0.1-0.1-0.2c-0.1-0.1-0.1-0.2-0.3-0.2h-0.1c0,0,0,0-0.1-0.1
	s-0.2-0.1-0.3-0.1h-0.1l0,0c0-0.1-0.1-0.4-0.4-0.4c-0.1,0-0.2,0-0.2,0c-0.1,0-0.1,0-0.2,0.1c-0.1,0.1-0.1,0.2-0.1,0.3v0.1v0.1l0,0
	c0,0,0,0-0.2,0c-0.1,0-0.1,0-0.2,0c-0.1,0-0.3,0-0.4,0c-0.1,0-0.2,0-0.2,0c-0.2-0.1-1-0.1-1.2-0.1c-0.1,0-0.1,0-0.1,0.1
	c0,0,0,0.1,0.1,0.1s0.5,0.3,0.6,0.5s-0.1,0.4-0.4,0.6C53.7,31,53.6,31,53.5,31c-0.2,0.1-0.5,0.2-0.6,0.4c-0.2,0.3-0.5,0.9-0.3,1.2
	c0,0.1,0,0.2,0.1,0.3c0.1,0.4,0.2,0.9,0.5,1.1c0.4,0.3,0.6,0.5,0.9,0.4c0.1,0,0.2,0,0.3,0s0.1,0,0.2,0l0,0c0,0.1,0,0.2-0.1,0.3
	s-0.2,0.1-0.3,0.1c-0.2,0-0.5,0-0.7,0.1C53.2,35,52.8,35,52.4,35c-0.5,0-0.7,0.2-0.9,0.4s-0.4,0.4-0.8,0.5C50,36.1,50,37,50,37.4
	s0.1,0.8,0.2,1v0.1c0,0.2,0,0.5,0,0.7c0,0.1,0,0.2,0,0.3s0,0.3,0,0.5c0,0.4,0,1.1-0.1,1.2c-0.2,0.2-0.3,0.6-0.3,0.9
	c0,0.2-0.3,0.5-0.6,0.7C49,42.9,49,43.1,49,43.3c0,0.1,0,0.2,0,0.2s0,0-0.1,0l0,0h-0.1c0-0.1,0.1-0.1,0.1-0.2c0,0,0-0.1,0-0.2
	c0-0.3,0-0.5,0.2-0.7c0.5-0.2,0.4-0.9,0.4-1.3l0,0c0-0.1,0-0.2,0.1-0.3s0.1-0.3,0.1-0.5c0-0.1-0.1-0.2-0.3-0.2S49,40.3,49,40.6
	c0,0.1-0.1,0.3-0.2,0.5c-0.1,0.1-0.2,0.3-0.2,0.4c0,0.1,0.1,0.2,0.1,0.2s0.1,0.1-0.1,0.2c-0.2,0.3-0.2,0.6-0.3,0.9
	c0,0.1,0,0.3-0.1,0.3c0,0,0,0-0.1,0s-0.2-0.1-0.2-0.2c0-0.1,0-0.1-0.1-0.3s-0.2-0.5-0.1-0.6c0.2-0.3,0.3-0.6,0.2-0.9
	c0-0.1,0-0.1,0.1-0.2c0.1-0.1,0.2-0.3,0.2-0.5s-0.1-0.3-0.1-0.4c-0.1-0.2-0.1-0.2,0-0.4c0.5-0.4,0.3-0.8,0.1-1l-0.1-0.1
	c-0.1-0.1-0.2-0.2,0.1-0.5c0.4-0.3,0.7-0.6,0.6-0.8c0-0.2-0.3-0.2-0.3-0.2c-0.1,0-0.2,0-0.2,0c-0.2,0-0.2,0.1-0.3,0.2l0,0
	c-0.2,0.1-0.7,0.4-0.7,0.8c0,0.3-0.3,1-0.4,1c-0.3,0.1-0.7,0.5-0.7,1c-0.3,1-0.4,1-0.6,1c-0.1,0-0.2-0.1-0.4-0.2s-0.2-0.2-0.4-0.2
	h-0.1c-0.2,0-0.3,0.1-0.3,0.2c0,0.1-0.1,0.2-0.2,0.2C44,41.2,44,41.3,44,41.4v0.1c0,0-0.1,0-0.3,0c-0.1,0-0.2-0.1-0.3-0.1
	c-0.2,0-0.3,0.1-0.3,0.1c-0.1,0.2,0,0.5,0.1,0.7c0.1,0.3,0,0.6-0.2,0.8c-0.1,0.1-0.1,0.4,0,0.6c0,0.1,0.1,0.2,0,0.3h-0.1
	c-0.6,0-1.6,0.4-1.6,1.1c0,0.3,0.1,0.5,0.2,0.7c0.1,0.1,0.2,0.3,0.1,0.5c0,0.1,0,0.2,0,0.3c0,0.3,0,0.5-0.2,0.9
	c-0.1,0.3-0.1,0.6-0.1,0.8c0,0.3,0,0.6-0.1,0.8s-0.3,0.5-0.4,0.9c-0.2,0.4-0.5,0.9-0.7,1.4c-0.3,0.8-0.8,1.4-1,1.4
	c-0.2,0.1-0.4,0.4-0.4,0.9c0,0.2,0.1,0.3,0.2,0.4c0.1,0.1,0.3,0.3,0.4,0.8c0,0.3,0.1,0.6,0.1,0.9c0.1,0.5,0.2,0.9,0,1.2
	c-0.1,0.1-0.1,0.2-0.2,0.3c-0.3,0.5-0.6,1-0.7,1.3c-0.1,0.3,0,1.3,0.4,1.8c0.1,0.2,0.3,0.7,0.4,1.3c0.2,0.9,0.5,1.8,0.8,2.3
	c0.6,0.8,1.2,2.3,1.1,2.9c0,0.3,0,0.5,0.1,0.7s0.2,0.5,0.3,1.1c0.1,1.2-0.1,4-0.2,4.8c0,0.4-0.2,0.9-0.3,1.4
	c-0.1,0.6-0.3,1.1-0.3,1.5s-0.2,0.6-0.4,0.9c-0.2,0.2-0.3,0.5-0.5,0.8c-0.2,0.4-0.4,0.6-0.6,0.7c-0.3,0.3-0.5,0.5-0.4,0.9
	c0,0.2,0,0.3-0.1,0.3c-0.2,0.1-0.4,0.3-0.5,1c-0.2,1.2-0.8,1.6-1.5,2c-0.6,0.3-1,0.6-1.1,0.9c0,0.1,0,0.2,0,0.2h0.1h19.6v0.7
	c0,0.1,0,0.1,0.1,0.1h0.6c0.1,0,0.1,0,0.1-0.1l0,0h3.7c0.1,0,0.1,0,0.1-0.1v-0.1h7c0.1,0,0.1,0,0.1-0.1v-0.1h2h0.1v-0.1
	c0-0.1-0.1-0.5-0.2-0.6l0.1-0.2c0.1-0.1,0.2-0.2,0.2-0.4c0.1-0.2,0.1-0.2,0.3-0.3c0.1-0.1,0.2-0.2,0.4-0.4c0.1-0.1,0.1-0.2,0.2-0.3
	c0.1-0.2,0.2-0.3,0.4-0.4c0.2-0.1,0.4-0.3,0.5-0.5s0.3-0.3,0.4-0.4c0.1,0,0.2-0.1,0.2-0.1c0-0.1-0.1-0.2-0.2-0.3l-0.1-0.2
	c0,0,0,0,0.1,0c0.3-0.1,0.5-0.2,0.6-0.5s0.1-0.6,0.1-0.8c-0.1-0.3-0.1-0.8,0-1c0-0.1,0.1-0.2,0.1-0.4c0.1-0.2,0.2-0.7,0.3-0.7h0.1
	c0.3,0,1.1-0.1,1.3-0.5c0-0.1,0.1-0.2,0.2-0.4c0.2-0.3,0.4-0.5,0.4-0.9c-0.1-0.5-0.1-1.1,0.2-1.4h0.1c0,0,0.1,0,0.2,0s0.3,0.1,0.4,0
	s0.1-0.2,0.1-0.5s-0.1-0.4-0.1-0.5c0.1,0,0.2-0.1,0.4-0.2l0.2-0.1c0.3-0.2,0.4-0.3,0.5-0.3c0,0,0,0,0.1,0.1c0.2,0.1,0.3,0.2,0.3,0.3
	c0,0,0,0-0.1,0.1c-0.3,0.1-0.5,0.4-0.5,0.6v0.1v0.1c0,0.1,0.1,0.1,0.1,0.2c0.1,0.1,0.2,0.2,0.2,0.2c-0.2,0.3-0.1,0.4-0.1,0.4
	l0.1,0.1c0.1,0,0.2,0,0.5-0.3c0.2-0.1,0.2-0.2,0.3-0.2s0,0,0.1,0c0,0,0.1,0.1,0.2,0.1s0.2-0.1,0.2-0.1c0.3-0.4,0.4-0.5,0.6-1.4
	c0.1-0.4,0.2-0.7,0.2-0.8c0.1-0.2,0.1-0.4,0.1-0.6c0-0.1,0-0.2,0-0.2c0-0.2-0.1-0.3,0-0.6c0.1-0.2,0-0.4,0-0.5c0-0.3,0-0.5,0.2-0.7
	C79.5,68.3,79.6,67.8,79.3,67.1z M42.6,39.7c-0.1,0.1-0.1,0.2-0.2,0.2c0,0,0,0.1-0.1,0.1c-0.1,0.1-0.1,0.2-0.1,0.2
	c0,0.2,0.4,0.2,0.4,0.2h0.1c0.3,0,0.4-0.3,0.4-0.4c0,0,0.1,0,0.1-0.1s0-0.2-0.1-0.3L43,39.5C43.1,39.6,42.8,39.6,42.6,39.7z
	 M44.2,39.6L44.2,39.6L44.2,39.6C44.3,39.6,44.3,39.5,44.2,39.6c0.2-1.2,0.1-1.3,0.1-1.3c-0.1-0.1-0.2-0.2-0.6-0.3h-0.1
	c-0.1,0-0.3,0-0.3,0.3c0,0.1,0,0.3,0,0.4C43.2,38.8,43.7,39.5,44.2,39.6z"/>
<g>
	<path fill="#6F6F63" d="M56.5,28.6v0.3C56.6,28.8,56.5,28.7,56.5,28.6z"/>
	<path fill="#6F6F63" d="M60.8,31.2c-0.1,0-0.2-0.1-0.2-0.1c-0.1,0-0.1-0.1-0.2-0.1s-0.6-0.1-0.8-0.1c-0.1,0-0.2,0-0.3,0
		c-0.1,0-0.1,0.1-0.2,0.1c-0.1,0.1-0.1,0.1-0.2,0c0.1,0,0,0,0-0.1c-0.1-0.1-0.1-0.2-0.3-0.2c0-0.1,0-0.3-0.2-0.3l-0.2-0.1
		c-0.2-0.1-0.3-0.2-0.5-0.2c0,0-0.1-0.1-0.1-0.2c-0.1-0.1-0.1-0.2-0.3-0.2h-0.1c0,0,0,0-0.1-0.1c-0.1-0.1-0.2-0.1-0.3-0.1h-0.1
		c0-0.1-0.1-0.2-0.2-0.3v7h4.3V31.2z"/>
</g>
</svg>
