<?xml version="1.0" encoding="utf-8"?>
<!-- Generator: Adobe Illustrator 17.1.0, SVG Export Plug-In . SVG Version: 6.00 Build 0)  -->
<!DOCTYPE svg PUBLIC "-//W3C//DTD SVG 1.1//EN" "http://www.w3.org/Graphics/SVG/1.1/DTD/svg11.dtd">
<svg version="1.1" xmlns="http://www.w3.org/2000/svg" xmlns:xlink="http://www.w3.org/1999/xlink" x="0px" y="0px"
	 viewBox="0 0 400 400" enable-background="new 0 0 400 400" xml:space="preserve">
<g id="Layer_1">
	<path fill="#D1D0C9" d="M200,8c25.9,0,51.1,5.1,74.7,15.1c22.9,9.7,43.4,23.5,61,41.2c17.6,17.6,31.5,38.2,41.2,61
		c10,23.7,15.1,48.8,15.1,74.7s-5.1,51.1-15.1,74.7c-9.7,22.9-23.5,43.4-41.2,61c-17.6,17.6-38.2,31.5-61,41.2
		c-23.7,10-48.8,15.1-74.7,15.1s-51.1-5.1-74.7-15.1c-22.9-9.7-43.4-23.5-61-41.2c-17.6-17.6-31.5-38.2-41.2-61
		C13.1,251.1,8,225.9,8,200s5.1-51.1,15.1-74.7c9.7-22.9,23.5-43.4,41.2-61c17.6-17.6,38.2-31.5,61-41.2C148.9,13.1,174.1,8,200,8"
		/>
	<path fill="#6F6F63" d="M200,8c25.9,0,51.1,5.1,74.7,15.1c22.9,9.7,43.4,23.5,61,41.2c17.6,17.6,31.5,38.2,41.2,61
		c10,23.7,15.1,48.8,15.1,74.7s-5.1,51.1-15.1,74.7c-9.7,22.9-23.5,43.4-41.2,61c-17.6,17.6-38.2,31.5-61,41.2
		c-23.7,10-48.8,15.1-74.7,15.1s-51.1-5.1-74.7-15.1c-22.9-9.7-43.4-23.5-61-41.2c-17.6-17.6-31.5-38.2-41.2-61
		C13.1,251.1,8,225.9,8,200s5.1-51.1,15.1-74.7c9.7-22.9,23.5-43.4,41.2-61c17.6-17.6,38.2-31.5,61-41.2C148.9,13.1,174.1,8,200,8
		 M200,0C89.5,0,0,89.5,0,200s89.5,200,200,200s200-89.5,200-200S310.5,0,200,0L200,0z"/>
	<g>
		<path fill="#EFEFE9" d="M344.2,214c4.8-6,10.7-13.1,15.5-19.3c-0.8-0.6-1.3-1-1.8-1.3c-28.8-17.7-57.6-35.4-86.4-53.1
			c-1.3-0.8-3-1.1-4.5-1.1c-9.1-0.1-18.2-0.1-27.3,0c-2.3,0-3.3-0.8-4.3-2.8c-4.4-9-8.9-18-13.6-26.9c-0.8-1.5-3-3.3-4.6-3.4
			c-11.2-0.3-22.4-0.4-33.7-0.2c-3.1,0-5,2.3-5.8,5.2c-0.7,2.8-0.7,5.5,2,7.6c0.5-2,0.8-4.4,3.5-3.7c2.5,0.7,2.9,3,2.3,5.3
			c-0.4,1.5-1,3.1-1.6,4.5c-1.8,3.8-3.7,7.6-5.4,11.4c-0.8,1.8-2.5,2.9-4.5,2.9c-12.8-0.1-25.7-0.1-38.5,0c-1.9,0-4,0.6-5.7,1.6
			c-29,17.4-57.9,34.9-86.8,52.4c-0.9,0.5-1.8,1.1-3,1.9L54.9,214c8.4,0,17.7,0,26.8,0c-3.1-4.3-5.4-7.7-8.2-11.7
			c1.2-0.8,2.2-1.4,3.3-2.1L86.9,214l22.5-0.2c-6-8.7-11.1-16.1-16.7-24.3c1.1-0.8,2-1.4,3.2-2.2l19.3,26.9l22.7-0.2
			c-9-12.7-17.6-24.8-26.3-37c1.3-0.8,2.3-1.5,3.4-2.3C123.6,187.2,143,214,143,214c4.6-0.1,15.6-0.2,20.2,0c0,0,2.4-0.8,0.8-3.2
			c-10.7-15.7-21.4-31.4-32.1-47.2c1.2-0.8,2.1-1.5,3.2-2.2c0.4,0.5,0.8,0.8,1.1,1.2c11.1,15.4,22.2,30.9,33.5,46.3
			c1.3,1.8,0.6,2.8-0.4,4.2c-11.4,15.4-22.7,30.9-34,46.3c-0.7,1-1.4,2-2.5,3.5l26.1,0c7.6-10.6,17.1-23.4,25-34.2
			c2.1,2.8,4,5.5,6,8.3c-14,19-27.9,37.9-42.1,57.1h103.6c-0.8-1.3-1.4-2.2-2-3.1c-10.1-15-20.2-30-30.2-45c-1.9-2.8-5.1-9-5.1-9
			s3.6-5.7,5.8-9c0.9,1.2,1.5,2.1,2.2,3c6.4,9.4,12.8,18.7,19.2,28c0.6,0.9,2.5,3.7,2.5,3.7c7.8,0.2,16.4,0.1,24.9,0.1
			c-1-1.5-2.4-4-3-4.8c-10.4-14.5-20.7-29.1-31.3-43.5c-2-2.7-2.4-4.6-0.2-7.4c3.8-4.8,7-10,10.5-15c7.1-10.2,14.1-20.4,21.3-30.8
			c1.1,0.7,2,1.3,3.1,2.1c-0.7,1.2-1.3,2.2-2,3.1c0,0-28.1,43.5-28.4,44.8c-0.2,1,0.2,2.5,1.4,2.6l18.3,0.2
			c8.4-12,18.5-26.4,27-38.4c0.2-0.3,0.5-0.6,0.9-1c0.8,0.6,1.5,1.1,2.3,1.7c-8.6,12.4-17.5,25-26.3,37.7h23.3
			c5.5-8,13.6-19,19.4-27.1c1,0.7,1.8,1.3,2.7,2c-5.7,8.2-11.3,16.2-17.3,24.8l22.3,0.3c3-4,8-10.5,11-14.7c1.1,0.8,2.1,1.4,3.2,2.2
			c-3,4.1-5.8,7.9-8.9,12.3L344.2,214z M203.6,112.4c0.3,0,0.6,0,0.9,0.1c0.1,0,0.1,0,0.2,0c0,0,0,0,0,0.1c1.4,0.5,2.4,1.8,2.4,3.4
			c0,2-1.6,3.6-3.6,3.6c-2,0-3.6-1.6-3.6-3.6S201.6,112.4,203.6,112.4z M218.3,279.1h-7.4c-2-3.6-6.7-11.1-9-14.6
			c-2.7,3.8-7.8,10.8-10.8,14.6h-7.3c6-8.2,11.9-16.2,18.2-24.7C207.4,262.6,213.1,271.2,218.3,279.1z M201.8,220.5
			c-13.7-21.3-27.1-42.3-40.7-63.6c27,0,53.4,0,80.4,0C228.2,178.2,215.1,199.2,201.8,220.5z"/>
		<path fill="#EFEFE9" d="M201.8,202.3c8-11.1,15.2-24.5,23.3-35.8c-16.1,0-30.3,0-46.4,0C186.7,177.8,193.8,191.2,201.8,202.3z"/>
	</g>
	<g>
		<path fill="#393933" d="M75.9,132c0.9,1.5,1.2,3.2,0.4,4.8c-1.9,3.6-6.5,1.9-9.3,0.5c-2.8-1.4-6.9-4.2-5-7.8
			c0.8-1.6,2.3-2.2,4-2.3l0.1,1.6c-1.1,0-2.2,0.3-2.8,1.4c-1.3,2.6,2.6,4.8,4.5,5.7c1.8,0.9,5.9,2.8,7.2,0.3
			c0.6-1.1,0.1-2.4-0.5-3.4L75.9,132z"/>
		<path fill="#393933" d="M72.6,112.1l0.9-1.3l5.3,3.9l2.9-3.9l-5.3-3.9l0.9-1.3l12.7,9.2l-0.9,1.3l-6.2-4.5l-2.9,3.9l6.2,4.5
			l-0.9,1.3L72.6,112.1z"/>
		<path fill="#393933" d="M91.4,91.8l-1.5,1.5l-1-1l4.1-4.1l1,1l-1.5,1.5l9,9.1l1.5-1.5l1,1l-4.1,4.1l-1-1l1.5-1.5L91.4,91.8z"/>
		<path fill="#393933" d="M117.6,88l-1.3,0.9l-9.1-12.7l2.8-2c2.2-1.6,4.4-1.3,5.9,0.9c1.7,2.4,1.3,4.6-0.4,5.9l-1.9,1.4L117.6,88z
			 M112.7,81.2l1.8-1.3c1.2-0.9,1.2-2.3,0.1-3.9c-1.1-1.6-2.4-1.6-3.8-0.7l-1.5,1.1L112.7,81.2z"/>
		<path fill="#393933" d="M136.4,76.3L135,77l-7-14l3-1.5c2.5-1.2,4.5-0.6,5.7,1.8c1.3,2.6,0.6,4.8-1.4,5.8l-2.1,1L136.4,76.3z
			 M132.7,68.8l2-1c1.3-0.7,1.6-2,0.7-3.8c-0.9-1.7-2.1-2-3.6-1.3l-1.6,0.8L132.7,68.8z"/>
		<path fill="#393933" d="M150.6,53.3l7.3-2.3l0.4,1.3l-5.8,1.8l1.5,4.9l4.8-1.5l0.4,1.3l-4.8,1.5l1.9,6l5.8-1.8l0.4,1.3l-7.3,2.3
			L150.6,53.3z"/>
		<path fill="#393933" d="M182.7,46.2l0.7,16l-0.7,0.1l-3.9-9l0,0l-1.2,9.7l-0.7,0.1l-3.8-15.6l1.5-0.5l2.4,11.5l0,0l1.1-8.5
			l0.5-0.1l3.4,7.8l0,0l-0.9-11.7L182.7,46.2z"/>
		<path fill="#393933" d="M200.2,56.1l-1.3,5.1l-1.5-0.4l4.2-15.5l1.9,0l3.7,15.6l-1.6,0.4l-1.1-5.2L200.2,56.1z M202.5,47.4
			L202.5,47.4l-1.9,7.3l3.5,0.1L202.5,47.4z"/>
		<path fill="#393933" d="M250.7,67.9c-1.4,1.1-3,1.7-4.7,1.1c-3.9-1.3-2.8-6.2-1.8-9.1c1-2.9,3.2-7.4,7.1-6.1
			c1.7,0.6,2.5,2,2.8,3.7l-1.5,0.3c-0.1-1.1-0.6-2.2-1.7-2.6c-2.7-0.9-4.4,3.3-5,5.2c-0.7,1.9-2,6.2,0.7,7.2c1.2,0.4,2.4-0.2,3.3-1
			L250.7,67.9z"/>
		<path fill="#393933" d="M273.6,72.8c-0.9,1.7-3.8,7.1-7.7,5c-3.9-2.1-0.9-7.4,0-9.1c1.2-2.3,4-7,7.6-5
			C277.5,65.7,274.6,70.9,273.6,72.8z M267.4,69.4c-2,3.7-2.7,6-0.8,7.1c2.4,1.3,4.2-2.1,5.5-4.5c1.4-2.6,3.2-5.7,0.7-7
			C270.5,63.6,268.5,67.4,267.4,69.4z"/>
		<path fill="#393933" d="M292.4,75.9l-6.9,9c-0.9,1.2-1.6,2.6,0,3.8c1.5,1.2,2.7,0.2,3.6-1l6.9-9l1.2,1L290,89
			c-1.5,1.9-3.7,2.3-5.5,0.8c-1.9-1.4-2-3.6-0.6-5.5l7.3-9.5L292.4,75.9z"/>
		<path fill="#393933" d="M309.7,90.8l1.4,1.4l-6.4,12.4l0.1,0l2.5-2.5l7-6.6l1.1,1.1l-11.4,10.7l-1.4-1.4l6.4-12.4l-0.1,0l-2.5,2.5
			l-7,6.6l-1.1-1.1L309.7,90.8z"/>
		<path fill="#393933" d="M326.4,113.2l-1.9-2.8l1.2-0.8l4.7,6.8l-1.2,0.8l-1.9-2.7l-11.8,8l-0.9-1.3L326.4,113.2z"/>
		<path fill="#393933" d="M341.9,137.4l0.1,1.6l-10.1,0.2l-5.6,2.6l-0.7-1.4l5.6-2.6l6.6-7.6l1.1,1.1l-5.8,6.4L341.9,137.4z"/>
	</g>
	<g>
		<g>
			<path fill="#EFEFE9" d="M202.9,23.5c-1,0-2,0-2.9,0v-8c1,0,2,0,3.1,0L202.9,23.5z"/>
		</g>
		<g>
			<path fill="#EFEFE9" d="M197,384.5c-2,0-4.1-0.1-6.1-0.2l0.4-8c1.9,0.1,3.9,0.2,5.8,0.2L197,384.5z M203.1,384.5l-0.1-8
				c2,0,3.9-0.1,5.8-0.2l0.4,8C207.2,384.4,205.2,384.5,203.1,384.5z M184.8,383.9c-2-0.2-4.1-0.4-6.1-0.6l0.9-7.9
				c1.9,0.2,3.9,0.4,5.8,0.6L184.8,383.9z M215.3,383.9l-0.7-8c1.9-0.2,3.9-0.4,5.8-0.6l0.9,7.9
				C219.4,383.5,217.3,383.7,215.3,383.9z M172.7,382.5c-2-0.3-4-0.6-6-1l1.4-7.9c1.9,0.3,3.9,0.7,5.8,1L172.7,382.5z M227.4,382.5
				l-1.2-7.9c1.9-0.3,3.9-0.6,5.8-1l1.4,7.9C231.5,381.9,229.4,382.2,227.4,382.5z M160.7,380.3c-2-0.4-4-0.9-5.9-1.4l2-7.8
				c1.9,0.5,3.8,0.9,5.7,1.3L160.7,380.3z M239.4,380.3l-1.7-7.8c1.9-0.4,3.8-0.9,5.7-1.3l2,7.8
				C243.4,379.4,241.4,379.9,239.4,380.3z M148.9,377.4c-1.9-0.6-3.9-1.2-5.8-1.8l2.5-7.6c1.8,0.6,3.7,1.2,5.6,1.7L148.9,377.4z
				 M251.3,377.3l-2.2-7.7c1.8-0.5,3.7-1.1,5.6-1.7l2.5,7.6C255.2,376.2,253.2,376.8,251.3,377.3z M137.3,373.6
				c-1.9-0.7-3.8-1.4-5.7-2.2l3-7.4c1.8,0.7,3.6,1.4,5.5,2.1L137.3,373.6z M262.9,373.5l-2.7-7.5c1.8-0.7,3.6-1.4,5.5-2.1l3,7.4
				C266.7,372.1,264.8,372.9,262.9,373.5z M125.9,369.1c-1.9-0.8-3.7-1.7-5.5-2.5l3.5-7.2c1.7,0.8,3.5,1.7,5.3,2.4L125.9,369.1z
				 M274.2,369l-3.2-7.3c1.8-0.8,3.6-1.6,5.3-2.4l3.5,7.2C277.9,367.3,276.1,368.2,274.2,369z M114.9,363.8
				c-1.8-0.9-3.6-1.9-5.4-2.9l3.9-7c1.7,0.9,3.4,1.9,5.1,2.8L114.9,363.8z M285.2,363.7l-3.7-7.1c1.7-0.9,3.4-1.8,5.1-2.8l3.9,7
				C288.8,361.8,287,362.8,285.2,363.7z M104.3,357.8c-1.7-1.1-3.5-2.2-5.2-3.3l4.4-6.7c1.6,1.1,3.3,2.1,4.9,3.1L104.3,357.8z
				 M295.8,357.7l-4.2-6.8c1.7-1,3.3-2.1,4.9-3.1l4.4,6.7C299.3,355.6,297.6,356.7,295.8,357.7z M94.1,351.1
				c-1.7-1.2-3.3-2.4-4.9-3.6l4.8-6.4c1.5,1.2,3.1,2.3,4.7,3.4L94.1,351.1z M306,351l-4.6-6.5c1.6-1.1,3.2-2.3,4.7-3.4l4.8,6.4
				C309.4,348.7,307.7,349.9,306,351z M84.3,343.8c-1.6-1.3-3.2-2.6-4.7-3.9l5.2-6.1c1.5,1.3,3,2.5,4.5,3.7L84.3,343.8z
				 M315.8,343.7l-5-6.2c1.5-1.2,3-2.5,4.5-3.7l5.2,6.1C318.9,341.1,317.3,342.4,315.8,343.7z M75.1,335.8c-1.5-1.4-3-2.8-4.4-4.2
				l5.6-5.7c1.4,1.4,2.8,2.7,4.2,4L75.1,335.8z M325,335.7l-5.4-5.9c1.4-1.3,2.8-2.7,4.2-4l5.6,5.7C328,332.9,326.5,334.4,325,335.7
				z M66.4,327.3c-1.4-1.5-2.8-3-4.1-4.5l6-5.3c1.3,1.4,2.6,2.9,4,4.3L66.4,327.3z M333.7,327.2l-5.8-5.5c1.3-1.4,2.7-2.9,4-4.3
				l6,5.3C336.5,324.2,335.1,325.7,333.7,327.2z M58.3,318.2c-1.3-1.6-2.6-3.1-3.8-4.7l6.3-4.9c1.2,1.5,2.4,3.1,3.7,4.5L58.3,318.2z
				 M341.8,318.1l-6.1-5.1c1.2-1.5,2.5-3,3.7-4.5l6.3,4.9C344.4,314.9,343.1,316.5,341.8,318.1z M50.8,308.6c-1.2-1.6-2.4-3.3-3.5-5
				l6.6-4.5c1.1,1.6,2.2,3.2,3.4,4.8L50.8,308.6z M349.3,308.4l-6.5-4.7c1.1-1.6,2.3-3.2,3.4-4.8l6.6,4.5
				C351.7,305.1,350.5,306.8,349.3,308.4z M43.9,298.5c-1.1-1.7-2.1-3.5-3.2-5.2l6.9-4c1,1.7,2,3.3,3,5L43.9,298.5z M356.2,298.3
				l-6.8-4.3c1-1.6,2-3.3,3-5l6.9,4C358.3,294.9,357.3,296.6,356.2,298.3z M37.7,287.9c-1-1.8-1.9-3.6-2.8-5.4l7.2-3.6
				c0.9,1.7,1.8,3.5,2.7,5.2L37.7,287.9z M362.3,287.8l-7-3.8c0.9-1.7,1.8-3.4,2.7-5.2l7.2,3.6C364.2,284.2,363.3,286,362.3,287.8z
				 M32.3,277c-0.8-1.7-1.6-3.5-2.3-5.2l-0.2-0.4l7.4-3.1l0.2,0.4c0.7,1.7,1.4,3.3,2.2,5L32.3,277z M367.8,276.9l-7.3-3.3
				c0.7-1.6,1.5-3.2,2.1-4.8l0.2-0.5l7.4,3.1l-0.2,0.5C369.3,273.5,368.6,275.2,367.8,276.9z M27.5,265.8c-0.7-1.9-1.4-3.8-2.1-5.7
				l7.6-2.6c0.6,1.8,1.3,3.7,2,5.5L27.5,265.8z M372.5,265.6l-7.5-2.8c0.7-1.8,1.4-3.7,2-5.5l7.6,2.6
				C373.9,261.8,373.2,263.7,372.5,265.6z M23.6,254.2c-0.6-1.9-1.2-3.9-1.7-5.9l7.7-2.1c0.5,1.9,1.1,3.8,1.6,5.6L23.6,254.2z
				 M376.5,254.1l-7.6-2.3c0.6-1.9,1.1-3.7,1.6-5.6l7.7,2.1C377.6,250.2,377.1,252.1,376.5,254.1z M20.4,242.5c-0.5-2-0.9-4-1.3-6
				l7.8-1.6c0.4,1.9,0.8,3.8,1.2,5.7L20.4,242.5z M379.7,242.3l-7.8-1.8c0.4-1.9,0.9-3.8,1.2-5.7l7.8,1.6
				C380.6,238.3,380.1,240.3,379.7,242.3z M18,230.5c-0.3-2-0.6-4-0.9-6l7.9-1c0.3,1.9,0.5,3.9,0.9,5.8L18,230.5z M382,230.3
				l-7.9-1.3c0.3-1.9,0.6-3.9,0.9-5.8l7.9,1C382.7,226.3,382.4,228.3,382,230.3z M16.4,218.4c-0.2-2-0.4-4.1-0.5-6.1l8-0.5
				c0.1,1.9,0.3,3.9,0.5,5.8L16.4,218.4z M383.6,218.2l-8-0.8c0.2-1.9,0.3-3.9,0.5-5.8l8,0.5C384,214.2,383.8,216.2,383.6,218.2z
				 M15.6,206.2c-0.1-2-0.1-4.1-0.1-6.1l8,0c0,1.9,0,3.9,0.1,5.8L15.6,206.2z M384.4,206.1l-8-0.3c0.1-1.9,0.1-3.9,0.1-5.8l8,0v0
				C384.5,202,384.5,204.1,384.4,206.1z M23.6,194.3l-8-0.3c0.1-2,0.2-4.1,0.3-6.1l8,0.5C23.7,190.4,23.6,192.3,23.6,194.3z
				 M376.4,194.1c-0.1-1.9-0.2-3.9-0.3-5.8l8-0.5c0.1,2,0.2,4.1,0.3,6.1L376.4,194.1z M24.3,182.6l-8-0.8c0.2-2,0.4-4.1,0.7-6.1
				l7.9,1C24.7,178.7,24.5,180.7,24.3,182.6z M375.7,182.5c-0.2-1.9-0.4-3.9-0.7-5.8l7.9-1c0.3,2,0.5,4,0.7,6.1L375.7,182.5z
				 M25.8,171l-7.9-1.3c0.3-2,0.7-4,1.1-6l7.8,1.6C26.5,167.2,26.1,169.1,25.8,171z M374.1,170.9c-0.3-1.9-0.7-3.8-1-5.7l7.8-1.6
				c0.4,2,0.8,4,1.1,6L374.1,170.9z M28.1,159.6l-7.8-1.8c0.5-2,1-4,1.5-5.9l7.7,2.1C29,155.8,28.6,157.7,28.1,159.6z M371.9,159.5
				c-0.4-1.9-0.9-3.8-1.4-5.7l7.7-2.1c0.5,1.9,1,3.9,1.5,5.9L371.9,159.5z M31.1,148.3l-7.6-2.3c0.6-1.9,1.2-3.9,1.9-5.8l7.6,2.6
				C32.3,144.6,31.7,146.5,31.1,148.3z M368.8,148.2c-0.6-1.9-1.2-3.7-1.8-5.6l7.6-2.6c0.7,1.9,1.3,3.9,1.9,5.8L368.8,148.2z
				 M34.9,137.3l-7.5-2.8c0.7-1.9,1.5-3.8,2.3-5.7l7.4,3.1C36.4,133.7,35.6,135.5,34.9,137.3z M365,137.2c-0.7-1.8-1.4-3.6-2.2-5.4
				l7.4-3.1c0.8,1.9,1.6,3.8,2.3,5.7L365,137.2z M39.4,126.5l-7.3-3.3c0.8-1.8,1.7-3.7,2.6-5.5l7.2,3.6
				C41.1,123,40.3,124.8,39.4,126.5z M360.5,126.4c-0.8-1.8-1.7-3.5-2.5-5.3l7.2-3.6c0.9,1.8,1.8,3.7,2.6,5.5L360.5,126.4z
				 M44.7,116.1l-7-3.8c1-1.8,2-3.6,3-5.3l6.9,4C46.5,112.7,45.6,114.4,44.7,116.1z M355.3,116c-0.9-1.7-1.9-3.4-2.9-5.1l6.9-4
				c1,1.7,2,3.5,3,5.3L355.3,116z M50.5,106l-6.8-4.3c1.1-1.7,2.2-3.4,3.3-5.1l6.6,4.5C52.6,102.7,51.6,104.4,50.5,106z
				 M349.4,105.9c-1-1.6-2.1-3.3-3.2-4.9l6.6-4.5c1.1,1.7,2.3,3.4,3.3,5.1L349.4,105.9z M57.1,96.3l-6.5-4.7
				c1.2-1.6,2.4-3.3,3.7-4.9l6.3,4.9C59.4,93.2,58.2,94.8,57.1,96.3z M342.8,96.2c-1.1-1.6-2.3-3.1-3.5-4.7l6.3-4.9
				c1.2,1.6,2.5,3.2,3.7,4.9L342.8,96.2z M64.3,87.1L58.1,82c1.3-1.6,2.6-3.1,4-4.6l6,5.3C66.8,84.2,65.5,85.6,64.3,87.1z M335.7,87
				c-1.2-1.5-2.5-3-3.8-4.4l6-5.3c1.3,1.5,2.7,3.1,4,4.6L335.7,87z M72,78.4l-5.8-5.5c1.1-1.1,2.2-2.3,3.3-3.4l1-1l5.6,5.7l-0.9,0.9
				C74.1,76.2,73.1,77.3,72,78.4z M327.9,78.3c-1-1.1-2-2.1-3.1-3.1c-0.3-0.3-0.7-0.7-1-1l5.6-5.7c0.4,0.4,0.7,0.7,1.1,1.1
				c1.1,1.1,2.1,2.2,3.2,3.3L327.9,78.3z M80.3,70.2l-5.4-5.9c1.5-1.4,3-2.7,4.5-4.1l5.2,6C83.2,67.6,81.8,68.9,80.3,70.2z
				 M319.5,70.1c-1.4-1.3-2.9-2.6-4.4-3.9l5.2-6.1c1.5,1.3,3.1,2.7,4.6,4.1L319.5,70.1z M89.2,62.6l-5-6.2c1.6-1.3,3.2-2.5,4.8-3.8
				l4.8,6.4C92.2,60.2,90.7,61.4,89.2,62.6z M310.7,62.5c-1.5-1.2-3.1-2.4-4.6-3.6l4.8-6.4c1.6,1.2,3.2,2.5,4.8,3.8L310.7,62.5z
				 M98.5,55.5L93.9,49c1.7-1.2,3.4-2.3,5-3.4l4.4,6.7C101.7,53.3,100.1,54.4,98.5,55.5z M301.4,55.5c-1.6-1.1-3.2-2.2-4.8-3.3
				l4.4-6.7c1.7,1.1,3.4,2.3,5.1,3.4L301.4,55.5z M108.2,49.1l-4.2-6.8c1.7-1.1,3.5-2.1,5.3-3.1l3.9,7
				C111.6,47.2,109.9,48.1,108.2,49.1z M291.6,49.1c-1.7-1-3.3-2-5-2.9l3.9-7c1.8,1,3.5,2,5.3,3.1L291.6,49.1z M118.4,43.4l-3.7-7.1
				c1.8-0.9,3.6-1.9,5.5-2.7l3.5,7.2C121.9,41.6,120.1,42.5,118.4,43.4z M281.5,43.3c-1.7-0.9-3.5-1.8-5.2-2.6l3.5-7.2
				c1.8,0.9,3.7,1.8,5.5,2.7L281.5,43.3z M128.9,38.4l-3.2-7.3c0.8-0.4,1.6-0.7,2.5-1.1c1.1-0.4,2.1-0.9,3.2-1.3l3,7.4
				c-1,0.4-2,0.8-3,1.2C130.5,37.7,129.7,38,128.9,38.4z M270.9,38.3c-0.7-0.3-1.5-0.6-2.2-1c-1.1-0.4-2.1-0.9-3.2-1.3l3-7.4
				c1.1,0.4,2.2,0.9,3.3,1.4c0.8,0.3,1.5,0.7,2.3,1L270.9,38.3z M139.8,34l-2.7-7.5c1.9-0.7,3.8-1.4,5.8-2l2.5,7.6
				C143.4,32.7,141.6,33.4,139.8,34z M260.1,34c-1.8-0.7-3.7-1.3-5.5-1.9l2.5-7.6c1.9,0.6,3.9,1.3,5.8,2L260.1,34z M150.9,30.4
				l-2.2-7.7c1.9-0.6,3.9-1.1,5.9-1.6l2,7.8C154.6,29.3,152.7,29.9,150.9,30.4z M249,30.4c-1.9-0.5-3.8-1.1-5.6-1.5l2-7.8
				c2,0.5,3.9,1,5.9,1.6L249,30.4z M162.2,27.5l-1.7-7.8c2-0.4,4-0.8,6-1.2l1.4,7.9C166,26.7,164.1,27.1,162.2,27.5z M237.7,27.5
				c-1.9-0.4-3.8-0.8-5.7-1.1l1.4-7.9c2,0.4,4,0.8,6,1.2L237.7,27.5z M173.7,25.4l-1.2-7.9c2-0.3,4-0.6,6-0.8l0.9,7.9
				C177.5,24.9,175.6,25.1,173.7,25.4z M226.2,25.4c-1.9-0.3-3.9-0.5-5.8-0.8l0.9-7.9c2,0.2,4.1,0.5,6.1,0.8L226.2,25.4z
				 M185.3,24.1l-0.7-8c2-0.2,4.1-0.3,6.1-0.4l0.4,8C189.1,23.8,187.2,23.9,185.3,24.1z M214.6,24.1c-1.9-0.2-3.9-0.3-5.8-0.4l0.4-8
				c2,0.1,4.1,0.2,6.1,0.4L214.6,24.1z"/>
		</g>
		<g>
			<path fill="#EFEFE9" d="M197.1,23.5l-0.1-8c1,0,2,0,3.1,0v8C199,23.5,198,23.5,197.1,23.5z"/>
		</g>
	</g>
	<g>
		<g>
			<g>
				<path fill="#393933" d="M146,324.8h6.6v1.2h-5.2v4.5h4.3v1.2h-4.3v5.4h5.2v1.2H146V324.8z"/>
				<path fill="#393933" d="M163.8,326.3c-0.1-0.5-0.4-1.1-1-1.1c-0.7,0-1,0.6-1,1.2c0,0.6,0.1,0.8,1.3,1.5c0.9,0.5,1.5,1,1.5,2.1
					c0,1.1-0.6,2-1.8,2c-1.3,0-1.8-0.8-1.9-2l0.7-0.1c0.1,0.8,0.3,1.4,1.2,1.4c0.6,0,1.1-0.4,1.1-1.3c0-1-0.6-1.3-1.4-1.7
					c-0.8-0.5-1.4-0.8-1.4-1.9c0-1,0.7-1.8,1.7-1.8c1,0,1.5,0.7,1.7,1.6L163.8,326.3z"/>
				<path fill="#393933" d="M173.3,325.3h-1.6v-0.7h3.8v0.7H174v6.6h-0.7V325.3z"/>
			</g>
			<g>
				<rect x="164.5" y="337" fill="#393933" width="8.3" height="1.3"/>
			</g>
		</g>
		<g>
			<path fill="#393933" d="M201,326.4l-2.5,1l-0.4-1.2l4.3-1.6v12.6h2.9v1.2h-7.7v-1.2h3.4V326.4z"/>
			<path fill="#393933" d="M221.6,334.9c0,2.2-1.7,3.6-3.9,3.6c-2.2,0-3.9-1.4-3.9-3.6c0-1.9,1.2-2.8,2.7-3.6
				c-1.2-0.8-2.3-1.7-2.3-3.3c0-2,1.4-3.5,3.4-3.5c2,0,3.4,1.5,3.4,3.5c0,1.6-1,2.5-2.3,3.3C220.4,332.1,221.6,333,221.6,334.9z
				 M215.3,334.9c0,1.4,1.1,2.3,2.5,2.3c1.4,0,2.5-0.9,2.5-2.3c0-1.6-1.3-2.2-2.5-2.9C216.5,332.7,215.3,333.3,215.3,334.9z
				 M219.7,328c0-1.2-0.7-2.2-2-2.2c-1.3,0-2,1-2,2.2c0,1.4,1,1.9,2,2.6C218.7,329.9,219.7,329.4,219.7,328z"/>
			<path fill="#393933" d="M230.2,337.1l5-6.5c0.6-0.8,1.1-1.4,1.1-2.5c0-1.3-0.9-2.2-2.2-2.2c-1.6,0-2.4,1.3-2.6,2.7l-1.3-0.2
				c0.3-2.3,1.6-3.8,4-3.8c2.1,0,3.6,1.3,3.6,3.5c0,1.3-0.7,2.3-1.4,3.3l-4.4,5.8h5.8v1.2h-7.6V337.1z"/>
			<path fill="#393933" d="M252.7,326.9c-0.6-0.5-1.3-1-2.2-1c-2.5,0-2.6,3.1-2.7,4.9c0.8-0.7,1.6-1.1,2.7-1.1
				c2.6,0,3.5,2.1,3.5,4.3c0,2.4-1.3,4.5-3.9,4.5c-3.5,0-3.7-4.2-3.7-6.8c0-2.8,0.3-7.1,4-7.1c1.1,0,2.2,0.4,3,1.2L252.7,326.9z
				 M250.2,337.2c1.7,0,2.4-1.5,2.4-3.1c0-1.5-0.5-3.1-2.3-3.1c-1,0-1.8,0.7-2.5,1.3C247.9,336.5,249,337.2,250.2,337.2z"/>
		</g>
	</g>
	<g>
		<g>
			<path fill="#EFEFE9" d="M91.6,274.8c0.2,0,0.5,0.1,0.7,0.2l7.3,4l-1.4-8.6c-0.1-0.4,0.1-0.9,0.4-1.2l6-6.2l-8.3-1.2
				c-0.5-0.1-0.9-0.4-1.1-0.8l-3.7-7.8l-3.7,7.8c-0.2,0.4-0.6,0.7-1.1,0.8l-8.2,1.2l6,6.2c0.3,0.3,0.4,0.8,0.4,1.2l-1.4,8.6l7.3-4
				C91.1,274.8,91.3,274.8,91.6,274.8z"/>
		</g>
		<g>
			<path fill="#EFEFE9" d="M308.4,274.8c0.2,0,0.5,0.1,0.7,0.2l7.3,4l-1.4-8.6c-0.1-0.4,0.1-0.9,0.4-1.2l6-6.2l-8.3-1.2
				c-0.5-0.1-0.9-0.4-1.1-0.8l-3.7-7.8l-3.7,7.8c-0.2,0.4-0.6,0.7-1.1,0.8l-8.2,1.2l6,6.2c0.3,0.3,0.4,0.8,0.4,1.2l-1.4,8.6l7.3-4
				C308,274.8,308.2,274.8,308.4,274.8z"/>
		</g>
	</g>
</g>
<g id="Layer_2" display="none">
	<path display="inline" fill="none" stroke="#6F6F63" stroke-miterlimit="10" d="M1798.8,533c0,0,7.8-5,11.8-6.5s9-6.2,6.5-7.5
		s-6-4.8-7.8-4.2c0,0-2.2-3.8-6.5-4.5s-27.5-13.5-38.5-16.2s-48-23.5-70.5-32s-49-13.2-49-13.2s-6.5-11-12.2-17.8c0,0-0.5,3-3.5,3
		c0,0-4.8-9.8-11.8-17c0,0,1.5,7.5-2,8.2c0,0-4.2-7-9.5-11c0,0,3.2,10.5-6,8.5c0,0-3-3.2-5.8-4.2c0,0,2,11.2-8,8.2c0,0-3-2.5-5-3.5
		c0,0,5.2,11.5-6,8.8c0,0-2-1.2-4.2-2.2c0,0,4.8,10.2-9.5,6.2c0,0,1.8,5-5.2,5c0,0-2.2-1.5-4.2-2.2c0,0,3.2,5.2-5,4.2
		c0,0-1.5-0.8-3-1.2c0,0,2.5,4.2-2.5,2.8s-14.2-10-19.8-11.5c0,0,1.5,5.5-6-2s-55-27-80.5-18.8c0,0-6.2,1-8.5,4c0,0-5.2,0.5-7.2,4.2
		s-10.8,13-12.5,17.5s-10.2,28.5,1.5,31.8s18.2,4.5,24.8,1.9c2.1-0.6,6.8,2.6,2.8,3.6s-43.5,9.8-67.2,4.2
		c-4.8-2-18.8-14.8-26.5-16.8s-22.8-14.8-37.8-20s-18.2-11.5-40.5-9.2s-1,49.2,4.8,58.5s1.5,18-9,31.2s-18.8,36-8.5,38
		s42.2,5.5,53-2s35.2-12,45-14.8s26.8-9.5,39.2-6.8s30.8,4,34.8,8.2c0,0-27-2.8-30.2,6.5s6.8,46,36,49.8s31.5-1.8,34.2-1.8
		c0,0,0.8,2.1-1,3.1c0,0,14-6.1,19.5-10.3s12.2-2.2,6.2,0.8c0,0,11.8-6.8,14.8-7.5c0,0,2.8,2.5,9.5-3.5c0,0,22.5,5,31.2,8.5
		s25-0.2,36-0.5s50.8,0,42.5,4.2s-25,6.2-23.8,17c0,0-4.5,2.5-2.2,7.8c0,0-3.8,3.2-1,8c0,0-4,3-1.5,6s10.8,1.8,14.5,0
		s13.2-6.2,16.8-7.8s3.2,2.2,7.8,3.5s7-4.5,11.8-8.5s15.8-20.8,18-24c0,0,26.5,0,38.2-3.5s33.8-5,36.5-9.2c0,0,19-4.5,24.8-7.5
		s28-7.5,44.5-24.2c11.5-8.2,15.5-9.2,17-22c-0.4-6.9-3.8-5.2-6-3.8s-12.5,5-14.2,6.2S1798.8,533,1798.8,533z"/>
</g>
</svg>
