<?xml version="1.0" encoding="utf-8"?>
<!-- Generator: Adobe Illustrator 17.1.0, SVG Export Plug-In . SVG Version: 6.00 Build 0)  -->
<!DOCTYPE svg PUBLIC "-//W3C//DTD SVG 1.1//EN" "http://www.w3.org/Graphics/SVG/1.1/DTD/svg11.dtd">
<svg version="1.1" xmlns="http://www.w3.org/2000/svg" xmlns:xlink="http://www.w3.org/1999/xlink" x="0px" y="0px"
	 viewBox="0 0 400 400" enable-background="new 0 0 400 400" xml:space="preserve">
<g id="Layer_1">
	<path fill="none" stroke="#6F6F63" stroke-width="5.1154" stroke-miterlimit="10" d="M15.7,202.1c0-24.9,4.9-49,14.5-71.7
		c9.3-21.9,22.6-41.7,39.5-58.6c16.9-16.9,36.6-30.2,58.6-39.5c22.7-9.6,46.9-14.5,71.7-14.5"/>
	<path fill="none" stroke="#D1D0C9" stroke-width="5.1154" stroke-miterlimit="10" d="M200,17.7c24.9,0,49,4.9,71.7,14.5
		c21.9,9.3,41.7,22.6,58.6,39.5c16.9,16.9,30.2,36.6,39.5,58.6c9.6,22.7,14.5,46.9,14.5,71.7"/>
	<path fill="none" stroke="#6F6F63" stroke-width="5.1154" stroke-miterlimit="10" d="M384.3,201.9c0,24.9-4.9,49-14.5,71.7
		c-9.3,21.9-22.6,41.7-39.5,58.6c-16.9,16.9-36.6,30.2-58.6,39.5c-22.7,9.6-46.9,14.5-71.7,14.5"/>
	<path fill="none" stroke="#D1D0C9" stroke-width="5.1154" stroke-miterlimit="10" d="M200,386.2c-24.9,0-49-4.9-71.7-14.5
		c-21.9-9.3-41.7-22.6-58.6-39.5c-16.9-16.9-30.2-36.6-39.5-58.6c-9.6-22.7-14.5-46.9-14.5-71.7"/>
	<path fill="#393933" d="M200,8c25.9,0,51.1,5.1,74.7,15.1c22.9,9.7,43.4,23.5,61,41.2c17.6,17.6,31.5,38.2,41.2,61
		c10,23.7,15.1,48.8,15.1,74.7s-5.1,51.1-15.1,74.7c-9.7,22.9-23.5,43.4-41.2,61c-17.6,17.6-38.2,31.5-61,41.2
		c-23.7,10-48.8,15.1-74.7,15.1s-51.1-5.1-74.7-15.1c-22.9-9.7-43.4-23.5-61-41.2c-17.6-17.6-31.5-38.2-41.2-61
		C13.1,251.1,8,225.9,8,200s5.1-51.1,15.1-74.7c9.7-22.9,23.5-43.4,41.2-61c17.6-17.6,38.2-31.5,61-41.2C148.9,13.1,174.1,8,200,8
		 M200,0C89.5,0,0,89.5,0,200s89.5,200,200,200s200-89.5,200-200S310.5,0,200,0L200,0z"/>
	<g>
		<path fill="#6F6F63" d="M57,225.3v-0.1c0-11.3,8.5-20.6,20.7-20.6c7.5,0,12,2.5,15.7,6.1l-5.6,6.4c-3.1-2.8-6.2-4.5-10.2-4.5
			c-6.7,0-11.5,5.6-11.5,12.4v0.1c0,6.8,4.7,12.5,11.5,12.5c4.5,0,7.3-1.8,10.5-4.7l5.6,5.6c-4.1,4.4-8.6,7.1-16.3,7.1
			C65.7,245.7,57,236.7,57,225.3z"/>
		<path fill="#6F6F63" d="M123.4,205.3h8.7v31.8H152v8h-28.6V205.3z"/>
		<path fill="#6F6F63" d="M194.9,205h8.1l17,40.1h-9.1l-3.6-8.9h-16.8l-3.6,8.9h-8.9L194.9,205z M204.1,228.4l-5.3-12.9l-5.3,12.9
			H204.1z"/>
		<path fill="#6F6F63" d="M248.9,205.3h18.2c5.1,0,9,1.4,11.6,4c2.2,2.2,3.4,5.3,3.4,9.1v0.1c0,6.4-3.5,10.5-8.5,12.3l9.7,14.2
			h-10.2l-8.5-12.7h-6.9V245h-8.7V205.3z M266.5,224.6c4.3,0,6.7-2.3,6.7-5.6v-0.1c0-3.7-2.6-5.7-6.9-5.7h-8.7v11.4H266.5z"/>
		<path fill="#6F6F63" d="M312.7,205.3h30v7.8h-21.3v8.1h18.7v7.8h-18.7v8.4H343v7.8h-30.3V205.3z"/>
	</g>
	<path fill="#D1D0C9" d="M158,72.5c0,0,0,6.6,3.3,9.9c3.3,3.3,76.3,76.3,76.3,76.3l6.6-6.6L168,75.8C168,75.8,164.6,72.5,158,72.5z"
		/>
	<path fill="#D1D0C9" d="M240.9,72.5c0,0-6.6,0-9.9,3.3c-3.3,3.3-76.3,76.3-76.3,76.3l6.6,6.6l76.3-76.3
		C237.6,82.4,240.9,79.1,240.9,72.5z"/>
	<path fill="#6F6F63" d="M135.6,108.2l-3.1,0.8l-0.8-3.2l5.1-1.5h2.7v17.9h-3.9V108.2z"/>
	<path fill="#6F6F63" d="M153.1,117.2L153.1,117.2c0-2.2,1-3.5,2.9-4.3c-1.4-0.8-2.3-2-2.3-3.9V109c0-2.7,2.5-4.9,6.2-4.9
		c3.8,0,6.2,2.1,6.2,4.9v0.1c0,1.9-0.9,3-2.3,3.9c1.8,0.9,2.9,2.1,2.9,4.2v0.1c0,3.3-2.9,5.2-6.9,5.2
		C156.1,122.4,153.1,120.3,153.1,117.2z M163.1,116.9L163.1,116.9c0-1.4-1.3-2.2-3.1-2.2c-1.8,0-3.1,0.8-3.1,2.2v0.1
		c0,1.2,1.1,2.2,3.1,2.2C161.9,119.1,163.1,118.2,163.1,116.9z M162.5,109.4L162.5,109.4c0-1.1-0.9-2.1-2.5-2.1
		c-1.6,0-2.5,1-2.5,2.1v0.1c0,1.2,1,2.2,2.5,2.2C161.5,111.6,162.5,110.7,162.5,109.4z"/>
	<g>
		<path fill="#6F6F63" d="M239.2,107.7h-8.4v-3.4h12.8v2.9l-8,14.8h-4.4L239.2,107.7z"/>
		<path fill="#6F6F63" d="M259.8,108.2l-3.1,0.8l-0.8-3.2l5.1-1.5h2.7v17.9h-3.9V108.2z"/>
	</g>
	<g>
		<path fill="#393933" d="M87.7,276.2l0.7-0.8c1,0.9,1.9,1.3,3.2,1.3c1.3,0,2.1-0.7,2.1-1.6v0c0-0.9-0.5-1.4-2.4-1.8
			c-2.1-0.5-3.1-1.2-3.1-2.7v0c0-1.5,1.3-2.5,3.1-2.5c1.4,0,2.3,0.4,3.3,1.1l-0.6,0.8c-0.9-0.7-1.7-1-2.7-1c-1.2,0-2,0.7-2,1.5v0
			c0,0.9,0.5,1.4,2.5,1.8c2.1,0.5,3,1.2,3,2.6v0c0,1.6-1.3,2.6-3.2,2.6C90,277.7,88.8,277.2,87.7,276.2z"/>
		<path fill="#393933" d="M104.4,269.2h-3.1v-1h7.3v1h-3.1v8.4h-1.1V269.2z"/>
		<path fill="#393933" d="M118.2,268.2h1l4.2,9.4h-1.1l-1.1-2.5h-5.1l-1.1,2.5h-1.1L118.2,268.2z M120.8,274.2l-2.1-4.8l-2.1,4.8
			H120.8z"/>
		<path fill="#393933" d="M131.8,269.2h-3.1v-1h7.3v1h-3.1v8.4h-1.1V269.2z"/>
		<path fill="#393933" d="M143.3,268.2h6.7v1h-5.7v3.2h5.1v1h-5.1v3.3h5.8v1h-6.8V268.2z"/>
		<path fill="#393933" d="M166.5,272.9L166.5,272.9c0-2.6,1.9-4.8,4.8-4.8s4.7,2.2,4.7,4.8v0c0,2.6-1.9,4.8-4.8,4.8
			S166.5,275.5,166.5,272.9z M174.9,272.9L174.9,272.9c0-2.1-1.5-3.9-3.7-3.9s-3.6,1.7-3.6,3.8v0c0,2.1,1.5,3.8,3.7,3.8
			S174.9,275.1,174.9,272.9z"/>
		<path fill="#393933" d="M183.5,268.2h6.7v1h-5.6v3.3h5v1h-5v4.1h-1.1V268.2z"/>
		<path fill="#393933" d="M206.9,268.2h1.1l3.4,5.1l3.4-5.1h1.1v9.3h-1.1V270l-3.4,5h-0.1l-3.4-5v7.5h-1V268.2z"/>
		<path fill="#393933" d="M223.9,268.2h1.1v9.3h-1.1V268.2z"/>
		<path fill="#393933" d="M232.6,272.9L232.6,272.9c0-2.7,2-4.8,4.7-4.8c1.7,0,2.7,0.6,3.6,1.5l-0.7,0.8c-0.8-0.7-1.7-1.3-2.9-1.3
			c-2.1,0-3.6,1.7-3.6,3.8v0c0,2.2,1.6,3.8,3.6,3.8c1.3,0,2.1-0.5,3-1.3l0.7,0.7c-1,1-2,1.6-3.7,1.6
			C234.6,277.7,232.6,275.6,232.6,272.9z"/>
		<path fill="#393933" d="M248.1,268.2h1.1v4.1h5.4v-4.1h1.1v9.3h-1.1v-4.2h-5.4v4.2h-1.1V268.2z"/>
		<path fill="#393933" d="M263.7,268.2h1.1v9.3h-1.1V268.2z"/>
		<path fill="#393933" d="M272.4,272.9L272.4,272.9c0-2.6,1.9-4.8,4.7-4.8c1.6,0,2.5,0.5,3.5,1.2l-0.7,0.8c-0.7-0.6-1.5-1.1-2.8-1.1
			c-2.1,0-3.5,1.7-3.5,3.8v0c0,2.2,1.4,3.9,3.7,3.9c1.1,0,2.1-0.4,2.7-0.9v-2.3H277v-0.9h3.8v3.7c-0.9,0.8-2.2,1.4-3.7,1.4
			C274.2,277.7,272.4,275.6,272.4,272.9z"/>
		<path fill="#393933" d="M292,268.2h1l4.2,9.4h-1.1l-1.1-2.5h-5.1l-1.1,2.5h-1.1L292,268.2z M294.6,274.2l-2.1-4.8l-2.1,4.8H294.6z
			"/>
		<path fill="#393933" d="M304.4,268.2h1l5.9,7.5v-7.5h1v9.3h-0.8l-6-7.6v7.6h-1V268.2z"/>
	</g>
	<g>
		<rect x="174" y="314.9" fill="#6F6F63" width="16.7" height="34.3"/>
		<rect x="190.6" y="314.9" fill="#EFEFE9" width="16.7" height="34.3"/>
		<rect x="207.3" y="314.9" fill="#D1D0C9" width="16.7" height="34.3"/>
	</g>
</g>
<g id="Layer_2" display="none">
	<path display="inline" fill="none" stroke="#6F6F63" stroke-miterlimit="10" d="M1798.8,533c0,0,7.8-5,11.8-6.5s9-6.2,6.5-7.5
		s-6-4.8-7.8-4.2c0,0-2.2-3.8-6.5-4.5s-27.5-13.5-38.5-16.2s-48-23.5-70.5-32s-49-13.2-49-13.2s-6.5-11-12.2-17.8c0,0-0.5,3-3.5,3
		c0,0-4.8-9.8-11.8-17c0,0,1.5,7.5-2,8.2c0,0-4.2-7-9.5-11c0,0,3.2,10.5-6,8.5c0,0-3-3.2-5.8-4.2c0,0,2,11.2-8,8.2c0,0-3-2.5-5-3.5
		c0,0,5.2,11.5-6,8.8c0,0-2-1.2-4.2-2.2c0,0,4.8,10.2-9.5,6.2c0,0,1.8,5-5.2,5c0,0-2.2-1.5-4.2-2.2c0,0,3.2,5.2-5,4.2
		c0,0-1.5-0.8-3-1.2c0,0,2.5,4.2-2.5,2.8s-14.2-10-19.8-11.5c0,0,1.5,5.5-6-2s-55-27-80.5-18.8c0,0-6.2,1-8.5,4c0,0-5.2,0.5-7.2,4.2
		s-10.8,13-12.5,17.5s-10.2,28.5,1.5,31.8s18.2,4.5,24.8,1.9c2.1-0.6,6.8,2.6,2.8,3.6s-43.5,9.8-67.2,4.2
		c-4.8-2-18.8-14.8-26.5-16.8s-22.8-14.8-37.8-20s-18.2-11.5-40.5-9.2s-1,49.2,4.8,58.5s1.5,18-9,31.2s-18.8,36-8.5,38
		s42.2,5.5,53-2s35.2-12,45-14.8s26.8-9.5,39.2-6.8s30.8,4,34.8,8.2c0,0-27-2.8-30.2,6.5s6.8,46,36,49.8s31.5-1.8,34.2-1.8
		c0,0,0.8,2.1-1,3.1c0,0,14-6.1,19.5-10.3s12.2-2.2,6.2,0.8c0,0,11.8-6.8,14.8-7.5c0,0,2.8,2.5,9.5-3.5c0,0,22.5,5,31.2,8.5
		s25-0.2,36-0.5s50.8,0,42.5,4.2s-25,6.2-23.8,17c0,0-4.5,2.5-2.2,7.8c0,0-3.8,3.2-1,8c0,0-4,3-1.5,6s10.8,1.8,14.5,0
		s13.2-6.2,16.8-7.8s3.2,2.2,7.8,3.5s7-4.5,11.8-8.5s15.8-20.8,18-24c0,0,26.5,0,38.2-3.5s33.8-5,36.5-9.2c0,0,19-4.5,24.8-7.5
		s28-7.5,44.5-24.2c11.5-8.2,15.5-9.2,17-22c-0.4-6.9-3.8-5.2-6-3.8s-12.5,5-14.2,6.2S1798.8,533,1798.8,533z"/>
</g>
</svg>
