<?xml version="1.0" encoding="utf-8"?>
<!-- Generator: Adobe Illustrator 17.1.0, SVG Export Plug-In . SVG Version: 6.00 Build 0)  -->
<!DOCTYPE svg PUBLIC "-//W3C//DTD SVG 1.1//EN" "http://www.w3.org/Graphics/SVG/1.1/DTD/svg11.dtd">
<svg version="1.1" xmlns="http://www.w3.org/2000/svg" xmlns:xlink="http://www.w3.org/1999/xlink" x="0px" y="0px"
	 viewBox="0 0 400 400" enable-background="new 0 0 400 400" xml:space="preserve">
<g id="Layer_1">
	<path fill="#393933" d="M200,8c25.9,0,51.1,5.1,74.7,15.1c22.9,9.7,43.4,23.5,61,41.2c17.6,17.6,31.5,38.2,41.2,61
		c10,23.7,15.1,48.8,15.1,74.7s-5.1,51.1-15.1,74.7c-9.7,22.9-23.5,43.4-41.2,61c-17.6,17.6-38.2,31.5-61,41.2
		c-23.7,10-48.8,15.1-74.7,15.1s-51.1-5.1-74.7-15.1c-22.9-9.7-43.4-23.5-61-41.2c-17.6-17.6-31.5-38.2-41.2-61
		C13.1,251.1,8,225.9,8,200s5.1-51.1,15.1-74.7c9.7-22.9,23.5-43.4,41.2-61c17.6-17.6,38.2-31.5,61-41.2C148.9,13.1,174.1,8,200,8
		 M200,0C89.5,0,0,89.5,0,200s89.5,200,200,200s200-89.5,200-200S310.5,0,200,0L200,0z"/>
	<g>
		<path fill="#6F6F63" d="M40.2,236.8l-5.7,1l-0.2-1.2c0.6-0.3,1-0.6,1.3-0.9c-1.5-1-2.4-2.6-2.8-4.6c-0.4-2.4,0-4.4,1.3-6.1
			c1.3-1.7,3-2.7,5.1-3.1c2.1-0.4,4.1,0,5.9,1.1s3,2.9,3.5,5.3c0.3,1.8,0,3.5-1,5c0.4,0.1,0.9,0.2,1.4,0.2l0.2,1.2l-5.6,1.2
			l-0.2-1.2c1.5-0.6,2.5-1.5,3.1-2.4c0.6-1,0.8-2,0.6-3.2c-0.2-1.3-0.9-2.2-2.1-2.7c-1.2-0.5-2.8-0.5-5-0.1c-1.5,0.3-2.7,0.6-3.6,1
			c-0.9,0.4-1.5,1-1.8,1.8c-0.4,0.8-0.5,1.6-0.3,2.4c0.2,1.1,0.8,2,1.7,2.7c0.9,0.7,2.2,1.1,3.9,1.2L40.2,236.8z"/>
		<path fill="#6F6F63" d="M50.9,270.3l-4.8,1.9l-5.4-13l1.2-0.5l0.1,0.2c0.3,0.7,0.6,1.1,1,1.2s0.8,0,1.5-0.2l8.4-3.5
			c0.7-0.3,1.1-0.6,1.2-0.9c0.2-0.3,0.1-0.8-0.2-1.5l-0.1-0.2l1.2-0.5l3.2,7.6l-1.2,0.5l-0.1-0.3c-0.3-0.7-0.6-1.1-1-1.2
			c-0.4-0.1-0.8,0-1.5,0.2l-8.1,3.4c-0.6,0.3-1,0.5-1.2,0.6c-0.2,0.2-0.3,0.4-0.3,0.8c0,0.4,0.1,0.9,0.4,1.6c0.5,1.2,1.2,2,2.1,2.4
			c0.9,0.4,1.9,0.4,3.1,0.2L50.9,270.3z"/>
		<path fill="#6F6F63" d="M68.1,282.7l1.1-0.7l4.5,6.8l-1.1,0.7l-0.1-0.2c-0.4-0.6-0.8-1-1.2-1c-0.4,0-0.8,0.1-1.4,0.5l-7.6,5.1
			c-0.6,0.4-0.9,0.8-1,1.1c-0.1,0.4,0.1,0.8,0.5,1.5l0.1,0.2l-1.1,0.7l-4.5-6.8l1.1-0.7c0.5,0.7,0.9,1.1,1.2,1.2
			c0.4,0.1,0.9-0.1,1.5-0.5l7.6-5.1c0.6-0.4,1-0.8,1-1.1C68.8,283.9,68.6,283.4,68.1,282.7z"/>
		<path fill="#6F6F63" d="M84.5,308.9l-5,5c-0.8,0.8-1.2,1.5-1.1,2c0.1,0.5,0.3,1,0.8,1.5l-0.9,0.9l-4.1-4.1l0.9-0.9
			c0.4,0.3,0.7,0.6,1.2,0.7s0.8,0.1,1.1-0.1c0.3-0.2,0.7-0.5,1.2-0.9l5.5-5.6c1.1-1.1,1.1-2.2,0.1-3.2l0.9-0.9l3.7,3.7L88,319.5l4-4
			c1.2-1.2,1.3-2.3,0.3-3.3l0.9-0.9l3.9,3.9l-0.9,0.9c-0.3-0.3-0.6-0.5-1-0.5c-0.4-0.1-0.7-0.1-1.1,0.1c-0.3,0.1-0.7,0.4-1.1,0.9
			l-8.3,8.4l-1-1L84.5,308.9z"/>
		<path fill="#6F6F63" d="M115.4,330.7l-1.1-0.7c-0.7-0.4-1.2-0.6-1.6-0.7s-0.8,0.1-1.3,0.4c-0.5,0.3-0.9,0.7-1.3,1.3l-1.1-0.7
			l2.3-3.7l13.1,8.2l-2.3,3.7l-1.1-0.7c0.4-1.1,0.6-2,0.4-2.6c-0.2-0.6-0.6-1.1-1.5-1.6l-1.1-0.7l-5.8,9.2c-0.4,0.6-0.5,1.1-0.5,1.4
			s0.4,0.7,1.1,1.2l0.3,0.2l-0.7,1.1l-7.2-4.5l0.7-1.1l0.3,0.2c0.7,0.4,1.2,0.6,1.5,0.4c0.3-0.1,0.7-0.5,1.1-1.1L115.4,330.7z"/>
		<path fill="#6F6F63" d="M137.9,349.9c0.5-1.3,1.3-2.5,2.4-3.4c1.2-1,2.5-1.6,3.9-1.7c1.5-0.2,2.9,0,4.3,0.5
			c2.6,0.9,4.3,2.4,5.2,4.3c0.9,2,1,4.1,0.3,6.2c-0.7,2-2.1,3.5-4,4.5s-4.2,1-6.7,0.1c-1.7-0.6-3.1-1.5-4.1-2.7s-1.6-2.5-1.8-3.9
			C137.3,352.4,137.5,351.1,137.9,349.9z M142.4,351.3c-0.8,2.2-1.1,4-0.8,5.2c0.3,1.2,1,2,2.2,2.4c1.2,0.4,2.3,0.3,3.3-0.4
			c0.9-0.7,1.8-2.2,2.6-4.4c0.7-2.1,1-3.7,0.8-5c-0.2-1.2-1-2.1-2.3-2.5c-1.2-0.4-2.3-0.3-3.2,0.5
			C144,347.9,143.2,349.3,142.4,351.3z"/>
		<path fill="#6F6F63" d="M177.9,357.2l-0.8,7c-0.1,1.1,0,1.9,0.4,2.2c0.4,0.4,0.9,0.6,1.5,0.7l-0.1,1.3l-5.8-0.6l0.1-1.3
			c0.5,0.1,0.9,0,1.3-0.2c0.4-0.2,0.6-0.4,0.8-0.8c0.1-0.3,0.2-0.8,0.3-1.5l0.8-7.8c0.2-1.6-0.5-2.4-1.9-2.6l0.1-1.3l5.2,0.6
			l7.4,10.3l0.6-5.6c0.2-1.7-0.4-2.6-1.8-2.7l0.1-1.3l5.5,0.6l-0.1,1.3c-0.4,0-0.8,0-1.1,0.2c-0.4,0.2-0.6,0.4-0.8,0.7
			s-0.3,0.8-0.3,1.4l-1.3,11.8l-1.4-0.2L177.9,357.2z"/>
		<path fill="#6F6F63" d="M250.3,356.1l1.5,5.6l-1.2,0.3c-0.3-0.6-0.6-1-1-1.3c-0.9,1.6-2.4,2.7-4.4,3.2c-2.3,0.6-4.4,0.4-6.2-0.7
			c-1.8-1.1-3-2.7-3.5-4.8c-0.6-2-0.4-4,0.6-6c0.9-2,2.6-3.3,5-3.9c1.8-0.5,3.5-0.3,5.1,0.5c0.1-0.4,0.1-0.9,0.1-1.5l1.2-0.3
			l1.7,5.5l-1.2,0.3c-0.8-1.4-1.7-2.4-2.7-2.9s-2.1-0.7-3.2-0.4c-1.3,0.4-2.1,1.1-2.5,2.3c-0.4,1.2-0.3,2.9,0.3,5
			c0.4,1.5,0.9,2.7,1.3,3.5s1.1,1.4,1.9,1.7c0.8,0.3,1.6,0.3,2.5,0.1c1.1-0.3,1.9-0.9,2.6-1.9c0.6-1,0.9-2.3,0.9-3.9L250.3,356.1z"
			/>
		<path fill="#6F6F63" d="M269.6,346.5c-0.7-1.2-1-2.6-0.9-4.1c0.1-1.5,0.5-2.9,1.4-4.1c0.9-1.2,2-2.1,3.3-2.9
			c2.4-1.3,4.6-1.6,6.7-1c2.1,0.6,3.7,2,4.8,4c1,1.9,1.2,3.9,0.6,6c-0.6,2.1-2.1,3.8-4.4,5c-1.6,0.9-3.2,1.3-4.8,1.3
			c-1.6,0-3-0.4-4.1-1.3S270.2,347.7,269.6,346.5z M273.7,344.2c1.1,2.1,2.2,3.4,3.3,4.1c1.1,0.6,2.1,0.6,3.3,0
			c1.2-0.6,1.8-1.5,1.9-2.7c0.1-1.2-0.4-2.8-1.5-4.9c-1-1.9-2.1-3.2-3.2-3.9s-2.2-0.7-3.4,0c-1.1,0.6-1.7,1.5-1.8,2.7
			C272.2,340.7,272.7,342.2,273.7,344.2z"/>
		<path fill="#6F6F63" d="M297,322l-0.8-0.9l6.1-5.4l0.8,0.9l-0.2,0.2c-0.6,0.5-0.8,0.9-0.8,1.3c0,0.4,0.3,0.8,0.7,1.3l4.1,4.5
			c0.7,0.8,1.4,1.4,1.9,1.8s1.2,0.5,2,0.4c0.8-0.1,1.5-0.4,2.1-1c0.7-0.6,1.1-1.3,1.3-2.1c0.2-0.8,0.1-1.5-0.2-2.2s-0.9-1.4-1.7-2.3
			l-3.5-3.9c-1-1.2-2.1-1.3-3.3-0.2l-0.8-0.9l4.3-3.8l0.8,0.9c-0.2,0.2-0.4,0.5-0.6,0.9c-0.1,0.4-0.2,0.7,0,1.1
			c0.1,0.3,0.4,0.7,0.8,1.2l3.4,3.8c0.7,0.8,1.3,1.5,1.6,2.2s0.6,1.3,0.6,2.2c0,0.8-0.2,1.7-0.6,2.6c-0.4,0.9-1.1,1.8-1.9,2.5
			c-0.9,0.8-1.8,1.4-2.8,1.7s-1.8,0.4-2.6,0.3c-0.8-0.1-1.5-0.4-2.1-0.8c-0.6-0.4-1.2-1-1.9-1.7l-4.1-4.5c-0.5-0.5-0.9-0.8-1.3-0.9
			C298.1,321.1,297.6,321.4,297,322z"/>
		<path fill="#6F6F63" d="M326.6,295.8l5.8,4.1c0.9,0.7,1.6,0.9,2.1,0.8c0.5-0.1,0.9-0.5,1.3-1l1,0.7l-3.4,4.7l-1-0.7
			c0.3-0.4,0.4-0.8,0.5-1.3c0-0.4-0.1-0.8-0.3-1c-0.2-0.3-0.6-0.6-1.1-1l-6.4-4.6c-1.3-0.9-2.3-0.8-3.2,0.4l-1-0.7l3-4.2l12.6-1.4
			l-4.6-3.3c-1.4-1-2.5-0.9-3.3,0.3l-1-0.7l3.2-4.5l1,0.7c-0.2,0.3-0.3,0.7-0.4,1.1c0,0.4,0.1,0.7,0.3,1s0.6,0.6,1.1,1l9.7,6.9
			l-0.8,1.2L326.6,295.8z"/>
		<path fill="#6F6F63" d="M343,261.7l-0.5,1.2c-0.3,0.7-0.4,1.3-0.4,1.7c0,0.4,0.2,0.8,0.6,1.2c0.4,0.4,0.9,0.8,1.5,1.1l-0.5,1.2
			l-4.1-1.7l5.9-14.3l4.1,1.7L349,255c-1.2-0.2-2.1-0.2-2.6,0s-1,0.8-1.4,1.7l-0.5,1.2l10.1,4.2c0.7,0.3,1.2,0.4,1.5,0.2
			s0.7-0.5,1-1.2l0.2-0.4l1.2,0.5l-3.3,7.9l-1.2-0.5l0.1-0.3c0.3-0.7,0.4-1.2,0.2-1.6s-0.6-0.6-1.2-0.9L343,261.7z"/>
		<path fill="#6F6F63" d="M360.5,230.9l-6.3,2.4c-1,0.4-1.6,0.7-1.9,1s-0.5,0.6-0.5,1.1l-1.2-0.2l1.4-7.6l1.2,0.2
			c-0.1,0.8,0,1.3,0.4,1.3c0.2,0,0.7,0,1.2-0.3l4.6-1.8l-3.4-3c-0.3-0.3-0.7-0.5-1-0.6c-0.7-0.1-1.1,0.3-1.3,1.3l-1.2-0.2l0.9-5.2
			l1.2,0.2c-0.1,0.5,0,1,0.3,1.4c0.3,0.4,0.9,1.1,2,2.1l4.1,3.7l3.4,0.6c0.7,0.1,1.2,0.1,1.5-0.1s0.5-0.6,0.7-1.4l0-0.2l1.2,0.2
			l-1.5,8.1l-1.2-0.2l0-0.2c0.1-0.8,0.1-1.3-0.2-1.6c-0.2-0.3-0.7-0.5-1.4-0.6L360.5,230.9z"/>
	</g>
	<path fill="#6F6F63" d="M235.1,296.8c-2.5-2.5-3.6-12-2.5-17.7c1.1-5.7,1-9.5,3.1-14.8s2.3-11.6,5.3-15.1c3-3.4,6.6-8.7,9.3-13
		c2.7-4.3-0.2-13.3-0.2-13.3c2.5-7.6,1.7-12.5,0.6-15.3c-0.2-1.2-0.4-2.4-0.4-3.6c-0.2-7.6-5.1-14.9-5.8-15.7
		c-0.7-0.9,0.1-2,0.4-2.6c0.3-0.7,2.1-2.3,4.5-3.5c2.4-1.2,2.7-6.6,3-8.3c0.3-1.6,0.1-4-3.4-2.4c-3.5,1.6-6.5,5-7.3,6.4
		c-0.8,1.4-2.4,3.1-4.1,2.4c-0.2-0.1-0.6-0.2-0.9-0.3c2.3-2.8,9.5-7.3,12.7-10.5c3.7-3.7,5.1-4.9,8.3-15.7
		c3.2-10.8-2.1-15.8-2.1-15.8c2.3,5.1,0.8,12,0.8,12c-3-9.3-9.6-10.8-9.6-10.8c8.7,7.8,9.6,16.3,6.2,22.3c-3.4,6-5.3,5.6-6.5,4.9
		c-1.2-0.7-4.5-8.6-5.5-10.9c-1-2.2-4.5-8.9-4.5-8.9c0,1.9,3.9,12.5,5,14.3c1.1,1.8-0.9,4.2-2.8,3.1c-2-1.1-5.8-1.5-7.6-1.6
		s-2.7-1.5-2.7-1.5c-0.5,2.9,3.5,2.7,5.5,3.3c2,0.7,10.3,4.2,10.8,4.6c0.5,0.3-1.6,1.4-2.8,2.6c-1.2,1.2-3.6,2.9-4.2,2.6
		c-0.6-0.3-2.3-6.1-1.7-1.5c0.5,4.6-0.8,4.5-2,5.4c-0.7,0.5-1.8,0.9-2.6,1.1c-0.9-0.1-1.6-0.2-1.6-0.2c0,0-0.1,0-0.1,0
		c-0.1-0.9-0.4-2.6-1.9-3.6c-0.6-0.6-0.9-4.2-0.9-4.2s-0.8,1.8-0.5,3.3c0.1,0.5-1.1,0.7-0.4-3.8c0.7-4.5,0.7-6.4,0.9-8.8
		c0.3-2.4,7.1-8,6.5-16c0,0-3,11-7.2,12.5c-4.2,1.5-8-13.8-8-13.8s-1.5,7.8,5.5,16c0.7,0.8-0.1,12.7-1.2,13
		c-1.1,0.3-6.5,1.7-9.9-5.1c-3.5-6.8-5.8-10-5-18c0,0-3.4,6.8-0.1,13.4c3.3,6.5,4.8,8.7,3.2,8.6c-1.6-0.1-7.7-0.6-9.7-8.3
		c0,0-2.9,8.9,13.4,11.8c-0.3,1.6,1.8,6.1,2.4,7.4c0.8,1.6,4.8,3.1,4.8,3.1c-0.7,0.5-4.8,5.4-6.4,5.9c-1.6,0.4-2.5,3.1-2.5,4.8
		c0,1.6,1.5,2.7,1.5,2.7c0.2,0.7,0.5,1.4,5.5,0.7c5-0.7,6.5,1.2,6.5,1.2c-0.2,1.9,0,3.8,0.3,5.7c-1.7,1-3.6,1.8-4.7,2.2
		c-2,0.8-3.1,1.6-5.3,2.1c-2.2,0.5-25.3-1-30.7-1.3c-5.4-0.2-3.7,0.7-8.5,0.9c-4.8,0.2-12.9,3.7-16.5,7.2c-3.7,3.5-2.5,7.8-2.5,7.8
		c-1,2.6-0.9,14.8-0.5,19c0.4,4.2-10.8,14.8-12.7,14.9c-1.9,0.1-2.5,8.5-5.5,13.4s-3.4,7-7.3,17c-3.8,10,0.5,8.6,2.7,8.6
		c2.2,0,1.1-4,1.9-5.8c6.6-18.8,12.6-24.3,18.5-28.5c6-4.2,6.8-6.7,10.6-8.4c3.8-1.7,9-6.1,9-6.1c1.1,4.2-10,13.7-9.7,15.5
		c0.3,1.8,4.6,9,4.8,10.9s3.7,5.6,3.3,6.2c-1,1.9,1,4.2,3.1,6.5c2,2.3,3.8,6.5,3.8,6.5c1.5,0.1,0.8,2,0.8,2c3.7,1.2,6.9,0.1,6.9,0.1
		c-0.1-1.7-1.4-2.1-1.4-2.1s-1.2-1.5-6.7-11.5c-5.5-10-4.5-15.8-2.1-18.2c2.5-2.4,16.2-15.6,16.9-16.2c0.7-0.6,8.9,2.2,12.3,3.4
		c3.3,1.3,9.9,0.1,9.9,0.1c1.5,7.9,5.1,13.1,5,16.8c-0.4,6.1,0.5,7.7,0.7,9.6c0.3,5-1.4,17.5-1.4,17.5s-1.5,3.1,0.5,2.5
		s4.4-0.7,5.4-0.7c0.9,0.1,0.8-0.7,0.6-1.5c0,0,1,1,4,0.9C234.5,298.5,236.8,298.3,235.1,296.8z M223.1,176.9
		c2.3,0.3,3.7,0.8,4.3,2.6c-0.4,0.2-0.7,0.4-0.7,0.4C225.6,178.5,224.3,177.5,223.1,176.9z M228.6,274.9c-0.2,3.7-1.5,19.6-1.5,19.6
		c-0.4-2-1-14.8,0-18.4s0.2-9.2-0.1-10.8s-0.7-13.3-0.7-13.3c2.2-0.6,4.5,0,4.5,0C229.6,253.4,228.7,271.1,228.6,274.9z"/>
	<g>
		<g>
			<g>
				<path fill="#6F6F63" d="M129.7,98.8c-0.1,0,2.9-8.5,6.7-8.5C136.4,90.3,133.5,98.5,129.7,98.8z"/>
			</g>
			<g>
				<path fill="#6F6F63" d="M131.6,90.3c0,0,2.4-6.1,5.2-6C136.8,84.3,134.4,90.2,131.6,90.3z"/>
			</g>
			<g>
				<path fill="#6F6F63" d="M128.3,107.3c-0.1,0,3.1-9.8,7.4-9.4C135.6,97.9,132.5,107.2,128.3,107.3z"/>
			</g>
			<g>
				<path fill="#6F6F63" d="M127.1,117.4c-0.1-0.1,3.9-12.8,9.6-11.2C136.6,106.1,132.7,118.3,127.1,117.4z"/>
			</g>
			<g>
				<path fill="#6F6F63" d="M126.6,127.9c-0.2-0.1,4.3-14.1,10.8-10.8C137.2,116.9,133.1,130.4,126.6,127.9z"/>
			</g>
			<g>
				<path fill="#6F6F63" d="M126.8,140.2c-0.2-0.2,4.5-15.9,12.3-10.9C138.9,129.1,134.6,144.4,126.8,140.2z"/>
			</g>
			<g>
				<path fill="#6F6F63" d="M128.1,154c-0.3-0.2,4.2-17.6,13.5-11.5C141.4,142.3,137.6,159.3,128.1,154z"/>
			</g>
			<g>
				<path fill="#6F6F63" d="M127.6,98.4c-0.1,0,0.9-9-2.2-11C125.3,87.4,124.2,96.7,127.6,98.4z"/>
			</g>
			<g>
				<path fill="#6F6F63" d="M129.6,89.8c0,0,1-6.5-1.3-8.1C128.3,81.7,127.2,88.4,129.6,89.8z"/>
			</g>
			<g>
				<path fill="#6F6F63" d="M126.1,107c-0.1,0,0.3-10.3-3.6-11.9C122.4,95.1,121.9,105.8,126.1,107z"/>
			</g>
			<g>
				<path fill="#6F6F63" d="M125,117.2c-0.2,0-0.9-13.6-6.6-14C118.3,103.3,119,117.4,125,117.2z"/>
			</g>
			<g>
				<path fill="#6F6F63" d="M124.4,127.8c-0.2,0.1-2.8-14.8-9.5-12.8C114.7,115.1,117.5,130.6,124.4,127.8z"/>
			</g>
			<g>
				<path fill="#6F6F63" d="M124.6,140.3c-0.2,0.2-5.1-16.3-12.7-11.4C111.6,129.1,117.1,146.1,124.6,140.3z"/>
			</g>
			<g>
				<path fill="#6F6F63" d="M126,154.3c-0.2,0.3-7.7-17.3-15.7-9.4C110,145.2,118.3,163,126,154.3z"/>
			</g>
			<g>
				<path fill="#6F6F63" d="M134.8,187.6c-11.2-31.2-12.9-64.7-4.9-96.8l0.7,0.2c-8,32-6.3,65.3,4.9,96.4L134.8,187.6z"/>
			</g>
			<g>
				<path fill="#6F6F63" d="M135.1,74.9c0,0-0.6,7.5-4.3,13.9C130.8,88.9,130.7,81.1,135.1,74.9z"/>
			</g>
		</g>
		<g>
			<g>
				<path fill="#6F6F63" d="M159,128.5c0,0,2.8-4.9,5.3-4.3C164.2,124.1,161.4,128.8,159,128.5z"/>
			</g>
			<g>
				<path fill="#6F6F63" d="M161.1,123.5c0,0,2.2-3.4,4-3C165.1,120.5,162.9,123.8,161.1,123.5z"/>
			</g>
			<g>
				<path fill="#6F6F63" d="M157.1,133.6c0,0,3.1-5.7,5.8-4.9C162.9,128.7,159.9,134.1,157.1,133.6z"/>
			</g>
			<g>
				<path fill="#6F6F63" d="M155.2,139.8c-0.1-0.1,4-7.5,7.5-5.8C162.6,134,158.7,141.2,155.2,139.8z"/>
			</g>
			<g>
				<path fill="#6F6F63" d="M153.7,146.4c-0.1-0.1,4.4-8.4,8.3-5.4C161.8,140.9,157.6,149,153.7,146.4z"/>
			</g>
			<g>
				<path fill="#6F6F63" d="M152.4,154.4c-0.1-0.2,4.7-9.6,9.2-5.4C161.5,148.8,157,158.2,152.4,154.4z"/>
			</g>
			<g>
				<path fill="#6F6F63" d="M151.7,163.6c-0.1-0.2,4.8-10.9,10.1-5.7C161.6,157.6,157.3,168.4,151.7,163.6z"/>
			</g>
			<g>
				<path fill="#6F6F63" d="M157.7,127.9c0,0,1.6-5.5-0.2-7.2C157.4,120.7,155.7,126.3,157.7,127.9z"/>
			</g>
			<g>
				<path fill="#6F6F63" d="M159.9,122.8c0,0,1.3-3.9,0.1-5.2C159.9,117.6,158.5,121.6,159.9,122.8z"/>
			</g>
			<g>
				<path fill="#6F6F63" d="M155.8,133.1c-0.1,0,1.3-6.4-1-8C154.7,125.1,153.2,131.7,155.8,133.1z"/>
			</g>
			<g>
				<path fill="#6F6F63" d="M153.9,139.4c-0.1,0,0.9-8.7-2.6-9.9C151.1,129.5,150,138.7,153.9,139.4z"/>
			</g>
			<g>
				<path fill="#6F6F63" d="M152.3,146.1c-0.1,0-0.1-9.8-4.7-9.6C147.5,136.5,147.5,146.9,152.3,146.1z"/>
			</g>
			<g>
				<path fill="#6F6F63" d="M151,154.2c-0.2,0.1-1.4-11.2-6.9-9.3C143.9,144.9,145.4,156.7,151,154.2z"/>
			</g>
			<g>
				<path fill="#6F6F63" d="M150.2,163.4c-0.2,0.1-3-12.4-9.2-8.6C140.9,154.9,144.2,168,150.2,163.4z"/>
			</g>
			<g>
				<path fill="#6F6F63" d="M152.2,186.8c-4-21.8-1.3-43.7,7.7-63.4l0.7,0.3c-8.9,19.5-11.5,41.2-7.6,62.9L152.2,186.8z"/>
			</g>
			<g>
				<path fill="#6F6F63" d="M165,114.4c0,0-1.1,4.5-4.2,8C160.7,122.4,161.5,117.6,165,114.4z"/>
			</g>
		</g>
		<g>
			<g>
				<path fill="#6F6F63" d="M95.9,135.2c-0.1,0,0.4-6.4,3-7.4C98.8,127.9,98.2,134.1,95.9,135.2z"/>
			</g>
			<g>
				<path fill="#6F6F63" d="M95.7,129c0,0,0.6-4.7,2.4-5.4C98.1,123.7,97.4,128.3,95.7,129z"/>
			</g>
			<g>
				<path fill="#6F6F63" d="M96.4,141.2c-0.1,0,0.3-7.2,3.2-8C99.5,133.2,99.1,140.1,96.4,141.2z"/>
			</g>
			<g>
				<path fill="#6F6F63" d="M97.4,148.1c-0.1,0,0.3-9.4,4.2-9.6C101.5,138.5,101.1,147.5,97.4,148.1z"/>
			</g>
			<g>
				<path fill="#6F6F63" d="M98.9,155.1c-0.1,0,0.2-10.2,5-9.4C103.8,145.6,103.4,155.3,98.9,155.1z"/>
			</g>
			<g>
				<path fill="#6F6F63" d="M101.2,162.9c-0.2,0,0-11.3,5.9-9.6C106.9,153.4,106.9,163.9,101.2,162.9z"/>
			</g>
			<g>
				<path fill="#6F6F63" d="M104.5,171.4c-0.2,0-0.5-12.1,6.5-9.9C110.8,161.4,111.3,172.7,104.5,171.4z"/>
			</g>
			<g>
				<path fill="#6F6F63" d="M94.4,135.4c-0.1,0-0.9-6.2-3.3-6.7C91.1,128.8,91.9,135.2,94.4,135.4z"/>
			</g>
			<g>
				<path fill="#6F6F63" d="M94.3,129.2c0,0-0.4-4.6-2.2-5C92.1,124.2,92.5,128.9,94.3,129.2z"/>
			</g>
			<g>
				<path fill="#6F6F63" d="M95,141.5c-0.1,0-1.6-6.9-4.4-6.9C90.5,134.6,92,141.7,95,141.5z"/>
			</g>
			<g>
				<path fill="#6F6F63" d="M96,148.5c-0.1,0.1-3-8.7-6.6-7.5C89.3,141.1,92.3,150.1,96,148.5z"/>
			</g>
			<g>
				<path fill="#6F6F63" d="M97.5,155.5c-0.1,0.1-4.4-9-8.3-5.9C89.1,149.7,93.7,158.9,97.5,155.5z"/>
			</g>
			<g>
				<path fill="#6F6F63" d="M99.9,163.5c-0.1,0.2-6.1-9.3-10-4.1C89.7,159.6,96.2,168.9,99.9,163.5z"/>
			</g>
			<g>
				<path fill="#6F6F63" d="M103.2,172c-0.1,0.3-7.9-9.2-11.4-2.1C91.7,170.2,100,179.2,103.2,172z"/>
			</g>
			<g>
				<path fill="#6F6F63" d="M114.2,190.6c-12.6-17-19.6-38.6-19.7-60.8l0.8,0c0.1,22,7.1,43.5,19.6,60.3L114.2,190.6z"/>
			</g>
			<g>
				<path fill="#6F6F63" d="M95.5,117.8c0,0,0.8,5.2-0.6,10.5C94.9,128.3,93.5,123.2,95.5,117.8z"/>
			</g>
		</g>
	</g>
	<polygon fill="#D1D0C9" points="214.4,84.7 228.1,74.8 211.1,74.8 205.8,58.7 200.6,74.8 183.5,74.8 197.4,84.8 192.3,100.6 
		205.9,90.8 219.6,100.6 	"/>
	<g>
		<polygon fill="#D1D0C9" points="107.2,238.7 121,228.8 104,228.8 98.7,212.7 93.5,228.8 76.4,228.8 90.3,238.8 85.2,254.6 
			98.7,244.8 112.4,254.6 		"/>
		<polygon fill="#D1D0C9" points="309.9,238.7 323.6,228.8 306.6,228.8 301.3,212.7 296.1,228.8 279,228.8 292.9,238.8 287.8,254.6 
			301.4,244.8 315.1,254.6 		"/>
	</g>
	<g>
		<polygon fill="#D1D0C9" points="300.6,137.1 314.4,127.2 297.4,127.2 292.1,111.1 286.9,127.2 269.8,127.2 283.7,137.2 278.6,153 
			292.2,143.2 305.8,153 		"/>
	</g>
	<g>
		<g>
			<path fill="#D1D0C9" d="M35.6,199h-3.1c0-22.6,4.4-44.6,13.2-65.2c8.4-20,20.5-37.9,35.9-53.3c15.4-15.4,33.3-27.5,53.3-35.9
				c20.7-8.7,42.6-13.2,65.2-13.2v3.1c-22.2,0-43.7,4.3-64,12.9c-19.6,8.3-37.2,20.1-52.3,35.2c-15.1,15.1-27,32.7-35.2,52.3
				C39.9,155.3,35.6,176.8,35.6,199z"/>
		</g>
		<g>
			<path fill="#D1D0C9" d="M367.6,199h-3.1c0-22.2-4.3-43.7-12.9-64c-8.3-19.6-20.1-37.2-35.2-52.3c-15.1-15.1-32.7-27-52.3-35.2
				c-20.3-8.6-41.8-12.9-64-12.9v-3.1c22.6,0,44.6,4.4,65.2,13.2c20,8.4,37.9,20.5,53.3,35.9c15.4,15.4,27.5,33.3,35.9,53.3
				C363.1,154.4,367.6,176.4,367.6,199z"/>
		</g>
	</g>
</g>
<g id="Layer_2" display="none">
</g>
</svg>
