<?xml version="1.0" encoding="utf-8"?>
<!-- Generator: Adobe Illustrator 17.1.0, SVG Export Plug-In . SVG Version: 6.00 Build 0)  -->
<!DOCTYPE svg PUBLIC "-//W3C//DTD SVG 1.1//EN" "http://www.w3.org/Graphics/SVG/1.1/DTD/svg11.dtd">
<svg version="1.1" xmlns="http://www.w3.org/2000/svg" xmlns:xlink="http://www.w3.org/1999/xlink" x="0px" y="0px"
	 viewBox="0 0 400 400" enable-background="new 0 0 400 400" xml:space="preserve">
<g id="Layer_1">
	<path fill="#393933" d="M200,8c25.9,0,51.1,5.1,74.7,15.1c22.9,9.7,43.4,23.5,61,41.2c17.6,17.6,31.5,38.2,41.2,61
		c10,23.7,15.1,48.8,15.1,74.7s-5.1,51.1-15.1,74.7c-9.7,22.9-23.5,43.4-41.2,61c-17.6,17.6-38.2,31.5-61,41.2
		c-23.7,10-48.8,15.1-74.7,15.1s-51.1-5.1-74.7-15.1c-22.9-9.7-43.4-23.5-61-41.2c-17.6-17.6-31.5-38.2-41.2-61
		C13.1,251.1,8,225.9,8,200s5.1-51.1,15.1-74.7c9.7-22.9,23.5-43.4,41.2-61c17.6-17.6,38.2-31.5,61-41.2C148.9,13.1,174.1,8,200,8
		 M200,0C89.5,0,0,89.5,0,200s89.5,200,200,200s200-89.5,200-200S310.5,0,200,0L200,0z"/>
	<path fill="#6F6F63" d="M200,17c24.7,0,48.7,4.8,71.2,14.4c21.8,9.2,41.4,22.4,58.2,39.2c16.8,16.8,30,36.4,39.2,58.2
		c9.5,22.6,14.4,46.5,14.4,71.2s-4.8,48.7-14.4,71.2c-9.2,21.8-22.4,41.4-39.2,58.2c-16.8,16.8-36.4,30-58.2,39.2
		c-22.6,9.5-46.5,14.4-71.2,14.4s-48.7-4.8-71.2-14.4c-21.8-9.2-41.4-22.4-58.2-39.2c-16.8-16.8-30-36.4-39.2-58.2
		C21.8,248.7,17,224.7,17,200s4.8-48.7,14.4-71.2c9.2-21.8,22.4-41.4,39.2-58.2c16.8-16.8,36.4-30,58.2-39.2
		C151.3,21.8,175.3,17,200,17"/>
	<g>
		<path fill="#D1D0C9" d="M262.2,180.5c0.7-1.2,1.4-2.5,2-3.8c-0.6,0.6-1.2,1.2-1.9,1.7c-1.4,0.9-3.2,1.2-5.2,1.9
			c0.8,0.7,1.3,1.2,1.8,1.6c1-0.6,2-1.2,3-1.8C262.1,180.2,262.1,180.3,262.2,180.5z"/>
		<path fill="#D1D0C9" d="M254.4,173.3c0,0.3-0.1,0.6-0.1,0.9c1.9,0.6,3.8,1.2,5.7,1.8c1.1-2,3.2-1.4,5.2-1.4
			c0.6-1.4,1.2-2.8,1.8-4.3c-0.5,0.4-0.9,0.8-1.5,0.9C261.8,172,258.1,172.6,254.4,173.3z"/>
		<path fill="#D1D0C9" d="M243.8,180.6c-0.5,0.8-1.1,1.4-1.8,2c0.6,0.3,1.2,0.6,1.8,0.9C243.8,182.7,243.8,181.7,243.8,180.6z"/>
		<path fill="#D1D0C9" d="M146.6,184c3.1-0.7,6.1-1.4,9.3-2.1c0,0.9-0.1,1.5-0.1,2.2c1.2,0.1,2.3,0.2,3.4,0.3
			c1.7-0.8,3.3-1.8,4.7-3.3c-0.9-0.4-1.7-0.8-2.7-1.3c-2.4,1.6-3.6,1.5-7.1-1.6c-0.9,0.7-2,1.3-3,1.9
			C149.4,181.2,147.8,182.5,146.6,184z"/>
		<path fill="#D1D0C9" d="M231.8,180.1c2.3-0.6,4.6-1.2,6.9-1.8c-0.1-0.1-0.1-0.2-0.2-0.3c-0.2-0.2,0.4-0.9,0.6-1.5
			c-0.4-0.6-1-1.3-1.6-2.1c-2,1.8-4,3.5-5.9,5.2C231.7,179.8,231.7,179.9,231.8,180.1z"/>
		<path fill="#D1D0C9" d="M135.4,176c0.6-0.5,1.2-1,1.9-1.6c-1-0.6-2.3-1.4-3.6-2.2C134.3,173.5,134.8,174.8,135.4,176z"/>
		<path fill="#D1D0C9" d="M199.2,184c-0.8-0.1-1.6-0.6-2.4-1.2c0.1,0.2,0.1,0.3,0.2,0.5c-1.1,1.2-2.3,2.4-3.4,3.5
			c0.3,0.2,0.5,0.3,0.8,0.5h8C202.7,185.4,201.8,184.4,199.2,184z"/>
		<path fill="#D1D0C9" d="M238.6,186.4c1-0.1,2.1-0.3,3.4-0.5c-0.9-0.7-1.9-1.1-3-1.6c-0.3,0.2-0.6,0.3-0.8,0.5
			c-1.2,0.7-2.4,1.6-3.4,2.5h5.6C239.8,187.2,239.1,186.9,238.6,186.4z"/>
		<path fill="#D1D0C9" d="M135.8,170c1.3-0.6,2.5-1.1,3.9-1.7c-0.9-0.8-1.6-1.3-2.3-2c-0.9-0.9-1.8-1.9-2.7-3c-0.1-0.2,0-0.9,0.2-1
			c0.6-0.2,1.7-0.5,1.9-0.3c1.8,2.2,3.4,1,5.1-0.3c-1.5-1.2-3-2.3-4.3-3.7c-0.6-0.7-0.7-1.9-1.1-2.8c0.7-0.2,1.4-0.3,2-0.5
			c0.5-0.2,1.3-0.5,1.5-0.9c0.2-0.4-0.1-1.2-0.4-1.7c-0.7-1.2-1.5-2.2-2.3-3.3c0.2-0.3,0.4-0.5,0.7-0.8c1.4,0.4,2.8,0.7,4.6,1.2
			c-0.9-1.2-1.5-2.1-2.3-2.9c-0.9-1.1-0.9-1.8,0.7-2.1c1.4-0.3,1.6-1.1,1.6-2.5c0-1,0.6-2,0.9-2.9c0.2,0.1,0.5,0.1,0.7,0.2
			c0,0.7-0.1,1.4,0,2.1c0.1,1.4-0.4,3.2,2,3.2c0.1,0,0.5,1.5,0.3,2.2c-0.4,1.1-1.1,2-1.2,3.3c0.8-0.6,1.6-1.3,2.4-1.9
			c1.9,2.5,1.8,2.8-0.4,4.5c-0.9,0.7-1.3,1.8-2,2.8c1.9,0,3.4,0,4.8,0c0.1,0.3,0.3,0.7,0.4,1c-1.6,1.7-3.2,3.3-4.8,5
			c-0.5,0.6-0.9,1.3-1.3,1.9c0.6,0.3,1.2,0.5,2.1,0.9c-0.1-0.7-0.2-1.1-0.4-2.1c1.8,1.8,3.8-2.1,5.2,0.7c-0.5,1.1-1,2.1-1.3,2.8
			c-1.7,1.1-3.3,2.1-4.9,3.2c0.9,2.1,2,2.6,3.5,1.1c1.6-1.6,2.8-0.6,4.5,0.1c-2.6,2.2-4.9,4.2-7.2,6.3c0,0.1,0.1,0.2,0.1,0.4
			c3.3-0.8,6.6-1.7,10-2.6c0,0.7-0.1,1.4-0.3,1.9c2.6-0.6,5.2-1.1,7.8-1.7c0-0.3,0-0.7,0-1c-3.1-0.8-6.2-1.7-10.1-2.8
			c1.7-1,2.6-1.5,3.6-2.1c-0.3-0.8-0.6-1.5-0.9-2.1c0.1-1,6.5-4.2,7.8-4c-0.6-1.9-1.1-3.8-1.9-6.3c0.9-1.1,2.6-2.9,3.9-4.9
			c0.8-1.2,1.6-2.9-1.2-3.2c-0.3,0-1-2-0.7-2.3c3.7-3.5,3.1-8,3.1-12.4c0-0.3,0-0.6,0.1-0.9c0-0.2,0.2-0.3,0.9-1.1
			c0,2.3-0.3,4.1,0.1,5.8c0.5,2.2,1.5,4.3,2.3,6.4c0.5,1.3,1.1,2.7,1.7,4c-0.2,0.2-0.5,0.3-0.7,0.5c-0.8-0.3-1.7-0.6-2.6-1
			c0,4.4,3,6.7,6.1,9c-0.8,1.1-1.4,2.1-2.2,3.3c2.2,1.3,4.3,2.5,6.8,4c-1.6,0.7-2.7,1.1-3.8,1.6c0,0.3,0,0.5,0.1,0.8
			c2.8,0,5.6,0,8.4,0c0.1,0.3,0.1,0.7,0.2,1c-3.7,0.6-4.4,7.1-9.9,4.1c0,0.6,0,1.1,0,1.7c-0.2,0.1-0.4,0.1-0.6,0.2
			c-0.8-1.5-1.6-3.1-2.5-4.8c-3.7,1-4.4-3.3-7-4.7c2.7,2.9-0.8,4.9-1.2,8.1c1.5-1.6,2.7-2.8,4.4-4.6c2.3,4.9,5.8,8.4,10.4,10.9
			c1.7-1.2,2.7-1.1,5.3,0.8c-1.9,2.4-3.4,1-4.9-0.5c0.5,0.8,1,1.7,2,3.2c-2.3,0.2-4.2,0.4-6,0.6c-0.1,0.3-0.2,0.5-0.3,0.8
			c3.6,1.3,7.2,2.5,10.7,3.8c-0.3-0.3-0.6-0.5-0.8-0.8c-0.6-0.7-0.7-1.9-1.1-2.8c0.7-0.2,1.4-0.3,2-0.5c0.5-0.2,1.3-0.5,1.5-0.9
			c0.2-0.4-0.1-1.2-0.4-1.7c-0.7-1.2-1.5-2.2-2.3-3.3c0.2-0.3,0.4-0.5,0.7-0.8c1.4,0.4,2.8,0.7,4.6,1.2c-0.9-1.2-1.5-2.1-2.3-2.9
			c-0.9-1.1-0.9-1.8,0.7-2.1c1.4-0.3,1.6-1.1,1.6-2.5c0-1,0.6-2,0.9-2.9c0.2,0.1,0.5,0.1,0.7,0.2c0,0.7-0.1,1.4,0,2.1
			c0.1,1.4-0.4,3.2,2,3.2c0.1,0,0.5,1.5,0.3,2.2c-0.4,1.1-1.1,2-1.2,3.3c0.8-0.6,1.6-1.3,2.4-1.9c1.9,2.5,1.8,2.8-0.4,4.5
			c-0.9,0.7-1.3,1.8-2,2.8c1.8,0,3.1,0,4.4,0c-0.5-0.4-0.9-0.8-1.4-1.1c0.2-0.3,0.3-0.5,0.5-0.8c1,0.3,2,0.6,3.2,1
			c-0.1-0.9-0.1-1.6-0.1-2.2c0.1-0.1,0.3-0.3,0.4-0.3c1.9,0.8,3.8,1.6,6.2,2.7c0.5-0.1,1.7-0.2,3.5-0.5c-0.6-0.8-1-1.5-1.6-1.8
			c-2.9-1.7-5.8-3.3-8.8-5c-0.4-0.2-0.8-0.6-1.4-1.1c2.9,0.2,5.5,0.4,8.2,0.6c-0.2-0.7-0.3-1.3-0.4-1.9c0-0.1,0.1-0.1,0.2-0.4
			c0.5,0.1,1.1,0.1,1.7,0.2c0.1-0.2,0.1-0.5,0.2-0.7c-1.8-0.6-3.5-1.3-5.3-1.9c0.2-0.5,0.5-0.9,0.5-1.3c-0.1-0.6-0.4-1.3-0.6-1.9
			c0.9-0.1,1.9-0.4,2.7-0.2c1.4,0.3,2.8,1,4.2,1.5c0.2-0.4,0.5-0.7,0.7-1.1c-2.1-2.1-4.1-4.2-6.2-6.2c0.1-0.2,0.1-0.4,0.2-0.6
			c1.8-0.1,3.6-0.2,5.7-0.4c-1.1-1.4-2-2.5-3.3-4.1c1.7-0.1,2.7-0.2,3.7-0.3c0.6-1,1.2-2.1,1.8-3.2c0.2,0.1,0.4,0.2,0.6,0.2
			c-0.1,0.9-0.2,1.8-0.3,2.6c1.3,0.4,2.5,0.7,4.4,1.3c-2,1.7-3.4,2.8-4.7,4c1.9-1,3.5-1.5,5.7,0.6c-1.9,1.8-3.8,3.7-5.8,5.6
			c2.4,0.4,5-2,7.4,0.4c-0.2,2-1.2,3.3-3.4,3.6c-0.7,0.1-1.3,0.5-1.8,0.9c-0.2,0.1,0,0.8,0.1,1.2c0,0.1,0.7,0.1,0.9-0.1
			c1-0.6,1.8-1.1,2.4-0.7c0.6-0.6,1.3-0.3,2.3,0.5c1.7-0.7,3.2-1.4,5-2.1c-1.1-1-2.1-1.7-2.9-2.6c-1.2-1.2-2.4-2.5-3.4-3.8
			c-0.2-0.2,0-1.2,0.3-1.3c0.8-0.3,2.2-0.7,2.5-0.3c2.4,2.9,4.3,1.2,6.6-0.4c-1.9-1.6-3.9-3-5.5-4.7c-0.8-0.9-0.9-2.4-1.4-3.6
			c0.9-0.2,1.8-0.4,2.6-0.7c0.7-0.3,1.7-0.6,1.9-1.1c0.2-0.6-0.2-1.5-0.6-2.1c-0.9-1.5-1.9-2.9-2.9-4.3c0.3-0.4,0.6-0.7,0.9-1.1
			c1.8,0.5,3.6,0.9,6,1.5c-1.1-1.5-2-2.7-2.9-3.8c-1.2-1.4-1.2-2.4,0.8-2.8c1.8-0.4,2.1-1.5,2-3.2c0-1.2,0.8-2.5,1.2-3.8
			c0.3,0.1,0.6,0.2,0.9,0.3c0,0.9-0.1,1.8,0,2.7c0.2,1.8-0.6,4.1,2.6,4.1c0.1,0,0.6,2,0.4,2.8c-0.5,1.4-1.4,2.6-1.6,4.3
			c1-0.8,2.1-1.7,3.1-2.5c2.4,3.2,2.3,3.6-0.5,5.8c-1.1,0.9-1.7,2.3-2.6,3.6c2.5,0,4.3,0,6.2,0c0.2,0.4,0.4,0.9,0.5,1.3
			c-2.1,2.2-4.2,4.3-6.2,6.5c-0.7,0.7-1.2,1.7-1.7,2.5c0.8,0.3,1.6,0.7,2.7,1.1c-0.2-0.9-0.3-1.5-0.5-2.7c2.3,2.3,4.9-2.7,6.7,0.9
			c-0.7,1.4-1.3,2.6-1.7,3.7c-2.2,1.4-4.3,2.8-6.3,4.1c1.2,2.7,2.6,3.3,4.5,1.5c2.1-2,3.5-0.8,5.8,0.1c-0.9,0.8-1.7,1.5-2.5,2.2
			c2.7,1.6,5.4,3.2,8.6,1.3c0.6-2.5-0.2-3.7-3-4.1c-1.6-0.2-3-1.8-4.4-2.8c0.2-0.3,0.3-0.5,0.5-0.8c1,0.3,2,0.6,3.2,1
			c-0.1-0.9-0.1-1.6-0.1-2.2c0.1-0.1,0.3-0.3,0.4-0.3c1.9,0.8,3.8,1.6,6.2,2.7c0.5-0.1,1.7-0.2,3.5-0.5c-0.6-0.8-1-1.5-1.6-1.8
			c-2.9-1.7-5.8-3.3-8.8-5c-0.4-0.2-0.8-0.6-1.4-1.1c2.9,0.2,5.5,0.4,8.2,0.6c-0.2-0.7-0.3-1.3-0.4-1.9c0-0.1,0.1-0.1,0.2-0.4
			c0.5,0.1,1.1,0.1,1.7,0.2c0.1-0.2,0.1-0.5,0.2-0.7c-1.8-0.6-3.5-1.3-5.3-1.9c0.2-0.5,0.5-0.9,0.5-1.3c-0.1-0.6-0.4-1.3-0.6-1.9
			c0.9-0.1,1.9-0.4,2.7-0.2c1.4,0.3,2.8,1,4.2,1.5c0.2-0.4,0.5-0.7,0.7-1.1c-2.1-2.1-4.1-4.2-6.2-6.2c0.1-0.2,0.1-0.4,0.2-0.6
			c1.8-0.1,3.6-0.2,5.7-0.4c-1.1-1.4-2-2.5-3.3-4.1c1.7-0.1,2.7-0.2,3.7-0.3c0.6-1,1.2-2.1,1.8-3.2c0.2,0.1,0.4,0.2,0.6,0.2
			c-0.1,0.9-0.2,1.8-0.3,2.6c1.3,0.4,2.5,0.7,4.4,1.3c-2,1.7-3.4,2.8-4.7,4c1.9-1,3.5-1.5,5.7,0.6c-1.9,1.8-3.8,3.7-5.8,5.6
			c2.4,0.4,5-2,7.4,0.4c-0.2,2-1.2,3.3-3.4,3.6c-0.7,0.1-1.3,0.5-1.8,0.9c-0.2,0.1,0,0.8,0.1,1.2c0,0.1,0.7,0.1,0.9-0.1
			c1.5-1,2.7-1.5,3.3,0.9c0.1,0.3,1.2,0.7,1.8,0.6c0.6,0,1.1-0.6,1.9-0.6c-1.4,3.6-5,4.2-8.3,5.8c1.9,1.6,3.3,2,4.9,0.1
			c0.5-0.6,1.6-2.8,2.7-0.6c0.3,0.6-0.7,2-1.3,2.8c-0.4,0.5-1.2,0.7-2,1.2c2.1,0.2,3.9,0.3,5.8,0.4c0,0,0,0.1,0.1,0.1
			c2.8-7.7,4.3-15.9,4.3-24.5c0-39.6-32.1-71.6-71.6-71.6c-39.6,0-71.6,32.1-71.6,71.6c0,9.2,1.7,17.9,4.8,26
			C134.1,169,134.6,169,135.8,170z"/>
		<path fill="#D1D0C9" d="M209.6,187.3h4.9c0.1-0.1,0.1-0.3,0.2-0.4c-0.3-0.4-0.6-0.8-0.9-1.2c-1.4,0.2-2.7,0.5-4.1,0.7
			C209.7,186.7,209.6,187,209.6,187.3z"/>
		<path fill="#D1D0C9" d="M217.4,178.6c0.5-0.6,1.5-2.7,2.6-0.8c0.2-0.2,0.4-0.3,0.6-0.5c-0.7-0.4-1.5-0.9-2.4-1.5
			c-1.7,1.1-3.7,1.7-5.7,2.6C214.5,180.1,215.8,180.6,217.4,178.6z"/>
	</g>
	<g>
		<path fill="#D1D0C9" d="M83.8,232.6v4.3c-2.1-1.8-4.3-2.6-6.5-2.6c-2.5,0-4.6,0.9-6.2,2.7c-1.7,1.8-2.6,3.9-2.6,6.5
			c0,2.5,0.9,4.7,2.6,6.4s3.8,2.6,6.3,2.6c1.3,0,2.4-0.2,3.3-0.6c0.5-0.2,1-0.5,1.5-0.8c0.5-0.4,1.1-0.8,1.7-1.3v4.4
			c-2.1,1.2-4.3,1.8-6.5,1.8c-3.4,0-6.4-1.2-8.8-3.6c-2.4-2.4-3.6-5.3-3.6-8.8c0-3.1,1-5.8,3-8.2c2.5-2.9,5.7-4.4,9.7-4.4
			C79.7,230.9,81.8,231.4,83.8,232.6z"/>
		<path fill="#D1D0C9" d="M109.3,245.1l7.4,10.2h-4.4l-6.9-9.8h-0.7v9.8h-3.6v-24.1h4.3c3.2,0,5.5,0.6,6.9,1.8
			c1.6,1.3,2.3,3.1,2.3,5.3c0,1.7-0.5,3.2-1.5,4.4C112.2,244,110.9,244.8,109.3,245.1z M104.8,242.4h1.2c3.4,0,5.2-1.3,5.2-3.9
			c0-2.5-1.7-3.7-5-3.7h-1.3V242.4z"/>
		<path fill="#D1D0C9" d="M147.3,249.5H137l-2.7,5.8h-3.9l11.9-25.6l11.5,25.6h-4L147.3,249.5z M145.8,246.1l-3.6-8.2l-3.7,8.2
			H145.8z"/>
		<path fill="#D1D0C9" d="M168.9,231.3l6.3,16.1l6.5-17.2l6.3,17.2l6.7-16.1h3.9l-10.7,25.6l-6.2-17l-6.4,17.1l-10.2-25.6H168.9z"/>
		<path fill="#D1D0C9" d="M226.3,234.7h-8.4v5.8h8.1v3.4h-8.1v11.4h-3.6v-24.1h12V234.7z"/>
		<path fill="#D1D0C9" d="M242.1,243.2c0-3.4,1.2-6.3,3.7-8.7c2.5-2.4,5.4-3.6,8.9-3.6c3.4,0,6.4,1.2,8.8,3.7
			c2.5,2.5,3.7,5.4,3.7,8.8c0,3.5-1.2,6.4-3.7,8.8c-2.5,2.4-5.5,3.6-9,3.6c-3.1,0-5.9-1.1-8.4-3.2
			C243.5,250.2,242.1,247.1,242.1,243.2z M245.8,243.3c0,2.7,0.9,4.8,2.7,6.6c1.8,1.7,3.8,2.6,6.2,2.6c2.5,0,4.7-0.9,6.4-2.6
			c1.7-1.8,2.6-3.9,2.6-6.4c0-2.6-0.9-4.7-2.6-6.4c-1.7-1.7-3.8-2.6-6.3-2.6c-2.5,0-4.6,0.9-6.3,2.6
			C246.6,238.6,245.8,240.7,245.8,243.3z"/>
		<path fill="#D1D0C9" d="M292.7,245.1l7.4,10.2h-4.4l-6.9-9.8h-0.7v9.8h-3.6v-24.1h4.3c3.2,0,5.5,0.6,6.9,1.8
			c1.6,1.3,2.3,3.1,2.3,5.3c0,1.7-0.5,3.2-1.5,4.4C295.6,244,294.3,244.8,292.7,245.1z M288.2,242.4h1.2c3.4,0,5.2-1.3,5.2-3.9
			c0-2.5-1.7-3.7-5-3.7h-1.3V242.4z"/>
		<path fill="#D1D0C9" d="M316.5,255.4v-24.1h5c2.4,0,4.3,0.2,5.7,0.7c1.5,0.5,2.9,1.3,4.1,2.4c2.5,2.3,3.7,5.2,3.7,8.9
			c0,3.7-1.3,6.7-3.9,9c-1.3,1.1-2.7,1.9-4.1,2.4c-1.3,0.4-3.2,0.7-5.7,0.7H316.5z M320.2,252h1.6c1.6,0,3-0.2,4.1-0.5
			c1.1-0.4,2.1-0.9,2.9-1.7c1.8-1.6,2.7-3.8,2.7-6.4c0-2.6-0.9-4.8-2.6-6.4c-1.6-1.5-3.9-2.2-7-2.2h-1.6V252z"/>
	</g>
	<g>
		<path fill="#393933" d="M171.3,284.5c1.1,0,1.5,1.1,1.5,2.1c0,3.8-17.8,23.6-17.8,28c0,0.6,0.1,0.9,0.3,0.9c0.3,0,1-0.5,1.8-1.3
			c8.3-8.3,23.4-29.6,27.5-29.6c1.1,0,1.5,1.1,1.5,2.1c0,3.5-16.8,22.8-16.8,26.9c0,0.5,0.4,0.8,0.7,0.8c2.6,0,8.5-5.4,10.6-8
			c0,0,0.1,0.2,0.1,0.3c-0.1,1.1-7.8,8.6-10.6,8.6c-1.6,0-2.5-1.4-2.5-3.4c0-7.3,17.5-23.8,17.5-26.1c0-0.3-0.1-0.6-0.4-0.6
			c-3.1,0-18.1,20.7-26.9,29.4c-1.1,1.1-1.8,1.7-2.4,1.7c-1,0-2-1.1-2-3.4c0-7.8,18.5-24.5,18.5-27.2c0-0.3-0.1-0.6-0.4-0.6
			c-4,0-24.3,30.2-36.5,30.2c-2.7,0-5.7-1.9-5.7-6.1c0-7.3,10.3-13.8,18.3-13.8c1.4,0,2.6,0.3,3.6,0.8c-0.1,0.1-0.2,0.3-0.4,0.3
			c-0.4,0-1.3-0.4-3.2-0.4c-7,0-16.7,8.5-16.7,15.1c0,1.5,0.9,3.3,3.8,3.3C145.5,314.4,166.9,284.5,171.3,284.5z"/>
		<path fill="#393933" d="M188.6,306.4c0.1,0,0.1,0.1,0.1,0.2c0,1-7,7.8-9.5,7.8c-0.4,0-0.7-0.1-1-0.5c-0.2-0.2-0.8-1.2-0.8-2
			c0-2.8,3.2-5.6,6.9-11c1.1,0.4,1.1,1.2,1.1,1.9c0,1.9-6,7.8-6.2,10.8C181.5,313.6,186.7,308.7,188.6,306.4z M190.2,295.8
			c0,0.9-0.9,1.9-1.8,1.9c-0.6,0-0.9-0.4-0.9-1c0-0.8,0.9-1.9,1.7-1.9C189.8,294.7,190.2,295.1,190.2,295.8z"/>
		<path fill="#393933" d="M188.5,314.4c-1.6,0-2.5-0.7-2.5-2.9c0-4.1,6.2-11.1,10.6-11.1c1.3,0.5,1.9,0.9,1.9,2.1
			c0,0.7-0.5,2.2-1.6,2.9c-0.5-0.4-0.7-0.8-0.7-1.1c0.1-0.8,1-1.6,1.5-1.9l0-0.1c0-0.3,0-0.6-0.1-0.7c-2.9,0.3-9.8,8-10.1,11.7
			c0.1,0.1,0.3,0.3,0.9,0.3c2.1,0,6.4-2.4,9.1-5.1c0.8-0.8,1.4-1.5,1.9-2.1c0.1,0,0.1,0.1,0.1,0.2c0,0.3-0.9,1.4-2.2,2.8
			C194.7,312,190.3,314.4,188.5,314.4z"/>
		<path fill="#393933" d="M205.1,313.9c-0.5-0.5-0.7-1.2-0.7-2c0-3.1,7.7-8.9,7.2-10.5c0,0-0.3-0.1-0.5-0.1c-1.2,0-4.1,1.9-8.3,6.2
			c-1.7,1.8-4,4.3-6,6.9c-0.7,0-1.5-0.9-1.5-1.8c0-0.8,3.8-6.3,15.5-21.2c3.5-4.4,4.4-6.4,4.4-6.9c1.1,0.4,1.4,1.3,1.4,1.9
			c0,0.9-1.7,3.5-2.4,4.4c-5.1,6.4-10.7,13.4-13,17l0,0.2c0.4-0.4,0.8-0.8,1.2-1.2c3.7-3.8,6.9-6.1,8.6-6.1c0.9,0,1.8,0.7,1.8,2
			c0,3.2-6.7,8.9-6.6,10.9c2.4,0,7.6-4.9,9.5-7.2c0.1,0,0.1,0.1,0.1,0.2c0,1-7,7.8-9.5,7.8C205.9,314.4,205.5,314.2,205.1,313.9z"/>
		<path fill="#393933" d="M223.7,306.4c0.1,0,0.2,0.1,0.2,0.2c0,1-7,7.8-9.5,7.8c-0.4,0-0.7-0.1-1-0.5c-0.2-0.2-0.8-1.2-0.8-2
			c0-2.8,3.2-5.6,6.9-11c1.1,0.4,1.1,1.2,1.1,1.9c0,1.9-6,7.8-6.2,10.8C216.7,313.6,221.9,308.7,223.7,306.4z M225.4,295.8
			c0,0.9-0.9,1.9-1.8,1.9c-0.6,0-0.9-0.4-0.9-1c0-0.8,0.9-1.9,1.7-1.9C225,294.7,225.4,295.1,225.4,295.8z"/>
		<path fill="#393933" d="M208.7,326.3c0-1.4,0.4-2.3,1.6-3.5c0.5-0.5,1.5-1,2-1s0.8,0.1,0.8,0.4c0,0.3-0.3,0.6-0.4,0.7
			c-0.8,0.8-2.3,3.3-2.3,4.3c0.2,1.4,0.7,1.7,1.9,1.7c3.4,0,10.4-8.4,14.5-14.5c1.5-2.2,2.7-4,3.8-5.5l-1,1c-2.5,2.5-5,4.4-6.2,4.4
			c-1.3,0-2.2-1.2-2.2-3.1c0-3.7,7.2-10.8,11.4-10.9c1.7,0.6,2.1,1.4,2.1,1.9c0,0.2,0,0.4,0,0.6c0.6-1,0.9-1.5,1.1-1.9
			c1.2,0.4,1.2,1.2,1.2,1.9c0,0.9-1.1,2.2-9.8,14.8c-3.1,4.4-9.4,12.1-14.3,12.1C210.1,329.9,208.7,327.8,208.7,326.3z M233.7,301.6
			c-2.8,0.3-10.9,8.1-11.2,11.6c0.1,0.2,0.3,0.3,0.7,0.3c0.9,0,3.4-1.6,5.8-4c1-1,2-2,3-3.2c0.9-1.1,1.8-2.6,1.8-4
			C233.9,302.1,233.8,301.9,233.7,301.6z"/>
		<path fill="#393933" d="M244.4,313.9c-0.4-0.4-0.6-1.1-0.6-1.9c0-0.4,0.2-1,0.5-1.6c-2.2,2.1-5,4-6.1,4c-1.3,0-2-1-2-3
			c0-3.7,6.9-10.9,11.2-10.9c1.7,0.6,2.1,1.4,2.1,2c0,0.2,0,0.4,0,0.7c0.6-0.9,1.1-1.6,1.1-2c1.1,0.4,1.1,1.2,1.1,1.9
			c0,1.6-6.3,8.1-6.2,10.5c2.4,0,7.6-4.9,9.5-7.2c0.1,0,0.2,0.1,0.2,0.2c0,1-7,7.8-9.5,7.8C245.2,314.4,244.8,314.2,244.4,313.9z
			 M248.5,301.7c-3.1,0.3-10.7,8-10.9,11.5c0.1,0.2,0.3,0.3,0.6,0.3c0.9,0,3.8-1.9,6-4.1c0.7-0.7,1.6-1.8,2.6-3s1.9-2.6,1.9-3.9
			C248.7,302.1,248.6,301.9,248.5,301.7z"/>
		<path fill="#393933" d="M270.8,306.4c0.1,0,0.1,0.1,0.1,0.2c0,1-7,7.8-9.5,7.8c-0.3,0-0.7-0.1-1.1-0.5c-0.5-0.5-0.7-1.2-0.7-2
			c0-3.1,8-9.3,7.2-10.7c0,0-0.3-0.1-0.5-0.1c-1.3,0-4.1,2.2-7.5,5.7c-2.2,2.3-4.5,5.1-6.5,7.6c-0.8,0-1.3-0.9-1.3-2
			c0-1.5,6.3-8.6,7.3-11.5c1.1,0.4,1.2,1.2,1.2,1.9c0,0.9-1.2,2.9-2.8,5.1l0,0.2c0.5-0.6,1.1-1.2,1.8-1.9c3.4-3.6,6.1-5.7,7.8-5.7
			c0.9,0,1.8,0.7,1.8,2c0,3.3-6.7,9.2-6.7,11.1C263.7,313.6,269,308.7,270.8,306.4z"/>
	</g>
</g>
<g id="Layer_2" display="none">
</g>
</svg>
