<?xml version="1.0" encoding="utf-8"?>
<!-- Generator: Adobe Illustrator 17.1.0, SVG Export Plug-In . SVG Version: 6.00 Build 0)  -->
<!DOCTYPE svg PUBLIC "-//W3C//DTD SVG 1.1//EN" "http://www.w3.org/Graphics/SVG/1.1/DTD/svg11.dtd">
<svg version="1.1" xmlns="http://www.w3.org/2000/svg" xmlns:xlink="http://www.w3.org/1999/xlink" x="0px" y="0px"
	 viewBox="0 0 400 400" enable-background="new 0 0 400 400" xml:space="preserve">
<g id="Layer_1">
	<path fill="none" stroke="#393933" stroke-width="12" stroke-miterlimit="10" d="M200,12c25.4,0,50,5,73.2,14.8
		c22.4,9.5,42.5,23,59.8,40.3c17.3,17.3,30.8,37.4,40.3,59.8C383,150,388,174.6,388,200s-5,50-14.8,73.2
		c-9.5,22.4-23,42.5-40.3,59.8c-17.3,17.3-37.4,30.8-59.8,40.3C250,383,225.4,388,200,388s-50-5-73.2-14.8
		c-22.4-9.5-42.5-23-59.8-40.3c-17.3-17.3-30.8-37.4-40.3-59.8C17,250,12,225.4,12,200s5-50,14.8-73.2c9.5-22.4,23-42.5,40.3-59.8
		c17.3-17.3,37.4-30.8,59.8-40.3C150,17,174.6,12,200,12"/>
	<path fill="#6F6F63" d="M200,8c25.9,0,51.1,5.1,74.7,15.1c22.9,9.7,43.4,23.5,61,41.2c17.6,17.6,31.5,38.2,41.2,61
		c10,23.7,15.1,48.8,15.1,74.7s-5.1,51.1-15.1,74.7c-9.7,22.9-23.5,43.4-41.2,61c-17.6,17.6-38.2,31.5-61,41.2
		c-23.7,10-48.8,15.1-74.7,15.1s-51.1-5.1-74.7-15.1c-22.9-9.7-43.4-23.5-61-41.2c-17.6-17.6-31.5-38.2-41.2-61
		C13.1,251.1,8,225.9,8,200s5.1-51.1,15.1-74.7c9.7-22.9,23.5-43.4,41.2-61c17.6-17.6,38.2-31.5,61-41.2C148.9,13.1,174.1,8,200,8
		 M200,0C89.5,0,0,89.5,0,200s89.5,200,200,200s200-89.5,200-200S310.5,0,200,0L200,0z"/>
	<path fill="#6F6F63" d="M200,56.1l-21.7,36.2l0,0l-108.6,181h217.2h43.4L200,56.1z M88.9,262.4l95.8-159.6l95.8,159.6H88.9z"/>
	<g>
		<path fill="#6F6F63" d="M171,314.2h2.4V331H171V314.2z"/>
		<path fill="#6F6F63" d="M184.4,318.7c0-1.3,0.5-2.4,1.5-3.3c1-0.9,2.2-1.4,3.6-1.4c1.4,0,2.6,0.5,3.5,1.4s1.4,2,1.4,3.3
			c0,1.5-0.7,2.7-2.1,3.7c1.6,0.9,2.3,2.2,2.3,4c0,1.4-0.5,2.5-1.5,3.4c-1,0.9-2.3,1.4-3.8,1.4c-1.5,0-2.8-0.5-3.8-1.4
			c-1-0.9-1.5-2.1-1.5-3.4c0-1.7,0.8-3,2.4-3.9c-0.7-0.6-1.2-1.1-1.5-1.7C184.6,320.1,184.4,319.4,184.4,318.7z M192.3,326.5v-0.2
			c0-0.8-0.3-1.4-0.8-1.9c-0.5-0.5-1.3-0.7-2.1-0.7c-0.9,0-1.6,0.2-2.1,0.7c-0.5,0.5-0.8,1.1-0.8,1.9c0,0.8,0.3,1.4,0.8,1.9
			c0.6,0.5,1.3,0.7,2.1,0.7c0.8,0,1.5-0.2,2.1-0.7C192.1,327.7,192.3,327.2,192.3,326.5z M192.1,318.8c0-0.7-0.3-1.3-0.8-1.8
			c-0.5-0.5-1.1-0.7-1.9-0.7c-0.8,0-1.4,0.2-1.9,0.7c-0.5,0.5-0.7,1.1-0.7,1.8c0,0.7,0.3,1.3,0.8,1.8c0.5,0.5,1.2,0.7,1.9,0.7
			c0.7,0,1.3-0.2,1.9-0.7C191.9,320,192.1,319.5,192.1,318.8z"/>
		<path fill="#6F6F63" d="M212,314.1l0.2-0.2l1.5,1.8c-1.3,0.8-2.3,1.7-3.2,2.7s-1.5,2.1-1.9,3.4c0.9-0.5,1.8-0.7,2.7-0.7
			c1.3,0,2.4,0.5,3.3,1.4c0.9,0.9,1.4,2.1,1.4,3.4c0,1.4-0.5,2.6-1.5,3.6s-2.2,1.5-3.6,1.5c-1.6,0-2.8-0.6-3.8-1.7
			c-1-1.1-1.5-2.6-1.5-4.3c0-1.3,0.2-2.7,0.8-4c0.5-1.3,1.2-2.6,2.2-3.7C209.4,316.2,210.5,315.1,212,314.1z M208,324.4
			c-0.1,0.4-0.1,0.8-0.1,1.3c0,0.9,0.3,1.7,0.8,2.3c0.5,0.6,1.2,0.9,2.1,0.9c0.8,0,1.4-0.3,1.9-0.8s0.8-1.2,0.8-2
			c0-0.8-0.3-1.5-0.8-2c-0.5-0.5-1.2-0.8-2.1-0.8c-0.4,0-0.9,0.1-1.2,0.2S208.5,324.1,208,324.4z"/>
		<path fill="#6F6F63" d="M226.6,314.2h2.4V331h-2.4V314.2z"/>
	</g>
</g>
<g id="Layer_2" display="none">
</g>
</svg>
