<?xml version="1.0" encoding="utf-8"?>
<!-- Generator: Adobe Illustrator 17.1.0, SVG Export Plug-In . SVG Version: 6.00 Build 0)  -->
<!DOCTYPE svg PUBLIC "-//W3C//DTD SVG 1.1//EN" "http://www.w3.org/Graphics/SVG/1.1/DTD/svg11.dtd">
<svg version="1.1" xmlns="http://www.w3.org/2000/svg" xmlns:xlink="http://www.w3.org/1999/xlink" x="0px" y="0px"
	 viewBox="0 0 400 400" enable-background="new 0 0 400 400" xml:space="preserve">
<g id="Layer_1">
	<path fill="#393933" d="M200,8c25.9,0,51.1,5.1,74.7,15.1c22.9,9.7,43.4,23.5,61,41.2c17.6,17.6,31.5,38.2,41.2,61
		c10,23.7,15.1,48.8,15.1,74.7s-5.1,51.1-15.1,74.7c-9.7,22.9-23.5,43.4-41.2,61c-17.6,17.6-38.2,31.5-61,41.2
		c-23.7,10-48.8,15.1-74.7,15.1s-51.1-5.1-74.7-15.1c-22.9-9.7-43.4-23.5-61-41.2c-17.6-17.6-31.5-38.2-41.2-61
		C13.1,251.1,8,225.9,8,200s5.1-51.1,15.1-74.7c9.7-22.9,23.5-43.4,41.2-61c17.6-17.6,38.2-31.5,61-41.2C148.9,13.1,174.1,8,200,8
		 M200,0C89.5,0,0,89.5,0,200s89.5,200,200,200s200-89.5,200-200S310.5,0,200,0L200,0z"/>
	<path fill="#6F6F63" d="M369.6,128.8c-9.2-21.8-22.4-41.4-39.2-58.2c-16.8-16.8-36.4-30-58.2-39.2C249.7,21.8,225.7,17,201,17
		s-48.7,4.8-71.2,14.4C108,40.6,88.4,53.8,71.6,70.6c-16.8,16.8-30,36.4-39.2,58.2C22.8,151.3,18,175.3,18,200s4.8,48.7,14.4,71.2
		c9.2,21.8,22.4,41.4,39.2,58.2c16.8,16.8,36.4,30,58.2,39.2c22.6,9.5,46.5,14.4,71.2,14.4s48.7-4.8,71.2-14.4
		c21.8-9.2,41.4-22.4,58.2-39.2c16.8-16.8,30-36.4,39.2-58.2c9.5-22.6,14.4-46.5,14.4-71.2S379.2,151.3,369.6,128.8z M350.7,263.3
		c-8.2,19.3-19.9,36.7-34.8,51.7c-14.9,14.9-32.3,26.6-51.7,34.8c-20,8.5-41.3,12.8-63.3,12.8s-43.2-4.3-63.3-12.8
		c-19.3-8.2-36.7-19.9-51.7-34.8c-14.9-14.9-26.6-32.3-34.8-51.7c-8.5-20-12.8-41.3-12.8-63.3c0-21.9,4.3-43.2,12.8-63.3
		c8.2-19.3,19.9-36.7,34.8-51.7c14.9-14.9,32.3-26.6,51.7-34.8c20-8.5,41.3-12.8,63.3-12.8s43.2,4.3,63.3,12.8
		c19.3,8.2,36.7,19.9,51.7,34.8s26.6,32.3,34.8,51.7c8.5,20,12.8,41.3,12.8,63.3C363.5,221.9,359.2,243.2,350.7,263.3z"/>
	<g>
		<path fill="#393933" d="M81.5,199.5c-2,0.5-4.6-2-4.6-4.8c0-4.2,9.1-13.8,18.6-16c11.9-2.8,20.2,6.2,20.2,18.7
			c0,16.5-10.1,38.2-24.5,41.5c-12.4,2.9-18.2-0.6-18.2-2.5c0-1.8,1.9-4.1,3.9-4.6c1.7-0.4,2.6,1.2,4.8,2.6
			c5.7-4.7,6-29.3,10.6-44.5c0.5-1.7,2.1-2.7,3.6-3.1c2.1-0.5,4.4,0.2,4.4,2c0,0.2-1.1,4.6-2.1,10.4c-2.3,12.8-5.8,32.2-14.2,36.4
			c1.9,1,4.9,1.9,7.4,1.3c11.2-2.6,16.7-28.3,16.7-43.9c0-5.3-0.7-9.3-2.1-11l-0.1-0.1c-2-0.5-4.1-0.4-6.2,0
			c-6.5,1.5-13,7.4-16.4,15.6C82.8,198.9,82.2,199.3,81.5,199.5z"/>
		<path fill="#393933" d="M123.2,223.1c0,1.7,0.4,2.6,1.5,2.4c3-0.7,7.6-11.7,8.5-13.7c0.5-1,1-1.6,1.4-1.7c0.3-0.1,0.6,0.2,0.6,0.7
			c0,0.4-0.1,0.8-0.3,1.5c-1.2,3.1-5.9,17.8-12.8,19.4c-3.2,0.7-5.9-0.9-5.9-7.1c0-4.9,3.1-20.9,6.4-33.8c0.4-1.5,1.7-2.5,3.3-2.9
			c2.1-0.5,4.3,0.4,4.3,3.2C130.1,195.3,123.2,216.8,123.2,223.1z M123.4,180.6c0-3.5,2.9-8.8,7.4-9.9c3.4-0.8,4.9,0.9,4.9,3.2
			c0,3.5-3.4,8.6-8.6,9.8C124.6,184.3,123.4,182.7,123.4,180.6z"/>
		<path fill="#393933" d="M151.9,185.6c-4.6,1.1-10.8,18.1-10.8,28.3c0,5.5,1.6,8.5,6,7.5c6.5-1.5,12.4-11,14.7-16.3
			c0.4-1,0.9-1.4,1.3-1.5c0.3-0.1,0.6,0.1,0.6,0.7c0,0.3-0.1,0.8-0.2,1.3c-2.9,7.7-9.6,18.9-19,21.1c-8.2,1.9-11.4-4.1-11.4-12.5
			c0-12.3,7.1-29.1,15.9-31.2c1.8-0.4,3.5-0.1,4.4,0.5c3.7-0.2,5.1,3.8,5.1,8.2c0,5.9-1.6,11.4-6.1,12.4c-1.9,0.4-3.7-0.2-3.7-1.7
			c0-3.3,5.2-7.3,5.2-14.1C153.9,186.6,152.7,185.4,151.9,185.6z"/>
		<path fill="#393933" d="M163.6,221.8c-1.7,0.4-3.8-0.5-3.8-2.5c0-4,5.5-36,11-55.8c0.4-1.5,1.6-2.3,2.9-2.6
			c2.1-0.5,4.4,0.4,4.4,2.3c0,0.2,0,0.4-0.1,0.7c-1.8,6.2-4,14.4-5.8,22.6c2.6-5.8,5.8-10.2,9.3-11c4.3-1,6.1,2.1,6.1,6.7
			c0,7.6-5,19.2-12.4,23.5c2.8,6.7,3.3,8.6,5.7,8.1c3.8-0.9,6.9-7.9,10.2-15.4c0.4-1,1.1-1.6,1.6-1.8c0.2-0.1,0.4,0.1,0.4,0.5
			c0,0.3-0.1,0.8-0.3,1.6c-2.6,7.4-7.1,18.4-14,20c-6,1.4-7.5-2.6-11-10.9l-0.1,0.1c-1.1,5.4-1.8,9.6-2.1,11.7
			C165.4,220.9,164.6,221.6,163.6,221.8z M178.4,182c-3.3,0.8-7.2,10.2-9.9,21.7c0.7-0.7,1.6-1.4,2.6-1.6c1.1-0.2,2.1,0,2.9,1.1
			c3.9-3.8,6.8-12.5,6.8-17.6C180.8,183.3,180.1,181.7,178.4,182z"/>
		<path fill="#393933" d="M197.1,206.1c0,1.7,0.4,2.6,1.5,2.4c3-0.7,7.6-11.7,8.5-13.7c0.5-1,1-1.6,1.4-1.7c0.3-0.1,0.6,0.2,0.6,0.7
			c0,0.4-0.1,0.8-0.3,1.5c-1.2,3.1-5.9,17.8-12.8,19.4c-3.2,0.7-5.9-0.9-5.9-7.1c0-4.9,3.1-20.9,6.4-33.8c0.4-1.5,1.7-2.5,3.3-2.9
			c2.1-0.5,4.3,0.4,4.3,3.2C204,178.3,197.1,199.7,197.1,206.1z M197.3,163.5c0-3.5,2.9-8.8,7.4-9.9c3.4-0.8,4.9,0.9,4.9,3.2
			c0,3.5-3.4,8.6-8.6,9.8C198.4,167.2,197.3,165.7,197.3,163.5z"/>
		<path fill="#393933" d="M208.5,211.8c-1.7,0.4-3.6-0.4-3.6-2.9c0-0.2,0.1-0.5,0.1-0.8c1.5-12.7,3.4-21.4,7.2-35.5
			c0.4-1.6,1.7-2.5,3-2.8c2-0.5,4,0.5,4,2.9c0,2.1-1.4,5.8-1.9,8.1c3.4-8.5,7.6-15.5,11.9-16.5c4.9-1.1,6.1,3,6.1,6.1
			c0,9.3-8,25.4-8,30.4c0,1.1,0.4,1.6,1.3,1.4c3.6-0.8,9.3-13,10.3-14.9c0.5-0.9,1.2-1.7,1.6-1.8c0.2-0.1,0.4,0.1,0.4,0.5
			c0,0.3-0.1,0.8-0.3,1.6c-1,3.2-7,18.4-14.2,20.1c-3.3,0.8-6.4-0.8-6.4-5.8c0-7.4,7.9-24.1,7.9-29.7c0-1.1-0.4-1.9-1.3-1.7
			c-3,0.7-10.3,15.1-13.5,30.8l-0.2,0.6c-0.4,2.4-0.7,4.5-1,6.3C211.5,210.2,210,211.5,208.5,211.8z"/>
		<path fill="#393933" d="M232.2,197.5c0-2.6,1.6-6.3,4.6-6.3c4.1-7.2,8.6-17.5,11-23.2c-0.8-2-1.2-4.2-1.2-6.3
			c0-5.5,2.6-10.6,5.7-11.3c2-0.5,3,0.7,3,3c0,3-1.7,8.2-5.2,14.5c1.8,5.5,6.3,12.6,6.3,19.2c0,2.9-0.6,5.8-2,8.5
			c3.3-3.2,4.4-6.6,8.1-13.8c0.5-1,1-1.5,1.4-1.6c0.3-0.1,0.5,0.2,0.5,0.8c0,0.3-0.1,0.8-0.2,1.3c-4.3,11.5-8.9,18.5-19.5,21
			C235.4,205.5,232.2,201.5,232.2,197.5z M238.9,191.9c0.9,0.8,0.8,2.4,0.8,6.5c0,2.7,0.9,4,2.9,3.5c2.7-0.6,6-4.2,6-14.6
			c0-2.8-0.3-8.3-0.6-13.3C245.4,180.8,241.3,187.7,238.9,191.9z"/>
		<path fill="#393933" d="M283.8,184.6c-3.2,6.4-7.6,11.5-12.3,12.5c-6.6,1.5-9.3-4-9.3-11.6c0-6.1,1.6-12.4,3.7-17.4
			c0.7-1.6,2.1-3.9,4.1-4.1c1.6-5.6,4.9-10.3,10.1-11.5c6.6-1.5,9.3,3.5,9.3,10.5c0,5.7-1.6,12.7-4.4,18.8c3-0.8,6.1-2.9,8.1-7.1
			c0.5-0.9,0.9-1.6,1.5-1.7c0.2-0.1,0.5,0.1,0.5,0.5c0,0.3-0.1,0.8-0.3,1.6C293.8,178.4,289.4,183.3,283.8,184.6z M278.3,185
			c-4.4-0.5-6.8-3.3-8.2-6.9c-0.6,2.8-0.9,5.6-0.9,8c0,4.4,1.1,7.4,3.8,6.8c0.2-0.1,0.5-0.1,0.7-0.3C275.4,192,276.9,189,278.3,185z
			 M274,171.1c0,4.9,1.5,9.4,5.4,10.8c1.8-6.3,3.1-14,3.1-19.3c0-4.3-0.7-7.2-2.7-6.8C276.9,156.4,274,163.9,274,171.1z"/>
		<path fill="#393933" d="M294.6,191.9c-1.7,0.4-3.6-0.4-3.6-2.9c0-0.2,0.1-0.5,0.1-0.8c1.5-12.7,3.4-21.4,7.2-35.5
			c0.4-1.6,1.7-2.5,3-2.8c2-0.5,4,0.5,4,2.9c0,2.1-1.4,5.8-1.9,8.1c3.4-8.5,7.6-15.5,11.9-16.5c4.9-1.1,6.1,3,6.1,6.1
			c0,9.3-8,25.4-8,30.4c0,1.1,0.4,1.6,1.3,1.4c3.6-0.8,9.3-13,10.3-14.9c0.5-0.9,1.2-1.7,1.6-1.8c0.2-0.1,0.4,0.1,0.4,0.5
			c0,0.3-0.1,0.8-0.3,1.6c-1,3.2-7,18.4-14.2,20.1c-3.3,0.8-6.4-0.8-6.4-5.8c0-7.4,7.9-24.1,7.9-29.7c0-1.1-0.4-1.9-1.3-1.7
			c-3,0.7-10.3,15.1-13.5,30.8l-0.2,0.6c-0.4,2.4-0.7,4.5-1,6.3C297.7,190.3,296.2,191.6,294.6,191.9z"/>
	</g>
	<path fill="#D1D0C9" d="M342,263.3l-8.5-1.3l-34-13L283,262.5l-24-24l-16-4.5l-56,50.5l-39,7.5l-15.5-14l-31,20l-8.2,12.8
		c13.8,13.5,29.8,24.1,47.6,31.6c19,8.1,39.3,12.1,60.1,12.1s41.1-4.1,60.1-12.1c18.4-7.8,34.9-18.9,49.1-33.1
		C323.6,295.9,334.3,280.4,342,263.3z"/>
	<polygon fill="#6F6F63" points="211,275 243.5,242.5 255.5,245.5 288,284 258,268.5 264.5,281 247.5,268 	"/>
	<polygon fill="#6F6F63" points="204.5,284 194,291.5 173,298.5 197.5,294.2 	"/>
	<polygon fill="#6F6F63" points="249.5,280.5 260.5,294.2 265,307.5 254.5,294.2 	"/>
	<polygon fill="#6F6F63" points="301.5,257.5 326.5,267 294,263.2 	"/>
	<polygon fill="#6F6F63" points="231.5,291.2 223.5,307.5 217.6,322.5 229.5,307.5 	"/>
	<polygon fill="#6F6F63" points="182.5,301 152,307.5 173,306.9 	"/>
	<polygon fill="#6F6F63" points="139,294 132,287 115,298.5 130.5,294 	"/>
	<polygon fill="#6F6F63" points="207,294.2 197.5,306.9 182.5,322.5 201,308.4 	"/>
	<g>
		<path fill="#6F6F63" d="M77.5,140.1l0.8-1.6l3.7,1.9l2.2-4.3l-3.7-1.9l0.8-1.6l8.9,4.7l-0.8,1.6l-3.8-2l-2.2,4.3l3.8,2l-0.8,1.6
			L77.5,140.1z"/>
		<path fill="#6F6F63" d="M88.4,130.7L88.4,130.7c-2.4-1.6-3.1-4.7-1.4-7.3s4.9-3,7.2-1.5l0,0c2.4,1.6,3.1,4.7,1.4,7.3
			C93.9,131.8,90.7,132.3,88.4,130.7z M93.2,123.5L93.2,123.5c-1.6-1.1-3.8-0.8-4.9,0.8c-1.1,1.7-0.6,3.7,1.1,4.8l0,0
			c1.6,1.1,3.8,0.8,4.9-0.8C95.4,126.7,94.9,124.6,93.2,123.5z"/>
		<path fill="#6F6F63" d="M93.5,114.7l1.2-1.4l5.6,0.8l-1.6-5.4l1.2-1.4l7.7,6.5l-1.2,1.3l-5.5-4.7l1.5,5.5l0,0l-5.6-0.7l5.5,4.7
			l-1.1,1.3L93.5,114.7z"/>
		<path fill="#6F6F63" d="M104.1,102.9l5.4-5.1l1.1,1.1l-4.1,3.9l1.8,1.9l3.7-3.5l1.1,1.1l-3.7,3.5l1.9,2l4.2-4l1.1,1.1l-5.5,5.2
			L104.1,102.9z"/>
		<path fill="#6F6F63" d="M122.6,89.5l-2.6,1.8L119,90l6.7-4.7l0.9,1.3l-2.6,1.8l4.8,6.9l-1.5,1L122.6,89.5z"/>
		<path fill="#6F6F63" d="M131.8,87.4L131.8,87.4c-1.4-2.5-0.7-5.6,2-7.2c2.7-1.5,5.7-0.5,7.1,1.9l0,0c1.4,2.5,0.6,5.6-2.1,7.1
			S133.1,89.8,131.8,87.4z M139.3,83.1L139.3,83.1c-1-1.7-3-2.5-4.8-1.5c-1.7,1-2.2,3.1-1.2,4.8l0,0c1,1.7,3,2.4,4.7,1.4
			C139.8,86.9,140.3,84.8,139.3,83.1z"/>
		<path fill="#6F6F63" d="M150.4,72.5l1.6-0.6l3.7,9.4l-1.6,0.6L150.4,72.5z"/>
		<path fill="#6F6F63" d="M157.6,69.8l4.3-1.3c1.2-0.4,2.3-0.3,3.1,0.1c0.7,0.4,1.2,1,1.4,1.8l0,0c0.5,1.6-0.2,2.8-1.4,3.6l3.7,2.9
			l-2,0.6l-3.4-2.6l-2.1,0.6l1,3.4l-1.7,0.5L157.6,69.8z M163.2,73.3c1.2-0.4,1.8-1.2,1.5-2.2l0,0c-0.3-1-1.2-1.4-2.5-1l-2.5,0.7
			l1,3.2L163.2,73.3z"/>
		<path fill="#6F6F63" d="M171.4,71.1L171.4,71.1c-0.5-2.8,1.2-5.5,4.2-6.1c3-0.6,5.6,1.3,6.1,4.1l0,0c0.5,2.8-1.2,5.5-4.2,6.1
			C174.5,75.8,171.9,73.9,171.4,71.1z M179.9,69.5L179.9,69.5c-0.4-2-2.1-3.3-4-2.9c-2,0.4-3,2.2-2.7,4.1l0,0c0.4,1.9,2.1,3.3,4,2.9
			C179.2,73.3,180.3,71.5,179.9,69.5z"/>
		<path fill="#6F6F63" d="M186.4,63.6l1.6-0.1l5.9,6.6l-0.5-6.9l1.7-0.1l0.7,10l-1.5,0.1l-6.1-6.7l0.5,7.1l-1.7,0.1L186.4,63.6z"/>
		<path fill="#6F6F63" d="M208.7,63l1.9,0.2l2.6,5l3.5-4.5l1.9,0.2l-0.9,10l-1.8-0.2l0.6-7.2l-3.6,4.4l-0.1,0l-2.7-5l-0.6,7.2
			l-1.7-0.2L208.7,63z"/>
		<path fill="#6F6F63" d="M223,69.6L223,69.6c0.6-2.8,3.2-4.7,6.2-4c3,0.6,4.7,3.4,4.1,6.1l0,0c-0.6,2.8-3.2,4.6-6.2,4
			C224.1,75.2,222.4,72.4,223,69.6z M231.5,71.4L231.5,71.4c0.4-1.9-0.7-3.8-2.6-4.2c-2-0.4-3.7,0.9-4.1,2.8l0,0
			c-0.4,1.9,0.7,3.8,2.6,4.2C229.4,74.6,231.1,73.3,231.5,71.4z"/>
		<path fill="#6F6F63" d="M237.8,73.8l1.8-5.5l1.7,0.6l-1.8,5.4c-0.6,1.8,0,3,1.5,3.5c1.5,0.5,2.7-0.1,3.3-1.9l1.8-5.5l1.7,0.6
			l-1.8,5.4c-0.9,2.9-3,3.8-5.5,2.9C238,78.5,236.9,76.6,237.8,73.8z"/>
		<path fill="#6F6F63" d="M253.3,73.1l1.5,0.7l2.1,8.6l2.9-6.3l1.6,0.7l-4.1,9.2l-1.4-0.6l-2.1-8.8l-2.9,6.5l-1.6-0.7L253.3,73.1z"
			/>
		<path fill="#6F6F63" d="M267.9,82.1l-2.8-1.6l0.8-1.4l7.1,4.1l-0.8,1.4l-2.8-1.6l-4.2,7.3l-1.5-0.9L267.9,82.1z"/>
		<path fill="#6F6F63" d="M279.3,87.3l1.3,0.9l-2.2,10.8l-1.5-1.1l0.6-2.6l-3.9-2.7l-2.2,1.4l-1.5-1L279.3,87.3z M277.8,93.8
			l0.9-4.3l-3.7,2.3L277.8,93.8z"/>
		<path fill="#6F6F63" d="M288.2,94.1l1.4,1.1l-6.5,7.7l-1.4-1.1L288.2,94.1z"/>
		<path fill="#6F6F63" d="M294,99.2l1.2,1.1l-1,8.8l4.9-5l1.2,1.2l-7.1,7.2l-1.1-1l1.1-9l-5,5.1l-1.2-1.2L294,99.2z"/>
	</g>
	<polygon fill="#6F6F63" points="294,277 308,292.8 301,280.5 	"/>
	<polygon fill="#6F6F63" points="215.8,306.9 204.8,324.5 184.2,341.5 209.2,324.2 	"/>
</g>
<g id="Layer_2" display="none">
</g>
</svg>
