<?xml version="1.0" encoding="utf-8"?>
<!-- Generator: Adobe Illustrator 17.1.0, SVG Export Plug-In . SVG Version: 6.00 Build 0)  -->
<!DOCTYPE svg PUBLIC "-//W3C//DTD SVG 1.1//EN" "http://www.w3.org/Graphics/SVG/1.1/DTD/svg11.dtd">
<svg version="1.1" id="Layer_1" xmlns="http://www.w3.org/2000/svg" xmlns:xlink="http://www.w3.org/1999/xlink" x="0px" y="0px"
	 viewBox="0 0 800 800" enable-background="new 0 0 800 800" xml:space="preserve">
<g>
	<path fill="#D1D0C9" d="M355,249c0-1,0-1,0-2l1-1c2-2,3-3,4-6c0-1,0-3,0-4c0-2,0-3,1-3c0,0,0,0,1,1s2,3,7,3h1c1,0,3,0,3-1
		c1-1,0-2,0-3v-1c0,0,0,0,1-1c3-1,4-1,5-1c1,0,1,0,2,1c2,2,0,5-1,6c-1,1-1,2-1,2c0,1-1,1-4,2c-2,0-3,1-3,2c0,1,0,2,0,3c0,1,1,2,0,3
		c-2,2-3,4-3,5v1h-1c0,0,0,0-1,0c0,0-2,0-2,1s-1,2,0,5c2,6,9,8,9,8h1v-1c0-1-1-4,0-6c0-1,1-1,2-1h1h1c0,0,1-1,0-1c0-1,0-3,1-4h1
		c2,0,3,0,4-1c1-1,1-3,1-4c2,0,5-1,7-2l0,0c1,0,2-1,2-2c1-1,2-2,4-2c4,0,4-4,4-6c0-1,0-3,0-4c1-1,1-2,1-3c0-2,1-3,3-5c2-3,3-3,10-4
		c1,0,3,0,5-1c2,0,3,0,4,0c3,0,5,1,6,2c1,1,2,2,4,2c2,0,4,2,5,3c1,1,2,1,2,1h1c0-1,0-1,0-2c0-2,0-4,1-4c1,1,2,2,4,2c1,0,3,0,3-3
		c0-1,1-1,1-1c1,0,2,0,3,1c1,0,2,1,3,1h1c1,0,2,0,4,0c3,0,6-2,7-5c1-4,5-7,7-10c2-2,4-4,5-5l1,1c1,1,2,3,3,3c2,0,2-2,3-3
		c0-1,1-1,1-2c0,0,0,0,1,1c1,1,2,2,5,2c1,0,1,0,2,0c3-1,7,0,9,2c1,0,2,1,3,1c1,0,1,0,2,1c2,1,5,2,9,2c3,0,6,2,8,4c1,1,2,2,3,2
		c2,1,4,4,6,6c1,1,2,2,3,3c1,1,1,2,2,3c1,2,3,5,9,8c4,2,5,2,6,2s1,0,1-1c1-1,0-2,0-3c0,0,0-1,0-2c2-4,2-5,1-7c0-1-1-1-1-2
		c0-3,2-5,3-5c1,0,1-2,2-4c0-1,0-3,1-5c0-1,0-1,0-1s1,0,1,1c1,1,2,2,4,2c2,0,3,1,4,2c0,1,1,1,2,2c1,1,1,1,1,2c1,1,1,2,4,3
		c1,0,2,0,2,0c0,1,1,1,4,2c1,0,3,1,4,1c3,0,6-1,7-2c1,0,2,0,3,0c2,0,4,0,6-1c2,0,3-1,5-1s3,0,5-1c2,0,4-1,5,0c1,1,2,1,3,1s2,0,3-1
		l0,0c0,0,1,1,2,1s1,0,2,0s2,0,2,0c1,1,3,1,5,1c2,0,3-1,4,0s4,2,8,2c2,0,4,0,6,0c1,0,2,0,3,0c2,0,4,1,6,1c3,1,5,2,8,2c4,0,4-3,5-4
		c0-1,0-2,1-3c1-1,1-3,1-4c-1-2-3-2-5-2c-1,0-1,0-1,0s0-2,0-3c0-1,0-1,0-2c0-2,0-3-1-3c-1-1-2-1-3-1c0-2-2-4-9-4c-6,0-8,1-9,2
		c0,0-1,0-1,1v-1c0-1-1-3-2-3s-2,0-3,2c-3,4,0,7,2,9c1,1,2,2,2,3v1c0,0-1,1-2,1h-1c0,0-1-1-1-2c-1-2-1-3-2-3c-2,0-2,2-2,4
		c0,3-1,3-1,3c-1,0-4-3-5-4c-3-3-6-3-8-4c-1,0-2,0-2-1c0-1-1-1-1-2c-1-1-2-3-2-4c0,0,0,0,1,0c3-1,3-3,3-4c0-1-1-3-3-4c-1,0-2,0-3-1
		c-2,0-2,0-2-1c0-1-1-4-6-4c-1,0-1,0-2,0c-1,0-2,1-3,2l-1,1l0,0c-2-1-2-4-1-5c0-1,3-2,5-2c0,0,0,0,1,0c2,1,4,2,6,2c1,0,3,0,3-3
		c1-2,0-5-1-6c-1-1-1-2-1-2c2-2,1-4,0-6c-1-1-1-3-2-5c-1-3,0-5,1-8c1-2,2-5,2-9c0-3,0-5-1-6s-2-1-3-1s-2,0-2,0c0-1-1-2-3-2
		c-1,0-2,1-3,3c-2,3-3,3-6,3h-1c-1,0-2,0-3,0s-2,0-5,0s-5,1-7,3c-1,1-2,3-2,5c0,1,0,1-2,1c-1,0-2,0-3,1c0,0-2,1-3,1c-2,0-2-1-2-2
		c0-4-4-5-6-6c-1,0-1,0-2-1c0,0-1,0-2,0c-3,0-7,3-8,4c-1,1-4,2-7,2c-1,0-2,0-2,0c0-2-3-3-4-3c-2,0-3,0-3-1c-1-1-2-2-4-2
		c-1,0-2,0-3,0c-1,0-3,1-3,0c-2-1-4-3-4-4c0,0,0-1,1-1c1-1,2-2,2-4c0-1,0-3,0-4c0-2-1-4,0-5c1-1,1-4,0-6c0-1,0-2,0-2c1,0,1-1,2-3
		c1-1,2-3,3-5c2-2,2-4,1-4c-1-2-4-2-5-1c-1,1-4,1-17,1h-5c-4,0-7,2-11,4c-4,2-7,4-11,5c-8,2-9,2-14,1h-2c-1,0-3,0-6,0s-5,0-7,0
		s-4,0-6,0c-1,0-4,0-5,0c-3-1-10,0-16,1c-3,1-5,1-6,2c-1,0-1,1-2,1c0,0,0,0-1,0c0,0,0,0,0-1c0,0,0-2-2-2c-1,0-2,0-6,3c-4,2-7,5-10,8
		c-4,3-7,7-10,7l0,0c-6,0-8,1-10,3l-1,1c-2,1-3,3-4,4s-2,2-2,3c-2,1-3,2-5,1c-1,0-1,0-1-2c0-1,0-2,0-3c0-4,0-6-5-6h-1c-1,0-2,0-3,1
		c-1,1,0,3,0,5s1,3,1,5s0,3,0,4c-1-2-3-3-5-3c-1,0-3,0-4,1c-1,0-2,1-3,2s-3,3-4,3l0,0c0-3-3-5-5-6c-1,0-2-1-2-1v-1c0-2-1-7-4-7l0,0
		c-1,0-3,1-6,2c-3,2-6,4-9,4c-2,0-5,0-7,1c-4,1-8,1-10,0c-1,0-2-1-3-1c-3-1-3-1-3-7c0-8-1-9-5-9c0,0,0,0-1,0c-3,0-6-1-7-6
		c-1-3-2-5-4-7c-1-1-2-3-3-5c-1-2-1-5-2-7c-1-3-1-6-4-6c-1,0-3,0-4,0s-1,0-2,0c-2,0-2,0-5-4c-3-4-7-5-11-6c-2-1-3-1-4-2
		c-1-1-3-1-5-1c-2,0-5,0-8-1c1-6,0-7-2-7s-3,1-4,1h-1c-1,0-2,0-3,1c0,0-1,0-2,1c0,0,0-1,1-1c2-3,3-5,2-6c0,0-1-1-2-1c-1,0-3,0-5,1
		c-2,1-5,4-7,6c-2,3-5,6-7,6c-3,0-4,3-6,5c-1,2-2,3-3,5c0,2,0,2,0,2s-1-2-1-3c0-1-1-2-1-3c-1-2,0-5,1-8c0-1,1-1,1-2c0-1,0-3,0-4
		c0-3,0-4,1-4c5-1,7-5,8-7c0-1,1-3,1-5c0-1,0-4,1-4h1c1,0,3-1,3-4c0-3,4-4,6-4c1,0,2-1,2-1c1-1,0-2-1-3c0-1-1-2-1-3c1-1,1-3,1-4
		c6,0,7,0,7-3c0-1,0-2,3-5c5-3,6-3,7-4c1,0,3-1,7-4c2-2,3-3,3-4c0-1-1-2-1-3c0,0-1,0-1-1c0,0,0,0,1-1c2-1,4-2,7-2c1,0,2,0,3,0
		c2,0,5,0,6,0s2,0,3,0c2,0,3,0,4-1c1-1,1-2,1-4c-1-3-3-5-7-7c-2-1-11-2-18-2c-3,0-7,0-8,0c-1,0-2,0-3,0c-3,0-5,0-18,6
		c-15,6-20,14-23,18c0,1-1,2-2,2c-3,4-15,10-17,11c-1,0-3,2-6,5c-3,3-6,6-9,8c-5,2-5,4-7,6c0,1-1,2-1,3c-2,3-3,7-3,9c-7,0-17,2-17,3
		c0,0,0,0-1,0c-11,13-14,13-15,13c-1,0-2,0-5,2c-5,5-9,4-13,4c-1,0-1,0-2,0c-2,0-4,0-6,1c-3,2-6,3-9,3c-1,0-2,0-3,0s-2,0-3,0
		c-6,0-10,3-13,4c-2,1-4,4-7,7c-2,3-5,6-8,8c-5,4-14,7-19,8c-3,0-7,2-11,4c-2,1-4,1-5,2c-6,2-9,6-8,10c0,1,1,2,3,2s5-2,5-2v1
		c0,1,1,4,4,4c1,0,2,0,2-1l0,0c0,0,0,0,2,1c1,1,1,1,2,2c2,2,5,4,5,8c0,5,1,7,3,10c0,1,0,1,1,2c0,3,1,5,7,5c4,0,9,2,15,4
		c5,2,10,3,16,5c6,1,13,4,19,6c9,3,18,6,24,7c10,1,41,17,45,21c2,2,6,2,9,3c2,0,5,1,6,2c0,0,0,1,1,1c1,2,3,4,5,4c1,0,3-1,4-3v-1
		c0-1,1-2,1-2h1c1,0,3,0,5,1c3,0,4,1,4,1c1,2,2,2,6,2s4,1,5,2c0,1,1,2,5,1c3-1,7,0,10,1c1,0,3,1,5,1c3,1,3,2,4,4c0,1,1,3,3,4h1
		c0,0-1,1-1,2l-1,1l-1,1c-2,1-2,3,0,6c1,1,2,3,3,3c1,0,1,0,2-1c1,0,2-1,5-1h1l0,0c0,1-1,2,0,3c1,1,2,2,5,2c6,0,6,1,7,2c0,1,1,2,3,3
		c1,0,2,1,3,1c2,1,4,2,4,2v1c-3,4-2,7,0,10c1,1,1,1,2,2l0,0c0,0-1,1-2,2c-4,3-5,4-3,7c0,1,1,1,1,2c2,4-2,8-5,10c-1,1-1,3-1,5
		c0,1,0,2,0,4c-1,2-1,3,0,4s2,1,4,2l0,0c3,0,4,0,6,0c1,0,2,0,3,0c2,0,5-2,6-4l1-1c0,1,0,2,1,3c0,2,1,3-1,6c0,1-1,2-1,3
		c-3,5-6,12-5,16c0,1,1,2,2,2c2,1,3,3,3,4c0,2,1,4,4,5c1,0,2,0,3,0s1,0,2,0s1,0,1-1c1-1,0-1,0-2c0,0,0-1,0-2c-1-2-2-6,7-14
		c7-6,9-11,10-15c1-2,1-4,3-6c5-5,11-18,16-29l2-3c4-8,7-9,10-11c1,0,2-1,3-2c3-3,3-8,3-12v-1c0-4,0-6,2-7c0,0,1,1,2,9c0,2,1,3,2,3
		l0,0c0,0,0,0-2,2c-1,1-2,2-2,3c0,1,1,1,2,2h1c0,0,0,0,0,1c-1,2-1,3,0,3l1,1c1,0,3-2,4-4c1-1,2-2,4-2c1,0,3-1,5-1
		C355,252,355,251,355,249z M277,340L277,340L277,340L277,340z"/>
	<path fill="#D1D0C9" d="M595,244l-1-1c0,0,0,0-1-1c-1-1-1-1-2-1c-1,0-1,0-3,1l0,0l0,0l-1-1c-1-1-3-3-6-3h-1c-4,0-5-4-6-6
		c-1-2-3-6-6-6c-1,0-2,0-2,1c-2,3,1,6,3,9c0,0,0,1,1,1c0,1,1,3,4,4c3,2,5,4,6,5c0,4,5,5,8,5c1,0,2,0,3,1h1c1,0,2-1,4-3c1-2,2-3,1-4
		C597,245,596,245,595,244z"/>
	<path fill="#D1D0C9" d="M471,268c-1,2-2,3-1,4s2,2,5,2h1c4,0,5-1,6-2l1-1c1,0,2,0,2-1c1-1,1-3,1-5v-1c0-3-1-4-1-5v-1c1-2,1-5,1-7
		s-3-3-8-3c-1,0-1,0-2,1c-1,1-1,5-1,7c-2,1-2,3-2,5l0,0C473,263,473,265,471,268C471,267,471,268,471,268z"/>
	<path fill="#D1D0C9" d="M788,621c-1-2-2-3-4-5c-2-2-4-5-4-6c0-2,0-4-1-7c0-3-1-5-1-7c0-1,0-2,0-3c0-2,0-5-1-10c-1-3-1-5,0-8
		c0-3,0-7-2-11c-2-6-5-19-5-24c0-4-2-22-5-30c-2-4-3-6-4-8s-2-2-2-3c0-3-2-7-5-9c-1,0-1-1-2-2c-1-1-2-3-4-3c-2,0-5-1-6-2
		c0,0,0,0-1-1c0-1-1-2-4-2c-1,0-1,0-2,0c-2,1-3,1-4,2s-2,2-5,2c-1,0-2,1-3,1c-1,1,0,2,0,2l0,0c0,0,0,0-2,0c-4,0-4,1-5,2c0,0,0,0-2,1
		c-3,0-5,1-6,2c-1,1-2,1-3,1c-1,0-1,0-2,1v1c0,0,0,1-1,1l-1,1c-3,1-6,3-6,5c0,1,0,2,2,3c1,0,1,1,1,1c0,1-1,2-3,3h-1c-3,1-5,1-4,5
		c0,2,0,2-1,4l-1,1c-1,2-2,2-2,3c0,0,0,1-1,3c-1,2-3,4-4,4l0,0c0-1-1-1-1-1c-1,0-2,1-3,4c-1,3-3,6-6,8c-2,1-3,3-4,4l-1,1
		c0,0-1,0-2-2c-3-3-7-4-11-5c-2-1-4-1-6-2c-1-1-2-1-3-2c-4,0-4,0-4-3c0-2-1-4-2-5c0,0-1-1-1-2l0,0c4-2,4-8,4-14v-1c0-4,0-6,2-7
		c1,0,1,0,2-1c1-1,0-2,0-3c0-1,0-2,0-2s1-1,2-1c2,0,4-1,6-1c4-1,7-2,9-1c1,0,2,0,3,0c1-1,0-1,0-2c0-1,0-2,0-2c1-1,2-1,4-1
		c2,0,5,0,5-3c0-3,1-8,1-14c1-1,2-4,2-8c0-5,2-6,3-7c1-1,1-1,2-2v-1l1,1l1,1c0,0,1,1,2,1c2,0,3-1,4-3l1-1c0-1,1-1,2-2c2-1,5-3,3-7
		c-1-3,0-5,1-7c0-1,1-2,1-3c1-4,2-20,1-26c1-1,2-4,3-6v-1c1-2,2-6,0-10c-1-2-1-5-1-8c0-2,0-4,0-6c0-1,0-4-3-4c0,0,0,0-1,0l0,0
		c0,0,0,0,0-1c-1-3-1-4-3-4c0,0-1,0-1-1c-1,0-1-1-2-1c-1-1-2-2-4-3l0,0c0-1,2-2,0-4c0-1,0-1,0-1c1-1,1-2,0-4l0,0c-1-4-2-5,0-6
		c1,0,3-1,4-1c1,0,2,0,2,1c1,2,3,2,4,2s2,0,3,1c2,1,3,0,4-1c1-2,0-5-1-6l-1-1c-1-1-3-3-3-7c0-1,0-4-2-4h-1l0,0l0,0c-1-1-1-2-2-3
		c0-1-1-3-2-4c0-1-1-1-1-1s1-1,2-1c2-1,2-3,2-5c-1-2-2-3-4-3c0,0,0-1-1-1c-1-1-2-3-5-4c-1,0-1,0-1-1c-1-2-2-3-6-3c-2,0-3,0-4,0
		c-3,0-4,0-6-1c0,0-1-1-2-2c-3-3-6-7-12-6c-1,0-1,0-2,0c-2,0-3-1-5-2c0,0-1-1-2-1c-1,0-1-1-2-3c-2-2-4-5-7-5c-1,0-1,0-2,1h-1
		c0,0-1,0-2-1c-1,0-2-1-3-1s-1,0-2,0c-1,1-3,1-4,1c-1,0-2,0-2-2c-1-1-1-3-1-5c0-3,0-6-3-6c-2,0-2-1-3-2s-1-1-2-1c0,0,0,0,0-1
		s0-3-4-4c-3,0-5-1-6-2c-1,0-1-1-2-1s-6-1-8-1c-1,0-2,0-3,0s-1,1-2,1c-1,1-1,1-2,0c-1-1-1-1-2-2c-1-1-1-2-3-2l0,0c0-1,0-3-2-3l-2-1
		c-2-1-3-2-5-2c0,0-1-1-1-2c-1-1-1-2-3-2h-1c0,0,0,0-1-1c-1-1-2-1-3-1h-1l0,0c0-1-1-4-4-4c-1,0-2,0-2,0c-1,0-1,0-2,1s-1,2-1,3v1v1
		l0,0c0,0,0,0-2,0c-1,0-1,0-2,0s-3,0-4,0s-2,0-2,0c-2-1-10-1-12-1c-1,0-1,0-1,1c0,0,0,1,1,1c1,0,5,3,6,5c1,2-1,4-4,6c-1,1-2,1-3,1
		c-2,1-5,2-6,4c-2,3-5,9-3,12c0,1,0,2,1,3c1,4,2,9,5,11c4,3,6,5,9,4c1,0,2,0,3,0c1,0,1,0,2,0l0,0c0,1,0,2-1,3s-2,1-3,1c-2,0-5,0-7,1
		c-3,1-7,1-11,1c-5,0-7,2-9,4c-2,2-4,4-8,5c-7,2-7,11-7,15c0,4,1,8,2,10v1c0,2,0,5,0,7c0,1,0,2,0,3c0,1,0,3,0,5c0,4,0,11-1,12
		c-2,2-3,6-3,9c0,2-3,5-6,7c-2,1-2,3-2,5c0,1,0,2,0,2s0,0-1,0l0,0h-1c0-1,1-1,1-2c0,0,0-1,0-2c0-3,0-5,2-7c5-2,4-9,4-13l0,0
		c0-1,0-2,1-3c1-1,1-3,1-5c0-1-1-2-3-2c-2,0-4,2-4,5c0,1-1,3-2,5c-1,1-2,3-2,4s1,2,1,2s1,1-1,2c-2,3-2,6-3,9c0,1,0,3-1,3
		c0,0,0,0-1,0c-1,0-2-1-2-2c0-1,0-1-1-3c-1-2-2-5-1-6c2-3,3-6,2-9c0-1,0-1,1-2c1-1,2-3,2-5s-1-3-1-4c-1-2-1-2,0-4c5-4,3-8,1-10l-1-1
		c-1-1-2-2,1-5c4-3,7-6,6-8c0-2-3-2-3-2c-1,0-2,0-2,0c-2,0-2,1-3,2l0,0c-2,1-7,4-7,8c0,3-3,10-4,10c-3,1-7,5-7,10c-1,10-2,10-4,10
		c-1,0-2-1-4-2c-1-1-2-2-4-2h-1c-2,0-3,1-3,2c0,1-1,2-2,2c-2,1-2,2-2,3v1c0,0-1,0-3,0c-1,0-2-1-3-1c-2,0-3,1-3,1c-1,2,0,5,1,7
		c1,3,0,6-2,8c-1,1-1,4,0,6c0,1,1,2,0,3h-1c-6,0-16,4-16,11c0,3,1,5,2,7c1,1,2,3,1,5c0,1,0,2,0,3c0,3,0,5-2,9c-1,3-1,6-1,8
		c0,3,0,6-1,8c-1,2-3,5-4,9c-2,4-5,9-7,14c-3,8-8,14-10,14c-2,1-4,4-4,9c0,2,1,3,2,4c1,1,3,3,4,8c0,3,1,6,1,9c1,5,2,9,0,12
		c-1,1-1,2-2,3c-3,5-6,10-7,13c-1,3,0,13,4,18c1,2,3,7,4,13c2,9,5,18,8,23c6,8,12,23,11,29c0,3,0,5,1,7c1,2,2,5,3,11c1,12-1,40-2,48
		c0,4-2,9-3,14c-1,6-3,11-3,15c0,4-2,6-4,9c-2,2-3,5-5,8c-2,4-4,6-6,7c-3,3-5,5-4,9c0,2,0,3-1,3c-2,1-4,3-5,10c-2,12-8,16-15,20
		c-6,3-10,6-11,9c0,1,0,2,0,2h1h197v7c0,1,0,1,1,1h6c1,0,1,0,1-1l0,0h37c1,0,1,0,1-1v-1h70c1,0,1,0,1-1v-1h20h1v-1c0-1-1-5-2-6l1-2
		c1-1,2-2,2-4c1-2,1-2,3-3c1-1,2-2,4-4c1-1,1-2,2-3c1-2,2-3,4-4c2-1,4-3,5-5c1-2,3-3,4-4c1,0,2-1,2-1c0-1-1-2-2-3l-1-2c0,0,0,0,1,0
		c3-1,5-2,6-5c1-3,1-6,1-8c-1-3-1-8,0-10c0-1,1-2,1-4c1-2,2-7,3-7h1c3,0,11-1,13-5c0-1,1-2,2-4c2-3,4-5,4-9c-1-5-1-11,2-14h1
		c0,0,1,0,2,0s3,1,4,0c1-1,1-2,1-5c0-3-1-4-1-5c1,0,2-1,4-2l2-1c3-2,4-3,5-3c0,0,0,0,1,1c2,1,3,2,3,3c0,0,0,0-1,1c-3,1-5,4-5,6v1v1
		c0,1,1,1,1,2c1,1,2,2,2,2c-2,3-1,4-1,4l1,1c1,0,2,0,5-3c2-1,2-2,3-2c0,0,0,0,1,0c0,0,1,1,2,1c1,0,2-1,2-1c3-4,4-5,6-14c1-4,2-7,2-8
		c1-2,1-4,1-6c0-1,0-2,0-2c0-2-1-3,0-6c1-2,0-4,0-5c0-3,0-5,2-7C790,633,791,628,788,621z"/>
	<path fill="#D1D0C9" d="M421,347c-1,1-1,2-2,2c0,0,0,1-1,1c-1,1-1,2-1,2c0,2,4,2,4,2h1c3,0,4-3,4-4c0,0,1,0,1-1c0-1,0-2-1-3l-1-1
		C426,346,423,346,421,347z"/>
	<path fill="#D1D0C9" d="M436,346L436,346C437,346,437,346,436,346c1,0,1-1,1-1c1-11,0-12,0-12c-1-1-2-2-6-3h-1c-1,0-3,0-3,3
		c0,1,0,3,0,4S432,345,436,346z"/>
</g>
<rect x="533" y="671" fill="#6F6F63" width="44.9" height="37.7"/>
</svg>
