<?xml version="1.0" encoding="utf-8"?>
<!-- Generator: Adobe Illustrator 17.1.0, SVG Export Plug-In . SVG Version: 6.00 Build 0)  -->
<!DOCTYPE svg PUBLIC "-//W3C//DTD SVG 1.1//EN" "http://www.w3.org/Graphics/SVG/1.1/DTD/svg11.dtd">
<svg version="1.1" id="Layer_1" xmlns="http://www.w3.org/2000/svg" xmlns:xlink="http://www.w3.org/1999/xlink" x="0px" y="0px"
	 viewBox="0 0 800 800" enable-background="new 0 0 800 800" xml:space="preserve">
<g>
	<path fill="#6F6F63" d="M400,800c-106.9,0-207.4-41.6-282.9-117.1S0,506.9,0,400s41.6-207.4,117.1-282.9S293.1,0,400,0
		s207.4,41.6,282.9,117.1S800,293.1,800,400s-41.6,207.4-117.1,282.9S506.9,800,400,800z M400,15.7c-102.7,0-199.2,40-271.7,112.6
		S15.7,297.3,15.7,400s40,199.2,112.6,271.7S297.4,784.3,400,784.3c102.7,0,199.2-40,271.7-112.6S784.3,502.6,784.3,400
		c0-102.7-40-199.2-112.6-271.7S502.7,15.7,400,15.7z"/>
</g>
<g>
	<path fill="#D1D0C9" d="M457.9,113.6c0,0,0.6,1.8,1.8,4.3C460.1,111.5,457.9,113.6,457.9,113.6z"/>
	<path fill="#D1D0C9" d="M614,386.3c0,0-13.6-2.8-4.2-14.6s29.6-17.9,29.6-17.9c-6.1,0.5-8.9-4.2-8.9-4.2
		c-46.1,2.4-31.5-20.7-31.5-20.7c-74.3,19.3-87.9-10.3-87.9-22.1c0-11.8,24.9-34.8,34.3-44.7c9.4-9.9,33.4-23,33.4-23
		c-23-4.2,11.3-39,11.3-39s-32.9,10.3-53.6-0.9c-20.7-11.3,0-55.5,0-55.5c-27.3,9.4-16-30.6-16-30.6c-8.5,9.9-2.8-10.3-2.8-10.3
		c-3.3,0.9-3.3-3.8-3.3-3.8c-7.1,17.9-12.7,8-12.7,8c-1.9,8.9-9.4,31-23.5,28.2c-9.8-2-15.7-11.6-18.5-17.4
		c-0.3,4.5-2.1,13.3-6.9,30c-11.8,40.4-21.2,41.4-37.1,39c-16-2.4-39.5-33.4-39.5-33.4c-2.8,5.2-12.2-12.7-12.2-12.7
		s-5.6,0.5-10.8,32.9c-5.2,32.4-14.6,7.1-14.6,7.1c-2.8,8.5,8.9,31,18.3,56.9s9.4,61.6,0,60.2s-24-18.8-33.4-26.8
		s-37.1-48.9-37.1-48.9c7.1,32-37.6-20.7-37.6-20.7c8.9,67.7-12.2,38.6-12.2,38.6c0,7.1,15.5,36.7,17.9,47.5
		c2.4,10.8-35.3,18.3-35.3,18.3c4.7,0,31,13.6,40.9,24c9.9,10.3,34.3,35.7,40.9,44.7c6.6,8.9,16.5,16.5,0.9,17.9
		s-62.1-24.9-62.1-24.9c8.9,16-31-7.5-31-7.5s14.6,19.7,24.9,39c10.3,19.3-10.3,11.3-10.3,11.3s4.2,6.1,13.6,9.9
		c9.4,3.8,33.9,22.6,47,37.1c13.2,14.6,8.9,24.9-1.9,20.2s-40.9,0-40.9,0s26.3,6.1,32,17.9c5.6,11.8,18.3,19.7,24,26.8
		c5.6,7.1,12.2,25.4,20.7,32.4c5.5,4.6,7.6,9.1,8.4,11.8c-9.4,28.2-28.7,86.2-32.9,102c-5.6,21.2-11.3,33.4-6.1,35.7
		c5.2,2.4,8.9-12.7,13.2-33.4c3.3-16.3,18.6-73.3,28.6-103.1c3.1-1.2,9.3-3.1,17.9-2.7c12.7,0.5,32.9-5.2,46.5-11.8
		c13.6-6.6,49.4-11.3,49.4-11.3c-13.2-8.5,24.9-2.8,24.9-2.8c-1.4-5.6-16.5-14.1-27.3-16.9s-31-17.4-22.1-22.1s44.2,6.1,58.3,12.7
		c14.1,6.6,22.1,8.5,22.1,8.5c-14.1-20.7,34.3-12.2,34.3-12.2c-3.8-11.8,20.7,0.9,20.7,0.9c-21.2-16-12.2-16.5-12.2-16.5
		c-41.8-16-20.2-22.1-20.2-22.1c-76.6-17.4-64.9-36.7-57.8-44.2c7.1-7.5,48.9-11.3,59.7-14.6c10.8-3.3,60.7,10.3,60.7,10.3
		C555.2,388.6,614,386.3,614,386.3z"/>
</g>
<g>
	<path fill="#393933" d="M102.1,339.4h75v17.3h-57.2v34.7h48.8v16.3h-48.8v35.7H177v17.3h-75V339.4z"/>
	<path fill="#393933" d="M290.9,433.5h-44.5l-9,27.1h-18.8l42.7-121.2h14.9l42.7,121.2H300L290.9,433.5z M285.9,417.2l-17-53h-0.3
		l-17,53H285.9z"/>
	<path fill="#393933" d="M375.9,355.7h-32.2v-16.3h82.1v16.3h-32.2v104.9h-17.8V355.7z"/>
	<path fill="#393933" d="M468.1,400c0-14.1,0.4-23.5,1.2-28.3c0.9-4.8,2.2-8.6,3.9-11.6c2.8-5.6,7.4-10.5,13.7-14.9
		c6.2-4.4,13.9-6.7,23.1-6.8c9.3,0.1,17.1,2.4,23.3,6.8c6.2,4.4,10.6,9.4,13.4,15c2,2.9,3.4,6.8,4.1,11.6c0.7,4.8,1,14.2,1,28.3
		c0,13.9-0.3,23.2-1,28.1c-0.8,4.9-2.1,8.8-4.1,11.7c-2.7,5.6-7.2,10.5-13.4,14.8c-6.2,4.4-14,6.8-23.3,7c-9.2-0.2-16.9-2.5-23.1-7
		c-6.3-4.3-10.8-9.2-13.7-14.8c-0.9-1.8-1.6-3.6-2.3-5.2c-0.6-1.7-1.2-3.9-1.6-6.5C468.5,423.2,468.1,413.9,468.1,400z M485.9,400
		c0,11.9,0.4,20,1.3,24.2c0.8,4.2,2.3,7.6,4.6,10.2c1.9,2.5,4.4,4.5,7.4,6.1c3,1.8,6.6,2.7,10.8,2.7c4.2,0,7.9-0.9,11-2.7
		c3-1.6,5.3-3.6,7.1-6.1c2.3-2.6,3.9-6,4.8-10.2c0.8-4.2,1.2-12.3,1.2-24.2c0-11.9-0.4-20.1-1.2-24.4c-0.9-4.1-2.4-7.5-4.8-10.1
		c-1.8-2.5-4.1-4.6-7.1-6.2c-3.1-1.6-6.8-2.5-11-2.6c-4.2,0.1-7.8,1-10.8,2.6c-3.1,1.7-5.5,3.7-7.4,6.2c-2.3,2.6-3.8,6-4.6,10.1
		C486.3,379.9,485.9,388.1,485.9,400z"/>
	<path fill="#393933" d="M609.9,339.4h16.8l53.2,86.1h0.3v-86.1h17.8v121.2h-16.8L628,374.4h-0.3v86.1h-17.8V339.4z"/>
</g>
<g>
	<path fill="#6F6F63" d="M342,675.3l-5.4,4.1v-6l5.4-4.1h5.5v39.4H342V675.3z"/>
	<path fill="#6F6F63" d="M365,697.3c0-3.8,1.6-6.8,4.7-8.9c-1.2-1-2.1-2.2-2.8-3.5c-0.8-1.2-1.2-2.7-1.2-4.4c0-3.3,1.1-6,3.2-8.1
		c2-2.1,4.6-3.2,7.7-3.2c3.2,0,5.8,1.1,7.8,3.2c2,2.1,3.1,4.9,3.1,8.1c0,1.7-0.4,3.2-1.1,4.4c-0.7,1.3-1.7,2.5-2.9,3.5
		c3.1,2.1,4.6,5.1,4.7,8.9c0,3.5-1.2,6.4-3.4,8.5c-2.3,2.2-5,3.3-8.3,3.3c-3.3,0-6-1.1-8.2-3.3C366.1,703.6,365,700.8,365,697.3z
		 M370.4,697.2c0,1.8,0.7,3.3,1.9,4.4c1.2,1.2,2.6,1.8,4.3,1.8c1.7,0,3.2-0.6,4.4-1.8c1.2-1.2,1.8-2.6,1.8-4.4
		c0-1.8-0.7-3.3-1.8-4.5c-1.2-1.1-2.6-1.7-4.4-1.8c-1.7,0-3.1,0.6-4.3,1.8C371.1,693.9,370.4,695.4,370.4,697.2z M371.1,680.3
		c0,1.8,0.6,3.2,1.7,4.2c1.1,1,2.3,1.5,3.8,1.5c1.5,0,2.8-0.5,3.8-1.5c1.1-1,1.6-2.4,1.7-4.2c0-1.9-0.6-3.3-1.7-4.3
		c-1.1-0.9-2.4-1.4-3.8-1.4c-1.4,0-2.7,0.5-3.8,1.4C371.7,677,371.2,678.4,371.1,680.3z"/>
	<path fill="#6F6F63" d="M410.8,686h1.9c1.9,0,3.3-0.5,4.4-1.6c1-1,1.5-2.4,1.5-4c0-1.7-0.6-3-1.6-4.1c-1-1-2.4-1.6-4-1.6
		c-1.2,0-2.2,0.4-3.2,1.2c-1,0.8-1.7,2-2,3.6h-5.5c0.3-2.9,1.4-5.4,3.4-7.4c2-2,4.3-3,7.1-3c3.5,0,6.2,1.2,8.3,3.4
		c2,2.2,2.9,4.8,3,7.8c0,1.5-0.3,3-0.8,4.4c-0.6,1.4-1.8,2.7-3.4,3.8c1.7,1.1,2.9,2.4,3.6,3.9c0.7,1.5,1.1,3.1,1.1,4.8
		c0,3.7-1.1,6.6-3.3,8.7c-2.1,2.2-4.9,3.3-8.3,3.3c-2.6,0-4.9-0.9-6.9-2.6c-2-1.7-3.3-4.2-3.9-7.5h5.5c0.5,1.3,1.2,2.4,2.1,3.2
		c0.9,0.8,2.1,1.3,3.6,1.3c1.6,0,3-0.6,4.1-1.7c1.1-1.1,1.7-2.6,1.7-4.6c0-2-0.6-3.6-1.7-4.7c-1.1-1.1-2.5-1.6-4.2-1.6h-2.3V686z"/>
	<path fill="#6F6F63" d="M441.8,669.4h21.7v5.6l-12.9,33.8h-6.1l12.9-33.8h-10.1v5.7h-5.5V669.4z"/>
</g>
</svg>
