<?xml version="1.0" encoding="utf-8"?>
<!-- Generator: Adobe Illustrator 17.1.0, SVG Export Plug-In . SVG Version: 6.00 Build 0)  -->
<!DOCTYPE svg PUBLIC "-//W3C//DTD SVG 1.1//EN" "http://www.w3.org/Graphics/SVG/1.1/DTD/svg11.dtd">
<svg version="1.1" id="Layer_1" xmlns="http://www.w3.org/2000/svg" xmlns:xlink="http://www.w3.org/1999/xlink" x="0px" y="0px"
	 viewBox="0 0 800 800" enable-background="new 0 0 800 800" xml:space="preserve">
<path fill="#D1D0C9" d="M400,179.8c29.7,0,58.6,5.8,85.7,17.3c26.2,11.1,49.8,27,70,47.2c20.2,20.2,36.1,43.8,47.2,70
	c11.5,27.1,17.3,56,17.3,85.7s-5.8,58.6-17.3,85.7c-11.1,26.2-27,49.8-47.2,70c-20.2,20.2-43.8,36.1-70,47.2
	c-27.1,11.5-56,17.3-85.7,17.3s-58.6-5.8-85.7-17.3c-26.2-11.1-49.8-27-70-47.2c-20.2-20.2-36.1-43.8-47.2-70
	c-11.5-27.1-17.3-56-17.3-85.7s5.8-58.6,17.3-85.7c11.1-26.2,27-49.8,47.2-70c20.2-20.2,43.8-36.1,70-47.2
	C341.4,185.6,370.3,179.8,400,179.8 M400,171.8C274,171.8,171.8,274,171.8,400S274,628.2,400,628.2S628.2,526,628.2,400
	S526,171.8,400,171.8L400,171.8z"/>
<g>
	<path fill="#6F6F63" d="M400,800c-106.9,0-207.4-41.6-282.9-117.1S0,506.9,0,400s41.6-207.4,117.1-282.9S293.1,0,400,0
		s207.4,41.6,282.9,117.1S800,293.1,800,400s-41.6,207.4-117.1,282.9S506.9,800,400,800z M400,15.7c-102.7,0-199.2,40-271.7,112.6
		S15.7,297.3,15.7,400s40,199.2,112.6,271.7S297.4,784.3,400,784.3c102.7,0,199.2-40,271.7-112.6S784.3,502.6,784.3,400
		c0-102.7-40-199.2-112.6-271.7S502.7,15.7,400,15.7z"/>
</g>
<g>
	<path fill="#D1D0C9" d="M512.9,201.7c-33.3-19-71.8-29.9-112.9-29.9C274,171.8,171.8,274,171.8,400S274,628.2,400,628.2
		c41.1,0,79.6-10.9,112.9-29.9V201.7z"/>
	<g>
		<g>
			<defs>
				<path id="SVGID_1_" d="M512.9,201.7c-33.3-19-71.8-29.9-112.9-29.9C274,171.8,171.8,274,171.8,400S274,628.2,400,628.2
					c41.1,0,79.6-10.9,112.9-29.9V201.7z"/>
			</defs>
			<clipPath id="SVGID_2_">
				<use xlink:href="#SVGID_1_"  overflow="visible"/>
			</clipPath>
			<g clip-path="url(#SVGID_2_)">
				<path fill="#6F6F63" d="M1583.8,1975.4c-4.7-9.3-9.3-14-18.7-23.3c-9.3-9.3-18.7-23.3-18.7-28c0-9.3,0-18.7-4.7-32.7
					c0-14-4.7-23.3-4.7-32.7c0-4.7,0-9.3,0-14c0-9.3,0-23.3-4.7-46.7c-4.7-14-4.7-23.3,0-37.3c0-14,0-32.7-9.3-51.3
					c-9.3-28-23.3-88.7-23.3-112c0-18.7-9.3-102.7-23.3-140c-9.3-18.7-14-28-18.7-37.3s-9.3-9.3-9.3-14c0-14-9.3-32.7-23.3-42
					c-4.7,0-4.7-4.7-9.3-9.3c-4.7-4.7-9.3-14-18.7-14c-9.3,0-23.3-4.7-28-9.3c0,0,0,0-4.7-4.7c0-4.7-4.7-9.3-18.7-9.3
					c-4.7,0-4.7,0-9.3,0c-9.3,4.7-14,4.7-18.7,9.3c-4.7,4.7-9.3,9.3-23.3,9.3c-4.7,0-9.3,4.7-14,4.7c-4.7,4.7,0,9.3,0,9.3l0,0
					c0,0,0,0-9.3,0c-18.7,0-18.7,4.7-23.3,9.3c0,0,0,0-9.3,4.7c-14,0-23.3,4.7-28,9.3c-4.7,4.7-9.3,4.7-14,4.7s-4.7,0-9.3,4.7v4.7
					c0,0,0,4.7-4.7,4.7l-4.7,4.7c-14,4.7-28,14-28,23.3c0,4.7,0,9.3,9.3,14c4.7,0,4.7,4.7,4.7,4.7c0,4.7-4.7,9.3-14,14h-4.7
					c-14,4.7-23.3,4.7-18.7,23.3c0,9.3,0,9.3-4.7,18.7l-4.7,4.7c-4.7,9.3-9.3,9.3-9.3,14c0,0,0,4.7-4.7,14s-14,18.7-18.7,18.7l0,0
					c0-4.7-4.7-4.7-4.7-4.7c-4.7,0-9.3,4.7-14,18.7s-14,28-28,37.3c-9.3,4.7-14,14-18.7,18.7l-4.7,4.7c0,0-4.7,0-9.3-9.3
					c-14-14-32.7-18.7-51.3-23.3c-9.3-4.7-18.7-4.7-28-9.3c-4.7-4.7-9.3-4.7-14-9.3c-18.7,0-18.7,0-18.7-14c0-9.3-4.7-18.7-9.3-23.3
					c0,0-4.7-4.7-4.7-9.3l0,0c18.7-9.3,18.7-37.3,18.7-65.3v-4.7c0-18.7,0-28,9.3-32.7c4.7,0,4.7,0,9.3-4.7c4.7-4.7,0-9.3,0-14
					s0-9.3,0-9.3s4.7-4.7,9.3-4.7c9.3,0,18.7-4.7,28-4.7c18.7-4.7,32.7-9.3,42-4.7c4.7,0,9.3,0,14,0c4.7-4.7,0-4.7,0-9.3
					s0-9.3,0-9.3c4.7-4.7,9.3-4.7,18.7-4.7c9.3,0,23.3,0,23.3-14s4.7-37.3,4.7-65.3c4.7-4.7,9.3-18.7,9.3-37.3
					c0-23.3,9.3-28,14-32.7s4.7-4.7,9.3-9.3v-4.7l4.7,4.7l4.7,4.7c0,0,4.7,4.7,9.3,4.7c9.3,0,14-4.7,18.7-14l4.7-4.7
					c0-4.7,4.7-4.7,9.3-9.3c9.3-4.7,23.3-14,14-32.7c-4.7-14,0-23.3,4.7-32.7c0-4.7,4.7-9.3,4.7-14c4.7-18.7,9.3-93.3,4.7-121.4
					c4.7-4.7,9.3-18.7,14-28v-4.7c4.7-9.3,9.3-28,0-46.7c-4.7-9.3-4.7-23.3-4.7-37.3c0-9.3,0-18.7,0-28c0-4.7,0-18.7-14-18.7
					c0,0,0,0-4.7,0l0,0c0,0,0,0,0-4.7c-4.7-14-4.7-18.7-14-18.7c0,0-4.7,0-4.7-4.7c-4.7,0-4.7-4.7-9.3-4.7c-4.7-4.7-9.3-9.3-18.7-14
					l0,0c0-4.7,9.3-9.3,0-18.7c0-4.7,0-4.7,0-4.7c4.7-4.7,4.7-9.3,0-18.7l0,0c-4.7-18.7-9.3-23.3,0-28c4.7,0,14-4.7,18.7-4.7
					s9.3,0,9.3,4.7c4.7,9.3,14,9.3,18.7,9.3s9.3,0,14,4.7c9.3,4.7,14,0,18.7-4.7c4.7-9.3,0-23.3-4.7-28l-4.7-4.7
					c-4.7-4.7-14-14-14-32.7c0-4.7,0-18.7-9.3-18.7h-4.7l0,0l0,0c-4.7-4.7-4.7-9.3-9.3-14c0-4.7-4.7-14-9.3-18.7
					c0-4.7-4.7-4.7-4.7-4.7s4.7-4.7,9.3-4.7c9.3-4.7,9.3-14,9.3-23.3c-4.7-9.3-9.3-14-18.7-14c0,0,0-4.7-4.7-4.7
					c-4.7-4.7-9.3-14-23.3-18.7c-4.7,0-4.7,0-4.7-4.7c-4.7-9.3-9.3-14-28-14c-9.3,0-14,0-18.7,0c-14,0-18.7,0-28-4.7
					c0,0-4.7-4.7-9.3-9.3c-14-14-28-32.7-56-28c-4.7,0-4.7,0-9.3,0c-9.3,0-14-4.7-23.3-9.3c0,0-4.7-4.7-9.3-4.7s-4.7-4.7-9.3-14
					c-9.3-9.3-18.7-23.3-32.7-23.3c-4.7,0-4.7,0-9.3,4.7h-4.7c0,0-4.7,0-9.3-4.7c-4.7,0-9.3-4.7-14-4.7s-4.7,0-9.3,0
					c-4.7,4.7-14,4.7-18.7,4.7s-9.3,0-9.3-9.3c-4.7-4.7-4.7-14-4.7-23.3c0-14,0-28-14-28c-9.3,0-9.3-4.7-14-9.3s-4.7-4.7-9.3-4.7
					c0,0,0,0,0-4.7s0-14-18.7-18.7c-14,0-23.3-4.7-28-9.3c-4.7,0-4.7-4.7-9.3-4.7c-4.7,0-28-4.7-37.3-4.7c-4.7,0-9.3,0-14,0
					s-4.7,4.7-9.3,4.7c-4.7,4.7-4.7,4.7-9.3,0c-4.7-4.7-4.7-4.7-9.3-9.3c-4.7-4.7-4.7-9.3-14-9.3l0,0c0-4.7,0-14-9.3-14l-9.3-4.7
					c-9.3-4.7-14-9.3-23.3-9.3c0,0-4.7-4.7-4.7-9.3c-4.7-4.7-4.7-9.3-14-9.3H543c0,0,0,0-4.7-4.7s-9.3-4.7-14-4.7h-4.7l0,0
					c0-4.7-4.7-18.7-18.7-18.7c-4.7,0-9.3,0-9.3,0c-4.7,0-4.7,0-9.3,4.7c-4.7,4.7-4.7,9.3-4.7,14v4.7v4.7l0,0c0,0,0,0-9.3,0
					c-4.7,0-4.7,0-9.3,0c-4.7,0-14,0-18.7,0s-9.3,0-9.3,0c-9.3-4.7-46.7-4.7-56-4.7c-4.7,0-4.7,0-4.7,4.7c0,0,0,4.7,4.7,4.7
					s23.3,14,28,23.3s-4.7,18.7-18.7,28c-4.7,4.7-9.3,4.7-14,4.7c-9.3,4.7-23.3,9.3-28,18.7c-9.3,14-23.3,42-14,56
					c0,4.7,0,9.3,4.7,14c4.7,18.7,9.3,42,23.3,51.3c18.7,14,28,23.3,42,18.7c4.7,0,9.3,0,14,0s4.7,0,9.3,0l0,0c0,4.7,0,9.3-4.7,14
					s-9.3,4.7-14,4.7c-9.3,0-23.3,0-32.7,4.7c-14,4.7-32.7,4.7-51.3,4.7c-23.3,0-32.7,9.3-42,18.7c-9.3,9.3-18.7,18.7-37.3,23.3
					c-32.7,9.3-32.7,51.3-32.7,70s4.7,37.3,9.3,46.7v4.7c0,9.3,0,23.3,0,32.7c0,4.7,0,9.3,0,14s0,14,0,23.3c0,18.7,0,51.3-4.7,56
					c-9.3,9.3-14,28-14,42c0,9.3-14,23.3-28,32.7c-9.3,4.7-9.3,14-9.3,23.3c0,4.7,0,9.3,0,9.3s0,0-4.7,0l0,0h-4.7
					c0-4.7,4.7-4.7,4.7-9.3c0,0,0-4.7,0-9.3c0-14,0-23.3,9.3-32.7c23.3-9.3,18.7-42,18.7-60.7l0,0c0-4.7,0-9.3,4.7-14
					s4.7-14,4.7-23.3c0-4.7-4.7-9.3-14-9.3s-18.7,9.3-18.7,23.3c0,4.7-4.7,14-9.3,23.3c-4.7,4.7-9.3,14-9.3,18.7s4.7,9.3,4.7,9.3
					s4.7,4.7-4.7,9.3c-9.3,14-9.3,28-14,42c0,4.7,0,14-4.7,14c0,0,0,0-4.7,0s-9.3-4.7-9.3-9.3c0-4.7,0-4.7-4.7-14s-9.3-23.3-4.7-28
					c9.3-14,14-28,9.3-42c0-4.7,0-4.7,4.7-9.3c4.7-4.7,9.3-14,9.3-23.3s-4.7-14-4.7-18.7c-4.7-9.3-4.7-9.3,0-18.7
					c23.3-18.7,14-37.3,4.7-46.7l-4.7-4.7c-4.7-4.7-9.3-9.3,4.7-23.3c18.7-14,32.7-28,28-37.3c0-9.3-14-9.3-14-9.3
					c-4.7,0-9.3,0-9.3,0c-9.3,0-9.3,4.7-14,9.3l0,0c-9.3,4.7-32.7,18.7-32.7,37.3c0,14-14,46.7-18.7,46.7
					c-14,4.7-32.7,23.3-32.7,46.7c-4.7,46.7-9.3,46.7-18.7,46.7c-4.7,0-9.3-4.7-18.7-9.3c-4.7-4.7-9.3-9.3-18.7-9.3h-4.7
					c-9.3,0-14,4.7-14,9.3c0,4.7-4.7,9.3-9.3,9.3c-9.3,4.7-9.3,9.3-9.3,14v4.7c0,0-4.7,0-14,0c-4.7,0-9.3-4.7-14-4.7
					c-9.3,0-14,4.7-14,4.7c-4.7,9.3,0,23.3,4.7,32.7c4.7,14,0,28-9.3,37.3c-4.7,4.7-4.7,18.7,0,28c0,4.7,4.7,9.3,0,14h-4.7
					c-28,0-74.7,18.7-74.7,51.3c0,14,4.7,23.3,9.3,32.7c4.7,4.7,9.3,14,4.7,23.3c0,4.7,0,9.3,0,14c0,14,0,23.3-9.3,42
					c-4.7,14-4.7,28-4.7,37.3c0,14,0,28-4.7,37.3s-14,23.3-18.7,42c-9.3,18.7-23.3,42-32.7,65.3c-14,37.3-37.3,65.3-46.7,65.3
					c-9.3,4.7-18.7,18.7-18.7,42c0,9.3,4.7,14,9.3,18.7c4.7,4.7,14,14,18.7,37.3c0,14,4.7,28,4.7,42c4.7,23.3,9.3,42,0,56
					c-4.7,4.7-4.7,9.3-9.3,14c-14,23.3-28,46.7-32.7,60.7s0,60.7,18.7,84c4.7,9.3,14,32.7,18.7,60.7c9.3,42,23.3,84,37.3,107.4
					c28,37.3,56,107.4,51.3,135.4c0,14,0,23.3,4.7,32.7c4.7,9.3,9.3,23.3,14,51.3c4.7,56-4.7,186.7-9.3,224c0,18.7-9.3,42-14,65.3
					c-4.7,28-14,51.3-14,70s-9.3,28-18.7,42c-9.3,9.3-14,23.3-23.3,37.3c-9.3,18.7-18.7,28-28,32.7c-14,14-23.3,23.3-18.7,42
					c0,9.3,0,14-4.7,14c-9.3,4.7-18.7,14-23.3,46.7c-9.3,56-37.3,74.7-70,93.3c-28,14-46.7,28-51.3,42c0,4.7,0,9.3,0,9.3h4.7H473
					v32.7c0,4.7,0,4.7,4.7,4.7h28c4.7,0,4.7,0,4.7-4.7l0,0H683c4.7,0,4.7,0,4.7-4.7v-4.7h326.7c4.7,0,4.7,0,4.7-4.7v-4.7h93.3h4.7
					v-4.7c0-4.7-4.7-23.3-9.3-28l4.7-9.3c4.7-4.7,9.3-9.3,9.3-18.7c4.7-9.3,4.7-9.3,14-14c4.7-4.7,9.3-9.3,18.7-18.7
					c4.7-4.7,4.7-9.3,9.3-14c4.7-9.3,9.3-14,18.7-18.7c9.3-4.7,18.7-14,23.3-23.3c4.7-9.3,14-14,18.7-18.7c4.7,0,9.3-4.7,9.3-4.7
					c0-4.7-4.7-9.3-9.3-14l-4.7-9.3c0,0,0,0,4.7,0c14-4.7,23.3-9.3,28-23.3s4.7-28,4.7-37.3c-4.7-14-4.7-37.3,0-46.7
					c0-4.7,4.7-9.3,4.7-18.7c4.7-9.3,9.3-32.7,14-32.7h4.7c14,0,51.3-4.7,60.7-23.3c0-4.7,4.7-9.3,9.3-18.7
					c9.3-14,18.7-23.3,18.7-42c-4.7-23.3-4.7-51.3,9.3-65.3h4.7c0,0,4.7,0,9.3,0c4.7,0,14,4.7,18.7,0s4.7-9.3,4.7-23.3
					s-4.7-18.7-4.7-23.3c4.7,0,9.3-4.7,18.7-9.3l9.3-4.7c14-9.3,18.7-14,23.3-14c0,0,0,0,4.7,4.7c9.3,4.7,14,9.3,14,14
					c0,0,0,0-4.7,4.7c-14,4.7-23.3,18.7-23.3,28v4.7v4.7c0,4.7,4.7,4.7,4.7,9.3c4.7,4.7,9.3,9.3,9.3,9.3c-9.3,14-4.7,18.7-4.7,18.7
					l4.7,4.7c4.7,0,9.3,0,23.3-14c9.3-4.7,9.3-9.3,14-9.3c0,0,0,0,4.7,0c0,0,4.7,4.7,9.3,4.7c4.7,0,9.3-4.7,9.3-4.7
					c14-18.7,18.7-23.3,28-65.3c4.7-18.7,9.3-32.7,9.3-37.3c4.7-9.3,4.7-18.7,4.7-28c0-4.7,0-9.3,0-9.3c0-9.3-4.7-14,0-28
					c4.7-9.3,0-18.7,0-23.3c0-14,0-23.3,9.3-32.7C1593.2,2031.4,1597.8,2008,1583.8,1975.4z"/>
				<path fill="#D1D0C9" d="M-136.8,746.3c-4.6,4.6-4.6,9.1-9.1,9.1c0,0,0,4.6-4.6,4.6c-4.6,4.6-4.6,9.1-4.6,9.1
					c0,9.1,18.2,9.1,18.2,9.1h4.6c13.7,0,18.2-13.7,18.2-18.2c0,0,4.6,0,4.6-4.6s0-9.1-4.6-13.7l-4.6-4.6
					C-114,741.7-127.6,741.7-136.8,746.3z"/>
				<path fill="#D1D0C9" d="M-68.4,741.7L-68.4,741.7C-63.9,741.7-63.9,741.7-68.4,741.7c4.6,0,4.6-4.6,4.6-4.6
					c4.6-50.1,0-54.7,0-54.7c-4.6-4.6-9.1-9.1-27.3-13.7h-4.6c-4.6,0-13.7,0-13.7,13.7c0,4.6,0,13.7,0,18.2
					C-109.4,705.2-86.6,737.1-68.4,741.7z"/>
			</g>
		</g>
		<g>
			<defs>
				<path id="SVGID_3_" d="M512.9,201.7c-33.3-19-71.8-29.9-112.9-29.9C274,171.8,171.8,274,171.8,400S274,628.2,400,628.2
					c41.1,0,79.6-10.9,112.9-29.9V201.7z"/>
			</defs>
			<clipPath id="SVGID_4_">
				<use xlink:href="#SVGID_3_"  overflow="visible"/>
			</clipPath>
			<g clip-path="url(#SVGID_4_)">
				<g>
					<defs>
						<path id="SVGID_5_" d="M512.9,538h-126c0,0-5.4,3.6-4.5,7.2s4.5,11.7-5.4,8.1c-9.9-3.6-12.9,1.8-16.2-3
							c-3.3-4.8-7.2-12.6-4.8-15.3c2.4-2.7-2.7-10.8-4.5-13.8s-6.6-6.6-6.9-11.1s-3.6-5.1-5.7-6.3s-27.9-1.2-27.9-1.2v-25.5V125.4
							h201.9V538z"/>
					</defs>
					<clipPath id="SVGID_6_">
						<use xlink:href="#SVGID_5_"  overflow="visible"/>
					</clipPath>
					<g clip-path="url(#SVGID_6_)">
						<path fill="#393933" d="M1583.8,1975.4c-4.7-9.3-9.3-14-18.7-23.3c-9.3-9.3-18.7-23.3-18.7-28c0-9.3,0-18.7-4.7-32.7
							c0-14-4.7-23.3-4.7-32.7c0-4.7,0-9.3,0-14c0-9.3,0-23.3-4.7-46.7c-4.7-14-4.7-23.3,0-37.3c0-14,0-32.7-9.3-51.3
							c-9.3-28-23.3-88.7-23.3-112c0-18.7-9.3-102.7-23.3-140c-9.3-18.7-14-28-18.7-37.3s-9.3-9.3-9.3-14c0-14-9.3-32.7-23.3-42
							c-4.7,0-4.7-4.7-9.3-9.3c-4.7-4.7-9.3-14-18.7-14c-9.3,0-23.3-4.7-28-9.3c0,0,0,0-4.7-4.7c0-4.7-4.7-9.3-18.7-9.3
							c-4.7,0-4.7,0-9.3,0c-9.3,4.7-14,4.7-18.7,9.3c-4.7,4.7-9.3,9.3-23.3,9.3c-4.7,0-9.3,4.7-14,4.7c-4.7,4.7,0,9.3,0,9.3l0,0
							c0,0,0,0-9.3,0c-18.7,0-18.7,4.7-23.3,9.3c0,0,0,0-9.3,4.7c-14,0-23.3,4.7-28,9.3c-4.7,4.7-9.3,4.7-14,4.7s-4.7,0-9.3,4.7v4.7
							c0,0,0,4.7-4.7,4.7l-4.7,4.7c-14,4.7-28,14-28,23.3c0,4.7,0,9.3,9.3,14c4.7,0,4.7,4.7,4.7,4.7c0,4.7-4.7,9.3-14,14h-4.7
							c-14,4.7-23.3,4.7-18.7,23.3c0,9.3,0,9.3-4.7,18.7l-4.7,4.7c-4.7,9.3-9.3,9.3-9.3,14c0,0,0,4.7-4.7,14s-14,18.7-18.7,18.7l0,0
							c0-4.7-4.7-4.7-4.7-4.7c-4.7,0-9.3,4.7-14,18.7s-14,28-28,37.3c-9.3,4.7-14,14-18.7,18.7l-4.7,4.7c0,0-4.7,0-9.3-9.3
							c-14-14-32.7-18.7-51.3-23.3c-9.3-4.7-18.7-4.7-28-9.3c-4.7-4.7-9.3-4.7-14-9.3c-18.7,0-18.7,0-18.7-14
							c0-9.3-4.7-18.7-9.3-23.3c0,0-4.7-4.7-4.7-9.3l0,0c18.7-9.3,18.7-37.3,18.7-65.3v-4.7c0-18.7,0-28,9.3-32.7
							c4.7,0,4.7,0,9.3-4.7c4.7-4.7,0-9.3,0-14s0-9.3,0-9.3s4.7-4.7,9.3-4.7c9.3,0,18.7-4.7,28-4.7c18.7-4.7,32.7-9.3,42-4.7
							c4.7,0,9.3,0,14,0c4.7-4.7,0-4.7,0-9.3s0-9.3,0-9.3c4.7-4.7,9.3-4.7,18.7-4.7c9.3,0,23.3,0,23.3-14s4.7-37.3,4.7-65.3
							c4.7-4.7,9.3-18.7,9.3-37.3c0-23.3,9.3-28,14-32.7s4.7-4.7,9.3-9.3v-4.7l4.7,4.7l4.7,4.7c0,0,4.7,4.7,9.3,4.7
							c9.3,0,14-4.7,18.7-14l4.7-4.7c0-4.7,4.7-4.7,9.3-9.3c9.3-4.7,23.3-14,14-32.7c-4.7-14,0-23.3,4.7-32.7c0-4.7,4.7-9.3,4.7-14
							c4.7-18.7,9.3-93.3,4.7-121.4c4.7-4.7,9.3-18.7,14-28v-4.7c4.7-9.3,9.3-28,0-46.7c-4.7-9.3-4.7-23.3-4.7-37.3
							c0-9.3,0-18.7,0-28c0-4.7,0-18.7-14-18.7c0,0,0,0-4.7,0l0,0c0,0,0,0,0-4.7c-4.7-14-4.7-18.7-14-18.7c0,0-4.7,0-4.7-4.7
							c-4.7,0-4.7-4.7-9.3-4.7c-4.7-4.7-9.3-9.3-18.7-14l0,0c0-4.7,9.3-9.3,0-18.7c0-4.7,0-4.7,0-4.7c4.7-4.7,4.7-9.3,0-18.7l0,0
							c-4.7-18.7-9.3-23.3,0-28c4.7,0,14-4.7,18.7-4.7s9.3,0,9.3,4.7c4.7,9.3,14,9.3,18.7,9.3s9.3,0,14,4.7c9.3,4.7,14,0,18.7-4.7
							c4.7-9.3,0-23.3-4.7-28l-4.7-4.7c-4.7-4.7-14-14-14-32.7c0-4.7,0-18.7-9.3-18.7h-4.7l0,0l0,0c-4.7-4.7-4.7-9.3-9.3-14
							c0-4.7-4.7-14-9.3-18.7c0-4.7-4.7-4.7-4.7-4.7s4.7-4.7,9.3-4.7c9.3-4.7,9.3-14,9.3-23.3c-4.7-9.3-9.3-14-18.7-14
							c0,0,0-4.7-4.7-4.7c-4.7-4.7-9.3-14-23.3-18.7c-4.7,0-4.7,0-4.7-4.7c-4.7-9.3-9.3-14-28-14c-9.3,0-14,0-18.7,0
							c-14,0-18.7,0-28-4.7c0,0-4.7-4.7-9.3-9.3c-14-14-28-32.7-56-28c-4.7,0-4.7,0-9.3,0c-9.3,0-14-4.7-23.3-9.3
							c0,0-4.7-4.7-9.3-4.7s-4.7-4.7-9.3-14c-9.3-9.3-18.7-23.3-32.7-23.3c-4.7,0-4.7,0-9.3,4.7h-4.7c0,0-4.7,0-9.3-4.7
							c-4.7,0-9.3-4.7-14-4.7s-4.7,0-9.3,0c-4.7,4.7-14,4.7-18.7,4.7s-9.3,0-9.3-9.3c-4.7-4.7-4.7-14-4.7-23.3c0-14,0-28-14-28
							c-9.3,0-9.3-4.7-14-9.3s-4.7-4.7-9.3-4.7c0,0,0,0,0-4.7s0-14-18.7-18.7c-14,0-23.3-4.7-28-9.3c-4.7,0-4.7-4.7-9.3-4.7
							c-4.7,0-28-4.7-37.3-4.7c-4.7,0-9.3,0-14,0s-4.7,4.7-9.3,4.7c-4.7,4.7-4.7,4.7-9.3,0c-4.7-4.7-4.7-4.7-9.3-9.3
							c-4.7-4.7-4.7-9.3-14-9.3l0,0c0-4.7,0-14-9.3-14l-9.3-4.7c-9.3-4.7-14-9.3-23.3-9.3c0,0-4.7-4.7-4.7-9.3
							c-4.7-4.7-4.7-9.3-14-9.3H543c0,0,0,0-4.7-4.7s-9.3-4.7-14-4.7h-4.7l0,0c0-4.7-4.7-18.7-18.7-18.7c-4.7,0-9.3,0-9.3,0
							c-4.7,0-4.7,0-9.3,4.7c-4.7,4.7-4.7,9.3-4.7,14v4.7v4.7l0,0c0,0,0,0-9.3,0c-4.7,0-4.7,0-9.3,0c-4.7,0-14,0-18.7,0
							s-9.3,0-9.3,0c-9.3-4.7-46.7-4.7-56-4.7c-4.7,0-4.7,0-4.7,4.7c0,0,0,4.7,4.7,4.7s23.3,14,28,23.3s-4.7,18.7-18.7,28
							c-4.7,4.7-9.3,4.7-14,4.7c-9.3,4.7-23.3,9.3-28,18.7c-9.3,14-23.3,42-14,56c0,4.7,0,9.3,4.7,14c4.7,18.7,9.3,42,23.3,51.3
							c18.7,14,28,23.3,42,18.7c4.7,0,9.3,0,14,0s4.7,0,9.3,0l0,0c0,4.7,0,9.3-4.7,14s-9.3,4.7-14,4.7c-9.3,0-23.3,0-32.7,4.7
							c-14,4.7-32.7,4.7-51.3,4.7c-23.3,0-32.7,9.3-42,18.7c-9.3,9.3-18.7,18.7-37.3,23.3c-32.7,9.3-32.7,51.3-32.7,70
							s4.7,37.3,9.3,46.7v4.7c0,9.3,0,23.3,0,32.7c0,4.7,0,9.3,0,14s0,14,0,23.3c0,18.7,0,51.3-4.7,56c-9.3,9.3-14,28-14,42
							c0,9.3-14,23.3-28,32.7c-9.3,4.7-9.3,14-9.3,23.3c0,4.7,0,9.3,0,9.3s0,0-4.7,0l0,0h-4.7c0-4.7,4.7-4.7,4.7-9.3
							c0,0,0-4.7,0-9.3c0-14,0-23.3,9.3-32.7c23.3-9.3,18.7-42,18.7-60.7l0,0c0-4.7,0-9.3,4.7-14s4.7-14,4.7-23.3
							c0-4.7-4.7-9.3-14-9.3s-18.7,9.3-18.7,23.3c0,4.7-4.7,14-9.3,23.3c-4.7,4.7-9.3,14-9.3,18.7s4.7,9.3,4.7,9.3s4.7,4.7-4.7,9.3
							c-9.3,14-9.3,28-14,42c0,4.7,0,14-4.7,14c0,0,0,0-4.7,0s-9.3-4.7-9.3-9.3c0-4.7,0-4.7-4.7-14s-9.3-23.3-4.7-28
							c9.3-14,14-28,9.3-42c0-4.7,0-4.7,4.7-9.3c4.7-4.7,9.3-14,9.3-23.3s-4.7-14-4.7-18.7c-4.7-9.3-4.7-9.3,0-18.7
							c23.3-18.7,14-37.3,4.7-46.7l-4.7-4.7c-4.7-4.7-9.3-9.3,4.7-23.3c18.7-14,32.7-28,28-37.3c0-9.3-14-9.3-14-9.3
							c-4.7,0-9.3,0-9.3,0c-9.3,0-9.3,4.7-14,9.3l0,0c-9.3,4.7-32.7,18.7-32.7,37.3c0,14-14,46.7-18.7,46.7
							c-14,4.7-32.7,23.3-32.7,46.7c-4.7,46.7-9.3,46.7-18.7,46.7c-4.7,0-9.3-4.7-18.7-9.3c-4.7-4.7-9.3-9.3-18.7-9.3h-4.7
							c-9.3,0-14,4.7-14,9.3c0,4.7-4.7,9.3-9.3,9.3c-9.3,4.7-9.3,9.3-9.3,14v4.7c0,0-4.7,0-14,0c-4.7,0-9.3-4.7-14-4.7
							c-9.3,0-14,4.7-14,4.7c-4.7,9.3,0,23.3,4.7,32.7c4.7,14,0,28-9.3,37.3c-4.7,4.7-4.7,18.7,0,28c0,4.7,4.7,9.3,0,14h-4.7
							c-28,0-74.7,18.7-74.7,51.3c0,14,4.7,23.3,9.3,32.7c4.7,4.7,9.3,14,4.7,23.3c0,4.7,0,9.3,0,14c0,14,0,23.3-9.3,42
							c-4.7,14-4.7,28-4.7,37.3c0,14,0,28-4.7,37.3s-14,23.3-18.7,42c-9.3,18.7-23.3,42-32.7,65.3c-14,37.3-37.3,65.3-46.7,65.3
							c-9.3,4.7-18.7,18.7-18.7,42c0,9.3,4.7,14,9.3,18.7c4.7,4.7,14,14,18.7,37.3c0,14,4.7,28,4.7,42c4.7,23.3,9.3,42,0,56
							c-4.7,4.7-4.7,9.3-9.3,14c-14,23.3-28,46.7-32.7,60.7s0,60.7,18.7,84c4.7,9.3,14,32.7,18.7,60.7c9.3,42,23.3,84,37.3,107.4
							c28,37.3,56,107.4,51.3,135.4c0,14,0,23.3,4.7,32.7c4.7,9.3,9.3,23.3,14,51.3c4.7,56-4.7,186.7-9.3,224c0,18.7-9.3,42-14,65.3
							c-4.7,28-14,51.3-14,70s-9.3,28-18.7,42c-9.3,9.3-14,23.3-23.3,37.3c-9.3,18.7-18.7,28-28,32.7c-14,14-23.3,23.3-18.7,42
							c0,9.3,0,14-4.7,14c-9.3,4.7-18.7,14-23.3,46.7c-9.3,56-37.3,74.7-70,93.3c-28,14-46.7,28-51.3,42c0,4.7,0,9.3,0,9.3h4.7H473
							v32.7c0,4.7,0,4.7,4.7,4.7h28c4.7,0,4.7,0,4.7-4.7l0,0H683c4.7,0,4.7,0,4.7-4.7v-4.7h326.7c4.7,0,4.7,0,4.7-4.7v-4.7h93.3h4.7
							v-4.7c0-4.7-4.7-23.3-9.3-28l4.7-9.3c4.7-4.7,9.3-9.3,9.3-18.7c4.7-9.3,4.7-9.3,14-14c4.7-4.7,9.3-9.3,18.7-18.7
							c4.7-4.7,4.7-9.3,9.3-14c4.7-9.3,9.3-14,18.7-18.7c9.3-4.7,18.7-14,23.3-23.3c4.7-9.3,14-14,18.7-18.7c4.7,0,9.3-4.7,9.3-4.7
							c0-4.7-4.7-9.3-9.3-14l-4.7-9.3c0,0,0,0,4.7,0c14-4.7,23.3-9.3,28-23.3s4.7-28,4.7-37.3c-4.7-14-4.7-37.3,0-46.7
							c0-4.7,4.7-9.3,4.7-18.7c4.7-9.3,9.3-32.7,14-32.7h4.7c14,0,51.3-4.7,60.7-23.3c0-4.7,4.7-9.3,9.3-18.7
							c9.3-14,18.7-23.3,18.7-42c-4.7-23.3-4.7-51.3,9.3-65.3h4.7c0,0,4.7,0,9.3,0c4.7,0,14,4.7,18.7,0s4.7-9.3,4.7-23.3
							s-4.7-18.7-4.7-23.3c4.7,0,9.3-4.7,18.7-9.3l9.3-4.7c14-9.3,18.7-14,23.3-14c0,0,0,0,4.7,4.7c9.3,4.7,14,9.3,14,14
							c0,0,0,0-4.7,4.7c-14,4.7-23.3,18.7-23.3,28v4.7v4.7c0,4.7,4.7,4.7,4.7,9.3c4.7,4.7,9.3,9.3,9.3,9.3
							c-9.3,14-4.7,18.7-4.7,18.7l4.7,4.7c4.7,0,9.3,0,23.3-14c9.3-4.7,9.3-9.3,14-9.3c0,0,0,0,4.7,0c0,0,4.7,4.7,9.3,4.7
							c4.7,0,9.3-4.7,9.3-4.7c14-18.7,18.7-23.3,28-65.3c4.7-18.7,9.3-32.7,9.3-37.3c4.7-9.3,4.7-18.7,4.7-28c0-4.7,0-9.3,0-9.3
							c0-9.3-4.7-14,0-28c4.7-9.3,0-18.7,0-23.3c0-14,0-23.3,9.3-32.7C1593.2,2031.4,1597.8,2008,1583.8,1975.4z"/>
						<path fill="#D1D0C9" d="M-136.8,746.3c-4.6,4.6-4.6,9.1-9.1,9.1c0,0,0,4.6-4.6,4.6c-4.6,4.6-4.6,9.1-4.6,9.1
							c0,9.1,18.2,9.1,18.2,9.1h4.6c13.7,0,18.2-13.7,18.2-18.2c0,0,4.6,0,4.6-4.6s0-9.1-4.6-13.7l-4.6-4.6
							C-114,741.7-127.6,741.7-136.8,746.3z"/>
						<path fill="#D1D0C9" d="M-68.4,741.7L-68.4,741.7C-63.9,741.7-63.9,741.7-68.4,741.7c4.6,0,4.6-4.6,4.6-4.6
							c4.6-50.1,0-54.7,0-54.7c-4.6-4.6-9.1-9.1-27.3-13.7h-4.6c-4.6,0-13.7,0-13.7,13.7c0,4.6,0,13.7,0,18.2
							C-109.4,705.2-86.6,737.1-68.4,741.7z"/>
					</g>
				</g>
			</g>
			<path clip-path="url(#SVGID_4_)" fill="#D1D0C9" d="M520.7,215.7c28.1,18.4,51.7,43.1,68.9,72c20.1,33.9,30.7,72.7,30.7,112.3
				s-10.6,78.4-30.7,112.3c-17.2,28.9-40.8,53.6-68.9,72V215.7 M512.9,201.7v396.6C581.8,559,628.2,484.9,628.2,400
				S581.8,241,512.9,201.7L512.9,201.7z"/>
			<g clip-path="url(#SVGID_4_)">
				<path fill="#D1D0C9" d="M390.4,339.5l-9.7,31.8c-0.2,0.8-0.4,1.5-0.4,2.1c0,1.8,1.4,2.7,4.1,2.7l-0.9,2.8H365l0.9-2.8
					c1.8,0,2.9-0.1,3.5-0.3c0.6-0.2,1.1-0.5,1.5-1.1c0.4-0.6,0.8-1.6,1.3-3l6.6-21.6c0.3-1,0.5-1.8,0.5-2.4c0-0.7-0.3-1.3-1-1.6
					c-0.6-0.4-1.8-0.5-3.6-0.5h-1.3l0.8-2.6c6,0,10.7-1.2,14-3.5H390.4z"/>
				<path fill="#D1D0C9" d="M406.8,358.4c-1.7-1-3-2.2-3.8-3.6c-0.8-1.3-1.3-2.8-1.3-4.5c0-3,1.2-5.6,3.7-7.7
					c2.5-2.1,5.4-3.2,8.7-3.2c2.7,0,5,0.7,6.8,2.2s2.7,3.6,2.7,6.3c0,2.9-1,5.4-3,7.4c-2,2-4.4,3.2-7.2,3.8c1.9,0.9,3.4,2.1,4.3,3.6
					c1,1.5,1.4,3.2,1.4,5.3c0,3.2-1.3,6-3.8,8.3c-2.5,2.4-5.7,3.6-9.6,3.6c-3.4,0-6.1-0.9-8.1-2.7s-3.1-4.1-3.1-7c0-3.1,1-5.7,3-7.6
					C399.7,360.6,402.8,359.2,406.8,358.4z M409.2,360.1c-0.7,0-1.4,0.3-2.2,0.9c-0.8,0.6-1.8,2.5-2.8,5.9c-1.1,3.3-1.6,5.7-1.6,7
					c0,1,0.2,1.7,0.7,2.3c0.5,0.6,1.1,0.9,1.9,0.9c0.9,0,1.8-0.5,2.6-1.5c0.8-1,1.7-3,2.7-5.9c0.9-2.9,1.4-5.1,1.4-6.5
					c0-0.9-0.3-1.6-0.8-2.2C410.5,360.4,409.9,360.1,409.2,360.1z M414.5,342.3c-0.6,0-1.2,0.2-1.7,0.7c-0.5,0.5-1.1,1.7-1.9,3.6
					c-0.8,1.9-1.4,3.7-1.8,5.3c-0.4,1.6-0.6,2.7-0.6,3.4c0,0.8,0.2,1.3,0.5,1.7c0.3,0.4,0.8,0.6,1.4,0.6c0.7,0,1.4-0.4,2.1-1.3
					c0.7-0.9,1.5-2.7,2.4-5.5s1.4-4.8,1.4-6.1c0-0.8-0.2-1.4-0.5-1.8C415.6,342.5,415.1,342.3,414.5,342.3z"/>
				<path fill="#D1D0C9" d="M437.1,365.9h-10.9l1-6.1l19.8-20.5h6.5l-7.1,23.2h1.1c1.3,0,2.3-1,2.8-3h2.7l-2.1,6.5h-5.6l-1.7,5.4
					c-0.2,0.8-0.4,1.5-0.4,2c0,1.9,1.3,2.8,4,2.8l-0.9,2.8h-17.7l0.9-2.8c1.9,0,3.2-0.2,3.8-0.7c0.7-0.5,1.3-1.7,1.9-3.7
					L437.1,365.9z M438.1,362.5l4.4-14.6l-14,14.6H438.1z"/>
				<path fill="#D1D0C9" d="M472.9,357.4c2.4,0.2,4.2,1.1,5.3,2.6c1.1,1.5,1.7,3.3,1.7,5.2c0,3.8-1.7,7.2-5.2,10.1
					c-3.5,3-7.3,4.5-11.6,4.5c-2.5,0-4.7-0.5-6.4-1.6c-1.7-1-2.6-2.4-2.6-3.9c0-0.9,0.2-1.6,0.7-2.3c0.5-0.6,1.1-0.9,1.9-0.9
					c1.3,0,2.4,0.9,3.3,2.7c1.1,2.1,2.3,3.2,3.8,3.2c0.9,0,1.7-0.3,2.5-1c0.8-0.7,1.7-2.1,2.7-4.3c1-2.2,1.8-4.2,2.2-6.1
					c0.4-1.9,0.7-3.4,0.7-4.7c0-0.7-0.1-1.2-0.3-1.5c-0.2-0.3-0.6-0.5-1-0.5c-0.4,0-1.6,0.7-3.5,2c-1,0.6-1.6,0.9-2,0.9
					c-0.3,0-0.6-0.1-0.9-0.4c-0.3-0.3-0.4-0.6-0.4-1c0-0.5,0.2-0.9,0.6-1.2c0.4-0.3,1.7-1.1,3.7-2.4c2.9-1.7,4.8-3,5.7-3.6
					c0.9-0.7,1.7-1.6,2.3-2.7c0.6-1.1,1-2.3,1-3.4c0-1.3-0.4-2.5-1.3-3.4c-0.8-0.9-1.8-1.4-2.9-1.4c-1,0-1.9,0.4-2.8,1.2
					c-0.9,0.8-1.3,1.8-1.3,3c0,0.3,0.1,0.7,0.2,1.2c0.1,0.4,0.2,0.7,0.2,0.9c0,0.3-0.5,0.8-1.4,1.5c-1,0.7-1.5,1.1-1.8,1.1
					c-0.3,0-0.7-0.3-1.2-1c-0.5-0.7-0.8-1.6-0.8-2.8c0-2.2,1-4.1,2.9-5.6c1.9-1.5,4.5-2.3,7.9-2.3c3.4,0,5.8,0.7,7.4,2.1
					c1.6,1.4,2.4,2.9,2.4,4.5c0,2.2-1,4.3-3,6.3C479.5,354.3,476.6,356,472.9,357.4z"/>
			</g>
		</g>
		<g>
			<path fill="#6F6F63" d="M379.9,703.7l0.4-13.1l35.4,0.3v2.7c-2.4,0-4,0.3-4.7,1s-1.1,1.9-1.1,3.6l-0.2,25c0,1.1,0.1,2,0.3,2.7
				c0.2,0.6,0.7,1.1,1.6,1.5c0.8,0.4,2.1,0.6,3.8,0.6v2.7l-33-0.3L382,720h2.7c0.6,2.3,1.3,3.9,2.1,4.9c0.8,1,1.7,1.6,2.7,1.8
				s2.5,0.4,4.4,0.4l7.4,0.1l0.1-14h-4c-1.4,0-2.4,0.1-3.1,0.3s-1.2,0.7-1.4,1.4c-0.3,0.7-0.5,1.8-0.6,3.2h-2.8l0.1-13.2h2.7
				c0.1,1.5,0.3,2.5,0.6,3.2c0.3,0.7,0.8,1.2,1.5,1.4s1.7,0.4,3.1,0.4h4.1l0.1-9.3c0-1.6,0-2.7-0.1-3.4s-0.3-1.3-0.6-1.8
				c-0.3-0.5-0.9-0.8-1.7-1.1c-0.8-0.2-1.9-0.3-3.3-0.4h-3.2c-1.3,0-2.6,0.1-3.9,0.5s-2.4,1.2-3.6,2.6c-1.2,1.4-2,3.6-2.5,6.6
				L379.9,703.7z"/>
			<path fill="#6F6F63" d="M285.7,668.9l19,6l-0.8,2.6c-1.6-0.5-2.9-0.7-3.8-0.7c-0.9,0.1-1.5,0.4-1.9,1s-0.8,1.4-1.2,2.4l-7.5,23.7
				l24.1-26.2l1.7,0.5l4.7,35.4l7.1-22.5c0.4-1.2,0.6-2.1,0.7-2.8s0.1-1.3-0.1-1.8c-0.2-0.6-0.6-1.1-1.3-1.5c-0.7-0.5-1.7-0.9-3-1.3
				l0.8-2.6l14,4.4l-0.8,2.6c-1.3-0.4-2.4-0.6-3.2-0.7c-0.8,0-1.4,0.2-1.9,0.5s-0.9,0.8-1.1,1.4c-0.3,0.6-0.6,1.5-1,2.7l-6.8,21.4
				c-0.5,1.6-0.8,2.8-0.8,3.5c-0.1,0.8,0.2,1.4,0.9,2c0.6,0.6,1.9,1.2,3.6,1.8l-0.8,2.6l-13.9-4.4l-4.1-30.7l-21.1,22.7l-13.5-4.3
				l0.8-2.6c2.3,0.7,3.9,0.9,4.8,0.4s1.6-1.5,2.1-3.1l7.5-23.8c0.3-1,0.5-1.9,0.5-2.6c0-0.7-0.4-1.4-1.1-2s-1.9-1.2-3.5-1.7
				L285.7,668.9z"/>
			<path fill="#6F6F63" d="M205.2,617.5l16,11.9l-1.6,2.2c-1.4-1-2.5-1.6-3.3-1.8s-1.6-0.1-2.1,0.3c-0.6,0.4-1.2,1-1.9,1.9l-14.8,20
				l31.3-17l1.4,1.1l-7,35l14.1-19c0.7-1,1.3-1.8,1.6-2.4c0.3-0.6,0.5-1.2,0.5-1.8s-0.3-1.2-0.8-1.9c-0.5-0.6-1.3-1.4-2.4-2.2
				l1.6-2.2l11.8,8.8l-1.6,2.2c-1.1-0.8-2.1-1.4-2.8-1.7c-0.8-0.3-1.4-0.3-2-0.2c-0.6,0.2-1.1,0.5-1.5,1c-0.5,0.5-1.1,1.2-1.8,2.2
				L226.5,672c-1,1.3-1.7,2.4-2,3.1c-0.3,0.7-0.2,1.4,0.2,2.2s1.4,1.7,2.9,2.8l-1.6,2.2l-11.7-8.7l6.1-30.4l-27.3,14.7l-11.4-8.5
				l1.6-2.2c2,1.5,3.4,2.1,4.4,2s2-0.9,3-2.3l14.9-20.1c0.6-0.9,1.1-1.6,1.3-2.3s0.1-1.4-0.4-2.2s-1.4-1.7-2.7-2.7L205.2,617.5z"/>
			<path fill="#6F6F63" d="M145.2,566.5l10.7-7.5l21.1,28.4l-2.2,1.6c-1.5-2-2.7-3-3.7-3.2c-1-0.1-2.2,0.3-3.5,1.3l-20,14.9
				c-0.9,0.7-1.6,1.3-1.9,1.9c-0.4,0.6-0.5,1.3-0.3,2.2s0.8,2,1.9,3.4l-2.2,1.6l-19.7-26.5l8-6.6l1.6,2.2c-1.5,1.8-2.4,3.4-2.7,4.6
				c-0.3,1.2-0.3,2.3,0.1,3.2c0.4,0.9,1.2,2.2,2.4,3.8l4.4,6l11.3-8.4l-2.4-3.2c-0.8-1.1-1.5-1.9-2.1-2.3c-0.6-0.4-1.3-0.5-2-0.3
				s-1.7,0.7-2.9,1.5l-1.7-2.3l10.6-7.9l1.6,2.2c-1.1,0.9-1.9,1.7-2.2,2.4c-0.4,0.7-0.4,1.3-0.2,2s0.7,1.6,1.6,2.7l2.4,3.3l7.5-5.6
				c1.3-0.9,2.1-1.6,2.7-2.1c0.5-0.5,0.9-1,1.1-1.6c0.2-0.6,0.1-1.2-0.2-2c-0.3-0.7-0.9-1.7-1.7-2.8l-1.9-2.6
				c-0.8-1.1-1.7-2-2.7-2.8s-2.4-1.2-4.3-1.3c-1.8-0.1-4.1,0.6-6.8,2L145.2,566.5z"/>
			<path fill="#6F6F63" d="M94.5,495.1l1,2.6c-2.2,1.1-3.7,2.3-4.5,3.5s-1.2,2.3-1.1,3.3s0.3,2.1,0.8,3.2l1.8,4.7l27.2-10.3
				c1.1-0.4,1.9-0.8,2.4-1.3s0.8-1.1,0.8-2.1c0-0.9-0.3-2.2-0.8-3.7l2.5-1l7.1,18.6l-2.5,1c-0.9-2.3-1.8-3.6-2.7-4
				c-0.9-0.4-2.2-0.3-3.8,0.3l-27.2,10.3l1.5,3.9c0.6,1.6,1.2,2.8,1.8,3.7s1.7,1.6,3.1,1.9c1.4,0.4,3.3,0.2,5.6-0.6l1,2.6l-10.5,4
				L84.1,499L94.5,495.1z"/>
			<path fill="#6F6F63" d="M112.4,350.3l-0.3,2.7c-1.7,0.2-3.3,0.7-4.7,1.5c1.4,1.6,2.5,3.5,3.4,5.5s1.2,4.7,0.8,7.9
				c-0.4,3.6-1.6,6.8-3.7,9.6s-4.7,5-8,6.5s-6.9,2-10.8,1.6c-2.8-0.3-5.3-1.1-7.7-2.3s-4.5-2.9-6.2-4.9s-3-4.3-3.8-7
				c-0.8-2.6-1.1-5.4-0.7-8.4c0.5-4.9,2.6-8.8,6.1-11.7c-0.8-0.5-2-1.1-3.5-1.6l0.3-2.6l14.6,1.1l-0.3,2.8c-2.5,0.2-4.8,0.9-6.9,2
				s-3.7,2.5-4.9,4.2c-1.2,1.7-1.9,3.6-2.1,5.5c-0.2,2.2,0.2,4.3,1.2,6.2c1,1.9,2.7,3.5,5.1,4.7c2.4,1.3,5.4,2.1,9.1,2.5
				c3.6,0.4,6.7,0.3,9.1-0.3c2.5-0.6,4.4-1.4,5.8-2.5s2.3-2.3,2.9-3.4c0.6-1.2,0.9-2.3,1-3.4c0.3-2.4-0.2-4.6-1.2-6.7
				c-1.1-2-2.5-3.8-4.3-5.2c-1.8-1.4-3.7-2.5-5.5-3.1l0.3-2.8L112.4,350.3z"/>
			<path fill="#6F6F63" d="M122.7,258.1c3.3,1.4,6.1,3.5,8.3,6.3s3.6,6.1,4,10c0.4,3.8-0.3,7.9-2,12.1c-1.5,3.5-3.3,6.2-5.6,8.4
				c-2.2,2.1-4.6,3.7-7.2,4.5c-2.6,0.9-5.1,1.2-7.7,1.1s-5-0.7-7.2-1.7c-3.3-1.4-6-3.5-8.2-6.2c-2.2-2.8-3.6-6.1-4.1-9.9
				s0.2-7.9,2-12.2c1.7-3.9,3.7-6.9,6.1-9.1s5-3.6,7.5-4.3c2.6-0.7,5.1-0.9,7.5-0.7C118.6,256.8,120.8,257.3,122.7,258.1z
				 M118.9,266.8c-2-0.9-4.1-1.5-6-2c-2-0.4-3.9-0.5-5.8-0.3s-3.5,1-5.1,2.1c-1.5,1.2-2.8,2.9-3.7,5.1c-1.3,3.1-1.6,5.8-0.8,8.2
				c0.8,2.4,2.2,4.4,4.3,6c2,1.6,4.4,3,7.2,4.1c1.5,0.6,3.1,1.2,4.8,1.7c1.7,0.5,3.6,0.7,5.6,0.7s4-0.6,5.9-1.8
				c1.9-1.2,3.4-3,4.5-5.7c1.1-2.6,1.4-5,0.9-7.1s-1.5-4-2.9-5.5s-2.9-2.7-4.4-3.5S120.3,267.4,118.9,266.8z"/>
			<path fill="#6F6F63" d="M162.4,173.3c-1.1,1.4-1.8,2.5-2,3.3c-0.2,0.9,0,1.6,0.4,2.2c0.5,0.6,1.3,1.4,2.5,2.5l11.2,9.4
				c2.1,1.7,3.6,3.1,4.5,4.1s1.7,2.3,2.2,3.8c1.1,2.9,1.2,5.6,0.2,8.3s-2.2,5-3.8,6.9c-1.2,1.4-2.6,2.7-4.2,3.8
				c-1.6,1.2-3.4,2-5.3,2.6c-1.9,0.6-3.8,0.6-5.7,0.1c-1-0.3-2-0.6-3-1.1c-0.9-0.4-1.7-0.9-2.4-1.4s-1.6-1.2-2.7-2.1l-12.7-10.6
				c-1.3-1.1-2.5-1.6-3.4-1.6s-2.3,1-3.8,2.9l-2.1-1.7l12.9-15.4l2.1,1.7c-1.1,1.3-1.8,2.4-2.1,3.2c-0.3,0.9-0.3,1.6,0.1,2.2
				c0.3,0.6,0.9,1.3,1.8,2l12.7,10.6c1.3,1.1,2.5,2,3.6,2.7s2.1,1.2,3.1,1.6c1.6,0.5,3.3,0.5,5.1-0.2s3.2-1.7,4.5-3.1
				c1.3-1.6,2.2-3.4,2.5-5.4c0.4-2,0.2-3.8-0.6-5.3c-0.6-1.2-1.4-2.3-2.3-3.3c-0.9-1-2.1-2.1-3.5-3.3l-11-9.2
				c-1-0.8-1.7-1.4-2.3-1.8c-0.5-0.3-1.1-0.5-1.7-0.6c-0.6,0-1.2,0.2-1.9,0.7s-1.5,1.3-2.4,2.4l-2.1-1.7l9.4-11.2L162.4,173.3z"/>
			<path fill="#6F6F63" d="M236.4,114.9c-1.6,1.1-2.6,2-3.1,2.7s-0.6,1.5-0.3,2.2s0.8,1.8,1.8,3.2l17.5,26.2l-2.2,1.5l-38.8-11.2
				l12.2,18.2c0.9,1.4,1.7,2.3,2.3,2.8s1.3,0.7,2.3,0.6c0.9-0.1,2.2-0.7,3.7-1.8l1.5,2.2l-12.3,8.2l-1.5-2.2c1.5-1,2.4-1.9,2.8-2.6
				c0.4-0.8,0.5-1.5,0.3-2.3s-0.9-1.8-1.8-3.2l-11.3-16.8c-0.9-1.4-1.6-2.4-2.2-3c-0.5-0.6-1.1-1.1-1.7-1.4
				c-0.6-0.3-1.3-0.4-2.2-0.3c-0.8,0.1-1.8,0.5-3,1.1l-1.5-2.2l9.6-6.4l33.7,9.6l-10.1-15.1c-0.8-1.2-1.5-2.1-2.2-2.7
				c-0.6-0.5-1.4-0.8-2.3-0.7c-0.9,0.1-2.1,0.6-3.6,1.6l-1.5-2.2l12.3-8.2L236.4,114.9z"/>
			<path fill="#6F6F63" d="M323.1,89.4l-2.7,0.8c-1-2.3-2-3.8-3.2-4.7s-2.2-1.3-3.2-1.3s-2.1,0.2-3.3,0.6l-4.8,1.5l8.7,27.8
				c0.3,1.1,0.7,1.9,1.1,2.5c0.4,0.5,1.1,0.8,2,0.9s2.2-0.1,3.8-0.6l0.8,2.6l-19,5.9l-0.8-2.6c2.3-0.7,3.7-1.5,4.2-2.4
				s0.4-2.1-0.1-3.8L298,88.9l-4,1.3c-1.6,0.5-2.9,1-3.8,1.6c-1,0.6-1.7,1.6-2.1,2.9c-0.4,1.4-0.3,3.3,0.3,5.6l-2.7,0.8l-3.4-10.8
				l37.5-11.7L323.1,89.4z"/>
			<path fill="#6F6F63" d="M412,71.8c-1.1,0.1-2,0.4-2.7,0.8s-1.4,1.1-2.1,2.1s-1.7,2.5-3,4.6l-8,13.1l0.2,9.4
				c0,1.1,0.2,1.9,0.4,2.6s0.8,1.1,1.6,1.5c0.8,0.4,2.1,0.5,3.9,0.5l0.1,2.7l-20,0.5l-0.1-2.7c1.7,0,2.9-0.2,3.8-0.6
				c0.8-0.3,1.4-0.8,1.6-1.5s0.4-1.6,0.3-2.8l-0.2-8.9l-10.4-16.4c-0.1-0.1-0.2-0.2-0.3-0.4c-0.1-0.1-0.2-0.2-0.2-0.3
				c-0.9-1.4-1.7-2.3-2.4-2.7c-0.7-0.4-1.7-0.6-3-0.7l-0.1-2.7l18.6-0.5l0.1,2.7c-0.9,0-1.7,0.1-2.2,0.1c-0.5,0.1-1,0.2-1.3,0.5
				s-0.5,0.7-0.5,1.2c0,0.4,0.1,0.8,0.4,1.3c0.2,0.5,0.8,1.5,1.7,2.9l6.4,10.3l5.7-9.5c1.2-2,1.8-3.5,1.8-4.5c0-1.2-0.4-2-1.3-2.3
				c-0.8-0.3-1.9-0.4-3.4-0.4l-0.1-2.7l14.4-0.4L412,71.8z"/>
		</g>
		<g>
			<path fill="#D1D0C9" d="M477,704.2l-1.9-7.8c53.2-13.3,101.9-41.1,141.1-80.4c57.8-57.9,89.6-134.7,89.6-216.1
				c0-81.7-31.8-158.5-89.6-216.1c-39.1-39-87.5-66.7-140.2-80.1l2-7.8c54.1,13.8,103.8,42.2,143.9,82.2
				c59.3,59.2,91.9,137.9,91.9,221.8c0,83.6-32.7,162.3-91.9,221.8C581.6,662,531.5,690.5,477,704.2z"/>
		</g>
		<path fill="#6F6F63" d="M569.5,421.2c0.6,0,1.2,0.1,1.7,0.4l17.3,9.6l-3.3-20.5c-0.2-1.1,0.2-2.2,0.9-3l14.3-14.7l-19.7-3
			c-1.1-0.2-2.1-0.9-2.6-2l-8.6-18.4l-8.6,18.4c-0.5,1-1.5,1.8-2.6,2l-19.7,3l14.3,14.7c0.8,0.8,1.1,1.9,0.9,3l-3.3,20.5l17.3-9.6
			C568.3,421.4,568.9,421.2,569.5,421.2z"/>
		<path fill="#6F6F63" d="M559,332.8c0.4,0,0.8,0.1,1.1,0.3l11.4,6.3l-2.2-13.6c-0.1-0.7,0.1-1.4,0.6-2l9.5-9.7l-13-2
			c-0.8-0.1-1.4-0.6-1.7-1.3l-5.7-12.2l-5.7,12.2c-0.3,0.7-1,1.2-1.7,1.3l-13,2l9.5,9.7c0.5,0.5,0.7,1.2,0.6,2l-2.2,13.6l11.4-6.3
			C558.2,332.9,558.6,332.8,559,332.8z"/>
		<path fill="#6F6F63" d="M559,494.8c0.4,0,0.8,0.1,1.1,0.3l11.4,6.3l-2.2-13.6c-0.1-0.7,0.1-1.4,0.6-2l9.5-9.7l-13-2
			c-0.8-0.1-1.4-0.6-1.7-1.3l-5.7-12.2l-5.7,12.2c-0.3,0.7-1,1.2-1.7,1.3l-13,2l9.5,9.7c0.5,0.5,0.7,1.2,0.6,2l-2.2,13.6l11.4-6.3
			C558.2,494.9,558.6,494.8,559,494.8z"/>
	</g>
</g>
</svg>
