<?xml version="1.0" encoding="utf-8"?>
<!-- Generator: Adobe Illustrator 17.1.0, SVG Export Plug-In . SVG Version: 6.00 Build 0)  -->
<!DOCTYPE svg PUBLIC "-//W3C//DTD SVG 1.1//EN" "http://www.w3.org/Graphics/SVG/1.1/DTD/svg11.dtd">
<svg version="1.1" xmlns="http://www.w3.org/2000/svg" xmlns:xlink="http://www.w3.org/1999/xlink" x="0px" y="0px"
	 viewBox="0 0 960 792" enable-background="new 0 0 960 792" xml:space="preserve">
<g id="Layer_1">
	<g>
		<defs>
			<path id="SVGID_1_" d="M480,792c-105.8,0-205.3-41.2-280.1-115.9S84,501.8,84,396s41.2-205.3,115.9-280.1S374.2,0,480,0
				s205.3,41.2,280.1,115.9S876,290.2,876,396s-41.2,205.3-115.9,280.1S585.8,792,480,792z"/>
		</defs>
		<clipPath id="SVGID_2_">
			<use xlink:href="#SVGID_1_"  overflow="visible"/>
		</clipPath>
		<polygon clip-path="url(#SVGID_2_)" fill="#6F6F63" points="815.9,574.9 480,392.7 480,-57 928,-57 928,574.9 		"/>
	</g>
	<g>
		<defs>
			<path id="SVGID_3_" d="M480,792c-105.8,0-205.3-41.2-280.1-115.9S84,501.8,84,396s41.2-205.3,115.9-280.1S374.2,0,480,0
				s205.3,41.2,280.1,115.9S876,290.2,876,396s-41.2,205.3-115.9,280.1S585.8,792,480,792z"/>
		</defs>
		<clipPath id="SVGID_4_">
			<use xlink:href="#SVGID_3_"  overflow="visible"/>
		</clipPath>
		<g clip-path="url(#SVGID_4_)">
			<polygon fill="#D1D0C9" points="144.1,574.9 480,392.7 480,-57 32,-57 32,574.9 			"/>
		</g>
	</g>
	<g>
		<defs>
			<path id="SVGID_5_" d="M480,792c-105.8,0-205.3-41.2-280.1-115.9S84,501.8,84,396s41.2-205.3,115.9-280.1S374.2,0,480,0
				s205.3,41.2,280.1,115.9S876,290.2,876,396s-41.2,205.3-115.9,280.1S585.8,792,480,792z"/>
		</defs>
		<clipPath id="SVGID_6_">
			<use xlink:href="#SVGID_5_"  overflow="visible"/>
		</clipPath>
		<polygon clip-path="url(#SVGID_6_)" fill="none" points="144.1,574.9 480,392.7 815.9,574.9 815.9,905 144.1,905 		"/>
	</g>
	<g>
		<path fill="#393933" d="M480,792c-105.8,0-205.3-41.2-280.1-115.9S84,501.8,84,396s41.2-205.3,115.9-280.1S374.2,0,480,0
			s205.3,41.2,280.1,115.9S876,290.2,876,396s-41.2,205.3-115.9,280.1S585.8,792,480,792z M480,15.5c-101.7,0-197.2,39.6-269,111.5
			S99.5,294.3,99.5,396S139.1,593.2,211,665s167.4,111.5,269,111.5c101.7,0,197.2-39.6,269-111.5s111.5-167.4,111.5-269
			c0-101.7-39.6-197.2-111.5-269S581.7,15.5,480,15.5z"/>
	</g>
	<g>
		<rect x="472" y="8" fill="#393933" width="16" height="388"/>
	</g>
	<g>
		
			<rect x="304.1" y="292.7" transform="matrix(0.4767 0.8791 -0.8791 0.4767 588.5826 -21.1463)" fill="#393933" width="16" height="382.2"/>
	</g>
	<g>
		
			<rect x="456.9" y="475.8" transform="matrix(0.879 0.4768 -0.4768 0.879 309.0429 -250.4133)" fill="#393933" width="382.1" height="16"/>
	</g>
	<g>
		<path fill="#393933" d="M546.5,584.8c-10.4,2.1-11.6,2.9-11.6,16.8v16.4c0,7.5,0.2,14.1,1.2,19.5c-12.4,3.1-30.5,7.7-47.3,7.7
			c-48.1,0-79-27.4-79-68.8c0-47.3,38.4-72.2,82.1-72.2c16.8,0,33,4.1,40.4,5.8c0.6,7.3,1.7,18,3.3,34.4l-7.7,1.5
			c-5.2-23-20.7-33-40.2-33c-24.9,0-46.4,22.4-46.4,59.7c0,31.3,15.3,63.9,49.3,63.9c4.1,0,8.9-0.6,11.6-2.5
			c3.1-1.9,4.8-5.2,4.8-11.4v-19.7c0-14.5-1-16.2-22.8-18v-7h62.2V584.8z"/>
	</g>
	<g>
		<g>
			<polygon fill="#D1D0C9" points="696.7,294.4 639.6,218.3 582.6,294.4 576.2,289.6 639.6,205 703.1,289.6 			"/>
		</g>
		<g>
			<path fill="#D1D0C9" d="M579.4,326.1c-17.6,0-26-9.4-29.9-17.3c-4.1-8.3-4.2-16.5-4.2-16.9v-4h68.2v4c0,0.3,0,8.6-4.2,16.9
				C605.4,316.7,597,326.1,579.4,326.1z M553.7,296c0.4,2.6,1.3,6.1,3,9.5c4.3,8.4,11.9,12.6,22.7,12.6s18.4-4.2,22.7-12.6
				c1.8-3.4,2.6-6.9,3-9.5H553.7z"/>
		</g>
		<g>
			<path fill="#D1D0C9" d="M699.9,326.1c-17.6,0-26-9.4-29.9-17.3c-4.1-8.3-4.2-16.5-4.2-16.9v-4H734v4c0,0.3,0,8.6-4.2,16.9
				C725.9,316.7,717.5,326.1,699.9,326.1z M674.2,296c0.4,2.6,1.3,6.1,3,9.5c4.3,8.4,11.9,12.6,22.7,12.6s18.4-4.2,22.7-12.6
				c1.8-3.4,2.6-6.9,3-9.5H674.2z"/>
		</g>
		<g>
			<path fill="#D1D0C9" d="M653.9,376.3h-28.6l10.3-164.9h8L653.9,376.3z M633.8,368.3h11.6l-5.8-92.5L633.8,368.3z"/>
		</g>
	</g>
	<g>
		<g>
			<path fill="#D1D0C9" d="M401.8,258.3l-17.1-5.7c-2.6-10.9-12.3-18.9-24-18.9c-13.6,0-24.6,11-24.6,24.6c0,0,0,0,0,8.2
				s-8.2,8.2-8.2,8.2v32.9h-57.5H221c0,0,0,32.9,32.9,32.9s73.9,0,73.9,0c57.5,0,57.5-41.1,57.5-41.1v-35.6L401.8,258.3z"/>
			<path fill="#393933" d="M327.8,344.4h-73.9c-19,0-28.1-10.1-32.3-18.6c-4.5-9-4.5-17.8-4.5-18.2v-4h106.8v-32.9h4
				c1.9,0,4.2-0.8,4.2-4.2v-8.2c0-15.8,12.9-28.6,28.6-28.6c12.6,0,23.5,8,27.3,19.8l26.5,8.8l-25.1,8.4v32.7
				c0,0.5-0.1,11.7-7.9,22.8C374.3,332.3,359.2,344.4,327.8,344.4z M225.4,311.6c0.4,2.9,1.4,6.9,3.4,10.9c4.7,9.3,13.2,14,25.1,14
				h73.9c22.5,0,38.3-6.3,47-18.8c6.4-9.1,6.5-18.2,6.5-18.2v-38.5l7.8-2.6l-7.8-2.6l-0.5-2.2c-2.2-9.3-10.5-15.9-20.1-15.9
				c-11.4,0-20.6,9.3-20.6,20.6v8.2c0,6.7-4.1,10.2-8.2,11.6v33.5H225.4z"/>
		</g>
		<g>
			<path fill="#D1D0C9" d="M327.8,274.7h-82.2c0,0,8.2,65.7,82.2,65.7c18.2,0,32.9-14.7,32.9-32.9S346,274.7,327.8,274.7z"/>
			<path fill="#393933" d="M327.8,344.4c-39.9,0-61.3-18.8-72.1-34.6c-11.7-17-13.9-33.9-14-34.6l-0.6-4.5h86.7
				c20.3,0,36.9,16.5,36.9,36.9S348.1,344.4,327.8,344.4z M250.5,278.7c1.4,5.8,4.7,16.4,12,26.9c14.2,20.5,36.2,30.9,65.3,30.9
				c15.9,0,28.9-12.9,28.9-28.9s-12.9-28.9-28.9-28.9H250.5z"/>
		</g>
		<g>
			<line fill="#D1D0C9" x1="250.3" y1="291.1" x2="303.2" y2="291.1"/>
			<rect x="250.3" y="287.1" fill="#393933" width="52.9" height="8"/>
		</g>
		<g>
			<line fill="#D1D0C9" x1="259" y1="307.6" x2="303.2" y2="307.6"/>
			<rect x="259" y="303.6" fill="#393933" width="44.2" height="8"/>
		</g>
		<g>
			<line fill="#D1D0C9" x1="275.1" y1="324" x2="303.2" y2="324"/>
			<rect x="275.1" y="320" fill="#393933" width="28" height="8"/>
		</g>
		<g>
			<circle fill="#393933" cx="364.8" cy="255.2" r="4.1"/>
		</g>
	</g>
	<path fill="#393933" d="M480,0C261.3,0,84,177.3,84,396s177.3,396,396,396s396-177.3,396-396S698.7,0,480,0z M480,722.7
		c-182.2,0-330-147.7-330-330s147.7-330,330-330s330,147.7,330,330S662.3,722.7,480,722.7z"/>
	<g>
		<path fill="#D1D0C9" d="M260.2,107L260.2,107c-3.7-5.2-2.9-12.3,2.6-16.2c3.2-2.3,5.8-2.8,8.8-2.5l-0.3,3.9
			c-2.3-0.2-4.2,0-6.5,1.7c-3.4,2.4-3.8,7.2-1.3,10.7l0,0.1c2.7,3.7,7.1,4.7,10.8,2.1c1.7-1.2,2.9-2.9,3.4-4.5l-2.4-3.4l-4.7,3.3
			l-2-2.8l7.8-5.6l5.5,7.6c-0.7,2.8-2.3,6-5.6,8.3C270.6,113.7,264,112.3,260.2,107z"/>
		<path fill="#D1D0C9" d="M286.7,75.4l14.4-8.3l1.8,3l-11,6.3l2.9,5l9.7-5.6l1.8,3l-9.7,5.6l3,5.2l11.1-6.4l1.8,3l-14.5,8.4
			L286.7,75.4z"/>
		<path fill="#D1D0C9" d="M317.8,58.5l3.3-1.5l17.3,9.2l-6.4-14.1l3.5-1.6l9.2,20.4l-3,1.4L324,62.8l6.5,14.5L327,79L317.8,58.5z"/>
		<path fill="#D1D0C9" d="M354,43.5l15.8-5.3l1.1,3.3l-12,4l1.8,5.5l10.7-3.6l1.1,3.3l-10.7,3.6l1.9,5.7l12.2-4.1l1.1,3.3l-15.9,5.3
			L354,43.5z"/>
		<path fill="#D1D0C9" d="M390.6,52.2l1.7-3.3c2.5,1.3,4.8,1.9,7.5,1.2c2.4-0.6,3.6-2,3.2-3.6l0-0.1c-0.4-1.6-1.4-2.2-5.7-2.2
			c-4.9,0-7.8-0.8-8.8-4.8l0-0.1c-0.9-3.7,1.6-7.1,6-8.1c3.2-0.7,5.9-0.4,8.6,0.9l-1.4,3.4c-2.3-1-4.4-1.3-6.4-0.9
			c-2.2,0.5-3.3,2-3,3.4l0,0.1c0.4,1.7,1.6,2.2,6,2.2c4.9,0,7.7,1.1,8.5,4.8l0,0.1c0.9,4.1-1.7,7.3-6.3,8.3
			C397.2,54.3,393.8,53.9,390.6,52.2z"/>
		<path fill="#D1D0C9" d="M421.3,26.3l16.5-2.2l0.5,3.5l-12.6,1.7l0.8,5.8l11.1-1.5l0.5,3.5L427,38.5l0.8,6l12.7-1.7l0.5,3.5
			l-16.6,2.3L421.3,26.3z"/>
		<path fill="#D1D0C9" d="M456.4,22.5l16.6-0.7l0.1,3.5l-12.7,0.5l0.2,5.8l11.2-0.5l0.1,3.5l-11.2,0.5l0.2,6l12.8-0.5l0.1,3.5
			l-16.8,0.7L456.4,22.5z"/>
		<path fill="#D1D0C9" d="M512.5,34.4L512.5,34.4c0.7-6.4,6.1-11,12.8-10.2c4.1,0.5,6.4,2.2,8.3,4.5l-2.8,2.6
			c-1.6-1.9-3.4-3.2-5.9-3.5c-4.3-0.5-7.7,2.6-8.3,7l0,0.1c-0.5,4.4,2.2,8.3,6.4,8.8c2.7,0.3,4.6-0.6,6.7-2.1l2.2,2.8
			c-2.6,2.1-5.3,3.4-9.5,2.9C516,46.4,511.8,40.8,512.5,34.4z"/>
		<path fill="#D1D0C9" d="M547.9,39.2L547.9,39.2c1.4-6.2,7.3-10.3,14-8.8c6.7,1.5,10.3,7.6,8.9,13.8l0,0.1
			c-1.4,6.2-7.3,10.2-14,8.7C550.1,51.5,546.6,45.4,547.9,39.2z M566.8,43.4L566.8,43.4c1-4.3-1.3-8.5-5.7-9.5
			c-4.3-1-8.1,1.8-9.1,6.1l0,0.1c-0.9,4.2,1.4,8.5,5.7,9.4C562,50.5,565.8,47.7,566.8,43.4z"/>
		<path fill="#D1D0C9" d="M586.8,50.6l4.1-12.2l3.7,1.3l-4.1,12.1c-1.3,3.9,0,6.7,3.3,7.9c3.3,1.1,6-0.2,7.3-4.1l4.1-12.2l3.7,1.3
			l-4.1,12c-2.1,6.3-6.8,8.3-12.3,6.4C587.2,61.1,584.8,56.8,586.8,50.6z"/>
		<path fill="#D1D0C9" d="M627.1,51.7l3.3,1.5l4.4,19.1l6.5-14.1l3.5,1.6l-9.3,20.4l-3-1.4L628,59.2l-6.6,14.5l-3.5-1.6L627.1,51.7z
			"/>
		<path fill="#D1D0C9" d="M665.2,75l-6.1-3.6l1.8-3.1l15.7,9.2l-1.8,3.1l-6.1-3.6l-9.5,16.2l-3.4-2L665.2,75z"/>
		<path fill="#D1D0C9" d="M689.1,102.1l0.7-16.2l3.8,2.7l-0.7,11.7l10.9-4.3l3.7,2.6l-15.1,5.7l-5.2,7.2l-3.2-2.3L689.1,102.1z"/>
	</g>
	<g>
		<path fill="#D1D0C9" d="M358.3,726.4l4,1.3l3.1,12.2l9.8-7.9l4,1.3l-7.1,21.3l-3.7-1.2l5.1-15.2l-10,7.8l-0.1,0l-3.3-12.2
			l-5.1,15.2l-3.7-1.2L358.3,726.4z"/>
		<path fill="#D1D0C9" d="M396.5,737.8l3.8,0.9l-5.2,21.8l-3.8-0.9L396.5,737.8z"/>
		<path fill="#D1D0C9" d="M415.1,753.4L415.1,753.4c1-6.4,6.5-10.8,13.2-9.8c4.1,0.6,6.3,2.4,8.1,4.8l-2.9,2.5
			c-1.5-1.9-3.2-3.3-5.8-3.7c-4.2-0.6-7.8,2.4-8.5,6.7l0,0.1c-0.7,4.3,1.9,8.3,6.1,9c2.7,0.4,4.6-0.4,6.8-1.9l2.1,2.9
			c-2.7,2.1-5.4,3.2-9.6,2.6C418.2,765.5,414.1,759.8,415.1,753.4z"/>
		<path fill="#D1D0C9" d="M452.8,746.9l3.9,0.2l-0.5,9.3l10.7,0.5l0.5-9.3l3.9,0.2l-1.1,22.4l-3.9-0.2l0.5-9.4l-10.7-0.5l-0.5,9.4
			l-3.9-0.2L452.8,746.9z"/>
		<path fill="#D1D0C9" d="M489.2,747.7l3.9-0.1l0.7,22.4l-3.9,0.1L489.2,747.7z"/>
		<path fill="#D1D0C9" d="M511.2,757.9L511.2,757.9c-0.7-6.3,3.4-12.1,10.1-12.9c3.9-0.4,6.4,0.4,8.9,2l-2.1,3.2
			c-1.9-1.3-3.7-2-6.5-1.7c-4.1,0.5-6.8,4.4-6.3,8.7l0,0.1c0.5,4.6,3.9,7.6,8.5,7.1c2.1-0.2,3.9-1.1,5.2-2.3l-0.5-4.2l-5.7,0.7
			l-0.4-3.4l9.5-1.1l1.1,9.3c-2,2.1-4.9,4.1-8.9,4.5C517.1,768.8,512,764.4,511.2,757.9z"/>
		<path fill="#D1D0C9" d="M555,739.6l3.6-0.8l14.5,19.9l-4.1,0.9l-3.4-4.8l-10.3,2.3l-1.1,5.8l-3.9,0.9L555,739.6z M563.5,751.7
			l-5.7-7.9l-1.8,9.6L563.5,751.7z"/>
		<path fill="#D1D0C9" d="M583.1,732.6l3.5-1.2l16.3,10.8l-4.9-14.7l3.7-1.2l7.1,21.2l-3.1,1.1l-16.8-11.2l5.1,15.1l-3.7,1.2
			L583.1,732.6z"/>
	</g>
</g>
<g id="Layer_2" display="none">
	<polygon display="inline" fill="none" stroke="#6F6F63" stroke-width="16" stroke-miterlimit="10" points="815.9,574.9 480,392.7 
		480,-57 928,-57 928,574.9 	"/>
	<polygon display="inline" fill="none" stroke="#6F6F63" stroke-width="16" stroke-miterlimit="10" points="144.1,574.9 480,392.7 
		480,-57 32,-57 32,574.9 	"/>
	<polygon display="inline" fill="none" stroke="#6F6F63" stroke-width="16" stroke-miterlimit="10" points="144.1,574.9 480,392.7 
		815.9,574.9 815.9,905 144.1,905 	"/>
</g>
</svg>
